P2
# 8-bit pgm gray
92 112
255
220 220 220 220 220 220 221 221 221 221 221 221 221 221 220 221 216 196 189 201 208 210 211 216
214 219 224 211 184 196 194 192 193 197 191 187 190 187 188 189 184 182 190 180 175 168 169 139
 81  88 114  95  99  85  71 149 122 184 162 170 147 102 169 225 205 179 193 209 205 222 224 136
201 222 218 219 221 221 221 221 222 221 221 221 221 221 222 222 222 222 221 221
220 220 220 220 220 220 221 221 221 221 221 221 221 221 221 223 219 199 191 201 207 207 207 216
216 218 224 215 185 198 196 193 194 194 191 190 195 185 170 173 143 145 140 115 111 143 127  57
 45 146 179 143  79  55  54  77  67 116 153 149  76  81 142 212 191 200 213 213 211 220 225 132
200 223 219 218 218 219 219 219 219 220 221 221 221 221 222 222 222 222 221 221
220 220 220 220 220 220 221 221 221 221 221 221 221 221 222 225 220 201 192 198 204 204 204 215
219 218 221 213 182 198 196 191 191 183 181 185 186 183 130  94  84  79  68  71  75  94  77  29
 22  36  77  73  37  49  57  49  46  69 127  83  90  78  89 145 205 195 198 215 212 211 213 134
199 220 218 218 217 221 222 222 222 221 221 221 221 221 222 222 222 222 221 221
220 220 220 220 220 220 221 221 221 221 221 221 221 220 222 224 219 200 191 191 199 204 206 210
216 218 209 199 175 192 191 184 188 178 175 167 142 122  83  43  60  67  72  64  51  46  44  67
 66  59  57  61  75  52  47  62  67  64  58  35  56  62  64  55 106  90 126 145 162 171 178 142
198 220 225 226 218 221 221 222 222 221 221 221 221 221 222 222 222 222 221 221
220 220 220 220 220 221 221 221 221 221 218 219 220 222 222 223 221 200 185 189 200 197 209 210
214 208 201 188 177 192 190 185 151 118  98  85  66  56  43  41  50  58  50  68  96  83  46  41
 71  70  51  68  71  32  12  53  73  54  13  51  62  47  55  62  39  69  91  79  74 177 211 142
181 165 155 177 211 215 221 221 216 220 222 222 222 222 222 222 222 223 222 221
221 221 221 221 221 221 221 221 221 220 217 219 221 224 221 217 218 200 189 200 200 200 192 184
199 201 207 200 167 181 182 118  59  65  77  72  70  78  68  58  58  53  49  64  86  77  67  45
 48  78  59  45  31   9  23  40  39  63  86  61  54 101  89  81  70  55  91  97  92 149 211 154
147  93  83  96 138 216 217 220 218 222 223 223 223 223 223 223 223 223 223 222
221 221 221 221 221 221 221 221 221 221 221 221 223 223 227 223 213 195 187 190 204 203 173 188
204 206 183 134 109 126  94  45  82  69  47  46  62  72  63  51  54  50  43  31  39  45  43  40
 44  62  58  40  19  26  39  33  66 130 125  88  57  66  53  57  57  46  85  71  82 123 160  93
 73  64  91 106  98 164 218 219 224 220 223 223 223 223 223 223 223 223 222 222
221 221 221 221 221 221 221 221 221 221 221 221 222 222 222 217 212 198 192 188 182 190 192 180
199 150  67  87  95  96  75  71  70  41  55  72  61  55  33  18  35  37  35  38  31  37  40  33
 32  54  60  30  40  74  44  41  60  73 116 110  32   0  35  36  50  64  49  69  78  76  39   0
  5  56   0   0 105  63 175 214 206 222 223 223 223 223 223 223 223 223 223 222
221 221 221 221 221 221 221 221 221 221 220 220 219 218 215 210 211 195 186 188 190 165 155 151
143  47  56  65  48  56  56  41  56  27  72  62  57  67  51  28  19  32  21  25  21  14  30  34
 32  41  38  36  42  54  39  34  25  43  72  55  38  38  30  64  67  51  60  79  71  53  47  42
 59 100 153  98   0  55 132 172 213 215 224 222 222 223 223 223 223 223 222 222
221 222 222 222 222 221 221 220 219 219 213 212 218 216 208 211 222 195 192 197 179 130  96  95
 62  56  66  51  21   0  44  24  52  69  63  41  76  77  71  62  18  19  41  35  28  38  33  31
 41  24  14  22  22   7   4  21  33  41  38  51  69  71  47  86  70   9  93 117  74  59  63  58
124 126 147 163  74  19  83 171 208 215 225 223 221 225 222 222 222 222 222 222
221 222 222 222 222 221 221 220 219 219 217 218 224 220 211 212 218 210 195 181 125  94  73  55
 74  72  79 101 104 115  76  45  53  69  60  54  65  52  54  50  33  59  81  74  57  50  43  47
 32   2  15  16  34  46  57  34  17  29  36  18  35  43  46  74  60  53  90  90  45  49  60  53
138 172 110  65  73  39  48 109 190 226 221 227 223 221 222 222 222 222 222 222
221 222 222 222 222 221 221 220 219 219 221 221 225 215 211 211 206 185 177 148 101  52  84  83
 96  81  62  68  78  97  66  52  54  48  57  53  51  32  28  48  41  32  37  38  43  51  34  52
 53  19  19   5  28  59  41  14  43  43  36   4  60  55  29  39  45  38  93  99  28  30  50  62
 71  73  50  33  53  32  75  87 103 209 224 220 219 223 223 222 222 222 222 222
221 222 222 222 222 221 221 220 220 218 210 215 221 214 206 180 125 118 116  92  85  97  78  65
 64  66  96 118  94  66  36  33  16  51  61  43  21  31  25  29  30  16  19  39  78 118 100  63
 52  32  29  35  22  32   4  36  55  27  27  16  59  68  31  36  37  57  70  68  71  64  72  56
 68  50  19  68  72  36  74 128  71 193 227 220 218 222 222 222 222 222 222 222
221 222 223 223 222 221 218 220 217 220 221 215 218 192 177 188 177 185 139  63  79  84  67  66
 41  64 121 110  99  82  36  35  30  52  50  37  39  59  68  36  38  34  43  59  65  79  76  59
 51  29  29  75  72   5  11  60  41  19  43  24  18  41  48  47  35  54  44  62  69  56  59  41
 54  52  48  71  65  25  89 118 152 212 210 222 224 218 223 222 222 223 222 222
222 221 223 223 222 219 216 219 213 217 226 224 207 161 214 173 140 161  83  57  75  73  56  60
 47  36  67  82  68  66  38  24  22  34  44  45  45  41  81  62  58  44  46  36  43  51  24  25
 37  30  31  75  87  12  49  81  70  27  43  38  37   0  66  71  44  45  44  47  34  26  52  55
 39  43  47  19  50  63  68  98 161 195 193 197 221 224 223 223 223 223 223 222
222 220 222 223 221 220 222 222 215 217 216 220 186 205 200 145 112  60  64  68  75  68  31  10
  5  12  26  58  53  49  55  33   6  39  43  38  35  89  72  84  48  40  38  42  43  16  39  48
 32  22  45  48  40  26  17  43  58  37  19  25  33  34  58  60  67  42  35  35  17  31  68  73
 40  45  41   0  76  87  36 112 153 198 194 188 215 221 222 223 223 223 222 222
222 219 221 221 219 220 225 218 217 219 217 214 181 184 165 141 180 108  84  91  67  54  36  24
 11  24  47  40  31  49  44  32  12  27  37  35  39  93  77  47  39  34  37  32   8  84 104  54
 28  40  59  47  32  22  21  14   5   0  45  81  71  47  16  26  37  40  31  20  22  28  27  69
 63  56  37   7  61  52  62 135 155 195 204 182 207 221 224 222 222 223 223 222
222 219 220 221 219 218 219 208 214 222 210 218 208 183 140 120 136 109  89  78  58  56  35  18
  0  48  45  26  34  41  39  34  27  20  31  33  30  71  90  74  52  44  40  27  54  75  83  78
 40  59  91  68  39  42  26  20  15  69  91  92  66  15   0   9  25  35  34  20  14  25  23  59
 54  45  31  28  41  36  51 101 150 163 162 141 200 226 220 223 225 222 221 222
223 221 217 225 221 220 217 212 210 216 211 214 202 219 148  49  71  53  60  46  67  59  34  26
  2  74  50  64  65  88  74  25  44  50  26  49  62  89 108  86  65  43  39  41  64  89 103  88
 51  79 120 107  72  49  35  48  51  67  39  21   2  36  60   4  23  37  32  28  11   7  45  37
 64  44  31  35  25  30  19  53 128 171  96   0 159 229 227 226 222 226 221 223
223 222 218 222 218 214 219 219 214 219 216 211 199 183 160  89  71  66  47  49  67  74  44  25
  0  84  82 130 134  93  70  41  36  37  20  39  65  96 103  62  70  67  31  49  63 107  96  75
 57  78 136 158 121  52  31  42  44  12  25  21  13  41  53  25  73  48  27  19  21  22  14  65
 88  43  30  33  46  25  31  29  74  98  54  82  76 126 158 221 228 217 224 223
223 222 221 219 215 207 215 210 203 213 206 204 173   0  54 107  84  59  53  47  48  95  73  26
 29  79 100 121 100  54  45  46  51  41  37  38  32  76 104  64  51  76  71  60  50  71  79  99
106 107 140 164 156 104  63  43  29  30  18  17  14   0  18  67  77  24  14  17  20  48  80 109
 72  49  39  43  74  37  29  36   0   0  31  60  87  41  96 172 224 223 224 223
223 224 224 216 210 214 226 193 180 205 196 195 133 103  90  75  85  46  53  45  43  74  87  75
 58  55  51  70  50  42  20  32  36  36  31  24  22  21  56  61  42  50  62  57  49  49  57  67
 83 117 153 156 170 151 101  22  23  21  28  27  14   8  39  80  43  36  22  33  42  55  59  48
 31  38  66  46  91  75  14  49  53 107 108  45  54  75  73 131 222 224 223 223
223 222 222 220 210 211 224 206 182 201 187 205 132  25  79  68  53  45  40  44  48  94  75  63
 38  24  34  57  51  63  78  44  39  35   1  13  22  44  62  58  45  29   0  51  54  46  63  75
 55  62 146 162 171 175 110   0  26  13  43  50  36  20  36  40  36  44  31  24  27  26   5  30
 24  59  73  34  69  75  21  15  47  80 104  96  68 128  51  72 210 223 223 223
223 222 219 221 208 205 214 203 200 177 202 203 131   0  40  54  36  40  45  24  72 140  90   2
 30  28  42  56  56  71 106 112  95  96 101  64  28  52  75  99  65  12  40  47  35  26  58  87
 74  44  64 156 176 167  93   0  24   2  54  70  46  35  45  33  28  23  22   7  20  34  24  18
 17  56  43  30  50  37  24  35  23  43  62  77  65 107  68  91 211 228 219 223
223 223 219 218 207 202 213 194 202 191 177 178  96  69  63  49  36  42  25  50 120 154  90   0
 37  34  43  57  54  54  50  93 130 106 107 100  62  94 125 103  17  30  50  40   3  26   9  33
 50  26  17  86 165 174  78  51  42   0  39  57  55  48  33  26  36  34  44  29  15  33  26  21
 21  24  39  37  52  30  24  48  45  35  54  72  68  57  93 123 200 220 223 222
223 223 218 219 213 207 204 203 205 203 191 160  96  61  86  68  41  43   0  88 142 160  98   0
 38  25  38  48  56  51  80 105  80  61  61  63  55  45  60  12  14   1  86 126  97  82  87 102
137 135  72   0  92 174 111  51  67   0  22  45  41  51  39  20  44  70  62  57  30  29  25  24
 17  20  35  44  37  19   0   3  26  29  37  70  64  58  95 114 205 214 220 219
223 223 218 221 219 216 207 193 196 200 197 155  71  82  93  66  46  33  44 113 149 157 137  52
 31  17  48  56  49  57  75  80  60  44  38  33  36  14  23  34  29   0 110 136 122 114  78  74
 83 107  88  47  54 126 111  56  63  31  29  52  98  88  26  29  36  65  86  83  39  31  27  28
 31  33  43  38  32  20  20  29  31  39  51  47  56  61  56 134 212 227 214 217
222 223 221 219 221 217 205 209 204 196  98   2  56  99 101  55  37  41  73 134 153 156 132 101
 60  25  61  52  30 109 136 113  48  23  47  41  31  37  37  24  10  20 111 137 112  91  17  55
102  92  41  63  22  94 134  54   0  27  33  79 111  76  67  39  36  37  80  95  46  38  23  21
 27  33  38  31  32  50  40  41  42  51  84  53  58  50  73 168 192 218 217 215
222 222 222 220 215 210 202 209 223 157  13  40  50  58  73  41  44  61 103 142 158 149 122 116
 97  63  58  37  27  79  88  53  35  34  37  42  43  60  55  52  75  70  74 133 123   0 107 131
138 134  37  45  47  59  86  47  21  35  59  58  60  75  53  19   5  20  49  84  53  37  39  71
 48  43  36  45  54  53  50  42  54  61  68  61  53  36 117 191 198 207 216 214
223 221 222 220 214 211 219 188 131  67  74  47  46  57  44  38  56  75 127 148 163 153 135 121
108  98  81  52  33   0   6   0  23  39  46  43  43  68  70  85  98  89  50 106  89  31 141 166
151  82   0  86  81  29  85  70  33  37  47  68  55  25  22  15  51  77  47  44  22  33  70  84
 89  51  39  38  36  40  30  20   0  11  36  50  52  39  86 168 203 209 213 214
224 223 221 219 223 201 160 130   0  59  86  90  59  54  30  55  66 116 146 151 165 157 145 118
104 115 103  58  65  19  45  62  44  39  47  35  55 102 113  91  90  92  78  54  52  87 115 129
 74   0  90 147  91  47 158  98  12  42  44  55  59  45  38  21  39  92  50   6  24  31  70  99
 92  55  37  43  32  21  15  15  45  44  56  60  52  83  63 102 151 204 213 215
224 223 219 215 217 196  98  64  84  85  79  77  67  35  53  69  98 142 146 153 161 156 137 116
110 119 109  66  56  34  35  59  50  37  29  40 100 159 154 128 108  96  96  74  48  57  61  11
 36  66 119 130  60  76 162  87  26  53  44  69  98  60  38  64  39  64  47   0   0  55  60   8
 10  43  33  39  37  32  31  46  93  93  69  63  26  98 157 108 133 152 210 219
224 223 215 212 218 224 196 146 120  83  86  50  66  66  60  71 115 142 149 157 160 156 133 118
114 118 118 100  82  66  48  31  38  44  50  91 152 175 172 166 145 107 108 113  75  34  72  75
 78  87  93  79  28  93 168 118   3  49  68  98  98  55  51  87  74  23  46  42  33  43  46  54
 63  52  44  22  48  72  60  63  77  73  15  68  54 120 145 138 143 179 167 220
224 222 219 218 221 220 208 202 172 101  70  53  50  77  59  78 130 141 150 162 163 157 137 116
111 116 116 104  99  90  89  79  72  71  83 111 144 153 162 170 163 122 131 151 123  47  75 101
106 112  89  59  30 100 123  39  71  83  89  84  65  55  58  74  76  53  29  56  60  45  33  44
 68  36  33  30  37  56  51  48  23  10  20  43  70  57 101 143 104 189 189 197
223 218 221 224 219 218 218 203 199 119  59  61  43  49  64  92 136 143 154 163 163 159 143 121
118 121 117 106 107 112 112 100  94  90 114 127 122 121 127 140 143 130 152 176 176 121   0  44
 70  67  32  57  75 126  98   0  63  49  67 106  99  63  56  72  67  53  23  60  59  30  37  64
 65  36  25  16  36  36  20   3  17  22  59  53  39  51  69  80  62 134 200 184
223 216 219 218 224 224 207 201 146  62  65  64  47  42  58 101 134 145 157 161 163 161 149 126
118 117 119 118 119 135 125 104 103 108 133 153 163 161 152 154 154 159 169 174 178 180 134  50
 25  16  39  81 131 159 115  55  38  70  90  93  93  60  75  87  90  75  38  55  55  45  90  99
 72  53  14  42  58  48  72  67  18  49  48  45  43  56  66  64  51  49 182 186
224 224 218 222 223 217 207 167  63  37  51  60  51  48  55 102 133 143 157 161 167 166 157 131
121 125 122 131 140 132 114 112 114 114 125 153 174 184 181 182 182 170 159 163 169 179 182 164
127  90  87 129 173 175 131 103 100 122 144 138  99  65  93 100 103  93  51  51  47  54  76  89
 78  47  39  54  41  31  57  79  48  45  43  33  48  62  63  47  87  28 130 197
223 226 219 219 221 212 196 114  52  31  44  50  51  46  44 112 131 144 156 165 169 170 163 141
125 125 133 150 149 127 119 118 123 126 123 136 161 181 189 190 185 163 154 166 169 164 166 160
130 113 120 156 178 172 128  85 119 159 179 178 119  87  97 109 112  93  75  65  46  34  44  66
 63  44  60  51  44  49  62  54  55  59  45  37  40  71  44  54  66  69  47 186
223 223 229 215 207 219 165  56  29  31  21  44  54  46  44 117 128 144 155 164 169 171 168 147
129 134 152 169 152 124 124 125 135 140 132 133 150 173 190 191 185 165 161 178 168 147 136 121
123 129 130 152 164 160 127  81 111 157 159 141 118 112 110 139 149 111  84  67  43  41  58  58
 74  71  55  49  41  41  59  64  59  48  30  40  41  72  60  48  44  64   0 177
224 225 204 156 161 150  83  50  55  47  54  54  40  35  56 112 124 143 155 167 170 174 173 160
147 157 169 171 147 127 126 130 143 142 141 139 140 168 188 188 186 175 157 161 151 129 131 131
129 131 135 141 150 153 124 103 104 118 119 121 132 129 124 134 150 128  77  47  45  49  67  60
 79  69  56  61  39  31  53  45  32  39  31  36  34  52  78  63  61  59  89 191
223 232 189 171 181  39  65  76 117 102  72  59  45  39  58 110 126 147 161 171 175 180 178 170
167 171 177 168 141 127 129 130 135 136 137 136 139 167 185 187 187 180 167 154 139 130 136 136
137 146 153 155 156 159 132 120 123 132 140 150 149 128 115 116 151 147  88  44  36  52  75  83
 75  60  79  76  42  40  35  45  32  24  33  24  39  24  45  73  85  67 117 201
226 223 223 178 108  46  71  60  99  91  75  78  64  42  59 113 128 150 167 178 178 182 181 178
177 175 177 162 135 124 129 131 129 132 133 132 138 162 178 181 182 180 178 168 156 149 145 145
152 160 165 166 161 160 136 127 132 147 152 151 146 126 113 123 155 160 114  45  41  54  76  81
 84  73  75  75  52  32  53  80  37  29  30  31  37  34  43  50  65  82  93 118
227 220 224 193 118  83  55 109  84  96  85  61  47  44  63 116 134 158 173 173 168 170 171 169
167 163 163 149 128 121 121 122 124 127 130 131 137 157 171 174 177 173 173 173 170 167 166 164
163 164 165 161 158 154 136 129 131 144 149 144 137 125 120 124 153 169 135  94  69  53  92  91
 81  77  68  77  60  48  42  38  48  30  31  37  45  39  49  51  69  96  71 145
226 223 217 212 120 102  76  95  81  90  65  64  43  34  65 121 139 155 160 152 150 150 146 138
134 130 129 115  98  96  94  93 103 112 120 127 134 150 162 165 170 168 170 173 174 171 166 167
167 167 163 152 152 144 129 123 122 132 133 131 125 123 127 133 141 157 151 106  82  48  86  99
 82  71  66  73  67  49  36  46  37  23  33  32  42  38  60  62  81 101  84 149
226 226 218 220 132  61  97  85  89  73  67  40  26  27  69 128 142 140 131 126 125 122 115 104
 97  89  83  69  57  62  65  69  84  95 107 118 127 140 151 155 160 163 167 169 169 167 167 165
160 156 152 141 138 130 116 102  97  99  97  98  97 102 111 120 127 130 122 102  96  61  53  65
 83  87  69  47  46  37  27  58  32  24  49  44  40  50  59  63  84  91  87 118
223 223 215 220 115  57 110 110  68  48  41  26  27  24  69 132 138 120 105  97  90  87  87  80
 75  72  68  65  59  61  63  64  69  80  95 108 114 125 139 148 152 155 162 164 166 161 160 155
147 142 134 126 118 111  99  85  78  68  63  64  72  81  91  99 109 110  89  87  95  98  86  89
106 103  90  64  69  38  17  24  25  42  62  62  34  50  49  61  69  97  81  92
225 217 224 220 113  79 111  94  70  59  38  36  27   0  79 136 122  98  98 101  97  98  97  99
101  97  94  90  81  80  77  76  75  78  85  96 105 115 128 139 147 151 159 162 163 156 150 147
136 124 118 113 108  97  86  79  73  67  64  61  62  65  76  87  94  96  85  83  85  91 100 100
 98 107  87  74  67   6  20  29  49  47  54  62  62  52  31  65  82  98 104  91
224 221 224 222 154  94 105  90  70  49  41  38  30   0  90 139 120 107 116 121 121 124 123 123
123 121 118 117 118 115 111 108 105 101  99 100 102 107 118 129 140 148 159 164 163 154 148 141
128 116 112 108 105  98  90  88  84  82  83  80  76  70  73  81  87  88  83  84  83  78  86  88
 83 100  90  74  40  37  22  18  64  69  57  47  51  39  27  53  79  89  84  96
224 222 217 226 186  75 106 112  82  42  43  30  27   0  95 135 117 121 125 123 126 132 130 124
123 123 122 122 123 121 117 114 112 111 111 109 106 108 117 125 134 148 163 168 166 156 148 135
122 118 116 108 104 107 108 108 108 111 115 115 116 114 114 118 118 114 111 110 104  94  87  83
 79  89  90  74  40  35  28  31  26  50  50  39  29  34  34  44  57  76  74  65
223 223 223 227 213  99  68 100  96  49  42  25  31   0 100 133 128 132 130 130 127 126 125 124
125 124 120 111 111 109 105 102 104 107 110 108 104 105 115 124 134 153 167 173 173 165 154 133
124 117 112 113 111 113 117 115 114 114 117 119 124 125 125 125 123 123 124 126 124 118 107  97
 94  92  99  82  42  26  32  34  36  53  55  33  29  24  20  44  68  84  86  74
222 226 224 218 218 147  68  97  74  60  49  30  20   1 102 130 131 135 133 131 126 122 123 121
106 101  95  98  92  85  88  84  84  88  96 100 102 103 108 117 138 163 177 184 185 177 163 139
124 113 107 106 108 113 113 105 102  98  97 101 109 115 118 123 124 126 130 122 121 126 125 115
107  98 104  97  72  54  40  32  42  37  25  27  21  20  21  43  56  67 110 105
224 225 226 221 221 119  89  86  73  62  45  42  21   1 108 134 130 134 131 124 123 119  98  90
110 124 133 122 104  94  95  91  88  84  83  93 103 102 100 105 144 173 185 193 195 186 174 148
117 104 103 105 110 106  94  85  88  88  86 101 122 136 133 124 104 103 117 125 124 125 124 119
114 108 110 106  90  80  57  36  44  30  28  25  22  25  26  40  54  62  83  93
224 222 222 227 198 132 114  62  70  75  49  48  34   7 118 139 130 131 126 122 120  86  87 110
116 115 108  89  79  80  81  89  95  90  86  86  93  99  95  99 147 177 189 198 201 193 183 154
107  92  94 107 107  93  90  90  95  97  95 109 129 141 141 139 126  91  82 107 124 124 122 122
121 118 116 107  91  85  57  32  29  28  29  25  30  42  38  66 104  97  91  62
221 223 218 224 163 181 122  71  83  67  54  47  37  20 126 145 130 127 125 121 106  98  99  82
 63  88  40  34  36  32  41  54  89  95  97  95  85  91  93  96 149 181 192 201 205 196 187 157
103  85  89  96  92  98 102  94  87  70  56  50  56  64  73  88 104 111  95  80 101 117 126 124
119 119 120 111  95  89  60  36  27  29  28  35  32  46  54  59 116 146  91  74
224 220 221 212 169 204 119  75  83  56  50  45  29  48 138 149 133 128 127 118 106  87  66  58
100 104  53  47  43  76  34  47 100 103  88  94  94  89  92  97 154 183 194 202 205 196 188 159
 99  85  83  95 104  98  89  94  98  46  37  43  17  32  35  69  73  72  84  89  89 107 118 119
119 117 125 115  98  95  67  37  33  32  32  38  39  45  56  50  92 104  88  37
223 226 230 199 175 200 109 110  67  71  70  32  29  67 144 152 141 131 122 112 103  78  71  65
103 116  55  53  50  88  57  56  92 101  86  63  86 108  94 109 159 183 196 205 208 197 185 158
102  84  91 108  90  60  88  89 106  58  54  63  62  52  44  91 105  72  51  69  92 105 112 119
124 122 133 121 100  97  74  39  36  39  35  39  33  35  52  66  75  78  59  90
224 225 224 198 181 155 101 146  75  48  43  40   0  80 151 163 153 133 114 107  94  93  88  73
 74 108  92  49  52  63  50  49  84  80  86  84  95 110 102 125 164 185 197 205 209 198 173 153
133 102  94 115  95  88  86  80  78  53  32  62  70  43  71 117  98  65  61  69  83 101 111 115
124 133 138 126 106 102  84  42  43  44  33  35  34  51  54  55  81  71   0 142
225 220 222 210 148  65 102 136 103  50  51  35   0  93 154 170 167 145 120 110 109 102  94  96
 85  91 104  82  70  66  76  84 106 107 110 121 120 111 125 142 157 186 196 205 208 197 169 150
147 134 111 108 118 118 110 108 120 113  95  72  58  54  94 100  82  77  80  82  86  97 105 115
133 140 138 127 113 106  90  44  49  45  19  42  38  46  66  62  62  50 115 116
229 228 214 171  83  79 146 144  64  57  50  31   0 100 163 168 176 167 149 137 137 131 121 113
107 112 112 118 115 113 112 115 117 113 110 112 112 122 140 144 156 185 196 203 205 192 166 150
156 156 143 122 123 121 111 113 122 131 136 131 121 113 113 105 107 106  99 104 113 112 111 121
139 150 147 135 120 109  96  48  51  43  31  49  54  57  62  77  87  91  86 100
210 159 119  99  42  87 110  62  66  52  61  44   0 103 158 168 182 183 174 170 164 157 144 136
131 128 130 127 123 122 122 124 119 119 124 120 118 140 151 148 159 185 196 203 203 187 163 155
165 161 156 146 139 140 136 132 119 116 125 125 127 133 129 124 128 126 125 128 130 133 136 140
148 155 153 140 123 114 100  47  54  36  43  23  37  51  56  50  63  90 111  73
  0  51  72  14  99 142  86  74  83  86  53  57  10 102 156 170 184 186 185 183 175 167 155 149
145 141 137 133 135 132 131 131 134 134 133 135 140 157 159 153 158 185 198 204 201 182 162 161
169 165 160 163 159 154 156 157 154 145 132 129 129 133 135 133 136 135 133 136 142 152 159 159
159 161 159 145 126 116  98  42  45  30  45  42  31  62  55  39  45  71  80  68
126 172  54 167 169 109  46  80  62  49  54  58  28  99 155 170 183 183 188 187 180 177 172 168
165 165 162 157 162 157 152 150 154 151 146 152 160 162 159 156 161 185 200 205 198 178 165 161
165 167 162 167 169 165 162 164 167 169 169 162 155 153 151 150 154 153 150 153 163 175 179 177
172 166 165 149 131 117  97  42  28  24  24  76  74  30  38  48  37  66  83  59
167 164 134 191 152  26  55  75 130 124  69  56  15  99 150 167 179 185 193 188 185 184 183 181
181 184 183 179 175 171 166 164 161 160 163 166 166 162 160 160 167 186 199 205 196 177 168 161
162 165 166 168 175 175 170 168 170 173 176 178 180 180 175 170 173 173 171 174 178 184 184 182
177 170 168 154 133 120  99  47  17  27  59  78 117  60  30  55  57  67  82  77
134 137  86 153 118  24  62  81 156 145  62  62  22  88 145 164 173 182 188 190 189 186 184 184
187 188 187 184 177 175 172 170 166 168 172 172 166 161 163 159 170 186 197 205 195 178 169 163
163 163 165 168 173 179 181 177 173 172 174 177 180 181 177 177 181 181 182 183 185 186 185 183
180 173 169 160 135 121  90  62  25   1  56  78  94  22  31  51  62  66  73  89
141 151  87 141 124  93 101  33 103 101  49  67  38  75 140 162 174 181 184 190 190 189 188 187
188 190 189 186 182 180 177 175 176 177 176 170 163 162 161 160 169 186 200 206 193 179 170 163
162 162 163 167 173 179 182 186 185 179 170 175 180 181 182 183 185 186 187 187 188 189 187 184
180 174 168 159 137 115  95  58  16  53  42  32  31  22  46  57  62  54  69  73
169 125 159  21 122  96 153 128  71  72  57  53  45  65 136 159 168 177 182 185 186 187 188 188
189 191 190 188 187 186 185 184 184 184 179 169 161 161 160 165 174 187 204 207 191 180 172 164
162 161 162 166 173 180 183 186 191 190 183 182 182 183 185 187 187 187 188 189 188 187 185 180
177 175 163 156 136 115  81  22  27  68  70  10  42  71  55  48  55  54  72  72
163 113 150 137  73  69 128 158  80  60  56  50  42  86 130 150 154 165 177 178 180 183 186 187
189 190 188 188 191 191 190 190 188 185 179 168 161 160 159 171 183 188 206 208 190 181 173 164
161 160 161 166 173 181 185 188 192 194 193 189 186 183 185 186 185 186 187 188 185 183 180 175
171 174 158 152 135 108  58  69  61  43  60  23  47  67  64  65  35  55  77  72
154  91 135 142 117 106  66  79  64  64  54  51  47  79 120 144 153 161 170 175 177 176 178 182
186 189 192 192 192 193 193 192 190 186 181 166 158 156 164 175 186 194 210 207 193 182 174 166
162 158 156 160 173 180 187 190 193 195 194 192 190 188 187 185 180 181 180 180 178 178 177 175
171 165 157 154 132 104  56  82  70  35  33  33  69  64  66  90  64  54  64  54
194  97  91 202 168 125  79  83 106  44  63  58  49  27 106 141 147 163 165 168 171 171 172 180
185 189 193 193 192 194 194 193 192 186 180 162 153 157 168 177 186 199 214 208 193 182 177 168
164 160 152 153 170 180 188 191 194 196 196 193 192 190 188 186 181 179 175 173 173 174 173 170
167 160 154 149 125  99  67  63  74  65  41  29  39  55  64  73  74  68  79  78
222 167  74 208 196 101  81  78  91  47  81  62  54  41  69 128 145 155 161 164 168 170 174 180
185 189 193 193 193 195 195 193 192 187 179 160 152 162 171 179 187 205 220 210 196 186 179 171
167 163 153 148 167 181 188 192 195 197 197 194 193 191 189 187 183 179 173 169 169 169 167 163
161 158 149 142 117  93 102  90   0 114  89   0  46  51  70  50  69  80  86  96
216 172  72 187 186  99 119  99  60  76  50  53  64  52  26 116 142 149 157 162 168 171 177 182
185 190 193 193 194 196 196 195 192 186 180 162 156 166 174 181 189 204 218 209 196 189 182 174
169 165 157 148 167 181 186 191 194 196 196 195 194 192 190 188 184 180 175 171 168 167 164 159
157 153 142 134 107  84 104 108  44  84  63  27  44  60  54  45  55  63  64  93
217 137  84 152 180  97 138 113  89  81  43  41  72  57  82 105 135 143 153 159 165 171 176 181
185 188 191 192 194 195 195 194 191 186 181 165 160 166 175 182 190 200 207 201 194 189 183 175
171 168 162 151 164 180 186 191 193 194 194 195 194 192 191 188 184 181 177 174 169 167 162 157
153 146 138 125  96  53  60 100  83   0  36  34  51  51  90  67  46   0 108  93
190  34 158 157 134 119  84  61  59  52  99 121  92  96 134 156 124 141 146 156 164 172 175 180
184 186 188 190 193 193 193 193 192 187 179 164 161 164 175 181 192 197 193 193 193 187 180 174
169 161 162 155 160 180 190 191 191 192 193 194 193 191 190 188 185 181 176 172 170 165 160 155
151 144 139 118  85  51  56  50  45  21  37  35  45  41  75  62  82  59 142 173
134  94 204 197 131 122  62  42  50  42  91  96  75 111 146 110 113 140 145 153 161 170 174 179
182 185 188 190 192 192 192 193 192 188 180 162 156 154 159 168 180 187 187 189 186 183 178 161
155 154 160 157 164 181 188 188 189 190 190 192 191 189 187 186 184 180 175 172 167 163 158 152
150 145 133 108  73  56  72  29  11  52  57  32  48  49  43  45  41  76 132 135
 95 182 189 129 119 129  51  72  80  41 124 153 135 102  87   0 111 134 144 149 157 167 173 177
180 184 188 191 191 191 191 191 192 189 180 159 151 145 141 150 162 172 176 180 178 169 155 144
142 141 151 154 167 182 186 187 188 189 190 191 190 188 186 185 183 180 174 171 166 162 157 151
150 145 128 101  66  60  57  52  46  26  68  37  43  63  49  70  44  52  80  51
180 219 193 172 144 121  55  97  85  93 146 170 180 109 104 143  98 139 137 146 155 166 172 175
178 183 188 191 191 191 191 191 192 190 181 157 148 140 128 136 146 150 154 160 158 149 135 118
121 139 146 148 166 183 187 188 189 190 191 192 191 189 188 186 183 179 174 171 167 164 158 153
149 139 121  92  60  41  38  35  27  31  49  39  30  39  56 116  51  38  36  64
227 214 216 216 163  68  72  74  62 114 132 126 107  87 188 141  96 145 134 148 152 159 170 176
178 183 187 190 192 190 185 186 191 187 183 161 140 134 123 117 133 145 143 143 142 139 121 105
118 131 137 147 180 183 190 190 190 190 190 190 189 188 187 186 184 180 176 173 168 162 158 154
149 138 112 100  71  27  31  27  67  99  64  39  24  30  49  49  54  41 117 144
216 214 211 215 138  79  71  75  60 101 145  89  38 147 125  96 179 150 132 147 152 159 170 177
179 184 188 191 191 189 184 186 188 187 186 159 129 128 126 121 129 141 140 138 136 136 127 117
120 112 104 139 190 190 190 190 190 190 190 189 189 188 187 186 184 181 177 174 170 164 160 155
151 133 109  89  39  30  45  50  55  92  41  16  49  21  17  50  46  39 154 189
220 219 211 203 148  80  33  82  77  57 107 121  53  67  98 123 125 116 127 142 151 159 168 176
180 184 189 190 189 190 186 187 186 186 186 155 118 109 108 113 129 138 137 135 133 133 122 104
 99  97  98 139 185 189 190 190 190 190 190 189 189 188 187 186 184 181 177 174 171 166 162 156
143 121 109  54   0  15  15  24  63  42   0  93  93  50  52  26  39  60  71 152
200 219 211 181 188  74  67  64  73  45  82 125 140 132 122 100 114 156 126 134 148 158 164 173
177 181 187 188 186 191 188 187 186 185 185 155 123 120 114 119 130 141 140 139 137 137 130 116
112 116 119 153 181 184 191 190 190 190 190 189 189 188 187 187 184 180 177 174 169 166 162 154
142 121 106  38   0  18  14  25  69  34   0 129 105   0  62  47  35  79 106 116
156 161 167 208 195  89  91 106  52  57  26  84 161 183 175 134 123 133  97 134 142 152 162 170
175 179 183 185 186 190 189 186 186 185 182 154 126 124 124 133 138 144 147 143 141 142 134 128
123 122 136 165 184 186 189 189 189 189 189 189 189 187 186 185 184 181 178 174 170 166 162 150
132 119 102  39  43   1  27  26   0  26   6   8   7  66  74  59  66  68 110 146
211 185 139 150 220 173  62 104  88  60  37  84 107 146 135 161 126  41  99 123 135 145 157 166
173 178 180 183 186 187 188 185 186 186 181 159 132 130 126 133 140 143 150 144 139 149 142 130
130 142 166 178 184 185 186 188 188 188 188 189 188 185 183 182 182 182 179 175 171 167 159 144
130 119  83  66  81   1  20  19  17  52  84   0  53  94  90  20  53  80  71 131
212 209 210 141 162 218 167 125  79  38  50  64 100  55  80  51  55  65 112 118 133 143 154 161
170 175 177 180 183 184 185 184 183 182 182 169 147 132 128 134 142 147 149 144 142 150 148 141
149 168 181 183 181 181 185 187 187 187 187 187 186 185 184 182 180 180 177 173 169 163 155 141
128 118  72  35  28  18  19  41  42  52  87  95  55 106 124  46  44  58  69  86
210 209 208 201 122 174 184 150  74 105  76   0 118 112  54  87 139  72 124 108 133 137 152 159
166 171 173 176 178 177 179 182 179 175 177 173 158 143 134 136 143 148 144 139 143 145 148 160
172 177 178 180 178 179 183 182 182 182 182 182 182 182 182 181 178 178 175 171 166 158 149 136
131 108  11   0   1  15  15  26  28  34  48  98  68  93  93  55  70  39  24   9
215 214 216 210 130 166 165  58 137 209 160  20 107 172 196 137 159  65  32  74 127 137 146 155
163 168 170 173 172 171 173 178 178 174 176 175 165 155 140 138 144 142 133 130 133 137 157 171
181 182 178 183 180 176 177 178 178 178 179 178 178 178 178 178 177 177 174 170 165 155 145 134
125  73   0  12   3   0  30   9  30   1  84  46   0  72 108  84  13  73 179 115
215 209 215 200 129 154 105 128 202 209 174   5  91 157 192 149  94 112  84   0 122 134 141 153
158 165 169 169 168 165 167 173 172 172 175 172 168 163 148 142 143 136 127 117 120 140 168 181
181 183 181 179 177 175 173 171 175 175 173 172 175 178 179 179 178 176 174 167 161 155 145 133
115  37  29  16  18  64  62  64  21  55  64  89 110 153 160 100   0 151 218 155
216 208 210 188 108 107 177 137 183 197 115  83  95  74  90  83   0 160 142   0 100 134 141 148
156 163 167 167 163 160 161 165 167 165 166 168 174 172 158 150 147 143 140 136 142 157 169 174
179 184 183 177 170 167 167 165 164 165 167 168 171 176 177 177 176 173 170 164 153 151 138 134
 81   0  18  19  44  35  65 112  27  74  97  60 189 193 114  44  87 148 182  94
214 216 205 166 107 166 172 160 170 158  72 196 210 174 134  74  62  79  65  20  55 134 139 145
153 161 165 164 158 155 154 154 154 157 160 159 157 152 141 136 132 130 136 145 147 145 140 137
145 150 152 157 163 162 157 150 149 153 160 162 166 171 173 174 173 169 165 158 150 142 138 112
 20  16  33  40  26  15  18  18  46  50  91 117 165 183  70 132 123  84  59  65
218 216 170 116 165 171 132 193 189  49 153 217 212 201 156  39  64 106  58  22   0 114 142 142
151 158 162 161 154 153 150 147 143 144 144 135 127 120 116 118 117 121 117 117 124 122 122 120
119 125 119 122 131 134 135 137 142 146 150 156 161 167 170 171 169 165 160 152 146 139 136  78
 18  42  35  27  13  25  17  47  53  52 114 177 171 131  50 176 150  40  66  82
202 142 153 119 159 158 118 114  78 114 177 215 214 170 119 188 116  38  30  37   0  75 144 139
148 155 162 160 154 151 147 143 137 119 101  94  92  93 108 113 119 121 116 121 119 119 124 130
108  95  96  80  69  70  77  90 109 135 147 152 157 164 168 170 169 163 156 148 144 141 115  16
 35  47  56  54  26  35  54  42  57  81  95 122 172 131  57 109  47  82  76  56
151 102  95  98 125 102  83  97 157 152 154 203 195 118 178 209 128  56  15  29  33   0 113 145
145 155 158 159 155 149 145 141 122  87  60  55  44  40  65  54  98 128 133 125 116 143 128 109
 66  22  42  39  58  76  76  83 107 124 140 148 154 161 167 169 166 160 151 147 143 133  73   0
 23  33  46  56  65  59  60  67  70  66  76  83  85  95  49  35  62 105 107  95
130  87 113 124 147 177 191 212 213 195 156 155 145 166 214 180  85  34  17  21  29   0  65 139
137 146 152 156 155 149 146 141 130 112  97  91  87  75  61  55  56  67  68  65  61  64  51  32
 46  66  78  92  98 102 110 125 135 132 135 144 151 157 163 161 154 151 146 143 138 113  17  25
 26  35  44  46  55  80  68  66  70  85 104 115  81  76  71  46  65 107 173 150
140 138 211 154 155 164 196 201 210 213 212 149 179 207 205 150  82  76  30  24  28  34   0 107
143 139 149 147 152 147 147 143 142 129 108 103 104 100 102  92  87  85  70  71  72  85 103 123
138 132 136 137 131 132 145 147 148 154 148 147 151 155 156 154 147 145 140 137 133  74   0  29
 25  25  37  48  52  59  82  53  22  56  71  91  76  64  73  87  42 111 174 186
183 127 174 177 172 157 163 177 204 210 205 161 201 208 180 114  84  87  34  32  29  29   7  38
133 139 143 147 147 146 148 148 147 144 133 124 120 123 133 132 136 136 138 136 132 148 159 165
160 146 146 143 140 143 150 159 164 159 158 155 154 154 152 149 147 142 136 135 112   3  26  29
 32   9  28  41  54  65  69  83  47  32  41  31  45  70  97 108  90  24 152 209
199 132 136 187 174 158 147 143 164 200 198 168 211 208 187  86 105 103  68  43  19   7  30   0
 83 140 137 147 144 146 147 148 151 152 147 139 135 134 129 134 143 145 148 151 148 147 151 150
144 139 134 134 139 146 155 162 158 158 160 160 153 148 149 147 146 134 137 127  60   0  23  18
 21  18  33  41  46  54  63  80  89  44  48  36  65  72  92  99  94  55  87 171
222 190 135 173 208 197 162 152 148 175 159 182 212 216 178  88  99 104  94  65  36  16  35  40
  0 113 143 138 142 141 142 141 148 151 149 146 142 140 137 131 127 132 136 138 139 138 136 133
131 131 136 140 146 153 158 156 152 156 157 155 147 143 143 142 136 136 137  94   0  16   5  14
 26  34  42  46  56  50  57  63  89  81  47  52  53  49  86 104 121 111  83  99
212 221 196 156 161 178 166 175 190 185 150 174 211 218 178  80 100  94  61  77  55  24  37  49
 29  36 118 139 137 138 139 139 142 144 147 147 145 142 144 140 132 127 127 128 130 131 132 130
132 138 140 143 148 152 153 149 150 153 152 149 143 140 138 135 135 138 117  30   3   7   8  12
 36  49  51  48  54  53  53  62  73  92  61  32  36  39  70 101 127 131 132 112
208 207 212 205 192 186 189 202 188 173 191 161 192 177 132  88 103 108  81  76  61  19  36  47
 33  34  55 122 134 131 136 138 139 141 145 145 144 145 146 145 142 140 137 133 134 135 137 139
143 146 144 145 147 145 144 145 148 153 151 148 145 143 140 133 132 123  82  20  16   7  19  21
 24  42  53  51  53  56  52  53  66  84  83  53  45  70  67  67 103 122 126 132
207 210 203 208 212 202 202 196 173 184 180 134  99 127 130 103 107 111  92  97  70  23  33  47
 35  42  33  63 115 132 132 137 136 141 143 144 147 149 147 145 143 146 143 138 138 139 139 145
147 146 145 148 150 145 142 148 150 152 149 142 138 136 132 127 122 100  64  51  11   6  12  30
 29  22  43  57  56  55  62  56  59  69  94  76  58  80  86  83  91 100  99 126
211 208 211 214 209 203 195 166 149 123  86  88  93 113 150 132 113 113 107 106  72  55  22  49
 37  35  49  32  37 105 127 128 137 137 139 142 147 149 149 148 147 149 147 145 145 146 145 149
150 148 146 147 148 150 152 154 155 152 147 140 133 128 125 121 113  88  70  57  34  25  33  33
 37  27  25  47  57  56  55  58  63  61  79  90  72  73  84  62  55  93 105 108
216 215 213 203 184 155 135 120 102  88  84  76  69  58  91 116 109 109 112  99  76  66  31  44
 45  38  48  48  21  26 110 125 128 135 139 141 144 145 146 149 151 151 151 150 150 149 148 149
149 148 149 151 155 159 158 156 157 152 146 139 128 121 119 114 103  85  71  63  55  48  44  38
 37  39  27  26  49  59  53  58  64  61  65  88  82  77  89  84  80 124 137 123
201 191 170 147 129 124 120 110  97  86  78  74  73  70  90 120 118 119  94  98  87  54  41  40
 49  38  50  48  32  38  89 111 122 131 137 139 142 145 146 149 151 151 152 154 154 151 148 148
149 152 155 163 170 164 156 155 153 147 139 130 123 119 116 109  98  84  75  69  60  58  52  50
 41  42  37  27  31  52  58  58  56  59  63  80  86  74  79  82  75 108 134 137
144 140 140 144 143 138 127 121 106  95  86  78  73  66  80 120 112 121 107 104  94  73  47  39
 51  36  49  47  23  32  85 105 118 128 136 138 141 147 147 148 149 149 152 155 155 153 151 152
156 162 166 168 166 158 151 151 149 141 131 120 120 123 118 108  98  84  77  73  64  65  59  58
 46  43  40  31  25  33  57  61  55  60  58  66  88  80  68  79  74  76 108 133
150 158 158 154 147 136 126 122 110  91  81  74  71  71  79 121 111 121 113 102 102  89  58  32
 56  40  49  48  25  31  74 102 113 121 129 135 141 145 148 150 149 149 151 153 153 151 134 142
159 161 164 163 161 157 152 147 145 135 123 124 123 122 117 110  99  84  77  76  70  66  62  59
 53  46  46  32  27  27  39  58  60  58  59  62  82  85  72  79  83  59 100 125
157 156 152 145 138 131 118 111 107  96  84  78  73  73  70 115 119 125 114 113 110  99  79  40
 50  48  45  51  24  28  73 100 113 121 127 131 136 140 144 147 149 147 148 151 150 151 146 149
159 158 159 157 155 149 146 143 132 127 129 128 123 121 116 109  97  82  77  77  75  72  69  67
 59  46  49  38  24  27  29  45  66  60  61  61  76  86  75  83  98  58 103 126
148 148 144 135 126 118 103  95  97  95  88  80  73  73  63  96 135 120 122 134 122 108  90  53
 43  54  42  53  27  23  66  95 111 119 125 128 132 134 137 141 145 146 147 150 149 149 149 150
152 151 150 149 146 141 137 133 131 129 130 129 124 121 116 106  93  81  78  79  78  76  74  72
 66  50  52  46  25  26  25  33  66  62  60  59  68  81  83  82 101  71 108 125
146 142 137 126 116 108  94  84  85  84  87  78  69  68  58  99 146 123 132 141 133 121 101  69
 40  52  43  54  34  19  59  89 106 115 121 127 133 133 133 135 140 141 142 145 144 144 148 146
141 141 140 141 141 139 135 133 136 135 131 130 125 121 115 104  89  79  78  80  82  81  79  78
 75  57  52  53  31  25  30  30  58  64  60  67  65  76  89  84  95  72  95 121
136 139 133 121 109  98  92  98 109 110 101  92  82  75  68 118 137 132 138 141 141 134 115  89
 40  52  46  51  41  18  56  81  99 110 121 127 131 133 132 131 135 136 138 139 140 138 138 139
137 137 137 138 139 138 137 137 135 133 134 130 125 120 115 105  90  78  77  82  87  88  88  85
 83  63  53  56  38  26  35  36  49  68  65  73  76  79  93  91  88  66  57  97
137 135 130 121 109 100 101 115 126 125 117 110  99  88  95 102 116 142 141 143 145 140 126 108
 61  44  49  46  42  19  53  73  89 103 116 123 128 132 133 131 133 137 137 138 139 139 137 140
142 140 138 138 138 138 138 137 140 138 132 131 125 120 115 107  92  76  77  85  94  98  99  94
 91  70  58  63  43  31  59  54  36  66  69  76  86  86  92  89  91  68  27  87
136 133 131 121 108  99 100 114 122 118 109 105  98  91  95  89 100 143 143 140 141 141 135 122
 86  30  53  48  41  21  49  67  81  93 106 118 128 131 135 134 135 136 136 137 138 138 136 139
141 141 139 139 139 139 138 140 134 132 134 129 124 119 114 106  90  76  79  90 103 108 110 107
104  81  61  72  46  57  81  67  30  57  74  87  98  97  96  99 103  68  39  95
134 134 134 125 109 100 101 107 111 108 102 100  98  95  96  94  79 138 134 135 136 139 140 130
103  48  46  53  45  26  45  62  74  84  95 110 123 127 134 134 134 135 135 136 138 136 131 136
138 138 139 140 140 140 137 142 123 121 133 124 121 115 110 103  88  76  86 104 116 121 124 122
118  95  66  77  66  92  89  75  47  45  70  92 110 109 109 117 111  71  62 110
132 132 137 135 124 115 107 103 105 106 108 108 108 108 107 100  76 108 138 140 137 141 144 141
121  78  30  55  51  31  45  60  69  76  82  98 113 123 132 133 132 133 135 136 137 136 132 137
140 141 140 140 140 140 142 139 138 133 128 125 116 112 107  99  86  77  93 115 129 134 137 137
131 110  76  81  91 109 103  89  61  37  57  88 111 112 109 114 119  79  62 110
