P2
# 8-bit pgm gray
92 112
255
218 218 218 218 218 218 218 218 218 218 219 206 191 188 198 198 201 205 215 215 218 220 197 184
197 189 191 190 183 190 186 186 186 187 185 188 187 180 182 163 106  73  76  72 136 119  89 101
121 171 202 173 157 131 106 211 186 183 194 205 210 214 219 203 203 224 172 157 223 218 220 219
222 220 220 220 220 220 219 219 219 219 218 218 218 218 218 218 218 218 218 218
218 218 218 218 218 218 218 218 218 217 220 207 192 188 197 199 203 205 209 210 214 216 194 181
198 189 190 187 185 191 193 183 189 194 191 191 183 178 164 107  86 148 171 154  91  68  43  94
 96 124 150 151 162 115 114 165 200 206 207 215 220 221 218 205 202 226 175 153 218 219 220 219
219 219 220 220 220 220 219 219 219 219 218 218 218 218 218 218 218 218 218 218
218 218 218 218 218 218 218 218 218 217 221 208 192 187 196 200 202 202 204 211 215 217 198 181
197 188 189 186 188 188 186 182 181 169 149 114 106 115 103  74 130 171 169 158 107  43  58  43
 53  59  80  99  71  33  90 120 165 141 140 185 186 201 188 188 200 219 187 148 222 216 222 222
221 219 220 220 220 220 219 219 219 219 218 218 218 218 218 218 218 218 218 218
218 218 218 218 218 218 218 218 218 217 222 209 192 186 195 199 196 196 206 215 214 219 203 180
191 185 189 189 187 186 179 173 127  78  76  70  66  78 116  74  40  55  84  81  60  50  70  58
 40  63 103  46  25  48  76  89  26  36  78 101  84 141 176 191 191 209 168 138 213 209 215 220
219 219 220 219 220 219 219 219 219 219 218 218 218 218 218 218 218 218 218 218
218 218 218 218 218 218 217 218 218 218 221 210 191 185 193 201 198 194 207 216 213 215 200 179
192 187 190 192 186 186 151 106  58  62  69  69  70  83  85  38  37  30  47  76  57  37  44  51
 49  52  45  26  50  58  58  62  63  62  85  83  62 130 202 198 203 187 106  74 113 180 217 211
215 219 219 225 218 223 218 218 218 219 218 218 218 218 218 218 218 218 218 218
218 218 218 218 218 218 217 217 218 219 219 212 191 185 191 200 203 198 204 211 213 217 200 181
196 185 180 185 189 170 104  26  66  61  62  64  53  49  42  66  68  56  63  58  69  78  42  19
 51  55  29  50  38  40  37  43  58  45  81  77  77  96 180 201 163 120  82  57  52  64 171 222
209 217 219 220 217 218 218 217 217 219 218 218 218 218 218 219 219 219 219 218
218 218 218 218 218 218 217 217 218 219 221 215 195 189 194 199 205 204 202 207 209 210 198 182
196 190 174 160 133  79  54  42  35  47  54  46  45  62  50  21  63  74  71  49  66  59  22  35
 66  86  69  36  21  58  94  99  85  64  51  76  63 112 141 117  50  53  61  51  40  38  55 155
203 209 210 217 226 220 218 217 217 219 218 218 218 218 218 219 219 219 219 218
218 218 218 218 218 218 217 217 218 219 218 208 189 182 190 198 202 203 200 197 205 216 202 176
178 148  97  75  63  68  61  25  33  39  45  53  82 111  89  70  26  62  86  57  50  16  11  37
 37  58  64  89  66  71  92  73  50  67  42  53  65  73  69   0   4   0  73  99  59  37  52 112
162 204 210 224 218 221 218 217 217 219 218 218 218 218 218 219 219 219 219 218
218 218 218 218 218 217 216 217 218 220 219 210 190 185 189 197 191 193 191 189 182 178 173 164
111  40  74  64  64  58  61  44  42  48  44  45  63  81  60  54  48  48  74  64  45  30  57  40
 21  16 105 123 116  66   0   9  48  38  32  57  60  43  43  51  71 159 149  88 114  24  33  81
151 190 218 216 220 219 218 217 218 219 218 218 218 218 218 219 219 219 219 218
218 219 219 217 215 215 219 219 218 216 215 211 192 194 189 180 183 186 173 153 118  77 102  84
 30  66  61  67  66  76  84  74  56  55  47  44  35  40  49  29  26  19  55  66  30  55  67  21
 33  57  59  64 110  63  24  29  70  66  49  52  54  64  53  57  90 138 132  42  38  47  35  38
 74 149 214 221 221 213 218 218 219 219 220 220 219 218 218 219 219 219 219 219
218 217 217 217 217 217 221 222 219 213 211 212 196 170 181 181 165 170 136  67  81 101 119  71
 63  76  59  63  42  65  84  73  51  48  38  34  33  13  21  32  17  18  37  43  45  37  30  38
 39  26  32  50  27  46  54  38  50  60  37  55 109  82  52  43  44  60  74  30  22  48  36  46
 96  62 154 217 220 223 220 216 216 219 220 220 219 218 218 219 219 219 219 219
218 217 216 217 217 218 218 219 217 213 209 213 192 183 166 148 138 127  42  51  55  60  62  58
 50  68  41  44  45  80  57   4  29  34  35  37  31  25  26  25  31  40  30  14  22  30  15  11
 13  26  39  36  48  77  78  56  40  48  40  73  78  65  66  61  38  57  63  16  27  91  47  44
108  92  91 203 207 221 223 219 219 222 220 220 219 218 218 219 219 219 219 219
218 218 218 217 216 216 219 214 210 210 212 211 195 179 133 106 123  72  37  49  54  37  15  37
 42  54  50  42  82  55  37  69  61  22  22  42  43  26  19  32  42  48  16   7  13  10  48  40
 30  29  25  33  22  56  54  34  44  47  44  29  42  97  50  30  43  57  45  28  57  77  42  50
114  82 160 189 200 201 216 220 223 221 220 220 219 218 218 219 219 219 219 219
218 219 219 215 212 215 214 206 206 217 212 205 196 149 120  86  47  54  54  48  15  27  52  35
 34  42  71  57  68  54  75  85  69  37  33  57  65  64  67  35  51  64  37   7   4   4  44  36
 10  23  22  38  20  45  66  44  27  30  40  31  75  96  47  57  77  65  60  47  42  21  59  40
 90 112 174 210 180 180 217 220 221 218 220 220 219 218 218 220 219 219 219 219
219 219 220 214 212 220 218 215 206 206 211 216 185 128  90  87  72  59  68  55  69  75 109  86
 50  46  56  63  53  64  56  40  52  45  38  61  56  51  47   0  36  58  40  27  41  43  13  19
 33  33  22  37  30  20  31  49  44  24  44  57  59  62  69  56  82  52  40  52  40  32 101  58
 28 141 154 194 176 177 214 221 221 222 221 221 220 219 219 220 220 220 220 219
219 219 217 214 214 215 224 203 211 208 167 135 131  87  84  72  70  81  91  78  84 100 116 107
 66  54  41  66  50  32  37  29  36  39  17   6   0  28  80 114  75  42  27  22  75  88  20   0
 43  59  25  34  64  49   7  33  77  64  42  40  43  50  44  47  68  57  43  62  39  28  67  48
 51 148 170 205 204 155 218 214 223 220 221 222 220 220 220 220 220 220 220 219
219 217 213 212 212 215 212 206 201 145 133 170  87  72  78  64  76  86  93  69  76  72  76  60
 44  28  16  29  47  48  44  49  31  33  37  36  45  65  90 104  65  54  35  31  68  81  46  30
 64  64  39  29  48  28  20  38  61  58  45  45  42  31  23  24  34  58  54  53  31  31  52  34
 49 131 165 188 144  16 184 230 222 226 224 222 222 221 220 220 220 220 220 219
219 218 213 214 217 212 216 184 187 161 201 182  85  61  63  77  66  58  50  65 115 125  99  78
 37  30   9  50  62  53  50  89  76  50  56  38  53  46  43  43  36  37  28  41  52  43  38  21
 42  25  29   8   0  33  43  40  27  25  21  38  43  32  24  27  26  66  57  33  32  29  29  31
 39  55  93 112  66  68  85 135 152 220 226 223 221 220 220 220 220 220 220 219
216 215 206 213 215 218 198 159 215 145 148 106  45  53  69  73  60  51  37  71 113  99  71  64
 37  14  23  62  50  48  34  51  84  76  44  43  35  31  41  42  64  46  28  54  59  36  32  15
  9  14   1  14  75  90  66  32  13   9  25  35  35  28  14  26  45  50  68  39  37  35  33  30
 26  20  21   0  25  68  72  40  99 171 225 219 222 225 222 221 220 219 219 219
215 215 212 218 216 215 178 201 175 135 115  62  75  71  64  69  58  47  31  36  47  70  64  59
 51  23  26  49  41  30  49 103  77  55  24  37  34  38  40  95  89  45  43  87  92  51  31  43
 33  31  32  82  80  73  37  25  29   5  27  45  36  27  11   9  10  60  84  30  26  29  23  10
 30  40  37  75  73  23  60  59  72 101 205 230 223 220 221 221 220 219 219 219
215 211 213 219 212 213 183 186 146 147 166  91  94  89  66  66  33  12   9   5  38  43  44  41
 33  36  13  20  35  40  43  95  77  55  39  41  39  39  53  90 108  63  54 111 128  96  53  40
 38  76  78  49  21   5  12  48  51  14  72  56  31  14  30  43  43  66  68  50  26  34  49  56
 13  41  50  90 119  87  57 127  67  14 172 220 221 226 223 220 220 219 219 219
215 202 207 217 208 213 195 172 123 106 108  78  79  57  51  57  41  30   3  49  48  33  44  74
 52  50  25  30  24  35  48 100  99  72  48  43  41  39  68 112  95  62  69 116 155 158 107  57
 45  48  42  27  30  25  18  14  37  74  76  29  10  16  22  43  62  97 107  53  70  41  43  94
 46   6  28  46  61 110  53 102  86  26 169 218 214 223 218 221 220 219 219 219
215 210 208 223 215 214 207 209 163  35  70  65  48  30  56  65  37  25   0  63  65  23  50 111
 81  24  38  44  22  24  26  52  72  45  60  39  51  56  72  90  87  93  72 123 161 184 164  99
 91  74  14  28  24  25  20   0  57  98  43  35   7  20  36  50  67  55   0  64  79  23  26  82
 66  36  46  42  64  76  61  61  63  80 156 223 213 205 225 220 219 219 221 220
216 216 207 209 208 207 210 154 127  89  70  67  45  35  59  65  40  33   0  71  61  52 115 116
 70  39  44  41  20  17  57  64  62  59  57  74  53  60  62  87 114 123 111 153 157 153 164 150
112  21  31  20  35  45  36  29  35  42  42  54  34  38  39  45  20   4  21  40  43   9  28  45
 39  18  25  28  29  46  55  57  81  64 168 218 221 211 213 221 218 219 221 220
213 214 218 205 206 206 170   6  44  63  64  54  40  48  51  83  69  24   0  74  83 107 151 101
 50  45  45  51  19  41  58  84 120  77  36  71  91  66  46  53  62  66 100 127 163 149 160 173
125   0  32   9  38  58  52  42  37  37  26  33  41  26   3  34  30  13  15  18  30  36  26  52
 40   0  24  32  25  43  44  61  79  32 172 209 217 212 214 220 219 219 219 220
211 210 177 210 195 198 163  30  69  65  47  44  45  49  41  84  89  72  16  60  84 100 101  57
 34  33  37  36  36  34  15  32  71  65  47  31  44  55  45  36  57  64  46  37 119 160 165 173
114   0  36   0  27  52  57  49  34  40  42  52  75  74  30  34  33  28  32  26  25  42  36  45
 44  22  35  26  32  56  41  52  47  97 186 190 224 214 212 219 219 219 217 220
210 221 182 185 213 179 140   2  35  71  48  41  44  43  46 108  88  80  65  59  49  54  61  59
 67  37  15  27   0  22  30  41  62  99  81  24   3  20  55  48  52  86  69  37  27 111 170 174
119  34  74   0  18  39  57  55  37  19  39  48  80  98  47  40  40  24  30  21  42  40  46  45
 45  44  31  37  53  55  42  49  48 151 181 177 210 218 213 217 220 219 216 219
205 206 205 184 174 200 125  53  40  49  41  33  39  30  75 137 123  37  52  33  39  51  56  52
 94  91  61  66  85  70  36  80 122 137  76   0  33  47  32   0  37  46  81  69  42   7  99 170
135  49  72  25  16  46  64  42  47  23  44  43  64  96  49  36  39  17   8  19  39  25  45  44
 60  65  51  50  59  59  39  54  19 125 188 195 190 216 218 216 220 218 219 219
206 210 199 205 192 166 131  54  80  71  30  41  34  37 113 146 149  55  28  33  41  46  64  59
 71  97 122 103 107 102  63  67 101  90  12  17  37  94  95 104  81  89 123 157 125  24  10 119
129  86  43  38  27  45  98 116  63  15  39  44  43  65  49  47  30  52  58  50  47  37  36  31
 34  35  21  23  34  43  58  58  86  93 109 149 187 213 212 219 221 220 221 219
209 199 192 190 201 188 106  71  74  68  49  40  28  61 134 152 150  77   3  44  30  52  45  50
 59  45 101 125  83  70  71  28   0   0  30  17  50 120 117 129 117  81  80 103 101  58  63  35
117  76  27   8  36  40  82  90  71  60  29  24  43  49  33  35  29  52  60  55  34  44  30  27
 25   9  27  28  28  58  55  12 120 140 127 158 140 201 218 219 222 220 221 219
214 210 193 199 180 126  83  67  98  84  55  41  38  93 140 151 147  91  14  31  29  63  46  54
 56  98 115  70  53  45  44  39  34  38  24   9  51 125 133 113 113  27  66  90  82  50  58  37
 60  49  25  23  46  59  48  57  63  33   0  88  78  45  21  40  55  73 100 101  49  36  35  28
 15  17  25  34  21  57  68  30  51 104 122 147 191 161 213 218 220 218 219 219
205 206 205 207 133  15  38  65 101  76  40  42  58 114 142 156 142 113  89  42  54  69  54  44
 96 121  79  34  45  51  30  36  48  40  55  76  70 101 142 121  11 113 154 161 105   0  79  38
 81 126 109  55  41  45  63  50  27  46  34  48  75  20  12  27  40  51  66  61  41  38  34  57
 62  46  53  82  90  49  69  70  47  51 100 102 179 193 189 216 218 214 220 217
216 208 197 144  19  52  36  42  56  43  41  53  85 126 143 154 135 113 112  89  57  60  52  35
 79  74  40  38  34  50  41  51  74  83  92 101  86  71 121  97  46 135 165 148  48  62 121  36
116 181 113  57  52  43  54  74  44  53  87  61  34  46  18  34  59  53  52  53  45  37  16  57
 48  33  64  76  66  38  46  63  62  82  72  55  86 206 174 212 215 213 218 216
217 207 159  48  63  63  41  56  64  35  59  74 117 134 146 155 141 125 118 109 107  97  43  22
  7   7   2  36  55  55  44  58 109 113 101  95  99  67  71  55  84 100 100  57  18  88 105   0
133 174  86  43  52  47  91  98  53  63  87  75  42  37  51  44  44  38  55  68  42  24  25  10
 28  43  38   8  23  56  51  38  43  60  66  56   0 154 185 217 219 216 212 216
208 201 148  57  51  83  98  48  46  40  66  97 134 140 147 155 147 133 118 110 118 108  53  55
 15  34  57  47  60  54  35  79 143 149 133 110 105 103  66  46  68  65  36  35  71  89  62  30
115 159 123  33  62  85  92  75  59  60  69  72  54  39  70  46  38  43  58  76  65  44  16  21
 52  64  61  31  45  50  29  33  54  61  63  65  73  72 167 215 222 218 212 215
211 113  92  89  70  69  84  71  39  54  72 117 139 145 150 151 140 126 119 116 122 119  61  62
 29  40  57  57  45  34  45 125 164 161 168 139 113 118 127  85  24  77  89 110 129 103  55  48
120 126  42  45  57  85  99  87  58  78  88  94  80  36  52  54  46  72  88  82  77  37  22  45
 46  40  71  58  52  37  41  40  54  56  42  55  63   0 113 200 216 221 220 213
222 173 113 139 106  85  64  56  70  52  82 129 140 144 152 153 147 128 116 116 123 121  97  71
 68  53  34  38  52  56  87 132 152 161 169 145 120 154 163 146  60  57  94 103  86  38  61 101
155 121  11  34  74  94  94  89  57  94 104 106  93  55  51  47  62  81  95  79  42  45  56  53
 37  58  61  58  44  32  32  33  51  68  34  44  48   0 120 205 220 211 214 213
218 214 184 158 113  71  63  37  67  55  84 130 140 148 154 153 148 129 116 117 118 115 111 106
 97  86  84  85  77  96 120 123 122 129 140 141 146 170 177 177 152  54   0   0   0  46 105 159
174 129  90  89 118 143 138  94  72 102 114 106  85  71  60  51  44  47  60  62  65  64  58  44
 43  54  57  60  67  48  25  29  23  66  69  43  66  28 154 212 211 215 209 212
215 213 199 146  63  81  60  44  42  56  90 130 139 151 155 155 152 134 118 118 120 118 113 110
125 120 103 105 113 135 150 150 152 150 155 164 171 167 175 173 184 174 133 103  86 100 157 185
177 131  94 116 159 179 166 110  95 110 123 129 101  76  76  61  41  49  46  77  84  56  60  55
 38  29  34  43  27  35  37  33  33  28  67  75  83  73 137 207 197 195 215 213
223 206 181  84  49  61  67  53  45  43  92 128 137 151 155 157 157 138 121 118 120 122 124 129
140 127 114 120 127 142 161 174 181 181 180 180 163 158 165 164 169 172 158 130 119 135 169 173
170 137  87 115 159 160 130 123 117 108 127 154 130  95  74  46  44  62  75  88  76  71  82  57
 34  43  74  61  10  34  33  37  40  35  47  51  75  91  96 120 153 195 223 216
211 204 150   0  56  47  56  50  50  26  93 124 135 148 157 162 158 146 128 123 124 125 139 146
137 124 122 124 122 132 149 171 188 188 187 182 162 159 176 168 151 139 129 128 127 143 156 161
163 136 106 107 115 116 135 143 123 115 128 160 144 104  64  22  55  63  77  89  69  75  68  58
 39  26  66  63  29  40  39  29  34  48  53  42  82 102 100 138 218 219 221 213
212 210 102  29  41  35  47  51  50  29  92 120 133 146 157 164 165 158 137 125 127 138 158 152
133 126 128 134 135 136 140 158 183 192 190 184 168 159 165 154 135 136 136 136 137 143 147 159
166 139 120 128 137 143 151 146 125 122 127 158 161 119  81  53  57  68  95  92  73  74  67  67
 46  36  30  13  32  29  30  45  50  42  50  55  97 102  84 144 200 213 211 209
213 129  18  51   0   2  29  42  48  31  88 116 130 146 157 164 170 166 145 128 129 153 174 155
133 128 134 146 147 142 137 150 176 190 189 187 177 167 160 144 136 140 142 147 153 162 165 168
169 146 130 137 153 157 149 138 126 122 127 147 163 145 117  91  56  67  98 107  78  63  60  64
 47  36  41  46  21  36  37  40  50  50  50  58  87  95  89 114 178 213 210 212
135   4  70  49  71  69  57  40  34  28  87 113 130 148 160 166 172 170 153 143 151 166 173 150
132 131 137 144 145 143 139 149 172 183 183 186 181 175 171 161 154 152 155 162 166 174 174 171
167 145 134 138 148 152 140 133 132 129 137 145 147 140 115  96  67  59  98  82  81  84  66  73
 59  31  27  35  19  46  67  49  40  44  42  59  67  95  91 120 167 206 216 210
 57  73  57  86 126  96  70  63  47  32  87 114 131 149 163 172 174 175 164 163 170 174 169 148
132 135 138 138 137 139 140 148 166 178 179 182 180 173 174 177 173 168 171 173 171 171 167 161
158 143 135 131 133 137 127 122 125 125 134 140 130 117 100 101  98  56  62  79 104  99  82  89
 64  17  19  33  28  41  60  74  52  38  39  55  75 103  86 138 198 182 210 213
 68  48  76  88 102  96  79  60  43  38  85 119 131 151 167 171 171 177 172 174 167 169 162 139
133 134 133 132 134 137 139 146 157 172 176 175 175 172 175 177 175 172 172 172 168 163 156 149
140 130 117 103  99  97  94  90  94 103 111 118 118  97  88  92  95 101  99 101 110 101  80  91
 58  13   8  38  52  47  53  56  52  41  32  49  68  84  77  98 193 192 196 217
109  66  53  79  80  87  61  52  42  31  85 120 133 154 167 160 159 162 158 155 152 153 142 120
114 110 108 111 117 124 130 141 151 160 166 166 167 169 173 175 173 170 171 166 157 150 141 134
126 110  94  84  77  71  63  67  79  92  99 103 102  84  81  90  84  96  95  89  99 105  86  88
 48  29  25  18  61  71  64  51  43  32  37  44  50  66  69  50  98 194 195 215
128 100  76  76  75  60  56  39  21  20  87 124 134 144 146 138 136 135 132 122 116 110  96  79
 73  72  76  83  97 109 119 131 140 149 156 159 162 164 169 171 168 166 163 153 141 134 126 118
111  97  86  80  74  70  65  61  59  64  79  87  89  88  88  87  85  82  90  86  83 103  94  87
 47  11  28  41  24  51  53  26  26  33  26  42  46  82 111  94  60 105 182 216
113  65 102  83  64  59  39  24  26   9  86 128 135 129 113 112 109 105 102  89  81  69  60  58
 57  61  67  69  79  93 103 113 123 139 146 151 154 158 163 165 163 159 152 141 129 123 117 108
101  98  95  91  87  95 103 106 105 106 113 117 116 114 117 118 113 105 103  99  94 102 108  94
 73  42  29  27  46  55  36  24  23  24  11  31  44  50  96  98  66  59 139 213
126  66  83 102  48  47  32  31  27   0  88 131 125 103  92  87  79  78  87  91  89  90  89  84
 81  82  83  84  85  85  97 108 110 125 139 144 148 157 163 165 160 155 148 132 123 121 118 114
111 112 115 116 117 118 120 124 123 124 124 129 129 130 127 128 126 123 117 113 106 105 116 109
 85  72  43  37  43  26  27  27  18  26  28  45  94 130  95  76  49  90 136 193
162  81 104  90  60  42  35  35  30   0  90 130 117  98 101 111 114 117 115 123 123 121 127 128
128 121 116 119 115 108 108 111 113 119 133 137 143 158 167 170 164 157 146 133 125 122 114 114
117 113 104  92  85  82  80  89  86  88  90  92  99 113 122 127 128 128 124 125 117 111 123 119
 89  75  48  36  32  28  33  27  31  35  43  49  92 144 133  96  50  29  84 138
202  95  96  99  77  48  40  21  31   0  91 129 116 111 117 122 130 134 131 131 131 130 125 117
110 100  91  90  98 108 113 113 116 120 126 131 144 159 170 176 172 162 148 135 124 116 111 112
113  99  82  82  90  92  85  83  91  94  95  89  85  74  82 110 124 128 123 122 120 117 128 124
 96  82  55  38  36  32  25  34  33  35  45  44  66  94 106  94   5  66 163  82
216 148  42 100 100  56  34  33  22   0  94 126 119 123 131 131 133 133 131 126 112  99  89  81
 75  76  78  81  77  84 101 111 111 115 119 127 148 165 177 187 183 174 159 133 114 104 105 112
105  88  92  96  97  72  55  55  49  60  86  74  74  80  79  78 106 127 126 122 120 120 131 126
 98  90  64  42  38  38  16  45  39  40  49  58  83 107  67  26  80 182 152 185
215 186  49  88  88  63  39  34  25   1  94 126 125 131 133 131 134 127 110  86  82  83  84  80
 84  92  93  91  94  85  87 102 112 110 109 121 149 172 187 197 194 185 166 130 104  95  99 109
 98 106 105  97  91  45  43  41  50  38  87 118  85  63  73  78  86 114 125 121 123 127 136 131
104  97  73  44  44  43  30  43  33  33  36  58  59  91  81  45 109 161 156 187
219 164  64  94  69  71  51  41  29   0 100 130 127 130 130 123 123 106  78  78  73  87  76  46
 48  61  72  97  98 105 100  84 104 109 100 114 154 176 191 198 198 189 175 137  91  88  91  99
104  96  92 117  88  42  39  35  34  59  83 125 113  86  67  76  89 107 122 120 129 137 141 135
112 101  83  43  52  51  32  31  46  37  55  45  56  62  27 102 140  45 174 185
217 148 147  80  64  69  54  46  37   0 107 133 123 127 130 127 117  95  78  60  60 105  68  57
 45  46  42  90 117 100 101 108  92  99  98 106 154 179 191 200 200 189 180 146  83  85  90 105
 92  71  87 104  81  57  55  83  64  70  84 128 109  72  71  86  89 102 115 121 137 145 145 136
119 105  94  46  50  51  17  36  44  40  46  63  60  61  89  90 115  94  90 180
200 172 176  83  66  72  62  48  40   8 116 139 127 127 128 124 114  84  58  64 108 111  54  47
 48  62  39  68 124 119  99  95 104 102  98 105 155 181 193 202 202 190 177 150  94  87 103 110
 77  78  81  77  81  33  40  80  64  57 107 123  92  84  83  83  87  96 110 123 144 155 155 141
126 112 101  49  52  37  25  36  35  55  57  61  76  75  91  96 118 133  85 163
178 180 186  92  75  71  69  48  35  28 121 144 135 131 126 118 110  80  78  76 107 119  68  54
 58 101  50  68 112  91  85  71  94 118 101 111 155 180 196 203 203 192 177 154 124 102  99 113
118 111 110 113 121 119 107  92  73 102 118 108 108 108 104 106 111 119 127 134 148 160 166 147
129 116 100  50  55  36  24  93  60  16  46  50  42  50  92 101  79  83  82 138
176 184 166  91  97  60  39  44  29  35 128 153 142 128 126 114 101  88  86  72  78 120  88  53
 64  81  45  64  89  84  96 106 120 117 109 129 153 180 193 201 208 198 172 148 143 136 119 118
117 118 115 120 126 144 150 146 136 136 128 124 125 122 119 124 132 144 154 154 155 164 168 158
134 119 101  49  41  25  58 104 139  45  60  52  37  46  66  60  62  63  63  70
190 167  81  97 135  62  46  36  26  39 132 155 152 136 120 106 103  97  90  94  99 104 109  83
 61  61  78  94 112 115 121 130 128 116 127 139 149 178 191 200 207 198 173 150 151 152 141 133
128 129 131 125 121 120 128 132 133 135 136 131 133 136 136 138 151 163 172 172 167 167 167 161
137 124 101  63  32   0  69 117 149  22  36  38  48  45  44  54  60  55  19 101
197  97  89 151  99  52  47  39  23  39 134 155 164 154 124 116 120 117 112 111 108 109 124 121
116 113 122 120 122 120 121 123 119 124 144 141 143 174 191 199 204 192 168 153 159 160 156 150
144 145 149 149 146 141 137 136 135 139 138 137 145 149 151 156 168 177 182 181 175 170 167 161
142 129 103  79  42  17  10 111  84   0  24  26  50  63  65  71  78  55  65  70
133  47 139 121  40  72  82  51  17  45 138 156 171 169 151 144 141 137 134 133 125 134 127 130
130 126 130 130 128 127 128 130 128 139 150 144 147 171 189 198 200 186 166 154 163 164 158 158
158 158 156 154 164 167 163 163 161 163 161 158 166 169 171 176 178 181 183 180 177 175 167 161
147 128 106  63  25  44  53  37  39  34  26  41  52  58  56  64  78  74  68  43
 53  63  81  49  78  85  48  57  49  32 132 158 170 177 175 174 167 159 155 146 138 142 139 137
139 137 136 139 140 140 142 145 145 153 154 150 151 170 188 198 198 184 168 158 164 165 159 162
168 168 164 160 161 164 167 173 174 176 176 172 174 177 178 181 185 186 186 183 180 176 168 164
149 124 107  45  40  39  45  19  28  23  42  53  48  55  55  65  60  49  50  65
103 128  70  52  71  69 103  69  53  29 124 159 168 179 182 184 181 173 165 160 159 158 156 152
153 154 154 154 156 153 154 157 156 156 158 154 148 168 188 199 199 183 167 160 159 161 163 164
170 174 174 170 166 165 168 168 171 175 176 177 180 181 184 185 187 186 187 185 180 174 168 163
149 129 101  60  95  51  26  11  69 131  52  57  50  51  56  75  69  54  80  88
171 142   0  43  78 150 143  49  54  28 116 157 169 178 183 188 186 181 174 175 178 178 175 173
170 168 165 163 163 163 166 168 164 157 158 154 152 167 185 197 198 182 167 161 160 160 162 164
169 174 177 179 179 176 169 166 171 177 181 183 185 186 188 189 187 184 185 183 177 174 166 153
150 126 104  62  92  86  42  15  60 103  55  72  84  64  39  61  45  97  88 123
139 102  17  34  54 135  75  52  57  10 103 152 167 174 181 185 185 183 180 179 181 182 180 178
176 174 170 167 167 167 169 168 162 157 156 153 155 167 184 197 199 183 168 163 161 158 161 162
166 174 179 179 186 187 182 179 180 182 181 181 186 185 186 186 183 180 181 179 174 173 164 152
149 127  88  57  66  94 118  23  19   0  46  64  88  75  46  59  66 114 116 115
116 127 100 105  41  64  59  66  55  27  92 147 164 170 179 183 184 185 183 183 185 186 186 184
180 178 176 173 175 175 175 169 160 155 153 150 154 168 185 199 202 185 168 165 161 156 158 159
162 172 180 184 187 190 189 185 186 188 186 183 179 179 179 179 178 176 177 175 170 164 158 153
139 116  98  86  47  89 136   0  41  25  63  87  46  63  73  73  88  76 115 126
  2 124  83 142 142  56  56  53  44  36  95 142 155 166 173 179 182 185 185 184 186 189 187 184
181 181 180 180 181 180 180 173 161 152 153 155 158 170 184 201 200 186 174 166 162 156 157 157
163 172 178 185 188 191 192 190 188 188 186 185 182 180 176 174 174 174 172 167 168 162 153 150
139 112  82  84  84  48  58  31  32  28  76  82  35  52  59  66  80  94 119 125
136  66  58  93 134  75  67  53  27  43  80 128 151 158 166 175 178 182 182 184 185 185 186 187
187 187 187 187 186 183 181 171 159 151 150 155 163 173 186 203 200 187 176 168 162 157 154 152
158 171 179 184 188 192 193 191 190 188 186 184 183 180 176 173 170 169 168 164 163 159 154 141
135 106  51  55  53  31  16  26  40  34  52  48  42  52  43 118 110  80 108 117
137 103  99  62  51  71  41  70  65  41  52 110 147 146 156 169 173 176 176 180 181 180 185 190
189 189 189 189 189 187 182 170 157 150 148 155 169 178 190 205 202 188 178 170 164 159 152 146
151 169 180 184 188 192 193 192 191 189 187 186 182 179 175 173 167 166 166 163 157 153 152 133
125  94  60  57  31  14  35  53  33  46  49  40  48  49  28 136 129  80  55  88
131 178 121  84  69  87  30  85  88  31  31  80 138 147 156 164 167 171 170 173 177 181 187 189
190 190 190 190 189 187 183 172 158 145 149 159 172 182 193 207 203 189 179 171 166 161 154 144
147 165 179 184 188 192 193 193 192 190 188 187 185 181 178 175 170 169 165 159 154 148 149 135
119  85  54  68  46   0  29  72  21  50  40  79  48  47   4  99  97  68  61  96
135 207 128  90  62  62  40  51  53  47  62  75 122 142 154 159 164 167 170 171 176 183 186 188
192 192 192 193 190 187 183 175 158 142 152 164 173 182 196 212 207 192 183 174 168 163 161 151
145 163 179 184 188 192 193 192 192 190 189 187 185 183 179 176 172 169 164 157 152 146 147 136
113  78  58  60  39  61  76  53  25  29  33  60  41  44  35  38  53   0  45 124
 95 190 141  84 100  61  56  59  50  50 124 145 114 138 142 154 160 164 170 173 177 182 184 188
191 191 193 194 192 189 183 178 158 145 155 166 174 180 198 214 209 196 186 178 170 167 168 160
147 160 180 184 187 190 190 190 189 188 188 186 184 183 178 174 170 164 160 156 149 147 146 131
108  73  48  43  33  69 122 107   0  36  29  53  41  40  70  31  98 131  86   0
 50 165 147  65 113  73  77  52  69  92  64 160 143 126 142 151 156 161 168 171 176 182 184 187
190 191 192 193 192 190 185 180 161 149 157 167 176 184 195 202 202 195 187 181 173 169 166 160
151 162 180 185 186 187 186 188 188 186 186 185 184 183 178 174 171 165 161 157 151 149 144 128
106  83  42  20  39  54  92  79 103  36   0  29  45  60  78  24 137 192 186 121
125 158 113  77  58  59  46  63  92  75  66  86  81 120 138 143 152 158 165 170 175 181 183 186
189 190 191 191 192 191 187 183 165 154 159 168 177 185 191 195 194 191 188 182 172 164 158 156
154 165 181 185 187 187 186 188 188 187 186 185 184 183 178 174 172 166 162 158 153 150 141 123
102  56  10  36  42  54  60 122  90  42  60  29  39  46  34  92 148 144 192 148
168 182 107  89  50  33  22  65 138 110 114  64 107 161 123 143 149 155 163 169 175 180 182 186
188 189 190 191 192 191 188 185 167 150 153 162 172 183 190 194 190 185 184 177 163 150 146 150
153 166 181 183 188 191 191 190 190 189 188 186 184 183 178 174 172 167 163 158 154 151 139 121
 99  28   0   8  23  60   7 115  53  46  59  56  43  38  20  87 168 122 138 139
144 116 119 111  40  92  61 115 153 159  97 115  80 159 133 138 146 154 164 167 171 176 180 185
187 191 193 191 189 193 191 186 167 149 150 147 153 168 178 180 184 183 176 161 143 136 141 148
150 172 182 186 190 188 187 188 188 188 189 188 183 182 178 176 175 169 165 161 156 152 134 122
 99   0  10  14  18  17  33   8  16  61  39  59  73  58  38  97 130 104 137 140
196 177 136  76  65  77  77 130 129 107 110 129 145 175 116 133 143 149 157 165 171 175 179 186
189 192 192 188 186 190 190 188 170 145 146 139 138 150 161 162 165 164 157 143 128 125 137 136
146 181 186 187 187 185 187 188 188 188 188 187 185 183 180 178 176 170 166 161 157 148 133 113
103  57   2  23  27   0  43  54  24  48  46  95  65  45  53  62  83 131 203 146
200 208 136  48  74  62  68  98  99   0  81 129 156 103 109 131 140 148 154 163 171 176 180 186
190 192 190 186 183 187 187 188 174 146 142 136 130 136 148 149 149 146 145 135 122 120 114 104
133 182 187 188 185 183 189 189 187 187 186 185 186 184 180 179 176 170 166 161 154 144 128 122
 90  69  10  12  31  34  60  86   0  77  98  81  64  41  79  64  77  79 112  67
205 197 112  71  56  75  67  97  76  96 109 104 156 124 115 123 135 147 155 164 171 176 180 185
186 190 191 187 184 186 184 186 173 136 126 124 125 127 140 145 144 141 140 127 107  96  98 101
132 178 181 187 188 186 187 189 188 186 184 184 185 182 179 177 176 170 165 162 153 137 125 127
 57   0  20  22  25  52  33  58  27  61 144 136  66  89 105  53  55  30  48 179
210 183 156  48  23  64  71  28 112 158 169 151 125 145 140 108 129 144 151 161 171 175 179 184
184 188 190 188 188 188 185 184 173 139 118 111 108 120 136 142 144 139 137 132 116 111 113 117
145 181 183 186 189 187 184 187 187 185 183 183 183 181 178 176 175 170 166 161 154 135 126 114
 22   5   2  20  26  15  22  39  50   0  34  44   6  23  55  58 112 102  36 156
198 179 184  54  96  42  55  56   0 137 180 143 149 119 100  74 121 138 152 159 167 174 177 182
184 187 189 189 189 186 184 182 171 140 126 123 120 128 139 143 149 143 143 140 123 120 124 132
161 182 183 185 186 185 183 184 185 184 183 183 182 180 178 177 173 170 165 159 149 136 130 111
  0   8  17  46   2  20  29  48  61 133 163 153  89  91  82   0 169 179  66  50
183 209 202  92  62 106  71  47  37  54 122 119  96 105  68  50 111 130 141 153 162 170 174 179
183 185 188 187 186 183 182 180 169 136 128 129 126 133 144 148 152 147 148 146 130 126 138 160
178 180 180 182 185 186 185 185 184 183 182 182 180 178 177 175 172 168 163 155 146 135 134  80
  0  24  83  52  86  66  35  77  74 193 206 165 103 144  60  43 161 188 101  49
136 165 211 198 121  90  80  53  54  40  83  86  16  74 109   0  88 129 132 145 157 165 170 176
178 181 183 183 184 183 183 181 172 143 130 129 128 134 144 147 150 144 147 150 141 143 162 177
178 177 181 179 182 183 181 181 181 180 179 179 178 177 175 173 170 166 160 151 144 133 121  21
 38  32  49  33  86  70  67  80  68 155 166 150 131  75  52 118 126 133  81  82
192 144 144 206 165 161  86   0  44  51 110  99  75 132 103   0  60 123 132 143 153 161 168 173
174 177 179 179 180 179 180 178 175 161 135 129 130 137 146 149 151 144 147 156 155 165 174 178
180 176 175 178 179 178 175 177 177 176 175 176 177 175 173 172 170 166 158 148 139 134  92  27
 44  16  11  19   0  81  68 115 172 186 138 153 149  55 120 116 112  36 113  42
210 206 131 130 169 150  76 127 114   0  74 159 141  86  81  35  15 109 132 137 147 157 165 168
171 174 176 176 173 176 177 171 169 165 144 132 134 135 145 151 146 142 144 151 170 180 180 180
180 177 176 177 175 176 174 175 174 172 175 176 174 174 172 169 167 162 152 146 138 126  48  33
 36  20  17  19  42  39  47 110 185 196 178 174  91 106 161  43   0  77  60  88
207 214 169 131 141  97 124 194 177  48  80  77 108  76  79  48   0  81 128 134 141 151 159 163
168 170 171 170 168 173 176 172 172 168 155 143 137 135 142 141 125 114 119 150 185 187 184 184
180 176 175 172 169 167 167 169 169 168 170 172 172 172 170 167 162 156 150 145 137 107  34  47
 26  19  44  44  38  58  70  95 122 184 197 170 104  26  65  40  75  64  56 177
207 211 175 112 109 125 163 206 142 117 188 144 171 110  74  40  10  22 122 136 139 148 157 163
165 165 164 162 162 167 170 170 173 170 165 155 143 143 148 140 125 114 134 175 184 182 186 185
180 176 171 165 160 152 155 159 161 165 168 170 171 171 168 166 161 154 152 146 132  66  44  60
 56  47  55  67  51  45  63  92 107 119 153 131 105  20  23  58  76  88 113 133
204 204 152  83 164 174 134 186  77 171 212 192 101  78  71  30  35   0  89 135 135 143 155 161
164 164 161 156 156 161 161 161 165 167 166 162 156 151 151 153 159 167 172 172 153 144 146 148
151 155 156 155 147 134 138 143 149 159 167 169 169 169 167 164 161 150 149 142 113  20  23  40
 55  74  56  44  76  73  66  71  66  73  70  97 118  57  49  61  88 161 156 130
201 197 145 122 198 149 171 109 117 205 201 175  96  82  56  25  38   8  29 125 133 138 145 159
165 163 160 156 153 153 151 151 158 162 154 143 136 132 129 128 135 150 149 128 124 122 123 118
115 109  98  96  88  77  90 122 140 150 158 164 168 170 164 161 157 145 145 136  86   0  26  41
 33  55  80  54  50  57  58  74  84  89  88  68  38  91  94  61  75 190 203 204
212 173 120 159 157 119 138  63 168 213 207 168  87  81  36  23  29  30   0  85 138 132 145 157
161 162 160 154 149 150 147 143 140 127 124 119 116 116 120 125 124 122 120 117 111 101  84  64
 63  70  74  78  79 101 117 119 134 140 146 156 162 166 155 154 151 145 140 124  40   2  30  50
 52  39  61  79  24  15  36  42  58  63  75  81  79 112 115 123  38 111 192 215
172 107  90 129  85  47  35 142 166 191 196 144  83  86  43   3  17  13  16   0 112 134 142 146
157 163 161 150 145 143 130 103  81  82  83  80  76  63  69  87  94  98  92  77  74  79  97 111
123 124 120 126 134 148 149 149 150 147 149 155 155 152 146 149 141 138 134  95   0  30  38  41
 50  63  49  65  74  21  32  28  64  53  44  73  71 104 132 123  82  86 131 174
 65  63  95 124 142 168 199 167 128 151 166 115  79  89  56  16  17  22  27   0  54 134 135 143
152 159 159 152 143 137 133 120  99  92  95  99 103 107 103  95  92  92  91 112 138 152 156 141
144 148 136 138 150 152 165 173 165 155 148 148 149 146 144 142 139 134 126  59  17  37  39  45
 39  49  67  55  72  73   0  22  41  58  53  64  60  81 110 137 135 103 125 123
107 156 141 159 195 200 210 210 197 162 131  99  96  90  58  51  30  18  20  29   0  92 137 137
144 147 152 151 152 142 139 140 128 113 112 119 132 136 139 144 145 144 141 151 158 153 149 141
138 134 133 138 150 160 163 165 160 157 149 143 143 143 142 134 130 133  94   0  37  35  42  47
 46  46  47  61  69  91  68   0  11  19  36  47  61  82  97 120 134 136 133 158
155 188 154 152 149 188 191 203 206 187 123  97  96  91  67  47  36  21  19  34  28  29 118 135
137 147 148 145 146 147 148 145 139 132 128 127 130 133 138 144 149 150 148 145 142 141 132 130
131 134 137 147 158 157 159 159 156 153 147 143 137 136 138 129 127 118  41   5  32  39  46  46
 48  48  51  52  63  74  90  37  21  29  39  41  73  97 108 108 121 129 123 173
114 152 167 154 150 152 160 192 211 175 135 101  73  92  78  73  56  21  21  41  32  12  58 131
137 143 146 141 141 146 149 148 144 140 137 134 134 132 131 133 135 136 137 136 134 133 132 133
135 137 139 149 154 148 149 151 148 143 137 129 126 132 131 126 130  86   0  20  18  39  52  46
 48  52  53  54  55  67  81  80  47  55  47  39  57  70  90 105 115 124 151 136
139 141 170 162 146 127 134 144 142 110  93  90  88 101  83  91 102  67  33  41  40  35  26  79
131 134 138 141 140 143 146 148 148 146 144 142 139 138 137 136 135 134 134 133 133 132 135 137
138 138 139 142 143 138 135 141 143 143 141 137 137 130 124 126 102   0  12  16  22  20  37  51
 51  53  57  55  53  58  72  93  70  53  61  60  35  31  80 100 115 126 137 152
161 152 189 192 165 132 123  88  65  82  85 100  94 101 100  90  67  66  56  43  45  26  49  23
 79 130 131 135 136 138 138 141 142 142 145 146 143 143 143 142 141 140 136 136 136 136 138 138
138 137 137 135 134 136 135 138 140 140 137 135 133 121 124 112  53  33  27  22  34  22  20  44
 53  52  57  55  54  53  66  83  88  62  62  72  62  28  47  63  72  99 120 138
203 144 141 143 114 106 106  96 102  92  81 107  84 110 110  99  85  50  52  43  46  35  45  45
 19  75 129 128 134 136 136 137 138 140 144 144 145 144 144 144 142 139 136 138 137 140 138 138
139 138 137 136 137 143 147 149 145 140 134 127 122 120 109  75  51  48  45  33  30  30  20  20
 43  54  57  62  53  54  56  70  88  75  63  63  71  41  56  89  92  85 110 124
163 151 121  98 102 117 106 109  93  69  73  94 119 126 112 108  92  69  70  46  46  40  43  48
 43   2  87 118 126 132 136 135 138 140 142 141 144 145 146 146 143 138 135 139 134 134 139 138
138 138 139 145 151 154 152 151 146 139 131 121 113 110  85  64  60  53  51  45  36  37  33  19
 28  50  62  64  65  62  61  65  77  79  60  58  68  55  56  87 110 109 102 109
135 138 141 116 114 117 107  79  65  61  61 103 131 151 138 110  90  88  86  24  54  40  41  49
 40  23  66  96 114 122 128 133 136 138 141 140 143 143 143 145 145 143 140 134 131 135 140 138
139 146 155 161 161 157 150 149 145 137 124 114 108  95  76  66  65  58  58  56  45  37  43  31
 13  29  54  61  68  70  71  66  67  84  68  61  68  75  55  91 113 133 132 117
144 143 124 121 112  99  89  82  71  64  56 105 107 116 121 106 100  90  72  14  51  45  39  52
 43  14  65  93 105 113 121 126 131 136 139 138 141 143 144 145 143 144 144 134 135 140 138 139
146 158 167 166 155 149 151 147 137 127 116 107 104  97  79  65  67  60  62  65  55  38  48  44
 24  15  36  65  69  78  77  71  67  82  79  64  67  82  59  76 103 122 135 135
140 133 124 119 101  92  85  74  64  64  61 100 114 109 108 107  99  89  69  37  40  51  38  51
 47  21  48  85 103 108 116 120 126 136 137 137 140 145 147 146 142 140 140 140 137 117 130 142
148 154 157 154 150 146 145 142 128 116 111 108 102  93  76  69  70  63  66  72  67  50  50  50
 30  23  19  45  77  82  78  77  75  75  87  66  64  76  71  51  93 116 120 124
134 128 120 105  96  95  80  68  65  66  60  86 120 117 109 105 103  96  86  54  32  54  37  48
 47  18  48  82 100 110 117 118 122 130 133 137 139 142 144 144 143 140 138 139 137 133 141 146
148 150 150 146 145 142 139 133 123 115 112 107 100  88  72  69  69  67  69  74  77  54  51  59
 41  19  24  26  61  87  87  85  84  79  87  70  62  78  74  45  86 101 111 118
128 121 113 101  92  90  88  70  71  70  60  68 124 122 109 120 125 116 103  76  29  58  40  47
 50  15  40  77  98 108 116 120 121 120 131 137 135 137 140 141 140 140 141 140 139 139 142 142
143 143 143 142 138 133 130 124 120 118 113 105  99  88  72  68  71  72  77  83  87  63  53  67
 55  21  23  25  45  83  91  96 100  95  92  82  65  70  78  48  83 107 109 110
121 113 104  92  83  82  89  85  71  66  64  53 116 126 112 129 136 130 115  98  41  51  43  42
 52  19  31  66  91 103 113 118 122 123 125 130 137 137 138 141 141 140 140 140 139 138 138 138
136 134 134 135 131 127 123 120 119 119 113 105 100  88  72  68  69  75  85  93  97  78  52  72
 66  38  23  27  34  76  87  99 110 109 103  99  79  75  77  42  90 106 104 109
117 107  97  85  76  71  70  79  72  71  71  53  97 122 120 131 137 136 129 114  68  38  51  39
 55  26  31  57  83  97 108 115 121 125 121 123 130 131 132 136 137 136 136 135 134 133 134 133
132 132 131 128 127 126 125 127 122 116 113 106 100  87  72  68  69  78  93 102 109  95  55  77
 74  52  33  58  24  64  85  92 109 117 116 111 102  94  90  40  63  89 117 127
115 103  90  79  72  74  81  86  85  81  75  69  80 120 128 142 142 139 137 125  92  26  60  44
 51  35  29  54  74  90 102 111 118 121 123 123 123 125 126 129 130 130 131 131 130 129 127 127
127 127 127 129 129 127 125 129 121 117 110 107  99  89  72  68  73  86 101 111 120 110  60  82
 84  62  62  94  55  50  85  88 106 122 119 115 112 108 107  54  13  85 121 137
112 103  88  78  79  92 107 111 104  98  86  81  70 121 136 148 138 135 140 134 112  57  53  48
 47  39  24  52  66  80  94 104 115 121 124 123 124 126 127 127 128 129 130 131 131 130 129 129
129 129 129 130 126 132 135 125 124 119 108 106  98  89  71  66  79  97 110 121 130 121  65  83
 92  71  84 106  86  29  73  86 104 123 118 116 112 110 112  62  59 113 120 128
112 105  92  84  89 105 116 116 106  99  91  86  65 110 134 130 127 134 138 131 122  90  38  59
 48  39  24  49  60  72  83  93 107 120 125 125 125 127 129 130 130 131 131 129 129 131 130 130
130 130 129 126 129 136 116 112 127 111 106 102  98  86  68  65  86 107 122 133 142 138  76  83
 96  84 101 111 107  46  55  80 103 120 120 120 116 110 110  57  75 110 120 130
116 108  95  88  91 102 108 108 100  97  95  94  77  86 114 123 136 142 137 137 131 107  45  54
 50  43  26  47  57  66  73  80  94 109 120 124 125 127 128 129 130 130 128 125 125 128 130 131
131 131 131 132 129 133 119 117 121 110 107 101  95  84  69  71  93 117 134 144 152 153  91  83
 98  96 112 110 109  68  40  66  91 114 118 121 119 114 109  55  81 106 119 136
120 113 100  96  91  94 102 104 101 103 104 104  95  68  99 128 141 136 138 142 136 129  83  42
 54  48  29  47  59  66  67  72  83  93 108 116 119 124 126 127 128 129 130 125 125 130 131 131
131 131 130 134 136 135 131 123 103 104 100  97  93  83  72  77 101 127 145 155 159 159 102  84
 96 105 118 110 100  84  41  51  78 110 117 120 122 119 110  58  62  93 123 138
