P2
# 8-bit pgm gray
92 112
255
213 213 213 213 213 214 214 214 214 214 214 214 214 214 214 215 215 198 194 209 203 202 202 212
212 215 215 181 179 189 180 183 181 181 179 183 182 177 175 174 185 184 187 189 185 170 187 151
141 104 153 188 182 183 194 188 166 172 207 202 218 214 211 209 215 218 211 203 227 177 151 225
217 217 216 216 216 216 216 216 216 216 216 216 216 216 216 216 216 216 216 216
213 213 213 213 214 214 214 214 214 214 214 214 214 215 215 216 217 202 192 206 205 204 203 214
215 214 210 178 178 191 184 185 175 177 179 178 168 163 166 160 160 168 164 136 107 131  99 115
140  82  96 177 180 172 183 191 180 148 175 199 212 221 216 212 216 217 210 202 227 183 147 224
217 217 216 216 216 216 216 216 216 216 216 216 216 216 216 216 216 216 216 216
214 214 214 214 214 214 214 214 214 214 214 214 214 215 215 215 218 206 191 203 208 207 206 214
215 213 211 188 184 193 182 183 178 169 163 180 185 177 173 161 158 136 107  30  90  20 104 159
165  87  48 168 194 189 180 178 166 115 180 208 209 221 215 217 218 218 212 201 226 193 139 223
218 217 216 216 216 216 216 216 216 216 216 216 216 216 216 216 216 216 216 216
215 215 215 215 214 214 214 214 214 214 214 214 214 215 212 211 216 208 185 193 204 205 208 212
209 213 217 188 184 191 180 188 173 167 175 179 171 156 131 125 130 116  66 134  98  37  72  87
 91  76  87 133 137 145 187 170 102 110 171 122 193 188 205 211 211 213 212 200 226 201 133 221
218 217 216 216 216 216 216 216 216 216 216 216 216 216 216 216 216 216 216 216
214 214 214 214 214 214 214 214 214 215 215 215 215 215 211 212 218 206 180 192 200 196 205 211
210 215 216 187 184 197 187 179 159 160 157 160 152 101  86  82  56  45  98 114  40  54  57  59
 54  84  89  86  41  17 122 119  87  97  82 102 148  50 170 214 202 215 208 199 222 208 128 218
218 218 217 215 217 217 216 216 216 216 216 216 216 216 216 216 216 216 216 216
214 214 214 214 214 214 214 214 214 215 215 215 215 217 213 216 221 208 184 195 198 194 200 208
207 210 215 193 181 191 173 144 121  95 116 115  74  61  88  86  67  71  68  37  49  71  60  58
 63  66  72  66  71  52  41  46  67  63  35  72  76  91 124 201 215 213 209 193 214 206 132 214
213 221 218 219 219 218 217 216 216 216 216 216 216 216 216 216 216 216 216 216
214 214 214 214 214 214 214 214 214 214 214 214 214 214 212 213 216 210 188 188 194 195 202 205
207 210 206 188 178 168 101  64  54  65  61  55  58  60  67  62  56  54  51  49  50  35  54  70
 61  62  60  59  65  49  63  74  68  51  56  64  75  76  77 133 197 200 200 198 216 206 137 219
228 219 215 218 217 218 217 216 216 216 216 216 216 216 216 216 216 216 216 216
214 214 214 214 214 214 214 214 214 214 214 214 214 216 217 215 216 215 189 186 194 194 197 209
208 204 209 178 150 127  55  66  62  53  55  44  58  53  62  77  44  33  31  41  63  48  24  51
 66  48  62  95  51  38  71  74  64  49  68  62  98 108  84  60  83 172 204 184 175 146 119 137
185 220 219 217 218 218 217 216 216 216 216 216 216 216 216 216 216 216 216 216
214 214 214 214 214 214 214 214 214 216 216 216 216 214 212 209 210 212 189 187 197 189 191 195
193 174 131  84  66  49  56  51  41  36  51  71  49  37  63  54  48  30  25  49  55  10  44  44
 30  48  46  67  68  67  81  75  74  35  63  77 101 109  71  58  62  72 125  97  93 135 123 141
 62 133 221 215 219 218 217 216 215 216 216 216 216 216 216 216 216 216 216 216
215 215 215 215 215 215 215 215 215 213 215 216 216 209 212 212 210 197 172 174 182 182 175 137
 99  68  37  42  50  51  55  55  55  42  30  47  37  54  62  36  30  13  13  50  37  42  62  53
 45  47  49  52  73  53  80  64  57  52  55  59  47  30  45  49  62  57  56  75 126 171 134 188
211  96 146 223 219 215 217 217 214 215 215 215 215 215 215 215 215 215 215 215
215 215 215 215 215 215 215 215 215 215 216 216 214 212 206 198 184 190 177 177 178 149  96  56
 70  68  49  62  45  73  95  81  94  72  60  74  39  54  74  55  47  54  82  67  53  50  85 106
 73  43  40  35  82  96  44  55  51  40  34  29  27  43  57  65  36  35  45 104 158 120 105 112
174 208  71 196 219 208 212 218 217 214 215 215 215 215 215 215 215 215 215 215
215 215 215 215 215 215 215 215 215 216 216 214 210 206 197 190 181 197 183 164 106  53  63  71
 78  83  66  50  41  57  75  53  49  55  68  81  45  22  54  71  85 104 146 142  58  36  27  40
 46  44  35  45  68  94  49  48  42  34  21  22  35  53  48  70  64  45  42  90 118 105 117 173
123 153 123 146 221 214 213 215 217 215 215 215 215 215 215 215 215 215 215 215
215 215 215 215 215 215 215 215 215 216 215 210 207 195 197 204 199 189 142  93  84  69  72  76
 85  86  49  36  38  35  29  35  31  20  41  60  52  22  35  55  56  47 103 118  39  31  27  36
 34  46  30  38  87  90  53  46  42  30  34  28  32  44  46  53  67  66  33  59  83  59  94 180
199 125 118 137 202 219 216 214 215 215 215 215 215 215 215 215 215 215 215 215
215 215 215 215 215 215 215 215 212 211 204 207 192 191 206 199 188 145  79  62  80  58  63  80
 83  50  29  26  28  39  27  27  29  30  19  38  48  33  33  42  48  51  53   9  46  40  43  42
 37  56  84  69  80  37  50  52  32  21  44  30  35  28  33  55  60  32  31  41  72  67  86 187
209 183 111 153 188 211 215 218 215 216 215 215 215 215 215 215 215 215 216 215
215 215 215 215 216 212 213 216 208 207 203 207 183 183 204 193 124 100  56  50  39  44  48  48
 67  48  33  40  24  25  31  29  25  22  17  18  30  23  24  34  44  52  35  65  60  61  42  39
 50  79  90  65  48  50  51  37  33  36  28  31  46  26  20  41  53  42  13  47  69  76  75 160
195 182 116 143 176 211 205 217 217 216 216 216 216 215 215 215 215 215 216 216
215 215 215 215 216 209 211 216 208 208 204 201 199 186 171 114 118  80  30  51  69  62  42  28
 26  43  31  43  37  30  35  39  46  49   8  20  22  18  26  40  37  51  71 100  78  43  45  48
 75  74  50  32  36  59  53  49  54  32  25  25  28  29  35  32  88  63   7  68  75  65  70 122
119  87 156 118 155 206 202 223 213 216 216 216 216 215 215 215 215 215 216 216
215 215 215 215 214 213 213 213 207 209 201 175 174 141 119 104 118  47  46  86  79  61  58  45
 28  77  91  47  53  58  53  51  54  60  66  33   3  17  24  31  31  33  33  55  67  53  41 100
 96  50  34  37  36  43  54  62  48  35   6   9  27  29  26  29  53  35  63 118  71  35  68  70
 51  50 162 162 137 193 190 217 219 216 216 215 216 215 215 215 215 215 216 216
215 215 215 215 213 217 217 210 212 202 144 130 124 106  89 100  87  53  73  68  54  38  34  34
 37  90 122  77  31  29  41  39  21  51  71  40  21  18  19  37  34  19  35  23  48  41  82  90
 61  50  31  58  72  60  70  65  41  51  15   7  18  15  17  27  32  47  90  71  20  67  40  67
 81  42 145 163 167 160 181 215 217 213 215 218 216 215 215 215 215 215 216 216
215 217 214 214 215 213 214 212 203 167 109 133  93  70  59  43  60  52  49  43  40  19  17  26
 39  27  48  59  81 109  78  28  32  39  30  48  63  27  13  33  61  47  27  32  55  46  51  54
 81  66  55  64  59  46  70  76  38  63  52  16  12  31  47  32  23  65  52   6  41  45  41  41
 68  72 177 120 187 189 189 216 214 220 218 218 216 215 215 215 215 215 216 216
215 217 214 214 213 219 215 218 182 107  87  68  70  75  70  90  69  41  26  13  28  25  35  53
 65  68  61  59 114 138  92  47  35  26  19  77  83  19  12  14  64  76  37  35  36  49  34  72
 92  50  49  12  25  22  34  65  46  57  55  16  14  22  24  32  26  65  50  25  45  39  36  35
 42  86 156 113 187 171 177 200 200 203 204 216 217 215 215 215 215 215 216 216
215 217 214 214 213 219 213 202 141  73  60  82  97  67  75  90  69  36  24  27  30  52  71  62
 57  45  44  49  35  48  39  41  38  11  34  65  65  44  19  28  12  15  21  32  45  42  45  39
 46  46  35  15  14  25  21  43  53  61  70  42  30  31  24  32  28  59  54  10   0  56  69  27
 48  64  76 111 178 138 155 194 211 201 192 210 217 215 215 215 215 215 216 216
215 217 214 214 214 208 214 188 105  70  60  63  85  74  57  48  46  47  36  30  29  36  73  75
 57  55  53  43  51  57  39  37  32  25  48  64  56  48  42  18  69  85  80  49  29  42  35  31
 37  40  25  18  38  27   9  28  34  41  63  50  36  29  23  34  31  41  81 109 116  91 105  78
 62  41  50  62  97 116 133 163 210 207 193 189 213 216 214 215 214 215 216 216
216 218 211 215 213 217 219 204 131  55  50  26  43  63  56  65  50  49  43  37  56  94  93  50
 60  58  14  27  89  86  48  44  57  60  64 104  79  16  30  49  81 104  83  47  32  32  38  26
 26  25  12  28  42  31  49  32  29  36  38  69  67  44  32  16  19  24  28  55  92  89  71  83
 94  41  59  56  73  87  56  80 127 177 200 195 203 218 215 214 217 217 215 216
217 218 211 215 210 211 211 203 155  88  68  38  27  28  46  56  77  56  45  42  20  80  97  76
 62  27  45  61  47  33  62  83  77  69  83 117  96  45  41  57  50  32   0  25  48  44  29  32
 22  11  58  63  25  36  37  13  44  37  48  50  47  37  32  17  13  25  27   0   0   0  16  62
 81  43  57  77  87  86 144  87 104 180 204 191 203 217 216 215 210 211 218 215
217 218 213 208 204 219 200 202 163  69  70  35  23  24  39  67  65  47  35  44  35  45 101  93
 46  42  52  40  34  73 104 103  81  70 102 136 121  76  49  35  38  26  36  31  48  49  29  29
 17  12  55  50  58  16   3  48  42  41  24  21  42  25  14  14  19  18  24  41  63  59  98  91
 49  47  57  65  94  78 104  83 170 191 201 193 203 209 206 204 198 198 211 219
215 215 211 200 192 193 188 198 168  63  66  34  35  61  56  89  91  60  48  32  36  60  85  73
 50  38  43  44  63  86  93  79  73  83 129 162 164  75   0  51  25  33  41  26  41  70  50  23
 30  28   8  42  74  66  42  45  32  25  78 100  42  25  11  13  24  13  26  39  77  65  80  64
 42  54  75  59  55  83  51  80 191 189 204 197 208 211 208 207 214 210 201 213
213 212 210 193 194 189 173 191 177 115  92  62  85 118 108  76  90  85  50  39  20  46  48  54
 73  57  50  49  62  68  78  99  93 109 146 150 146   3  33  59  37 129 102  34  61  90  52  15
 33  48  72  78  57  52  43  24  67  54  86  77  22  23  18  12  18  29  27  15  33  35  45  44
 48  55  67  65  51  87  86  68 144 182 206 203 212 211 213 214 212 217 211 198
213 213 211 190 204 196 194 173 176 111  77  53  80  88  86  75  59  50  51  92  71  39  64  53
 65  56  62  65  77 102 126 131 105 127 150 167 128   0  38  23  68 157 124  62  55  46  40  40
 46  63  58  35  19  27  33  25  81  86  45  24  28  27  23  11  14  30  29  17  18  23  51  43
 43  55  70  65  59  69  58  83  62 183 205 202 211 213 214 214 215 212 217 203
215 215 208 189 189 208 193 183 133  38  31  39  38  74  60  42  35  35  49  54  69  52  50  59
 33  27  39  46  75 112 109  98 100 149 154 162 102   0  29  12  45 130 116  70  44  44  47  48
 50  53  33  26  16  30  34  17  55  64  35  45  25  22  20   8  14  13  15  19  15   5  36  37
 41  74  71  56  57  47  54  60  84 128 188 199 211 214 214 214 214 214 217 212
216 216 206 192 193 209 205 195 102   0  37  28  40  40  60  41  17  34  33  28  30  55  52  39
 46  40  29  41  52  79 103 102 130 158 157 159  96   0  23  15  18  81  90  63  30  45  54  58
 54  54  59  54  58  34  41  40  43  33  35  53  41  33  28   8  11   8   5  16   9  33  48  41
 46  61  41  30  56  64  73  67  82  67 171 208 209 213 214 214 214 215 216 216
216 220 208 200 189 204 195 159  69  23  45  56  80  79  31  73  50  22  27  23  42  67  55  34
 27  38  25  23  41  32  79  83 112 156 153 157 124   0  24  17  25  44  69  54  38  53  61  64
 58  53  65  82  92  50  35  52  46  35  36  37  51  37  19  15  14  36  52  31  10  44  50  41
 48  34  39  37  49  81  84 102  87  45 144 200 209 214 214 214 214 214 215 212
213 215 210 203 202 170  70  83  70  47  58  51  59 119 113  90  98  65   6  23  25  28  41  35
 16  79  99  80  50  56  40  59   0  85 154 159 154  56   0  24  14  30  51  48  29  52  60  62
 64  60  59  89 112  99  33  51  41  33  36  10  50  50  50  30   6  58  75  39  36  37  26  36
 45  31  41  48  39  58  71 109  96  55  97 198 211 214 213 212 212 214 214 212
215 213 214 210 197  58   0  59  86  74  52  60  68  96 123  87  58  59  56  69  44  28  43  29
 52 101 126 100  83  79  36  85  75   0  80 117 133 116  54  30  67  88  66  47  12  44  60  69
 72  60  59  61 111 102  41  49  33  38  38   0  33  41  48  57  84  78  58  43  37  27  46  44
 36  38  59  45  46  47  59  56  61  71 132 197 197 205 210 210 217 211 214 213
214 218 211 167 133  60  54  58  68  65  46  46  90  96  58  58  53  25  69  89  60  45  49  13
 63  96  81  31  60  99  70  75 111  93   0 137 158 118  67  83 104  69  49  37  23  22  68  88
 84  67  58  60  77  72  40  42  40  28  58  37  32  55  56  56  75  59  45  32  25  23  55  35
 37  47  36  31  51  64  66  49  55  88 131 174 193 208 205 210 206 209 213 213
215 192 146  91  58 108 142 125  74  57  36  37  33  72  80  45  40  38  63  72  57  62  59  58
 79  56  32  80  91  78  64  89 131 121  16  87 126  54  56  60  84  86  47  21  19   6  51  79
 93  89  58  35  41  48  80  50  43  46  43  29  40  56  47  36  45  45  42  33  18  29  51  35
 40  43  42  42  31  51  54  57  82  95  95 125 142 175 217 211 211 210 211 213
217 117 165 136 121  63  96 106  95  53  41  35  55  42  53  58  54  41  53  96 111  94  74  76
 81  13  86 124 118  74  39  62 119 128  66  43  60  58  42  40  41  31  15  11  40  45  13  39
 90  95  28  52  47  56  71  48  33  48  45  53  67  47  28  39  46  41  39  30  15  48  46  24
 30  47  53  46  44  63  49  53  61  81  74  89 170 159 189 222 211 213 210 212
219 165 160 173 159 105  59 176 166  38  49  32  23  53  58  48  57  35  58 108 126 115 112  63
 75  25  84 105  91  44  76 128 121 146  72   0  52  55  47  70  61  37  40  27  68  86  71  27
 32  64  29  40  53 107 106  33  47  29  48  64  84  59   4  54  58  39  40  36  18  55  51  15
 28  58  68  56  58  64  50  67  60  55  64  45  74 127 193 218 215 213 212 208
214 208 155 159 172 137   0 124 160  99  49  46  33  55  60  40  45  43  71 104 122 134 131 102
 46  40  59  57  34  44  96 134 103 105  40  28  35  26  74 110 105  70  38  32  66  80  93  90
 55   3  20  25  42  51  77  68  41  49  53  48  76 107 105  84  65  57  43  32  18  29  70  20
 20  36  72  59  42  61  42  55  54  63  60  62  44  89 201 217 212 210 214 210
219 215 207 160 146 148  78  24 126  90  84  99  65  36  23  26  48  67  91 129 145 149 143 129
 90  44  26  38  53  79  80  86  89  52  29  39  55  77  63  87 123  90  50  52  68  86  88  93
 83  45  10  32  34  33  67  85  78  48  44  76  73  88  85  50  46  58  38  22  41  48  75  68
 19  52  72  63  38  48  61  38  66  62  52  85  97  44 145 204 210 213 215 213
219 210 209 209 166 125 115  67  41  36 116 126  89  71  67  61  64  91 110 128 133 143 148 143
118  89  34  57  88  96  97  85  62  37  49  22 101 128 109 105  87 112 107  70  64  82  83  84
 82  54  35  34  34  42  84 100 111  82  31  75  73  77  39   0  24  25  27  33  51  44   0  48
 49  41  73  73  53  45  62  69  56  92  80  64  82  67  97 205 207 215 216 215
215 218 218 210 206 149  97  85  27  44 126 124 113 108  97  95  96 103 113 120 120 125 134 142
118 132 110  34  44  74  66  36  36  53  49  27  38  36  54  62  79 121 124  76  79  92  91  89
 84  72  44  50  41  68  84  95 101  82  45  74  82  79  59  12  33  50  57  60  41  23  19   5
 37  40  43  57  50  43  42  71  58  99 105  71  51  79 104 204 202 214 215 214
221 214 221 221 213 161  63  42  35  49 135 129 116 117 116 115 111 110 119 130 132 129 125 130
136 159 158 124  83  57  47  60  71  90 100  87  89  85  83 102 117 104  92  65  94 104 109  95
 72  64  61  62  29  74  91  85  90  66  59  82  68  77  80  52  21  35  59  60  48  34  27  31
 34  37  35  38  42  32  37  52  51  58  81  70  57  60  79 190 199 211 212 212
176 175 179 189 185 100  53  52  26  70 144 129 120 116 123 121 110 115 131 143 147 147 146 145
160 163 160 158 154 137 115 103 113 142 152 135 143 123 115 138 155 145  94  84 103 104 115  97
 65  73  53  40  20  76 105  81  48  62  97  90  65  49  70  49  30  52  55  51  54  30  24  24
 25  33  29  38  37  24  28  45  51  68  73  69  60  63  14 166 202 210 212 215
198 195 173 176 144  69  75  54  37  98 154 130 116 124 128 120 115 120 137 154 162 167 165 155
155 157 160 170 154 137 124 117 141 163 166 142 101 105 137 163 165 145  99 106 116 110 105  85
 86  83  44  40  22  45  62  50  59  78  91  72  52  79  79  68  81  62  52  52  72  41   4  25
 22  23  20  31  33  20  30  36  61  86  68  58  63  55  39 121 187 215 213 218
215 208 195 202 145  75  95  85  35 125 163 129 116 134 129 119 121 123 134 153 167 175 171 157
143 153 153 151 142 129 131 132 152 162 158 146 110 100 129 143 129 110 125 123 120 113 122 104
 83  69  63  61  37  66  66  66  81  80  65  63  91  94  83  72  73  74  66  60  58  43  17  16
 24  25  25  33  39  45  44  46  56  61  44  46  56  55  48 118 144 174 215 213
215 211 215 198 124  81  90  91  42 147 163 128 130 141 128 123 126 127 128 143 164 172 169 160
149 152 145 137 134 137 138 137 148 159 155 135 122 118 127 133 130 136 143 136 125 129 144 138
 64  58  74  57  41  72  94  99  92  98  98  75  99  94  90  86  77  68  67  59  59  56  43  40
 34  21  38  42  47  49  35  48  48  38  50  43  66  62  20 126 159 141 181 218
206 217 193 165 139  62  67  45  85 149 143 133 135 142 123 121 130 127 128 136 154 169 171 164
150 147 140 136 133 135 136 138 145 151 155 144 131 130 139 143 148 157 148 131 127 132 152 164
108  32  48  20  70  88  94 100  98 106 103  69  99  99  86  93  89  80  69  50  48  47  50  59
 67  63  57  55  47  57  60  54  46  44  54  56  42  43  46  90 175 177 144 216
181 203 180 194 113 117 102  56 105 125 121 111 120 127 107 111 121 125 125 129 146 162 165 164
151 145 141 137 135 139 140 143 147 148 153 146 133 138 153 160 159 162 147 128 130 133 158 173
159  65  55  77  92  93  94 100 110 104  95  90  82  93  84  87  89  89  77  52  37  27  45  48
 47  56  53  42  51  50  74  73  73  57  66  66  56  40  54  76 168 189 164 205
212 179 177 150 143 141 113  61  99  98 100  83  86  79  73  80  88 106 114 121 138 149 153 160
152 147 147 141 140 145 148 145 146 146 147 138 132 140 156 161 157 150 140 133 127 138 161 171
167  99  50  91  93 100  98  98  91 101 126 109  90  77  87  83  72  69  53  30  40  40  33  30
 23   1  44  41  50  66  59  44  60  71  65  63  64  51  41  35 169 180 156 207
217 210 133 158 221 133 104  66  86  71  70  65  59  49  48  51  62  80 100 111 126 136 143 152
149 149 149 146 147 148 148 142 138 137 135 128 121 121 131 142 136 130 125 121 119 129 145 160
152 122  41  66  89  96  99  85  88 125 136 111 100  90  78  74  76  51  41  49  35  28  28  26
 28  28  45  52  59  52  40  51  50  62  63  72  65  53  75  35 133 174 155 202
213 216 144 154 211 172  81  67  97  93  91  92  90  83  75  66  60  60  72  89 106 123 131 139
142 147 148 146 147 145 142 136 129 125 122 116 103  92  89  91  88  88  86  89  99 107 119 131
120 112  93  67  63  72  83  98 116 129 129 112 102 105  85  91  94  41  51  43  27  39  58  36
 21  19  43  63  53  54  47  55  64  45  65  76  61  39  73  63  93 119 183 206
213 213 167 142 208 204 126  18 103 117 117 122 122 119 117 111 102  94  81  79  87 110 123 132
137 143 146 143 141 136 131 126 120 116 112 105  91  84  79  74  73  72  68  74  85  90  96 105
107 100  95 107  93 104 114 110 110 119 129 120 111 106  91  92  76  32  49  39  50  53  67  57
 52  38  51  68  49  28  48  22  59  67  86  70  41  46  37  69  76 141 183 205
216 207 174 130 199 213 172   8 101 127 123 124 121 113 109 104  97  92  87  87  86  88 107 124
130 142 147 144 140 132 124 120 116 114 113 108 100  96  90  81  78  75  67  64  69  75  83  88
 88  89  98  90  92  94 100 101 102 110 125 124 116 110  94  97  89  26  34  53  56  37  35  50
 60  47  53  69  59  54  61  60  34  55  85  56  38  43  52  68  71 181 173 184
217 206 169 135 185 216 164  46  71 130 122 113  99  86  77  77  75  73  74  74  75  77  88 108
127 144 152 151 147 136 127 122 118 119 119 117 114 114 114 106 107 112 109 107 107 111 112 108
107 110 105 103  98  94  96 101 100  98 111 117 119 117 104  98 113  76  37  49  55  49  53  57
 47  34  33  59  69  70  61  68  63  35  73  56  38  41  70  93  57 173 193 166
217 208 171 155 186 211 156  61  45 108 122 101  78  71  71  70  72  81  87  88  74  67  72  84
127 151 157 160 157 141 132 129 122 121 118 121 119 117 111 100  93  90  94 104 104 113 122 127
130 131 134 132 124 117 111 107 106 108 108 111 118 118 109 101 118  91  14  43  57  50  39  43
 32  28  22  47  74  80  81  62  56  61  66  63  47  26  50  80  86 198 201 192
214 211 171 154 199 203 174  88  29  90 123  83  50  59  86  97  55  49  52  67  80  76  65  62
125 166 174 171 166 150 136 130 121 117 113 116 118 110  89  74  77  81  82  74  73  80  84  91
100 116 128 134 134 132 125 123 120 119 121 117 116 119 113 108 113 105  68  54  49  54  50  34
 26  22  20  34  51  85  95  79  66  78  82  67  37 101  75   0 125 200 199 198
217 208 161 159 206 203 186  84  68  94 117  64  54  89 118 103  51  47  34  26  42  66  69  61
136 174 184 184 176 160 139 126 115 110 107 112 107  93  85  89  94  79  79  74  71  69  74  74
 75  83  84 107 128 132 132 132 130 128 128 122 119 122 120 118 107 112 102  86  81  71  54  42
 35  29  24  25  21  38  60  68  65  55  63  60  43  99  79  18 122 176 179 176
215 208 162 160 210 199 106  91  88 103 124  91  82  93 132  96  45  24  75  60  24  53  73  70
150 180 191 193 183 166 140 120 107 102 102 110  98  90  99  93  86 102 108  66  45  38  44  49
 62  79  81  72  92 124 129 131 133 131 129 125 126 127 124 123 114 105  96  91  83  73  56  42
 37  35  36  32  20  41  50  47  45  23  44  47  43  48  90  51 108 155 185 160
211 210 183 164 167  92  10  67  62 120 122 101  89  79 114 107  52  48  71  59  18  46  51  89
170 187 195 195 182 171 144 113 101  97 101 101 106 103  95  92 108 128 112  49  47  54  31  47
 48  64  66  82  80  89 115 126 130 127 126 129 129 131 127 127 120 104  96  93  85  76  61  41
 34  35  44  36  25  58  65  63  42  32  50  46  34  57  54 122 126  83 121 172
220 200 121  76  38  82 118 135  92 130 123 105 102  91  88  98  74  48  38  50  71  74  61 122
181 192 201 195 180 170 146 112  98  95 101 108 116  89  87  86 106 128  97  52  31  90  53  43
 57  99  84  52  79  91 100 117 123 123 125 128 127 134 133 131 122 107 100  95  89  78  61  44
 44  45  41  38  40  43  53  55  38  31  27  40  53  35   0 144 184 154  93 103
211 110  26  89 165 166 181 118  81 144 124 114 111 107 100  95  85  79  84  92  82  82  91 162
185 187 196 190 174 164 147 128 107  92 103 119 112  89  85  78  89 111 100  68  56  90  74  38
 87 113  81  58  78  96 101 113 121 127 130 132 133 144 143 135 127 112 104  99  92  81  61  53
 53  40  42  48  41  49  58  57  44  27  27  20  70  67  76  66 166 202 144 107
196  94 146 116 189 159 155  97  87 153 135 124 120 123 112 106 101  97  95  87  83  77 114 174
180 190 197 178 164 157 150 146 128  99  97 113 117 113 105 101  95  86 105  84  48  42  43  66
 93  86  68  79  82  90  97 104 111 119 127 136 140 145 141 138 130 114 107 103  95  84  64  52
 41  30  38  41  40  65  62  45  38  27  35  34  83  79  65 109 111 166 178 133
163  92 207 114 139 138 156  88  97 162 155 142 133 128 126 125 111 107 102  96  98  76 141 178
178 192 189 167 157 154 154 160 151 131 111 104 108 105 108 108 103 110 110 113 111 114  97  93
 92  89  95  86  94 100 100 103 107 116 130 143 148 149 143 140 129 114 107 105 100  83  65  48
 35  47  41  35  41  58  59  39  48  49  45  52  70  74  59 107 130 123 195 157
137 109 185 179  69 101 148  65 111 166 168 159 143 140 138 128 122 118 111 104  98  86 155 178
178 192 175 162 156 157 162 168 163 156 139 113 108 108 108 110 110 112 116 120 126 131 122 114
112 111 110 110 112 113 113 114 117 126 139 150 153 155 151 141 127 114 108 106 104  77  64  52
 36  57  31  35  41  42  54  51  41  46  55  55  51  77  65  69 148 120 158 165
158 149 153 206 181  96  87  72 117 172 172 167 155 156 152 140 129 124 112 107  97 106 163 179
186 187 169 161 157 162 168 168 165 163 155 139 123 116 112 116 120 122 125 127 131 135 132 131
131 131 132 132 129 126 126 128 130 137 147 156 158 159 152 140 128 119 111 107  97  81  71  50
 52  52  51  56  51  47  60  87  75  64  37  59  55  59  60  42  95 156  85 133
159 117 136 206 176 123 106  60 126 172 173 171 167 164 155 142 129 123 114 109 101 130 173 183
190 180 164 160 159 164 169 167 165 165 163 158 145 134 126 127 132 136 139 144 144 142 143 142
141 139 138 137 136 135 139 142 143 146 154 161 161 160 153 138 129 126 115 109  98  84  72  43
 93  56  29  41  52  56  72  96  85  65  54  71  71  43  42  62  33 146 117 136
177 125 102 187 167 138 117  43 127 168 169 169 169 168 159 146 134 127 119 113 113 154 179 185
190 174 163 160 159 164 166 168 169 165 163 166 162 152 142 135 138 144 150 156 161 165 165 159
153 150 144 140 146 152 155 159 159 162 163 169 167 165 155 136 129 131 117 112 105  85  67  42
 87  73  27  38  36  64  81  73  63  71  80  75  69  37  38  45  45 116 105 131
213 181  88 206 201 129  92  73 116 160 162 170 169 166 162 151 141 134 127 127 139 163 179 192
186 172 166 161 161 162 162 165 165 164 166 169 171 171 161 147 141 147 156 161 165 172 170 168
167 158 155 158 165 172 176 175 172 169 168 167 169 165 154 141 134 132 116 109 105  85  69  35
 67 100  38  51  47  42  59  62  51  60  71  67  65  52  49  52  48  80  90  90
206 199 114 190 182  62 107  89 104 156 156 163 165 167 166 158 149 144 143 143 154 171 186 195
181 170 166 161 161 161 161 163 164 164 168 170 171 174 174 172 163 155 152 161 170 170 171 172
174 171 171 175 181 185 184 181 176 170 167 165 165 160 152 143 133 129 115 107 104  85  65  47
 63  75  35  43  53  44  44  55  66  53  34  30  65  66  45  52  21 118 105 110
202 210 145 164 142  91 104  73  95 147 151 154 161 168 167 163 158 157 159 156 164 178 195 195
177 168 165 161 160 159 158 161 162 163 167 171 175 175 178 183 180 172 166 168 173 172 175 178
181 182 183 186 189 189 187 185 179 173 170 168 165 159 154 140 130 127 115 107 102  84  62  59
 83  45  35  41  53  52  53  63  74  48  46  51  66  66  34  45  61  43  73 126
208 208 125 148 128 105  80  77  84 136 148 154 162 170 169 168 168 168 167 164 170 186 197 193
178 171 164 161 161 158 157 159 160 162 167 172 178 179 181 182 185 184 179 176 174 175 177 181
183 183 185 187 186 184 182 182 179 175 169 168 160 153 154 140 127 124 113 108  99  82  60  86
115  58  47  55  40  53  57  70  86  75  51  51  64  61  53  45  69  61  30  97
210 181  75 110  99  72  78  73  60 125 149 152 164 173 173 174 175 176 171 168 178 192 197 190
179 172 163 161 159 157 155 156 158 161 167 171 176 181 184 184 187 185 179 177 177 176 178 179
181 182 184 185 183 180 177 177 176 174 168 164 156 151 150 138 125 121 113 109  97  77  71 108
107  72  54  52  37  51  47  56  65  77  72  55  56  66  47  44  66  57  87 123
179  98 116 151 101  91 132  80  57 109 141 154 167 170 175 176 176 176 172 172 187 195 197 188
176 169 164 160 156 156 153 151 152 157 164 169 175 181 182 185 186 184 183 181 179 177 177 177
177 180 180 180 180 179 177 175 172 170 169 160 156 155 146 135 123 116 112 103  96  74  74  89
 62  84  88  50  35  53  48  49  59  55  44  44  58  59  47  52  37  62 154 128
127 123 199 180 148 149 123  71  65  87 142 150 158 169 173 176 176 173 169 180 193 197 196 187
176 170 165 160 156 156 153 149 147 151 162 171 176 182 183 186 187 185 184 182 183 184 181 178
176 175 175 176 177 177 174 172 169 167 161 158 156 148 141 132 120 114 109 101  91  77  60  49
 52  79 103  90  52  50  37  50  54  60  70  64  67  53  53  49  45  33 118 161
140 204 212 185 131 113  93  75  67  62 126 148 161 167 172 177 176 171 172 185 193 196 196 186
176 171 167 162 158 158 155 150 146 146 159 172 177 183 184 187 187 186 186 185 186 187 184 181
178 175 174 173 173 172 170 168 165 163 159 158 153 146 141 128 116 109 105 102  88  76  69  69
 72  58  58  70  67  61  36  43  42  50  59  60  65  53  61  61   3  54  41 122
203 210 205 207 170  85 101  76  70  80 126 149 156 161 172 177 175 170 177 187 188 193 195 185
176 171 168 165 162 161 158 155 148 143 157 171 177 183 185 187 188 187 187 188 188 188 186 184
182 179 176 173 170 168 168 165 162 160 156 155 145 140 140 125 114 107 102  98  87  74  72  78
 71  62  47  23  61  67  52  71  57  43  64  73  64  55  59  77  68  70 145 108
205 212 208 199 170 130 106  45 110  76 105 145 155 164 172 179 174 167 175 181 180 186 189 182
174 171 170 165 163 158 159 158 149 142 154 172 180 184 184 185 188 188 189 190 190 190 188 185
183 180 176 174 172 169 167 162 159 158 155 152 142 140 136 123 110 107 106  96  84  74  67  74
 61  62  43  16  49  65  59  74  88  71  67  66  45  56  82  92  76  80 139 138
123 183 205 195 167 156 144   0  85  93  82 144 157 168 171 176 170 163 168 175 177 180 185 180
169 163 161 158 157 154 156 156 154 139 150 171 179 183 182 183 186 186 187 188 189 190 187 184
182 180 175 174 172 168 165 160 156 155 155 153 144 141 134 121 108 108 106  97  82  72  60  58
 60  56  21  34  51  64  55  51  69  83  93  78  72  86  96  91  93 104 123 106
184 154 145 199 203 162 170 109  74  86  63 134 155 169 172 174 171 163 154 160 168 175 177 170
156 147 146 148 146 151 154 152 153 134 151 173 177 181 181 182 184 185 185 186 187 188 186 183
181 178 173 172 170 166 163 158 154 153 154 154 145 139 130 117 108 107 104  93  78  81  75  52
 51  53  40  48  46  47  36  35  57  76  90  90  91  95  97 103  98  95 106  84
208 197 158 149 206 162 158 127 144 145  31 123 158 163 169 172 172 169 155 145 150 158 157 149
139 133 133 132 130 142 146 146 144 128 163 178 178 183 183 183 185 185 186 187 188 188 186 182
180 176 171 170 168 165 164 158 155 154 151 152 143 135 123 113 107 107 103  97  85 101  95  54
 50  46  43  40  27  33  29  31  41  43  65  82  83 102 109  99 105 109  86  84
205 200 200 155 186 169 104 129 106 151 166 140 153 160 164 169 170 169 168 148 135 139 140 137
127 126 130 126 123 133 136 137 128 125 175 184 181 184 183 185 186 186 187 188 188 186 185 182
180 176 171 170 168 164 163 159 156 155 151 150 141 131 120 111 107 108 100  90  72  88  98  53
 27  29  34  37  32  40  39  31  34  33  39  63  82  96  95 109 117 106  86  95
204 201 198 164 166 149  83 124 133 180 190 132 142 157 161 167 167 163 168 149 120 124 132 136
126 128 137 134 122 115 112 107 106 144 184 184 187 184 183 186 186 185 187 188 188 185 184 182
181 178 173 171 169 163 159 158 157 156 153 149 140 127 119 112 112 111 100  87  39   0  22  23
 32  38  45  46  38  43  42  33  31  27  54  58  69  70  84 100  70  57  82 119
205 203 197 143 142 111 162 166 176 147 149  61 133 156 157 163 164 164 163 133 106 110 123 136
133 134 137 129 119 114 112 115 119 160 182 186 192 188 186 185 186 187 187 187 187 185 184 182
181 178 173 171 169 164 162 160 157 156 153 148 136 124 117 113 114 114 103  78   3  15  25  29
 16  18  21  30  20  37  42  39  29  21  59  64  60  76  83  82  73  55  89 121
207 207 175  86 132 166 183 150 181 183 115 111 157 144 154 158 162 165 162 129 109 112 125 137
136 136 139 134 128 128 129 127 136 169 182 187 191 190 188 185 187 188 187 186 186 185 184 182
181 178 173 171 168 164 164 161 158 155 151 143 131 122 118 115 116 113  98  58   0  26  39  41
 13   3  38  53  23  27  40  48  36  38  35  42  44  59  69  80  84  66  62  97
206 190 137 137 186 171 188 160 184 167  62 150 168 131 148 150 155 159 151 123 113 114 129 139
134 136 141 135 129 130 131 135 161 177 184 180 186 189 189 186 188 188 187 186 185 185 184 182
181 178 173 171 168 165 166 162 158 155 147 138 128 123 120 116 117 110  91  37   0  26  30  10
 11   9  25  23  21  14  30  50  53  40  35  29  31  28  41  69  73  68  72  67
158 149 108 147 116 122 129 113  87  34 156 154 132 151 142 142 152 153 148 124 108 119 134 139
135 132 143 140 134 135 145 162 173 178 182 182 186 187 188 189 188 187 185 184 183 183 182 181
180 178 176 173 170 168 165 161 156 149 144 136 129 126 124 120 116 104  80   0   5  22  27  11
 12   2   3  14  22  24  22  16  54  58  40  40  68  58  64  78  59  67 108  54
190 196 109  87  97  99 144 108 110 171 178 110 181 150 136 140 144 150 151 130 112 122 133 141
141 130 137 144 150 157 168 174 175 179 179 180 184 185 185 186 186 186 185 184 183 182 181 180
180 177 176 173 170 168 164 160 155 147 140 134 130 129 126 125 111  98  52   4  20  14  18  14
  7   2   7   7  14  16  30  33  35  54  86  63  44  69  68  67  72  66  30  95
213 193 109 151 177 188 207 195 173 168 136 155 185 158 133 138 134 141 143 130 116 121 128 128
121 116 135 153 165 171 174 178 178 177 176 176 179 180 181 181 182 183 183 183 183 181 180 179
179 176 175 172 169 167 162 158 153 145 138 133 132 130 126 114 113  90   2  21  29  25  25  16
  6  10   1   9  19  25  35  41  37  46  53  72  71  66  52  38  67  91 128 141
202 204 118 134 175 190 201 205 198 128 176 205 207 190 134 134 129 131 136 132 124 128 127 115
101 111 150 173 179 180 180 179 175 173 174 175 175 175 177 177 177 178 179 180 180 180 179 178
178 175 173 171 168 166 160 156 152 143 138 136 134 129 123 113 104  47   0  16  16  17  20  10
 18  22  20  15  27  22  24  29  24  56  58  38  72  61  25  31 106  84 132  78
206 208 169  97 141 173 191 201 176 142 193 210 204 201 152 129 129 124 123 122 121 123 127 127
124 136 161 173 181 184 181 176 174 172 171 171 169 174 172 173 174 175 175 176 179 179 179 178
176 175 173 170 167 164 158 155 150 144 141 137 132 125 117 111  80   0  17  22  13  10  10   6
  6  17  33  37  32  23  27  25  41  57  51  43  51  72  69  29  96  85  29 120
212 206 201 159 132 134 158 183 156 185 179 187 196 206 166 130 129 121 112  91  93 108 111 118
125 129 132 136 146 159 167 169 171 169 163 162 159 158 163 167 169 171 171 172 176 176 178 177
174 174 173 167 163 159 156 155 149 144 141 132 125 119 113 105  56   0  12  17  15  16   8  16
 29  34  24  35  40  41  27  43  58  48  34  27  46  81  97  62   0  69 155  95
197 208 205 201 165 168 145 156 137 192 203 193 184 187 128 122 131 123 119  93  72  69  85 103
111 114 116 114 116 121 125 133 142 149 154 158 154 148 155 157 158 164 168 171 175 175 176 175
173 171 168 163 159 157 155 153 148 143 137 130 124 116 106  87  37   0   7  11  16  19  19  25
 35  39  27   8  23  47  57  63  44  50  46  40  34  57  72  70  88  22 126 135
155 168 175 171 185 197 184 175 141 182 197 200 206 177  91 107 126 122 120 108  88  83  73  76
 87  91  94  89  80  72  68  72  82  90  95 103 110 105 106 135 149 157 165 169 173 173 174 173
171 169 166 161 156 154 153 151 146 141 134 128 121 111  99  80  26   2   8  20  28  28  27  29
 28  33  43  29  30  44  47  43  41  48  45  36  40  58  74  59 119  79 136 133
203 190 196 201 204 186 190 159 151 192 203 203 202 147  90  99 100 125 119 115  99  98  95  95
 90  85  87  93  94  97 100  97  98  97  92  90  80  80  98 117 132 147 158 163 168 172 173 172
170 168 165 161 156 153 152 150 145 140 128 121 115 102  90  76  24   0   9  20  30  29  32  31
 39  41  40  46  49  53  49  22  45  39  41  43  75  63  60  74  78  30 148 146
206 208 206 204 198 196 182 185 179 154 189 196 205 132  99  92  55 100 119 118 106 102 104 109
114 118 126 137 146 149 148 148 137 134 129 125 130 135 136 136 137 139 144 156 163 167 172 170
169 165 162 160 157 156 153 148 141 133 124 115 106  96  89  71  24   7  11  13  32  29  32  41
 44  43  42  43  54  63  74  44  17  26  37  55  67  52  70  69  39  61 136  73
204 203 201 202 196 195 202 198 195 185 175 161 160 116 109  87  57  54 110 118 115 105 109 109
120 128 134 137 142 141 139 144 134 132 136 142 145 152 153 155 155 150 148 151 155 159 164 161
158 160 159 157 154 152 148 142 136 126 120 110 100  93  89  71  37  11  16   8  18  34  42  45
 46  45  44  42  44  56  70  69  28  31  33  38  39  49  69  50  47  87 109   0
203 203 201 201 201 187 192 198 198 196 198 194 148  96 107  80  50  43  62 115 117 116 106 110
114 118 122 125 128 126 126 127 128 136 137 142 148 156 160 165 167 162 155 149 148 156 159 154
151 155 155 152 149 148 145 138 132 123 115 104  96  92  86  67  46  18  17  11  15  25  35  49
 48  47  45  46  47  51  69  78  46  44  43  43  49  60  51  51  57  60  75 121
202 201 200 199 199 199 189 193 204 195 181 153 121 108  83  75  65  59  29  76 113 116 120 121
120 118 121 121 124 124 127 130 137 144 140 147 155 159 160 161 165 164 159 154 150 151 157 154
152 152 151 147 145 144 140 133 127 118 107 102 100  93  85  65  51  32  17   9  13  24  22  41
 48  47  49  49  53  57  60  79  55  33  42  47  50  47  60  46  46  68 114 144
201 201 202 200 200 202 191 180 158 121  79  36  90 114  93  93  75  63  53   0  88 114 119 125
124 124 122 126 129 129 134 137 138 140 140 147 149 152 153 155 158 158 156 154 150 145 151 151
150 148 147 145 143 140 135 129 122 110 105 104 101  93  83  67  56  42  25  11  11  30  28  25
 43  49  53  53  54  53  62  64  70  51  48  53  82  78  62  68  72  78 106 128
199 199 202 200 191 171 139 105  91  83  83  80  92 105 105 102  81  63  57  30  42 104 116 118
121 127 123 127 129 129 134 137 138 140 143 144 144 145 147 149 150 149 148 147 146 142 144 146
145 144 145 144 142 138 132 125 118 107 109 105  99  91  80  70  63  49  39  28  25  30  33  26
 27  48  54  55  55  56  56  63  73  82  74  65  77  95  79  67  73  93 103 117
200 194 178 152 131 108  85  93 108 100  90  72  85 112 109 109  86  60  55  46   5  81 113 116
118 127 129 126 129 129 134 139 140 140 141 141 140 142 143 144 144 144 144 144 143 142 144 144
142 143 143 142 138 135 125 115 112 111 111 106  99  90  79  70  66  58  50  44  37  33  35  36
 24  32  48  57  54  54  57  65  69  67  58  67  53  61  76  84  88 111 114 110
151 138 128 124 119 111 102 101 105 101  93  75 111 123 108 110  92  61  55  45  28  51 100 120
121 125 128 127 129 129 134 138 138 139 140 141 141 143 145 146 146 145 143 142 140 140 142 141
138 139 139 137 133 128 118 110 111 114 113 106  99  90  77  69  68  61  56  52  46  36  36  37
 32  20  38  52  51  53  53  59  66  56  44  70  56  18  55  84 104 124 127  89
134 139 141 132 120 109  99  96  98  93  79 103 130 118 112 111  98  74  62  49  27  41  75 112
121 125 126 127 129 129 133 139 141 144 147 148 147 148 149 151 152 150 145 141 138 135 136 135
131 134 135 132 127 121 113 111 115 116 114 107  99  88  78  73  71  65  59  54  53  44  40  43
 34  26  24  40  57  57  54  59  57  47  62  75  96  96  88  81  86  97  98 117
138 134 129 126 120 110  98  89  88  84  80 102  96 118 116 114  97  81  66  53  30  44  35  92
120 119 127 123 126 127 115 130 139 145 152 157 158 154 148 149 151 149 145 141 139 134 131 129
129 132 130 124 119 115 115 117 116 115 111 103  94  85  78  76  73  70  63  57  57  49  41  40
 37  29  23  26  54  59  59  64  56  48  72  80  85 134 133 105  83  95 131 135
128 126 123 119 118 114 103  90  82  77  86  82  84 126 124 121 105  83  65  58  34  41  46  39
 98 122 124 123 123 126 126 132 135 141 147 152 157 154 149 150 151 148 143 138 134 130 127 125
126 125 123 121 118 116 117 118 117 114 111 103  94  86  78  74  73  71  66  59  57  51  44  40
 38  29  23  25  38  54  58  59  55  46  70  80  72  93 134 114  82  80  77  89
123 122 119 117 117 115 104  90  81  82  86  85  87 118 118 111 105  85  68  63  43  36  49  32
 47  90 121 125 126 123 125 130 133 137 141 144 149 150 147 147 148 144 138 132 128 126 123 121
121 120 119 119 120 119 119 119 117 114 111 104  95  86  77  73  73  73  69  64  58  55  48  41
 39  30  22  25  27  51  60  59  60  58  72  80  80  82  87 117  99 107  76  96
120 119 117 116 116 111  98  88  84  79  83  86  82 107 103  89 106  98  75  63  54  30  50  33
 49  33  53  99 118 123 124 125 129 130 132 133 137 143 141 142 140 136 132 127 125 124 121 118
118 121 122 122 123 122 121 121 117 113 109 100  92  83  75  71  73  76  73  67  58  58  52  42
 41  30  21  24  27  45  60  61  61  59  63  75  79  79  83  62  82 105  82 115
117 116 114 112 111 107  94  84  84  81  92  92  86  98 112 117 122 106  82  63  58  31  42  39
 38  47   8  31  71  93 111 117 120 122 124 127 131 134 134 134 130 127 124 123 123 122 122 122
122 126 127 125 123 122 121 121 117 113 108 100  91  83  74  71  73  75  74  68  61  60  55  46
 41  33  20  27  34  40  59  59  61  64  62  70  79  81  77  62  51 104 111 130
118 116 113 111 106 102  95  85  88  89  94  97  92  96 125 128 122 110  94  72  60  40  36  45
 37  44  30  41  61  72  94 109 114 118 119 123 124 123 123 123 124 122 120 122 123 121 126 128
128 128 128 127 125 124 122 122 118 113 108 103  91  84  71  70  72  73  75  69  64  62  57  49
 42  33  20  35  41  37  56  60  60  62  64  67  76  77  78  63   0  78 116 129
118 116 113 111 105 101 102 103 105  99  98  98 100  98 129 131 126 115 105  82  65  47  29  46
 39  42  31  37  60  70  84 104 114 118 118 119 118 118 118 118 122 124 123 124 125 127 129 130
130 128 128 129 130 129 125 124 119 114 109 103  91  83  70  68  70  73  75  72  68  64  58  48
 44  29  28  44  47  32  46  62  62  62  62  65  73  79  79  61  22  90 109 121
118 116 113 111 109 109 115 120 118 112 109 108 109 105 119 131 131 122 112  96  77  57  27  38
 48  43  30  35  57  62  70  94 109 117 119 120 119 119 119 119 121 123 126 126 127 129 131 131
130 130 130 129 129 128 126 123 117 112 107 102  91  84  72  68  71  75  78  77  72  67  60  50
 43  35  41  53  52  39  38  57  61  61  61  63  70  76  83  67  40  93 108 120
118 116 113 110 113 115 119 124 118 118 119 118 116 112 105 130 134 129 122 116  97  74  41  25
 45  41  37  34  55  58  63  82  99 112 116 118 119 118 119 118 120 123 128 128 127 130 131 131
128 130 131 128 126 125 125 122 115 109 103  99  91  87  75  69  74  78  81  79  74  69  61  52
 40  45  52  57  55  48  34  49  59  61  60  61  67  80  86  67  63 104 117 124
