P2
# 8-bit pgm gray
92 112
255
156 156 156 156 156 156 156 156 155 154 155 154 173 188 188 187 186 187 188 188 186 157 159 199
158 116 189 180 182 182 181 186 177 185 183 180 175 168 184 176 172 168 167 163  84  71 121  64
 64 147 130 105  96  98 136 188 178 188 179 155 155 169 181 180 183 183 185 182 182 179 178 182
182 181 180 180 181 180 179 178 178 179 179 179 179 178 178 178 178 177 176 176
156 156 156 156 156 156 156 156 156 155 156 154 174 188 188 187 186 186 184 185 182 153 158 199
159 117 191 180 178 179 185 181 186 186 188 179 157 177 174 166 119 134 138  91  82 170 140   0
  0  41  64  75  80  90 116 110  90 138 105 152 128 145 186 187 186 186 189 182 183 180 173 177
186 184 183 182 182 181 180 179 179 179 179 179 179 178 178 178 178 177 176 176
156 156 156 156 157 157 157 157 157 156 157 155 175 189 188 187 186 186 186 186 184 155 158 199
159 118 194 184 180 181 188 185 189 176 164 139 152 159 123  81  55  62  72  49 126 121   0  48
 75  55  50  36  82  71  56  44  42  43  33  87  61  80 110 103 113 158 180 188 189 183 181 183
183 182 182 181 182 182 181 180 180 180 180 180 180 179 179 179 179 178 177 177
156 156 156 156 157 158 158 158 157 157 158 156 176 189 188 188 186 186 188 188 185 156 158 198
159 121 195 185 183 180 181 177 158 123  88  77 108  93  66  55  49  65  59  65  62  19  50  48
 68  53  45  71  53  58  53  56  30  24  52  43  60  51  43  71  51  98 159 158 172 179 176 181
188 186 182 181 183 182 182 181 181 181 181 181 181 180 180 180 180 179 178 178
157 157 157 157 158 158 158 158 158 157 158 158 177 190 187 184 185 186 185 187 187 158 155 200
166 120 195 178 180 182 179 168  79  25  49  47  36  42  45  38  51  50  69  51  28  39  38  38
 43  34  16  51  53  39  66  77  51  66  77  56  36  62  71  78  96  92  90  95  97 156 180 177
169 170 189 188 184 186 181 184 181 181 181 181 181 180 180 180 180 179 178 178
158 158 158 158 158 158 158 158 158 155 158 159 178 189 185 182 185 185 184 191 185 160 155 195
159 114 190 184 169 145 116  86  56  51  51  29  26  23  61  64  26  44  58  51  20  14  29  59
 40   0  31   0  27  41  43  57  66  83  90  77  35  29  73  79  91 114  60  96  93  47 109 120
110  66  91 168 190 182 184 183 183 181 181 181 181 180 180 180 180 179 179 179
158 158 158 158 158 158 158 158 158 154 158 159 180 188 185 186 187 182 177 185 186 151 149 181
155 123 149 120  80   0   0   2  35  37  42  53  33   5  32  43  28  78  61  21  26   0   0  34
 31  52  80  53  39  31  46  65  50  60  69  71  39  49  66  57  49  41  21  39  59  43   0 138
163 156 118  37 154 187 184 186 180 181 181 181 181 180 180 180 180 179 179 179
158 158 158 158 158 158 158 158 158 153 157 159 181 188 186 188 184 172 178 182 168 156 158 178
135  74  60  52  52  35  41  47  38  82 100  85  93  55  76  58   0  61  77  41  22  39  87  74
 47  66 101 108  55  36  13  48  80  73  56  66  51  34  30  22   0  19  30  40  38  29  16  89
136  98 139 139  55 176 186 180 182 181 181 181 181 180 180 180 180 179 179 179
158 158 158 158 158 158 158 158 158 152 156 159 182 186 181 183 172 161 163 163 180 156 107  91
 44  57  60  80  84  55  47  44  19  47  71  32  52  45  75  82  14  16  24  57  86 101 139 140
 82  11   7  35  43  37  41  34  86  95  49  57  53  28  23  15  37  49  51  47  98 113  24  54
106 114 115 107  72 120 188 183 182 180 182 181 181 180 180 180 180 180 179 179
159 159 159 159 158 157 158 158 158 155 157 156 176 182 180 176 173 158 170 159 157  95  41  16
 45  60  61  85  93  59  29  25  32  16   0  35  15  12  60  63  31  10  13  47  68  44  79 124
 54  11  14  15  25  23  17  24  80  77  37  31  35  11  12  14  37  39  57 107 114 119  43  34
 70  96 175 125  86  94 164 185 184 179 180 181 182 184 183 182 181 181 181 181
159 159 159 159 158 156 156 156 157 157 158 157 175 185 193 175 178 175 154 139  77   0  56  57
 55  47  55  65  67  35   6  10  28  29  15  13  20  14  12  41  40  17  30  32  42  48  56  32
 31  35  29  41  41  48  71  79  88  70  52  53  28  15  17  24   8  12  44  76  59  37  28  25
 34  80 162 172 118  93 133 180 185 186 176 182 185 182 183 182 181 181 181 181
159 159 159 159 158 157 157 157 157 155 156 154 171 179 177 175 184 150 110 119  22  42  36  26
 27  26  18  37  46  48  29  29   7  17  23  16  11  12   7   9  12  10   5  27  43  46   0  71
 80  55  53  38  48  55  86  89  52  41  68  64  40  37  23  27  15  11   1  53  76  25  10  37
 34  77 164 178 145 108 112 174 164 184 188 180 183 182 183 182 181 181 181 181
159 159 159 159 159 160 160 159 159 156 156 153 168 180 169 164 148 105  92  54  33  47  20  53
 67  60  42  30  43  32  17  20  25  17  32  23  34  26   0   9   6  21  40  63  26  21  21  11
 45  54  33  41  59  92  70  38  39  29  53  55  66  48  17   3  14   8  26  18  65  70   8  26
 82  55 125 147 111 119  94 157 179 169 185 186 181 183 183 182 181 181 181 181
159 160 159 159 160 160 161 161 162 157 157 154 175 177 161 148  88 118  88   0  43  26  49  71
 61  52  46  52  10  88 119  73  28  37  51  40  42  55  29   1   5  27  37  15  35  21  60  67
 42  38  21  68 121  93  33  29  44  59  73  80  80  41  31   1  25  22  19  18  29  49  43 104
103  77  72  70 141 161 111 133 168 163 176 190 184 183 182 182 180 181 182 181
159 162 159 159 160 160 161 164 163 157 153 157 154 108 102 103  98  89  85  96  42  34  60  45
 27  36  45  31  33  53  70  55  55  51  46  25   4  41  48   8   0   0  17  16  19   9  41  69
 82  61  45  93  84  51  20  19  59  70  75  84  74  60  46  17   9  17  11   8  14   1  64  92
 27  49  59  79  45 126 149 145 155 138 179 187 181 184 183 182 181 181 182 182
159 162 159 159 160 160 163 166 165 155 151 127  59 113 113  63  76  55  57 103  61  29  43  38
 29  35  16  29  33  25  43  54 103 131  92  45  25  30  17  42  53  18  10   0  52  60   0   0
 13  38  49  54  47  55  50  52  29  14  30  64  61  48  58  32   9  24  30  13   5  27  57  18
 14  25  30  39  45 139 137 160 163 128 173 189 186 184 184 182 182 182 182 182
159 162 159 159 161 162 162 163 165 145 126 130  80  80  62  58  58  67  87  37  43  19   0  31
 29  16  39  50  59  56  41  34  58  98  78  63  32  15   0  58  93  40   3   1  39  68  40  14
 27  34  39  50  98  54  65  40   0  20   5  26  55  60  70  37   9   7  20  23   8  36  45   6
 10  20  22  27  58 175 119 173 189 151 174 186 188 185 185 184 183 182 182 182
160 161 159 159 163 163 160 160 152 134 142  95  23  28  78 108  91  80 109  70  32  36  19   7
 30  42  36  32  54  38  38  54  48  26  10  33  27   3  21  59  60  42   0  18   3  21  28   8
 23  42  32  35  63  59  44   1  11   9  17   8  23  53  61  50  33  21  26  16  19  44  51  74
 55  47  37  29  67  90  97 180 175 142 191 178 185 186 184 184 183 182 182 182
160 161 158 159 164 162 153 149 126 156 127  47  44  24  42  94  77  48  20  38  39  40  22  12
 36  35  37  48  40  62  66  32  54  58  40  30  28  16  27  52  45  22  13   6  66 101 108  89
 58  18  31  34   3  31  32   8  14  28  21   7  20  30  38  45  53  46  31  13  16  23  32  49
 99 124  96  69  56  25  59 138 114 110 181 181 175 189 187 185 186 180 182 182
161 161 158 160 163 162 155 142 124 139  97  51  10  18   0   0  49  56  55  37  36  29  29  15
 42  67  63  32  50  48  20  24  69  77  51  47  62  52  52  91  77  40  45  64  74  87  89  70
 35  41  32  33  12  12   9   7  42  30   9  36  39  24  39  52  63  60  44  21   8   8   8   5
 30  41  46  56  84  81  41  32  41  87 141 180 168 167 170 173 181 180 182 182
161 161 158 160 162 161 163 152 139 144 109  33  28  21   5  24  14  44  47  37  35  41  25  14
 31  74  78  57  46  38  49  42  43  39  53  81  80  62  79 123 100  48  35  46  42  27   0   0
 34  68  23  22  18  12  19  80  55   7   1  31  23  55  48  36  26  34  30  18   6  12  22  19
  5   0   0   3  33  66  47  55  90  82  63  97 129 166 166 173 185 183 182 182
160 161 158 160 162 157 160 149 148 162 132  44  31  10   6  15   0  67  87  35  46  47  43  30
 27  74  95  69  34  51  43  43  32  64  95 105  84  66  86 146 135  91  23  39  35  15  25   1
 50  53   0  17  18   4  17  42  67  64  47   0  37  72  60  71  72  43  12   4   3   5  21  29
 27  37  55 100  65   8  45  46  43  84  59 120 152 166 171 171 183 182 182 182
163 161 159 157 159 158 151 150 160 133  88  56  46  15   2  16  48  54  92  70  57  52  38  12
 36  90  92  72  36  47  36  30  39  78  96  87  81  85  97 141 153  84   0  23   1  11  31   8
 83  61   0  17  22  25  17   2  30  94  92  40  32  38  28  90  98  13  15   8   6   6  13  24
 26  53  71  80  48  28  49  83  56  35  74 165 166 167 168 175 182 186 182 183
163 160 159 154 144 151 151 151 162  98  41  67  38  44  41  99 134  94  60  77  78  50  39  56
 33  53  73  79  68  48  35  38  62  69  71  85  91 105 133 156 152  37   0  23  16 105 101  42
 53  42  26  16  24  31  34  34  87  93  57  26  19  78  65  72  28   0  18  20   3  19  21   7
 16  20  23  55  34  36  41  68  45  37  91 167 145 171 163 180 183 184 183 183
161 159 158 151 141 139 143 151 161 130  45  93  67  53  65  93  83  87  62  53  42  36  44  96
 96  43  55  73  80  64  66  64  63  76 105 124 100 116 150 158 131   0  22  11   6 143 144  55
 42  52  43  15  35  41  36  81  88  54  28  20  10  92  81   5  28  17   7  25   3   9  18  12
  5   0  40  59  25  42  50  66  55  53  56 102 124 158 165 174 180 184 184 183
161 161 159 147 149 145 132 152 156 154 119  78  59  27  37  45  64  56  35  25  21  55  22   3
 53  56  50  32  40  56  60  73  73 102 122 113 103 133 156 163 121   0  25  10   0 119 133  51
 34  46  55  54  47  48  63  60   3  25  47  19  15  48  55  33  49  20   9   1   5   7   2   2
  7   0   5  26  28  42  51  57  48  43  37  52 112 159 161 167 174 184 182 177
162 162 161 148 147 153 138 128 154 165 134  10  14  10   4  16  33  55  42   8  25  43  38  18
  0  28  38  36  18  56  42  34  63 106 105  80 117 152 150 162 117   0  17  12   0  74  99  58
 46  56  54  51  40  49  58  69  72  30  38  40  32  40  27  13  33  42  19   2   5   5   0   7
  0  20  55  32  44  47  50  41  26  42  58  72 112 177 159 170 172 175 177 170
163 160 165 154 147 156 161 137 127 147 122   0  17  19  53  71  91  61  76  75  48  19  20  15
 42  59  39  24  28  35  40  41  34  54  69  49  72 148 157 153 146   0  26  19  13  51  75  47
 42  42  22  53  74  61  66  87 110  63  31  56  39  43  39  23  21  41  45   6  10  16  41  41
 14  30  53  33  48  47  42  31  22  58  81  79  97 160 183 165 180 183 181 184
164 163 165 158 145 152 162 152 122  98  84   7  29  48  49  40  89 127  99 102  92  47   0   4
 30  46  27  31  11  56 109  84  76  62  32  47   0  64 143 153 154  90  28  17   0  29  54  26
  4  33  58  69  69  63  69  77  92  85  43  58  42  34  34  21  16  53  52  32   0  17  80  70
 12  15  11  27  32  30  26  39  41  43  61  96  71 124 182 167 185 184 181 184
163 163 163 157 159 134  82  73  88  61  52  28  45  53  37  54  83 119 105  62  53  44  55  23
  0   0  31  21  39 112 114  78  79  96  53  54  54   0  62 116 125 123  65  70 102  80  53  29
  0  48  62  62  72  76  65  60  81  84  61  80  12  34  30  15  13  36  34  52  71  68  59  45
 33  18  28  57  35  33  33  29  36  54  40  57  41  94 142 171 176 182 181 184
161 162 158 157 159  66   0  39  67  55  39  44  62  51  39  64 110  69  55  55  43  30  82  70
 27   7  38   0  58  78   0  34  62  73  72  53  96  71   2 141 163 116  51  75  91  77  47  27
 15  22  50  66  72  74  71  54  55  34  83  89   3  43  30  44  41  42  64  55  67  65  57  42
 29  23  27  60  28  22  44  37  25  49  50  60  52 108 144 173 176 184 180 184
162 164 162 161 141  41  27  50  51  44  23  40  57  34  32  49  77  88  59  36  35  27  81  68
 40  43  39  39  67   0  82 110 105 113  68  37  98 112   0  98 112  28  53  51  67  85  50  20
 11   3  25  54  69  84  74  16  31  29  57  76  55  36  47  25  38  53  61  33  20  40  48  50
 19   1  38  52  27  29  42  55  31  33  43  46  83 113 120 121 136 175 187 183
161 165 155 109  77  78  62  49  55  36  13  43  62  32   0  41  61  55  46  45  35  33  52  74
 77  70  52  64  45  38 115 128 114 118  67  17  81 113  45   0   0  35  56  72  54  17  17  10
  7  28  28   5  44  81  55   0  43  65 108  97  65  49  46  58  63  57  28  45  55  30  14  36
 27   0  59  67  13  21  46  60  47  63  40  45  63  83 140 168 146 135 182 182
162 120  96  65  65  67  90  73  40  49  32  52  61  63  17   0  22  43  21  44  42  34  63 110
106  92  57  57  43  46 100 120 122  96  39  72 107 120  43   3  28  47  89  99  78  58  35  14
 48  62  65  57  36  17  20   9  11  52  80  76  50  44  42  55  61  72  75  76  73  63  45  35
 35  18  45  76  19   4   9  60  66  52  49  43  52  33  60 119 177 123 172 182
159  92 120 122  98  64  42  59  58 103  56  83 104  71  44  30  40  66  38  41  41  37  79 119
113 111  82  53  55  34  80  89 102  76  43 107 119  84  20  26  21  26  75  93  92  63  29  26
 64  77  74 101  96  54  13   9  29  14  10  47  73  63  44  54  69  88 107  83  71  73  41  37
 27  26   0  68  81   0  42  65  66  38  43  37  49  57  42  38  71 135 185 185
167 146 110 141 121 109   9  86  91  66  56 103 136  97  53  35  37  51  21  18  39  61  90 116
123 134 123  64  53  55  61  61  50  42  63 102  93  33  19  35 107 113  99 112 104  76  63  53
 64  79  70  77  87  76  32  70  48   0  36  86  96  88  52  49  76  83  78  64  47  34  25  13
 24  25   0   0  62  57  46  73  77  45  39  49  51  51  53  61  14 100 185 181
165 164 147 108 109 103  52  38  75  51  42 118 142 122  91  71  49  23  28  31  59  82 117 131
145 149 139 116  64  25  24  30  30  56  69  78  55  26  29  38  90  96 102  93  98 142 125  66
 55  75  71  68  64  59  64  83  39  44  67  99 107 105  81  41  76  71  60  24   2  10   3  17
  5  30  32  20   0  30  39  44  59  42  20  62 117  72  72  82  70   5 135 184
165 160 165 151  91  80  74  26  40  47  62 124 139 126 105 102  92  75  72  77  84  98 120 129
141 144 140 137 105  75  50   6  43  59  42  30  39  46  46  43  69  59  68  90 103 113 119  80
 56  77  81  85  67  76  57  30  24  63  73  77  98 109  65  22  78  67  50  42   9  26  55  38
 61  65  55  23  24   6  37  39  42  37  34  28  71  67  86 101  51  51  45 160
162 169 163 162 155  89  70  64  21  31  79 132 140 123 104 112 111  99  90  93  94 103 125 126
125 131 142 142 112 120 114  78  50  38  46  50  64 103 115 124 149 121 104 111 119 105  97  70
 67  90 105  84  81  81  43  25   6  60  79  77  84  73   0  84  92  82  49  35  19  32  80  83
 73  53  33  21  25  19   5  30  20  37  30  40  42  45  53  75  53  56  46 117
166 162 166 164 160 141  79  45  36   3  88 136 144 125 107 111 114 109 108  97 102 108 129 136
131 126 130 126 132 144 148 134 109  96  87  89 107 140 160 141 122 104 123 145 153 149 107  63
 86  87 104  89  67  61  50  23  10  48  86  92  63  45  66 105  88  57  58  58  18  62  76  74
 50  53  22  10  28  22  11  26  38  40  28  26  37  42  75  85  72  65  71  81
166 168 167 164 155 126  80  21  37   8  90 139 147 122 112 110 112 114 114 105 107 118 128 132
137 133 131 135 144 154 148 148 139 117 104 109 134 150 151 132  99 110 145 160 158 149 104  90
 91  85  96  95  65  49  56  37  20  29  40  54  60  71  75  75  56  70  88  46  55  77  86  89
 55  75  45   9  26   8  15  29  40  39  40  30  32  45  88  72  66  39  68  89
148 158 160 166 144  32  52  40  33  25  94 142 147 125 113 113 118 119 113 110 111 123 139 144
148 148 146 146 143 147 151 150 134 119 122 123 132 146 140 116  91 108 136 147 135 109 101  97
109 116 120  99  43  55  60  44  23  55  63  53  58  70  74  70  74  88  88  73  71  79  75  64
 60  67  53  23  25  10  19  32  32  43  45  33  44  53  39  56  92  26  57  92
130 119 111 130 110  70  62  35  47  29 104 148 149 131 110 115 123 120 112 111 114 123 141 148
154 156 153 142 142 144 142 135 126 133 139 129 133 143 138 115  99 111 124 120 113 111 115 121
105  89  96 118  50  41  51   0  26  42  52  56  63  73  80  78  75  79  83  80  80  69  70  54
 49  53  61  43  31  22  20  34  37  36  40  42  48  49  44  60  60  33  23  65
155 153 156 135  78  50  38  45  26   0 107 155 147 123 106 114 123 114 106 107 112 121 135 144
150 155 152 139 141 141 131 124 128 139 139 129 129 139 138 119 112 119 117 109 113 121 124 120
112 122 144 154 148  68 106 118 145 144 141 137 134 135 131 121  85  78  64  44  72  73  65  58
 46  36  38  61  57  57  57  60  65  57  53  64  56  44  60  50  55  53  45  44
162 157 148 116  65  97 106 113 118 120 142 154 156 136 110 109 113  99  98 105 107 116 132 137
149 154 152 145 138 134 131 127 132 131 128 129 127 132 130 114 107 106 108 119 132 147 157 158
160 160 159 151 156  89  80 153 149 152 163 156 165 162 163 156 149 154 140 102  64  63  64  69
 52  27  30  34  38  55  69  73  72  55  57  67  57  35  69  65  76  64  71  33
156 156 137 136 148 157 156 158 157 156 156 156 158 161 136 115 110  94  80  74  86 103 114 132
135 147 148 142 137 131 130 129 130 125 122 125 125 131 123  94  92 118 137 148 159 162 160 158
157 158 150 151 151 128  49 123 155 157 156 154 154 151 148 138 154 154 162 157 125  57  66  72
 47  29  35  25   4   9  30  13  30  49  43  56  58  45  54  70  76  61  57  41
147 151 155 155 148 145 152 152 148 152 149 150 148 153 141 129 130 124 116 105  75  59  72 103
122 136 140 140 136 131 128 132 125 120 125 127 124 117 109 126 150 155 158 154 154 143 122 112
100  94  86  84  91  92  60  36  91 126 137 140 131 126 126 149 158 155 150 157 143  61  31  52
 41  44  39  17  22  34  30  17  54  72  45  39  36  47  47  65  61  58  51  57
147 153 144 147 150 151 138 124 109 105  98  92  89  93 101 115 122 126 134 133 127 117 102  50
 84 118 126 129 128 127 124 124 121 122 123 117 115 130 152 158 156 151 137 101  66  34   0   0
  1   0   9  24  28  28  26  31  14  22  81  96  82 120 139 145 146 147 146 146 133  71  37  52
 57  43  17  16  12  42  64  32  62  65  34  27  34  39  49  36  67  69  47  10
145 147 148 145 129  93  50   0 126 118  98  71   5   0  14  26  40  66  96 124 139 141 149 156
102  63 102 117 119 121 121 120 121 117 110 116 145 157 159 145 108  76  26   0   7  22  30  35
 37  37  42  44  46  47  47  49  42  42  50  36  31  78 138 145 142 139 131  62  91 124  37  60
 69  21   6  24  22  10  43  44  66  64  51  46  38  17  53  61  82  76  40   0
108 146 148 131  51   0  25  36 103  88  68  59  44  39  42  42  24   0   0  27  82 124 150 156
168 135  70  76 105 117 121 119 113  96 122 149 158 151 123  55   0  18  31  34  29  26  26  24
 26  33  34  34  35  38  41  41  43  39  37  34  30   0  90 151 150 139 133 125 118  97  52  50
 49  22  15   0   9  46  52  42  53  81  73  79  67  65  55  66  83  60  40  35
118 141 153  89   0  45  39  36   0  10  26  36  31  33  31  25  32  38  33  28   0   9  85 145
152 165 160 113  75  91 108 111 125 145 155 153 148  95   0  22  47  43  31  28  32  26  31  34
 36  36  40  49  54  55  46  37  45  43  39  41  33  22  34 141 155 153 154 161 141  51  15  48
 34  28  48  53  42  32  55  56  43  56  68  87  80  63  63  47  61  63  32  80
147 148 142  56  39  42  19  29  39  36  35  31  28  23  27  41  38  36  36  32  34  34   0  50
137 157 157 158 156 150 154 159 159 159 152 148  88   0  48  35  25  36  41  40  40  35  36  38
 37  48  54  56  55  55  55  42  42  53  43  37  33  31   0 127 154 152 150 152 127  99  73  35
 44  55  60  63  59  37  37  47  39  47  65  68  64  64  54  55  68  65  75  76
134 141 139  50  40  38  20  37  42  38  38  29  37  29  26  40  34  34  33  37  31  33  47  28
 72 147 149 143 150 159 158 156 160 152 155 124   0  44  26  36  37  36  36  37  41  34  34  31
 28  31  31  32  35  41  47  44  33  45  46  32  31  39   0 109 157 155 155 145 114 107 114  92
 64  53  51  37  20  23  10  22  36  30  47  71  75  74  77  70  84  74  65  65
140 146 138  50  46  50  35  36  37  41  47  35  34  34  29  42  31  25  25  28  29  30  30  47
  0 119 158 146 147 151 155 156 157 153 153  83   3  34  23  31  41  39  36  25  23  23  26  27
 28  27  20  19  29  20   6   0   0  39  45  38  37  39   0 102 160 153 146 122 118 114 118 108
 92  79  50  24  13   9  16  20  20  25  35  51  67  81  83  60  60  71  61  50
153 137 142  53  48  46  34  33  27  36  41  36  35  50  45  50  38  26  25  23  23  22  23  24
  0  98 152 143 150 150 153 156 154 154 151  67   7  29  26  36  30  28  28  27  30  31  29  27
 26  29  20  56 160 176 184 190 137   2  47  41  38  41   0 100 158 156 134 125 120 118 119 114
 99  81  66  31  15  18  23  34  30  24  29  25  39  53  49  34  32  71  62  24
155 135 144  54  46  42  30  35  41  45  39  34  29  43  46  43  39  27  25  26  26  28  27  29
  0  87 152 145 139 123 121 140 159 150 153  68  12  27  34  40  33  28  28  28  27  24  21  16
 11  15   7  39 174 148  98 178 189   0  42  39  40  44  11  97 159 151 128 127 127 122 120 118
104  84  72  51  22  16  27  38  37  28  23  27  62  56  40  36  36  64  53  38
159 135 145  67  35  38  37  43  50  52  42  28  27  32  35  41  49  14   5  11  15  18  21  27
  0  88 154 151 100  42  75  81 126 150 155  76   5  25  34  43  25   9  13  13   7   4   5   5
  7   3  12  22 158 109  85  84 174  50  27  36  40  45  11  97 159 145 123 129 133 126 121 118
105  88  77  64  33  13  28  35  37  24  21  38  52  42  38  21  28  54  22 109
161 137 146  83  23  40  44  39  34  53  47  20  26  26  46  44  53  34  10  11   6   3   4  19
  0  96 153 137  59 103 120 107  93 143 158  92   0  24  28  40  27   6  14  17   9   8  10  13
 11  23  28  24 145 122 135 105 151  67  10  42  46  48  16  98 158 139 123 130 136 127 119 117
108  97  83  69  45  18  31  29  30  31  36  46  59  58  47  25  34  53  50 106
159 141 144  96   0  46  39  38  38  54  45  25  22  31  46  49  47  41  23  22  20  19  12  16
  0 104 156 114 125 164 171 174 142 129 159 114   0  25  30  44  31  23  23  25  24  22  17   4
 15  30  29   5 114 107 101  91 130  45  30  43  45  47  25 103 158 139 127 135 137 129 121 119
111  99  89  76  52  26  26  27  43  32  31  63  72  52  43  33  43  45  50 150
169 146 140 120   0  44  39  40  39  48  48  33  25  38  45  47  37  30  28  27  27  27  21  27
  0 115 149 122 160 173 173 184 175 131 148 136   9  31  25  37  31  28  28  31  32  29  27  21
 30  32  20   0  85 117  95 110  93   5  38  42  44  47   9 114 160 133 132 138 136 131 124 119
111  98  91  77  52  32  26  43  57  46  35  49  63  50  40  38  37  57  64 104
147  97 122 140   0  39  44  38  31  50  58  42  27  35  42  42  34  29  30  29  28  27  25  30
  0 131 134 129 169 170 171 182 172 134 140 154  61   9  32  31  30  32  31  33  35  35  33  35
 29  32  30   0  56  70  94  73  52  13  41  44  44  49   0 128 161 127 137 140 136 134 129 121
113 103  94  78  54  42  34  35  32  46  44  34  47  51  50  45  41  54  63  53
  0  50 115 144  64  31  40  29  32  57  58  50  33  31  36  38  34  32  29  29  27  27  28   3
 56 143 105 133 166 165 175 168 161 143 114 161 111   0  37  34  31  32  31  33  36  38  37  35
 29  26  40  26  40  43  62  42  28  35  44  45  45  47  19 137 157 134 141 144 137 139 137 124
117 109 100  82  63  44  45  49  39  31  49  55  51  66  70  56  35  11  61  59
112  97 146 148 103  14  33  18  37  54  52  56  42  35  39  37  33  31  31  29  32  26  32   0
 93 147  82 147 166 168 178 168 152 147 110 141 154  20  31  32  34  35  36  36  38  40  42  39
 40  34  38  46  32  30  33  34  43  44  44  48  44  46  44 147 151 143 146 148 140 142 141 129
121 114 104  87  70  54  56  31  29  32  46  58  66  85 101  89  74  60  41  45
177  96 113 134 134   0  36  29  41  53  60  58  48  42  41  38  35  33  32  30  29  32  33   5
126 128  83 155 165 173 176 163 154 150 126 115 164 116   0  44  31  36  38  37  39  43  44  44
 42  39  38  48  51  44  50  50  50  50  47  48  47  31  86 153 147 149 152 150 144 141 138 133
124 118 108  91  68  57  65  28  49  50  30  32  62  99 101  85  88  82  50  20
174 140  29  96 157  89  13  39  30  54  59  50  48  48  43  41  38  36  30  26  33  32   0  75
145  81 101 161 170 174 171 160 152 154 147 113 136 158  64  22  41  36  35  38  43  41  44  45
 44  41  43  50  53  51  50  54  51  50  52  54  46 136 142 152 149 154 152 154 145 140 138 135
129 121 112  95  70  60  73  30  38  67  42  26  45  51  60  68  78  69  76  56
163 171 140  56 138 144   0  43  37  50  43  49  47  41  41  38  35  34  27  28  29  37   7 132
124  49 132 163 174 178 169 159 159 150 152 130 113 156 153   0  37  44  38  41  45  42  44  43
 42  40  44  49  53  58  49  51  57  44  49  50  93 145 145 156 153 158 155 157 146 139 138 137
131 124 115  98  66  64  96  61   9  66  57  32  46  50  53  49  47  33  46  65
158 167 171 110  83 147 138   0  23  45  42  39  37  35  32  30  27  25  30  31  37   0 118 141
 73  82 145 160 175 181 170 162 157 155 155 148 113 119 157 138   0  26  47  39  42  44  42  39
 35  35  43  46  49  58  55  51  41  74  96  72  26 115 156 154 159 159 158 158 148 139 138 137
132 125 115  99  60  46  96  85  27  48  47  47  46  65  68  54  54  52  42  56
148 168 153 108  84 104 160 142  49   0  26  34  37  36  36  35  34  31  24   0   0 118 145  91
 61 105 153 164 180 178 168 161 158 161 159 150 132 113 127 156 142  58   0  41  50  45  41  34
 32  33  44  40  42  57  51  51  40  83 112  59 120 166 153 154 160 161 159 158 151 141 138 137
132 124 116  98  60  42  85  96  53  27  47  51  54  61  75  69  61  59  55  67
126 147 133 144 116  72  64 141 157 123  73  39   0   0   0   0   0   0  27  89 134 141  94  73
 76 128 156 168 182 176 167 162 159 160 158 155 142 120 118 126 153 158 107  29   0  13  27  40
 42  43  45  43  49  60  55  38   0   0  78 142 166 145 143 151 156 159 158 154 149 143 139 137
131 123 116  96  58  53  73  93  74  19  44  59  52  50  56  60  74  78  67  58
126 170 145 145  94  67  69  30  97 148 150 143 129 118 113 106 112 127 142 145 121  87  83  81
 97 150 161 174 183 176 167 163 158 158 157 155 151 131 119 122 126 140 162 156 120  88  43  27
  0   0   0   2  14   0  41  69 109 146 161 151 139 131 143 145 152 156 156 148 145 142 140 136
128 122 116  92  64  77  77  87  83  41  31  54  50  52  49  37  44  50  40  54
 94 175 153  99  67  76 105  73  31 103 126 134 141 146 149 148 145 139 114  93  88  94  94  84
121 160 170 179 185 176 167 164 158 156 157 155 154 142 126 129 127 128 131 149 164 164 153 143
134 124 121 124 130 140 149 160 166 155 139 130 135 138 138 145 151 154 153 146 145 143 138 131
125 122 114  88  89  86  71  93  95  66  45  42  41  44  51  53  58  68  59  58
 98 167 151  64  62 105 106  83  45  94 128 121 118 116 116 117 110 104 104 100 102 100 101 104
150 165 174 183 185 176 167 164 159 156 156 154 153 146 132 129 132 132 128 128 123 128 138 146
152 153 155 156 153 152 142 140 136 134 135 137 142 139 144 147 150 152 150 145 144 141 136 130
126 121 115  88  85  82  83 102  93  82  76  54  27  38  53  51  57  69  77  70
 88 139  98  81  78  87  81  74  45  69 125 121 125 126 123 123 120 117 113 111 112 109 105 125
159 167 180 186 184 177 167 163 162 159 155 154 150 146 137 131 135 135 137 136 135 130 127 124
122 123 124 126 129 129 131 134 139 141 144 145 145 146 146 147 148 149 150 148 145 141 136 130
125 118 115  84  55  57  82 100  91  72  67  71  44  52  42  40  56  72  74  70
 23 105 123 106  70  40  23  54  53  56 119 127 125 128 127 127 125 123 124 120 121 119 114 147
161 173 182 184 184 178 170 165 163 161 158 158 156 147 136 134 138 138 140 138 136 134 135 134
135 132 132 134 136 137 138 140 142 143 148 150 151 152 151 149 149 150 150 148 146 141 134 124
119 118 108  76  62  62  70  81  78  57  46  68  55  65  72  46  54  70  71  56
130 169 149 141  56  62  46  61  35 106 137 128 126 127 130 131 129 128 127 124 125 122 127 162
165 174 179 180 181 178 172 166 165 164 162 162 158 152 141 134 139 140 141 140 139 138 138 139
140 137 138 140 141 143 144 145 147 147 150 151 152 153 153 151 151 150 150 139 138 139 133 125
121 118 104  74  75  74  49  49  53  41  44  50  64  67  79  84  77  72  66  66
173 169 156 144  96  63  51  61  38 137 167 120 128 126 130 131 131 130 130 127 128 123 138 162
167 173 173 176 178 176 171 167 166 165 165 165 158 159 146 132 137 140 141 140 138 139 140 141
142 142 143 145 147 148 148 149 149 150 152 154 154 156 155 153 152 150 150 140 141 140 130 124
121 114  97  75  76  71  62  60  37  28  46  42  53  50  58  86 108 104 109 106
176 162 151 129  83  66  54  59  72  86 143 129 126 130 131 132 132 133 133 129 128 125 142 161
166 167 170 172 176 175 169 166 165 162 163 164 162 157 151 134 133 140 142 142 140 140 141 142
143 146 147 149 151 152 153 153 153 153 155 156 155 155 154 153 152 151 151 146 144 140 130 126
125 116  91  67  72  62  64  61  32  49  49  49  41  35  38  57  85  99 104 102
169 174 166 147 103  66  56  52  87  84  42  93 127 127 132 132 133 134 134 131 130 130 138 149
156 160 165 169 174 174 167 165 162 159 157 154 160 156 152 139 135 139 142 144 142 141 142 143
143 146 149 150 152 153 154 154 154 154 156 156 155 154 153 153 152 151 151 146 143 137 130 124
120 114  87  62  69  63  61  50  46  37  50  51  45  24  67  68  41  65  75  89
171 169 165 155  87  36  47  64  80  94  86 110 121 132 129 132 134 135 134 133 134 136 137 138
142 151 157 162 166 166 161 150 147 151 153 155 159 158 149 137 137 139 140 142 142 142 142 144
144 147 149 151 153 154 155 155 155 155 156 156 155 154 154 153 152 151 151 146 141 135 129 124
119 113  88  73  78  74  45  48  39  27  52  47  51   4  81  84  31  61  62  85
174 162 159 161  77  55  89  39  77 106  88  91 126 129 128 132 135 136 139 140 142 147 149 140
138 145 146 150 155 154 148 147 138 112 112 142 152 155 147 138 146 147 142 142 143 142 143 144
145 148 150 152 154 155 156 156 156 156 156 156 155 154 154 153 152 151 151 147 141 133 128 126
121 110  95  98  95  61  48  34  59  40  51  40  40  36  35  46  43  69  66  64
167 167 162 165 127  62  93  56  30  69  90  92 100 130 129 129 133 141 149 150 152 156 159 150
135 138 144 143 147 146 140 137 142 127 115 130 140 149 143 139 159 160 153 148 145 145 145 145
146 149 151 153 155 155 156 156 156 156 156 156 155 154 154 154 153 151 150 146 138 130 128 127
118 107  80  96  89  47  32  39  42  42  36  48  33  52  55  43  59  69  63  65
176 168 169 168 156  99  41  53  69  39  54 143 103 119 132 131 141 150 154 156 158 158 162 158
121 109 125 136 141 145 143 143 146 143 137 133 126 123 115 138 170 171 167 158 152 151 148 147
148 150 151 153 156 156 156 158 158 156 156 156 155 154 154 156 153 150 148 145 135 130 130 127
121  92   0  19   2   4  20  27  32  40  26  39  55  43  46  53  71  51  48  77
161 169 167 162 154 103 103  63  24  47  36 104 166 120 126 132 147 152 155 157 159 160 163 153
120 107 107 119 128 138 142 142 141 134 123 119 114 115 120 151 172 173 174 171 165 157 155 153
154 154 154 156 157 157 157 159 159 157 157 157 155 154 155 155 153 149 148 144 136 132 132 126
123  67   0  16  19  11  15  16  16   9  18  28  46  54  38  44  35  38  57  72
124 173 163 153 138  98  84  82 141  94  17  19 105 129 132 134 145 155 155 157 159 160 162 147
120 117 114 122 129 136 135 142 146 139 131 128 127 128 134 157 170 172 176 175 172 166 163 160
160 159 158 159 159 159 158 160 160 158 158 158 157 156 155 154 152 148 147 142 137 135 133 130
113  33  12  30  18  19  18  21  21  16  26  30  41  53  57  46  31  34  57  63
142 144 172 156 116  86  75 160 169 137  28  86  34  89 131 140 140 151 154 155 157 158 160 139
112 121 119 127 133 139 138 140 145 144 140 140 140 135 141 163 171 174 178 177 174 173 169 165
165 162 161 161 160 159 159 160 160 159 158 158 157 156 155 153 151 148 146 141 137 137 134 132
101  39  38  11   2  36  32  28  17  26  27  31  37  37  39  67  55   2  36  62
155 130 172 143 104 116 130 142 168  97  68 159 123   0 120 141 142 148 149 152 158 157 156 136
117 122 122 126 136 143 136 138 144 142 139 139 138 143 154 168 174 175 176 177 177 174 172 170
168 167 166 164 163 163 163 162 160 159 160 160 158 156 156 153 150 148 144 139 136 139 133 133
 71   3  36  16   0  55  52  20  25  25  27  30  29  27   0  47  71  67  53  51
144 141 147 135 136 129 158 130 126  58 124 178 169 105 130 132 140 147 141 145 152 153 152 135
118 120 121 128 137 144 135 138 146 144 140 140 143 152 163 169 172 174 174 175 176 175 173 171
170 168 167 166 166 165 165 163 161 159 160 160 158 156 156 153 149 148 144 142 140 137 136 120
 51  31   4  18  21   4  33  17  23  19  18  47  61  35  92  87  65  57  70  55
132 121 134 153 124 162 146 156  95  67 150 185 155 178 168 123 134 138 138 139 146 150 149 135
120 119 123 133 141 147 138 136 144 147 145 145 152 162 170 170 170 172 173 174 174 173 173 172
171 168 167 167 168 167 165 164 162 161 161 160 158 156 156 153 150 148 144 141 141 140 138  88
 43  99  97   0  14   6   8  21  24  22  27  24  44  54  92 104  80  29  49  62
119 122 165 121 140 153 167 144  51 107 175 168 128 199 175 123 136 136 131 131 140 146 146 139
124 120 127 134 142 147 138 130 140 150 152 154 159 167 172 172 170 170 171 172 172 169 170 170
171 166 165 166 167 167 167 165 163 161 161 160 158 156 156 154 150 148 144 142 139 138 122  31
 27  50  73  18   0   3   8  21  19  17  33  66  45  44  69  66  61  44  66  60
122 127 137 101 142 127  99   0  99 132 162 115 178 189  97 120 134 134 129 126 132 140 145 139
127 123 127 132 139 141 131 125 137 152 158 162 166 167 169 169 169 169 169 170 170 169 168 168
168 164 162 164 166 167 166 165 164 163 161 159 157 155 155 152 149 147 145 144 135 137  90   0
 29  29  12  10  34  17   0   0  26  30  21  43  59  69  83  61  47  42  69  82
112 109  99  85  76  62  72 134 144 109 103  75 128 110  45 105 127 132 134 127 126 133 137 135
129 126 129 133 138 135 122 123 138 152 162 168 169 168 166 166 165 166 167 168 168 167 166 164
163 163 162 162 166 167 166 165 164 164 161 159 157 155 153 151 149 146 144 141 139 123  22  13
 22  32  33  15  39  34  44  51  45  38  32  45  54  48  66  73  59  49  45 105
101 131 145 155 156 121 143 169 114 102  85  64  18  78  79  88 128 132 135 128 124 123 126 135
132 124 128 131 136 136 131 131 142 152 159 168 175 171 167 163 161 161 161 161 161 161 161 161
162 163 162 162 166 167 166 165 164 164 161 159 157 155 154 151 149 145 143 135 138  71   0  26
 26  29  15   6   6  40  69  58  44  68  76  59  50  50  67  72  89  35 126 116
119 137 141 161 168 167 134 110 101  92  71  60  60  79  67  51 113 132 134 130 124 117 116 119
117 113 113 113 118 124 129 126 129 134 137 144 154 155 158 160 161 159 157 153 153 155 156 159
160 162 162 162 166 167 166 165 164 164 161 159 157 155 154 152 148 144 139 142 105   0  28  27
 31  33  26  24  33  41  56  26  31  53  74  56  46  62  66  48  51 107 138  91
 99 133 129 145 155 144 129 118  95  79  73  58  44  56  57  28  82 128 134 133 126 119 101  83
 89 102 101 105 106 110 113 118 121 119 119 122 126 128 133 136 136 137 138 140 141 144 148 152
154 161 162 162 166 167 166 165 164 164 161 159 157 155 154 152 147 142 141 126  27  13  31  36
 31  32  36  36  40  38  43  35  21  15  54  67  62  68  47  34 128 189 124  67
132 125 139 128 128 124 112 115  89  79  69  65  63  66  62  44  47 115 129 134 127 123 109  94
 85  83  76  78  89 102 108 115 115 109 107 106 100  94  99 104 101 108 104  91  98 118 127 140
149 157 160 162 164 167 168 165 165 162 160 158 159 156 155 151 144 142 134  69   0  26  34  40
 30  31  33  32  42  44  42  34  18  19  57  81  71  65  11  86 161 140  53  78
166 151 133 135 114 106 112 111  85  75  65  62  58  55  62  57  22  80 125 126 128 120 118 105
 93  91  91  87  78  76  83  86  83  77  74  75  87  98  98 107 117 118 112 113 130 140 131 133
144 151 154 159 162 166 168 165 166 163 160 157 158 156 149 148 142 140  96   0  21  28  38  28
 21  28  33  30  29  47  39  35  39  51  69  87  87  68  49  74 110  21  81 124
169 163 171 139 122 106  89  93  98  87  88  89  80  54  45  67  48  24 102 128 125 122 122 116
101  96  96  93 100 101  97  94  96 101 109 115 118 123 131 130 123 125 131 138 146 148 143 141
142 147 150 155 160 163 162 160 162 160 158 157 157 155 152 145 139 123   0  12  11  25  49  29
 15  24  32  28  19  31  33  42  45  61  76  99  88  56 113  77  61  61 146 141
173 168 169 152 114 106 107  96  97  91  87  96 101  91  58  59  52  33  59 112 119 120 118 121
109  98  98 101 102 106 111 111 113 120 129 136 135 135 141 137 135 139 146 150 147 148 152 152
149 148 150 154 158 160 157 156 160 158 157 156 156 154 149 145 139  68   0  18   9  21  32  33
 31  22  30  26  20  19  26  39  40  51  68  92  95  45  76  85  36  65  85  47
166 169 167 156 126 129 129 105  96  96  93  93  90  82  67  60  50  43  25  71 114 115 118 116
115 110 108 105 105 107 107 111 116 122 130 134 135 140 141 145 149 151 154 156 155 157 157 157
157 155 154 154 154 157 158 158 159 159 157 155 156 153 148 141 114  35  27  20  10  18  23  27
 33  23  26  28  25  23  24  32  40  46  59  72  97  88  65  63  78 100  95  71
168 163 163 154 133 134 129 109  94 107 113  92  85  83  82  64  45  44  40  19  83 113 111 119
121 118 118 116 115 115 114 115 119 124 129 132 136 141 147 149 150 155 161 159 158 161 161 162
163 161 158 154 153 155 157 157 157 157 155 154 154 149 141 132  95  44  31  32  27  21  19  18
 23  24  22  30  29  24  27  29  40  46  55  63  81  78  90  85  71  70  81  98
168 167 168 155 131 135 131 112  88  91 112 107  98  91  83  64  45  45  38  38  25  86 111 115
119 122 125 125 125 126 127 126 126 129 131 133 137 142 147 148 151 155 158 158 157 159 160 161
163 160 156 153 152 154 156 156 156 156 155 153 152 146 135 118  86  46  37  37  34  30  28  26
 30  30  34  40  35  28  29  29  40  46  51  55  74  80  67  88  95  77  79  90
166 158 152 139 103 124 131 114  98  89  97 109  96  83  70  64  59  39  45  36  27  20  90 115
118 125 122 126 128 129 131 130 130 132 134 136 140 144 147 148 149 150 151 150 151 152 154 156
159 157 154 151 150 151 153 153 153 153 155 154 150 142 130 107  75  52  44  43  41  36  29  26
 30  30  40  45  37  30  31  33  42  44  48  49  63  71  85  92  83  54  82  83
148 134 131 129 101  86 123 114 116 108 104  99  88  88  76  63  56  48  44  43  35  20  12  93
117 117 124 127 128 131 133 130 129 133 136 139 142 145 147 148 149 149 148 148 149 149 152 155
158 160 158 155 155 154 152 152 152 152 152 148 143 134 125 104  69  55  47  44  44  41  36  31
 29  30  45  49  36  30  34  38  44  42  45  48  56  93 103  73  78  60  41 108
142 132 138 135 102  58 102 120 121 109 104  92  94  93  81  66  63  56  48  44  39  25   0  43
107 118 120 124 127 131 132 131 131 134 136 138 141 142 145 148 148 148 149 150 151 151 154 157
157 157 154 152 152 152 150 151 150 147 149 143 135 133 121  93  64  59  48  44  44  42  41  37
 29  35  49  46  36  30  37  44  45  40  40  61  73  99  93  82  80  68  73  74
150 145 132 104  89  79  71 118 115 109  94  95  92  98  85  73  63  61  63  53  40  29  19   0
 84 116 117 121 126 131 132 133 134 134 134 134 135 138 143 147 147 148 149 150 151 154 157 158
158 154 150 147 146 147 147 148 147 145 142 137 132 131 115  84  64  60  51  48  46  43  41  35
 28  41  52  46  38  32  39  46  47  41  44  67  75  85  81  89  77  73  76  98
133 124 111 106  96  83  65  88 109 107  98  98  88 107  83  78  66  65  65  65  52  36  17   5
 37 112 117 119 125 130 132 134 135 134 133 133 138 142 143 141 147 149 150 151 152 156 158 159
158 154 150 147 145 144 142 143 142 140 137 136 134 129 106  74  65  62  55  50  46  43  40  34
 33  47  53  47  39  33  39  46  46  44  40  47  68  79  85  82  80  67  77  99
125 120 121 109  87  86  77  77  99 107 104  96 110  98  76  78  75  68  66  64  62  47  19  15
  0  75 118 117 123 129 133 133 133 134 135 135 133 140 145 143 150 153 153 154 155 155 157 157
155 153 149 144 142 140 138 139 138 135 134 136 134 124  98  69  66  61  54  49  45  41  35  35
 43  49  49  48  38  31  37  45  44  38  41  60  72  75  82  78  81  86  74  90
134 124 116 104 100 110  93  77  74 103 103 114 127  82  74  74  80  73  70  64  64  59  43  12
 16   0  92 122 123 131 131 130 131 135 138 130 118 132 142 145 150 153 155 156 155 154 156 155
153 149 145 141 138 136 133 136 137 136 136 135 131 118  82  68  67  62  53  49  43  38  34  38
 50  51  48  45  39  31  38  45  39  32  59  86  85  78  79  83  84  86  81  95
127 120 103 100 111 123 112  84  73  79 111 135 109  90  81  75  80  77  73  71  66  63  63  45
 11  10  22  97 123 121 129 130 130 135 138 132 130 138 143 143 146 150 153 153 152 152 153 152
150 147 144 139 133 131 133 137 138 138 137 133 129 104  69  69  64  61  54  47  45  34  36  48
 51  52  49  41  40  41  42  39  36  50  72  85  87  83  81  83  89  93  88  99
126 114 102 101 107 118 114  91  74  70  96 115 100 103  91  79  78  77  74  72  68  65  62  60
 44   6  17  24  88 117 126 134 132 133 135 134 133 139 144 144 145 147 151 151 150 149 150 148
145 140 137 135 131 133 141 141 139 137 135 132 121  82  73  68  59  56  54  45  41  34  44  54
 50  51  47  43  42  44  40  41  60  73  76  80  82  78  78  85  97 111 112  93
135 122 112 107 105 108 110  98  77  80  84 101 109 100  95  85  80  79  77  74  70  67  64  58
 54  43  13  28  29  57  93 116 126 131 133 135 136 136 137 137 140 143 146 147 145 144 144 141
137 131 131 135 138 140 141 141 140 137 135 127 102  71  71  64  57  54  50  45  32  42  54  51
 51  49  46  44  44  42  44  64  78  77  75  74  74  80  84  93 103 112 105  90
145 135 127 113 102  99 104 102  82  74  80  80  96  99  97  95  88  86  83  80  76  74  66  63
 60  62  48   5  35  34  42  65  88 108 116 122 125 125 127 130 131 134 137 138 136 134 133 130
125 132 136 138 140 140 138 139 139 137 132 117  77  68  67  61  58  55  46  40  40  47  51  52
 52  48  45  45  45  46  62  77  78  77  79  79  79  85  93 102 105 106  94  96
