P2
# 8-bit pgm gray
92 112
255
217 217 217 217 217 217 217 217 217 214 215 217 218 218 218 218 218 218 219 218 217 216 217 217
218 217 197 196 177 122  74  64  54  47  69  79  66  76 142 130  69  76  76  78  60  55  49  59
 56  40  54  61  48  36  29  55  67  76  38  77  86  96 101 130 139 115 166 190 202 129 137 124
106 198 222 222 210 225 207 135 223 222 221 220 220 219 219 219 219 219 219 219
217 217 217 217 217 217 217 217 217 217 218 218 220 215 215 221 220 218 218 219 220 222 219 216
219 210 198 157  75  43  58  59  62  68  59  64  61  79  77  68  86  67  95  97  63  43  50  67
 80  74  56  72  62  51  42  54  58  36  54  73  69 135 148  69 126 102 123 148 117  98  80  75
 19 124 185 211 213 226 204 131 223 222 221 220 220 219 219 219 219 219 219 219
217 217 217 217 217 217 217 217 217 216 216 216 216 213 215 220 221 220 219 219 219 220 215 216
223 209 134  71  57  61  56  76  63  60  80  57  53  56  76  76  74  67  76 105  63   0  23  12
 77  83  60  79  50  40  59  47  38  36  52  72  68  93 158 142  54  56 106  87  46  46  79 107
  0 105 187 184 201 227 205 133 225 222 221 220 220 219 219 219 219 219 219 219
217 217 217 217 217 217 217 217 217 218 218 216 214 218 218 214 218 221 217 215 213 211 210 213
209 143  51  58  59  48  45  43  55  36  52  66  60  63  51  58  54  49  54  52  63  82  80  82
 69  67  80  74  52  67  53  48  50  49  34  77  94  68  76  89  89  40  40  55  48  55  41  48
 42  24 113 182 185 221 204 132 224 222 221 220 220 219 219 219 219 219 219 219
217 217 217 218 217 217 217 218 220 219 213 218 216 221 219 216 215 216 217 223 220 220 218 204
145  55  65  57  38  35  43  51  38  16   4  24  42  63  61  62  59  52  51  53  71  85  69  74
 83  66  85  67  77  81  27  55  79  67  30  59  63  85 112  87  60  54  38  42  42  42  43  49
 50  52 149 128 115 197 207 136 225 224 222 220 219 219 219 219 219 219 219 219
218 218 218 218 217 216 218 219 220 214 212 220 218 216 217 225 213 206 219 215 216 207 203 174
 48  64  55  33  40  34  49  52  38  38  48  40  35  28  32  45  38  45  52  59  70  97  66   0
 43  71  70  28  50  36  18  32  65  68  57  60  61  86  98  57  43  29  14  48  46  38  38  42
 56  34 172 199 121  90 176 143 226 225 223 220 219 220 220 220 220 219 219 219
218 218 218 218 218 218 218 218 217 213 217 216 220 223 222 215 206 208 212 208 189 183 180  93
 58  61  52  57  48  54  46  59  60  44  41  48  52  45  26  20  31  30  33  54  85 108 109  84
 50  66  50  33  31  23  42  39  34  43  45  35  88 108  83  69  36  34  34  47  45  46  54  38
 70  10 156 211 201 114  82 152 228 222 221 220 219 220 220 220 220 219 219 219
218 218 218 218 218 219 218 218 216 213 212 211 216 211 216 207 193 189 173 169 160 151 104  94
100  67  67  65  50  56  67  67  61  48  45  42  27  54  66   0  13  25  34  49  82  71  97  82
 46  41  36  45  26  36  83  59  32  38  60  57  88  79 105  80  11  25  40  70  54  62  75  70
 68  35 120 195 201 136 114 148 224 220 220 220 220 220 220 220 220 219 219 219
218 218 218 218 219 220 218 217 213 206 213 217 204 193 207 189 176 182 191 185 165 142 112 135
142  88  75  54  43  72  81  61  54  40  38  46  72  74 100 102  86  44  45  49  49  41  39  43
 33  17   9  30  61  69  67  45  50  34  49  46  30  24  63  25  31  26  18  53  93  85  81  93
 55  70  74 171 185  92 173 156 228 218 221 220 219 220 220 220 220 219 219 219
218 218 218 218 216 219 220 211 205 217 215 200 202 207 210 175 170 158 141 130 116  92  87  92
102  82  54  37  50  76  55  44  27  42  44  20  72 117  80  97 101  52  51  34  47  53  41  38
 23  19  14   6  51  75  63  54  60  50  46  29  32  42  32  15  52  59  57  44  60  74  76  40
 52  90  54 144 133 105 196 133 214 225 222 217 220 221 222 222 219 219 221 220
218 218 218 218 217 217 215 211 213 217 201 196 199 214 189 127  92  59  63  74  68  59  81  80
 65  44  46  73  78  59  40  47  90  55  45  68  28  66  68  23  61  87  66  19  34  44  43  22
 21  11   6  12   0  36  39  35  37  35  20  38  34  56  61  43  62  82  54  42  40  50  55  53
 52 111  67 103  80 132 137  54  69 201 221 232 219 220 221 219 220 221 221 220
218 218 218 218 219 220 216 216 221 210 194 210 195 172 113  73  90  81  80  68  61  75  78  38
 26  19  59  92 121 101  17  43  79 105  57  71  69   0  35  48  50  95  70  25  30  41  39  30
 18  13  36  14  21  48  35  51  32  35  27  26  35  26  39  41  38  34  18  16  37  34  46  63
 60  78  61  85  78  85  81 116 114 114 118 150 226 221 220 220 221 222 221 220
218 218 218 218 218 219 217 214 218 206 192 220 183  98  73  80  73  68  53  40  39  43  39  39
 30  49  45  63  69  34  21  18  23  41  73  58  35  44  37  43  50  50  59  17  53  68  15  13
 27  40  54  13  32  35   0  35  37  19  35  42  33  26  27  15  52  69  27  25  33  54  23  53
 47  48  83  70  46  46  52  60  79  82  96  43 135 221 220 226 222 220 221 220
218 219 218 219 217 219 216 217 209 193 193 201 136  77  79  50  87  70  38  51  54  52  67  76
 58  52  36  40  21  23  19  22  27  39  23  68  46  42  40  33  67  55  45  51  94  55  21   3
 37  49  35  72  47   6  45  41  26  24  34  30  37  49  46  13  63  74  37  42  35  47  43  31
 33  47  63  55  54 111 112  72  98  72  75  91   0 179 233 224 223 218 221 220
216 216 215 213 215 221 215 215 193 174 169 171 110  69  53  64  58  56  45  57  78  87  96  99
 72  79  32  34  25  41  46  24  22  32  30  43  69  43  43  36  84  66  55  72  81  37  44   8
 32  48  31  54  36  25  62  81  47  27  16  48  72  46  45  43  30  24  43  44  42  37  33  36
 46  49  65  52  50  88  72  98 201 159  46 102  81  55 208 226 220 224 219 220
219 218 215 215 211 217 217 215 194 166 179 164  76  39  58  68  52  60  56  56  59 100  82  77
107  77  25  35  31  61  79  32  19  22  33  19  60  63  43  63  74  70  44  56  58  51  46   7
 26  24   9  15  81  88  61  73  52  33  15  40  74  53  16  29  11  16  22  28  37  21  13  36
 48  43  64  61  34  44  32 106 118 144  63  71  68  86 179 228 223 217 220 220
219 218 218 219 215 218 212 207 181 182 182  93  62  53  68  55  56  71  59  55  68  77  85  80
128  80   0  36  37  52  62  25   3  30  62  89  69  67  50  48  48  58  40  48  47  36  18  16
 19   6   0  81 120 122  75  44  30  38  31  12  39  33  16  23  16  12  55  65  37  20  25  33
 41  21  60  78  42  66  35 126 146  71  99  40  97 142 174 219 223 217 220 220
208 211 212 213 218 219 209 207 184 183 133  93  77  65  70  63  67  59  49  49  56  84 115  68
118  96   0  51  84  68  56  57  70 106 142 122  59  40  31  20  41  81  65  35  44  61  44  36
 35   9  37  58  75  77  25  17  29  34  32  13  22  18   9   0  31  73  92  77  19  43  27  34
 44  22  48  57  71 101  85  40  69  62  49  79 121 142 175 218 222 223 220 220
216 219 216 212 215 220 210 208 175 186 137  83  56  55  44  58  67  63  56  51  56 101 115  55
121  98   0  48  85  88  62  47  60  68  79  54  33  22  27  22  46  73  51  34  44  63  42  29
 42  36  39  49  76  55  57  41  47  55  31  20  23  22  29  16  73  84  54  40  30  31  33  34
 41  18  26  41  64  93  81  52  76 137  61  89 105 161 146 211 225 225 222 218
218 215 223 222 213 215 214 205 165 175  93  63  43  55  54  57  50  43  56  66  74  87 116  66
115 102  19  55  61  80  64  57  53  85 126  93  46  41  24  41  58  33  39  54  43  30  28  41
 30  25  38  68  87  66  90  92  68  64  55  28   0  45  71  31  55  35  22  15  16  36  76  43
 15  14  18  19  29  26  34  76  50  73  67  30  87 171 140 215 219 219 221 219
223 225 217 212 216 222 210 188 168 133  66  56  57  56  56  55  33  55  55  56  89 120 115  66
108 108  54  48  63  45  70  53  33 100 139  96  58  37   5  40  46  22  37  40  33  42  41  40
 34  24  45  77 100  67  95 121 122  95  82  83  78  68  49  35  34  36  32  27  35  44  50  50
 32  33  19   8  31  43  38  79  76  72  65  91  68 146 166 229 213 222 219 220
214 215 212 207 204 199 190 173 118  83  84  38  70  64  58  46  79 110  87  48  70 114  78  54
107 103  81  60  41  47  34  24  31  68  91  78  62  40  53  59  39  31  33  30  37  36  59  54
 26  32  44  79  99  62  79 100 138 129 101 130 145 143 107  30  42  31  31  35  43  45  21  19
 41  47  29  14  29  51  51  69  60  43  69 145  80  98 108 196 220 222 217 222
216 214 195 191 190 202 181  98  77  77  77  64  49  58  56  63 124 121  77  68  57  30  52  59
111 114 104  63  31  47  47  41  47  43  45  43  48  39  50  46  28  22  24  27  24  45  41  45
 32  24  41  71  83  52  74  92 134 139 110 109 140 148 104  12  24  33  40  48  85  56  20  24
 29  36  37  45  48  61  70  45  44  27  64 137  64 184 160 113 171 221 214 220
209 210 197 212 213 204 135  51  71  67  60  59  52  48  80 113  84  81  61  51  56  55  62  73
122 142 134  30  44  44  33  30  41  36  53  66  52  45  35  44  40  32  26  23  33  59  27  34
 41  31  45  66  65  69  98  93 124 147 130  97 106 124  77   0  14  31  52  51  84  81  17  33
 27  35  34  39  32  53  60  53  41  28  37  80  53  92 167 138 124 169 215 217
212 194 200 209 211 167  64  79  61  77  54  50  61  73  72 117  97  58  55  39  56  77  57  83
132 149 123   0  40  40  14  26  56  57  40  74  64  55  42  35  42  42  25  28  34  46  38  26
 42   1  29  60  63  67 113 100 107 119 106  88  83  96  50  22  11  23  52  55  60  62  12  32
 31  57  77  31  36  26  58  68  31  35  47  43  51  68 142 116 110  92 200 215
217 194 209 212 167  75  46  69  91  65  41  48  49  63  64  49  65  59  41  28  60  81  63 100
138 148  98   0  38  37  19  36  66  65  45  65  58  37  30  47  41  31  19  18  30  48  51  17
 50  80  68  57  70  56  82  72  64  43  17  30  46  64  44  26  16   6  40  65  66  26   1  30
 47  50  42  12  25  46  35  27  36  45  51  57  50  42  83 100 114  33 158 213
218 196 215 206 122  45  29  62  84  51  46  54  63  28  34  57  40  46  38  37  46  65  66 114
136 149 115   0  44  39  20  35  67  76  62  39  44  71  97  84  46  36  26   6  28  45  52  49
 72  95  70  38  42  53  42  26  37  36  52  59  58  54  45  22  21  13  19  49  89  65   2   3
 40  39  22  39  42  59  82  77  61  58  53  53 110 104 106  90 113  53 112 209
212 188 215 199  90  52  26  56  77  30  38  63  73  64  32  30  36  38  34  34  51  70  77 113
138 154 135  32  34  47  34  23  70  81  55  61  65 111 145 110  52  36  33  19  10  39  53  62
 63  68  75  30  29  28  24  27  36  49  51  59  48  44  49  37  42  42  35  26  54  60   0  61
 60  32  51  42  49  77  98 107  76  33  40  55 117 141 133 133 159 193  73 197
208 181 190 197  83  43  42  63  74  12  29  69  66  90  59  19  23  45  47  30  47  50  78 127
150 157 153  94   0  62  51  20  72  75  37  65  60  81 128 100  28  21  29  28  28  32   0  51
 84  71  82  50  20  18  29  37  67  79 104 124 123  72  41  51  38   6  22  44  34   0  37  88
 77  56  33  13  31  45  41  59  70  35  32  19  93 140 157 127 118 188  78 187
215 202 202 149  80  72  80  54  18  16  31  66  59  62  40  34  24  32  50  33  29  52 104 141
157 153 155 144  66  48 107  58  43  45  46  53  57  70  84  68  46  27  24   9   0  50  81 127
114  55  37  15  25   0  61  65  87  98  76  78  82  88  63  51  35  35  43  57  55  41  54  55
 56  40  35  37  20  26  31  67  39  28  21  54  75 146 161 170  94 126  75 200
203 195 198 106  55  61  88  96  46  36  62  63  43  22  37  38  34  32  38  36  49  91 123 134
147 150 152 153 149  59  82  91  50  35  41  41  56  50  51 107  99  24   0  52  86  82 112 128
 96  19  30  57  37   0  79  76 101 102 115  95  95  97  55  34  47  56  48  62  49  46  40  61
 48  49  55  49  41  18  31  41  34  23  45  70  45 119 141 187  29  68 111 198
216 200 184 107  74  57  73  84  59  41  57  40  56  52  42  35  28  37  39  36  72 113 131 141
152 156 161 155 157 124  38  36  51  34  34  44  50  45  95 122 100  45  46 102 138 117  87  61
 50  48  45  36   0  73  93  80 118 117 119  70  58 102  88   6  47  78  71  27  30  35  51  45
 26  65  72  48  76  50  38  61  41  57  61  71  82  99 130 154   0 110 181 178
208 210 176 114  63  45  65  58  63  50  55  48  46  40  43  43  23  42  34  51  97 130 138 147
155 157 161 157 153 137  91  22  13  23  26  38  44  48 111 115  50  52  62  67  75  89 113 123
 71  55  40  47 104 118 102  74 126 157 114  28 132 139 100   0  95  94  78  28  37  45  46  57
 58  53  57  62  80  61  58  77  53  54  45  55  75 103 123  97  46 160 200 161
199 193 159  95  27  47  50  55  58  48  45  59  51  43  61  29  40  50  56  75 110 128 140 149
155 158 163 155 143 129 115  74   0  30  31  47  62  62 117 130  59  42  51  57  64  83 118  92
 38  39  21  71 121 128 127  76  93 138  45 121 137 119  57  64 138 102 131  74  38  52  64  78
 72  39  39  70  55  62  51  45  53  50  34  39  97 132 127  65  72 177 192 211
222 206 172  71  21  49  44  39  57  44  36  49  48  60  65  63  55  52  70  85 116 132 146 152
155 158 164 156 142 122 121 113  67  12   6  68  68  70 115 138  70  26  45  47  71  88  99  87
 61  36  36  57 104 118 122 115  53  71  48 104 101  72   0  94 144 100  84  32  31  73  70  89
 85  56  23  51  59  60  49  51  48  38  47  74 123 149 115  51  86 155 179 200
214 210 136   6  55  47  53  38  51  33  40  39  36  52  60  57  49  59  74  99 127 135 148 152
155 159 162 148 136 119 118 115 111  86  69 101  62  81 133 136  53  19  42  55  57  44  79  97
 76  39  31  63  91 105 107 111  95  39  31  20  20  43  47 108 130  85  17  16  85  88  60 111
 90  83  42  74  67  59  55  52  35  45  46  56 128 146 153  82  74 149 156 186
215 190  65  42  45  79  84  28  42  24  34  46  27  43  54  30  52  73  83 116 135 141 146 148
153 156 156 146 122 123 117 118 121 122 122 127 101 100 139 142  82   0  46  43   5  70 108 120
 93  30  39  59  93  99 101  97 105  90  25  74  72  47  78 121 135 106  48  98 149 102  72 118
101  99  72  66  60  56  66  53  33  59  51  66  95  83 142 158  81  49 138 162
215 166  60  58  33  66  88  50  34  32  38  49  47  73  49  46  79  81  98 125 140 143 148 149
154 158 155 140 127 130 127 127 125 122 126 135 129 115 139 132 104  52  41  29  10 105 125 121
 64  26  53  79  97 101  97 105 106 105  68  28  27  35 101 159 159 101  78 142 156 113  96 125
133  96  92  40  70  92  47  40  49  50  57  93  85  97  88 106 163  79   0  86
208 133  24  52  78  79  56  50  55  32  24  31  66  92  64  69  86  91 108 130 140 143 149 150
155 159 154 134 131 132 129 128 126 123 129 137 134 121 129 121 106  83  36  23   0  65  78  42
 20  62  93 115 112 120 115 121 113 112 109  83  75  85 142 171 160 109  85 120 115 107 110 118
142 111 107 112  94 110  43  51  50   4  37  75  77  80  57   0 103 185 116   0
184  48  90 112 112 121  75  31  31  39  54  34  39  63  73  82  82  96 112 133 143 147 151 151
156 160 155 139 139 135 128 126 128 130 133 141 135 135 124 117 119  87  55  54  52  26   0  51
 88 105 132 142 123 145 149 146 139 127 125 119 112 125 159 166 152 123 110 111 115 127 118 116
143 146 112 107  93 101  54  49  30  28  30  60  70  38  51  59  20 139 168 164
163   0 132 150  51  94  69  45  42  37  45  91  99  89  65  67  83  99 117 134 140 148 150 149
155 159 153 143 142 137 131 126 126 128 132 144 141 132 125 115 116 114 102  94  93  91  92 103
121 130 148 148 131 149 165 166 161 154 144 127 115 132 160 165 149 126 125 136 141 142 118 117
140 149 114  83  92  91  55  26  25  29  42  41  97 123  55  36  41  83 137 143
146   0 143  93   0  36  50  55  54  53  75  99  88  64  61  45  75 102 116 132 135 143 150 151
156 158 152 146 145 140 135 130 128 128 135 146 141 130 131 123 117 117 117 111 108 117 126 129
130 138 143 139 141 153 165 169 167 164 148 131 129 134 152 160 149 129 129 143 150 148 120 113
127 126  97  77  74  80  81  50  11  32  42  49 114 174 101   0  62 129 128 144
 94  55  85   0  39  38  40  45  41  39  66 112 106  73  43  41  42  92 113 129 134 139 149 153
157 158 152 148 146 141 134 132 131 130 135 145 138 134 135 133 127 124 123 122 121 126 139 146
149 146 139 143 152 155 159 163 164 159 139 136 142 135 141 151 146 128 125 136 142 130 100  83
 87  85  76  77  72  65  76  56  23  40  44  67  38  89  71   0 116 176 108 187
 60  48  57  45  21  28  51  32  37  38  20  54  77  79  59  37  26  65 108 127 132 135 144 148
154 158 153 150 147 140 133 131 131 128 133 142 138 137 135 136 136 131 128 127 129 136 143 145
147 146 148 155 159 155 151 152 155 145 134 137 143 134 133 140 140 121 113 117 111  87  65  59
 67  66  66  71  83  88  92  52  19  41   0 121 134  76  64   0 123 167 122 113
 95  53  52  22  24  39  51  24  27  29  17  46  58  53  60  47  23  46 105 125 130 132 138 144
153 157 155 154 151 144 136 133 132 131 135 141 138 137 134 136 139 135 133 135 137 139 144 147
153 153 156 159 160 160 149 147 148 137 135 135 137 132 130 134 134 111 103  98  84  59  55  55
 67  84 100 110 115 111 111  66  18  32  42  63 154 131   9  46  68 131 114 118
117  79  41  39  14  40  16  22  23  31  27  22  50  49  58  54  37  36 103 124 127 130 135 143
152 156 156 157 155 148 138 132 133 137 138 137 137 135 136 138 141 138 134 135 136 140 150 153
152 154 159 164 163 158 150 143 139 136 136 135 135 132 127 130 121  99  89  79  71  70  81  91
 94 100 103 113 116 117 118  97  26  33  60  66  58  76  53  70  75  70  96  56
116  77  44  46  51  43  26  30  25  25  24  13  36  46  57  54  48  38  98 126 125 131 136 140
149 155 156 159 158 152 145 137 134 134 134 135 136 136 137 140 143 140 135 136 137 140 148 151
154 156 159 161 158 155 149 142 138 134 135 134 133 129 125 120 107  93  75  70  77  82  79  74
 75  76  75  82 104 113 114 102  26  51  42  63  73  64  69  81 131  82  47  88
120  56  39  56  58  49  32   4  25  13  14   8  31  48  50  54  49  32 104 125 123 130 134 137
146 153 158 162 163 159 153 145 138 133 131 133 136 136 138 142 146 143 137 136 138 144 148 149
152 150 149 149 148 148 145 139 137 134 134 132 130 126 118 110  97  78  73  79  76  72  71  70
 66  58  51  57  91 109 114 112  46  52  34  44  66  65  29  73 106  83  75  97
124  59  24  44  50  50  52  26  12  19   4   0   0  37  52  47  24  59 123 121 123 127 130 135
143 152 159 165 166 164 159 151 142 135 132 133 136 136 139 144 145 139 133 132 132 133 133 129
130 134 135 136 138 140 139 136 138 138 134 130 127 123 115  98  76  74  81  74  53  46  85 108
104  99  71  44  65  94 111 116  80  34  39  49  44  72  88  51  74  65  60  62
143   0  43  18  35  44  70  79  29  26  27  36  74  68  58  52  18  89 123 125 125 126 131 136
143 149 154 164 168 171 167 160 148 136 132 132 134 135 140 141 135 124 116 116 110 100  96 100
112 119 121 123 128 132 132 134 134 135 136 132 126 119 107  75  69  77  58  28  33  45  51 113
132 117  96  85  88 102 118 121 104  50  40  53  48  51  94  99  85  69  56  64
130   0  44  32  38  32  51  76  64  45  40  55  93  80  58  47  61 104 118 127 127 128 133 137
143 148 152 160 166 174 171 163 149 135 128 125 124 125 124 117 106  90  77  73  70  72  70  81
 97 105 109 111 116 123 128 132 132 136 135 133 129 120  94  65  78  42  26  41  44  37  31  89
131 125  92  91  95  99 130 138 107  64  21  28  39  57  67  85 102  81  92  52
101  24  45  38  57  64  46  46  78  59  25  45  70  52  48  56  81  99 117 128 130 132 137 138
141 147 152 162 167 172 169 158 144 130 121 115 110 105  96  79  70  63  56  58  63  68  74  85
 94 103 108 109 114 121 127 131 135 142 145 144 139 122  74  67  66  39  30  52  70  28  44  84
124 114  89  93  99 110 132 150 126  67  25  36  39  54  59  82  82 122 117  90
 88  51  46  51  63  74  85  61  66  92  71  40  53  30  45  54  79 105 116 129 132 136 140 139
140 145 152 159 160 159 150 139 129 118 109 100  88  82  75  67  59  69  77  80  86  93 102 106
104 108 113 115 119 125 128 132 138 150 157 158 154 131  67  66  62  44  24  39  51  43  43 112
123  87  89 110 114 132 140 146 154  80   0  59  38  35  32  70  91  93 169 112
 74  46  63  43  64 105  93  77  54  75 117  86  30  47  32  50  80 100 118 129 134 140 142 139
139 144 150 152 144 135 124 116 106  96  90  84  85  84  92 103 103 100  91  81  76  80  91 103
108 109 110 112 118 124 129 134 144 158 171 177 179 159  87  60  44  52  49  43  39  39  80 108
107 100 102 115 121 139 156 147 160 116   0  43  65  31  83  74  83 119 144  72
 22  44  50  62  38  78 101  74  61  30  61  96  83   4  29  51  79  99 118 126 133 141 142 139
140 140 141 133 113 103 104 102 101  99 100 105 113 117 113 102  84  76  76  79  78  75  72  83
 98 108 109 107 110 116 124 135 151 169 183 187 184 179 129  68  76  78  82  89  87  89 103 111
113 115 116 121 125 136 157 162 153 135  28  20  53  79 152  66  87 111  79  28
 86  56  20  61  83  24  34  56  49  42  54  77  71  64  32  38  71  96 111 121 130 138 138 139
140 135 130 123 110 111 118 124 126 125 129 132 123 106  84  72  66  65  76  87  88  93  94  86
 82  96 111 109 101 110 120 134 154 174 187 194 189 191 168  83  80  81  79  85  87  95 104 108
115 127 129 126 133 143 155 164 156 147  57  14  39  56  62 106 138  92 128  81
121  51  32  10  81  69  16  34  30  37  45  95  55  38  50  39  64  90 109 123 130 134 134 135
135 129 123 120 119 126 132 134 129 135 130 107  84  74  80  63  55  89 110 102  95  91  99 100
 94  87 105 109 101 106 116 134 156 175 185 199 201 191 189 131  66  84  83  84  90  99 106 113
122 125 128 134 142 150 157 165 159 150 127  19  42  54  14 143 183  81 135 149
173  63  26  32  17  59  57  30  38  39  46  79  86  36  35  53  57  90 109 121 126 125 130 130
127 126 123 121 131 139 136 134 137 123  95  81  69  52  44  43  46  81 123 132 122 119  92  97
103 100 111 113 107 102 113 133 154 171 184 194 204 198 195 171  83  79  86  97 101 109 122 130
135 136 137 142 149 162 167 170 166 157 108   0  42  55  62 111 105 124 191 161
202 141  33  34  36  20  54  59  27  42  43  46  94  93  14  51  61  87 107 120 126 125 129 130
128 130 131 132 137 139 137 133 117  88  82  65  45  39  47  56  55  40  85 136 122 126  92 109
 89  96 124 119 104 101 113 134 153 166 180 190 203 204 194 198 136  73  94  97 106 115 125 136
140 142 144 150 162 171 174 172 165 165 109   0  54  41 107 100   0 171 186 179
195 188  76  26  40  41  14  60  60  38  49  50  63  91  60  26  62  85 107 121 129 129 131 131
130 131 133 134 135 133 133 124  94  88  65  74  81  50  22  84  75  39  71 126 131 111  82  77
 96 117 121 116 108 111 123 138 150 157 168 184 201 203 194 191 167 116 101 103 110 116 122 133
143 147 152 161 169 172 174 170 169 161 123   0  48  46  95  75  15 113 157 146
210 169  13  39  30  43  40  16  55  43  44  56  53  61  64  54  60  81 105 120 131 135 136 134
131 131 133 134 133 129 126 110 102  82  47 104  98  40  50  68  84  46  86 139 113  95  98 109
114 116 115 117 114 118 139 145 148 150 156 172 193 200 194 187 180 153 125 123 124 126 127 133
147 154 162 170 172 172 171 168 167 158 121   0  56  31  98  98  91  95  43 123
204  96 123  63  32  40  43  32  25  45  50  56  50  52  54  64  55  86 103 121 134 140 141 138
135 134 135 134 132 125 117 110 106  91  78  73 104  79  58  59  52  45 105 107  96 103 108 104
106 102 113 117 117 129 147 152 152 152 152 161 181 195 194 191 180 165 150 148 149 152 155 152
158 165 167 170 173 170 166 164 159 163 124   0  43  68 142 126 131 195 145   0
137 151 179  58  34  43  52  41  36  31  51  63  54  64  60  56  60  80  99 120 136 144 145 143
140 138 138 136 129 120 113 109 101  99  94  87  93  98  76  64  70  93  98 104 110 103 112 109
110 108 113 114 127 146 152 157 157 156 155 157 169 187 194 191 187 172 160 154 152 163 171 169
169 174 173 172 173 169 163 159 159 159 113   0  30  76  99  80 158 208 182 115
127 206 164  70  35  32  48  58  50  20  36  57  63  58  65  64  53  74  94 120 137 147 150 148
146 142 141 138 125 118 114 114 111 102  98  99 100  95  96 102 108 117 114 111 115 117 118 114
114 117 117 126 144 156 158 160 159 157 158 156 161 176 188 191 189 178 164 158 159 166 174 174
173 177 178 178 176 171 165 160 158 157 110  17  43  37  46  40 125 192 146 174
183 199  87  55  40  31  45  53  65  37  22  45  67  40  58  77  64  72  95 121 138 148 154 155
152 145 140 137 129 125 122 127 126 120 116 113 110 112 113 120 123 128 127 125 127 126 125 120
121 125 132 144 154 159 160 161 161 160 156 155 160 172 183 189 191 183 170 164 161 167 174 175
176 180 181 181 178 176 171 165 160 155 106   3  63  38   0 102 113 128 126 157
202 130  46  59  25  35  44  49  57  40  19  42  65  39  56  87  83  69  92 119 138 148 157 161
159 152 144 139 135 134 130 127 129 131 132 132 130 131 128 130 134 136 136 134 132 131 129 126
129 138 147 156 158 158 161 163 163 161 156 155 159 168 176 186 193 189 178 167 161 163 170 174
178 182 183 183 180 179 175 167 163 157  91   0  43  57  18 107 126 170 168  81
155  41  71  32  38  37  31  64  60  40  32  47  56  58  58  88 101  69  88 117 136 146 157 163
165 158 150 143 140 139 133 131 134 139 138 136 139 141 138 139 142 141 142 142 137 136 134 134
141 155 161 163 160 158 160 162 162 160 157 157 161 167 173 184 195 194 183 172 164 164 171 174
178 181 183 182 179 180 177 168 159 159  94  49  52  84  90   0 120 123 119 110
 78 100  60  46  50  39  62  50  40  47  40  62  51  55  64  93 110  89  80 112 127 147 157 162
167 162 156 150 145 139 136 134 134 136 140 143 146 151 153 150 148 149 148 144 140 138 138 143
151 164 168 167 162 157 156 158 158 155 157 160 160 163 170 182 193 198 188 178 169 162 167 174
179 182 183 182 181 181 176 170 162 157 124  34   0 115 120   0  62  86 132 194
 90  79  47  53  37  72  57  14  55  37  36  51  49  57  61  96 113  88  74 103 122 139 152 160
167 167 164 160 156 152 151 150 148 148 151 155 158 160 158 152 149 149 147 143 141 141 144 152
162 169 172 170 164 158 156 157 157 153 156 160 161 165 171 182 191 198 192 184 175 165 165 171
177 180 181 181 182 181 177 171 165 156 123 130 147 110  96   0  34  65  66 180
 46  48  41  53  83  77  36  51  48  37  52  50  47  57  49  87 109  79  76  93 119 133 146 155
164 170 171 171 169 169 171 174 175 174 173 173 174 171 164 157 151 148 146 143 142 143 149 160
169 172 173 171 164 158 157 155 153 151 153 158 161 167 174 181 189 198 197 189 182 173 168 169
174 177 180 181 181 181 178 173 169 160 100 156 179 135  68 115  72  61   0  99
 58  41  42  68  78  42  15  58  41  32  50  46  55  59  42  76  95  88 112  91 112 126 141 148
158 166 169 171 172 176 182 185 187 189 187 185 183 177 168 163 156 150 146 145 144 146 154 164
171 174 175 171 163 157 154 151 147 147 149 154 159 166 175 181 186 198 202 191 187 181 173 170
173 178 181 183 181 181 179 175 169 162 149 155 177 193 146 108 111 117 151  53
 56  33  48 109 121   0  46  68  31  49  45  38  57  59  48  70  92  94 148 108 102 120 135 143
151 159 165 169 173 178 181 182 185 188 188 187 186 179 172 168 159 152 148 147 148 151 159 168
173 178 178 175 167 159 153 146 144 143 145 150 158 166 174 179 184 197 206 193 188 185 179 173
174 178 181 183 180 181 180 177 175 165 179 159 149 174 131  44 155 109 140  96
 63  61  80  57  87  43  14  58  50  61  25  53  53  54  53  73 100  85 142 136  97 117 129 138
146 154 162 165 170 175 177 179 182 185 186 187 186 180 176 170 160 155 153 151 152 154 161 169
175 179 178 175 168 161 151 142 144 143 143 146 155 165 171 174 180 191 203 197 190 187 183 177
174 176 178 180 179 181 180 179 173 165 194 196 189 119  52 111 129  67  44  33
 73  65 119  37  57  91  75  62  63  38  30  59  52  56  51  75  98 103  82 102  99 112 124 134
141 149 156 157 163 168 168 173 178 181 182 182 182 176 174 170 163 160 158 157 158 161 166 173
178 180 178 177 171 161 145 140 146 148 150 147 150 161 170 173 178 186 192 193 188 186 183 177
175 176 178 179 178 180 179 177 175 166 181 202 199 159  70 132  44  58  55  73
 87  44 110 132  39  54  76  52  72  36  37  56  46  51  45  74  94  84  88  96  92 108 123 128
135 141 147 151 162 164 152 163 173 174 175 176 176 172 172 169 167 166 164 165 167 169 173 178
181 181 179 179 174 163 143 140 147 150 155 153 153 161 168 173 178 183 186 185 181 179 177 176
179 179 179 179 178 179 178 177 174 165 165 148 156 129   0  57  64  67  28 129
 78  62  54 143 128  42  60  63  53  54  49  42  42  44  46  56  70  58  86 105 110 101 117 124
130 135 142 146 150 156 159 164 168 171 172 171 172 169 171 168 170 170 169 171 173 176 178 181
184 181 179 180 177 165 143 140 146 149 154 154 155 157 161 167 174 180 182 178 173 173 169 173
184 182 182 182 177 178 178 176 175 164 197 153   0  83  83  21  61  58 118 120
 77  89  33  64 104 114  72  71  39  56  50  44  43  46  48  29  47  69  81 100 115 108 102 120
127 132 138 143 144 151 158 162 164 165 166 168 171 170 171 171 173 174 174 175 175 178 182 181
182 180 181 181 175 167 146 136 148 147 150 149 146 148 151 155 160 165 169 167 159 160 160 172
184 184 183 182 181 178 175 174 172 166 187 173 190 108  52  72  94 138 216 203
114 129  21  68 113  63  50  52  58  61  55  52  29  45  45  67  31  50  85  97  98  96 100 111
120 127 135 142 145 149 152 157 159 161 163 165 169 170 171 172 173 174 175 176 177 179 183 181
182 183 184 182 176 170 150 133 143 147 145 145 143 143 142 140 141 142 142 145 144 140 152 178
183 184 184 182 182 179 175 174 176 162 200 197 169 121 110 109  74 189 199 201
106  82  70  17  98 106  30  52  58  70  56  50  41  56  40 124  69  16  77  89  90  89 103 105
115 123 132 138 143 148 149 154 158 161 164 166 167 169 171 172 173 174 176 178 179 181 185 183
184 184 184 181 177 174 159 134 136 143 145 144 139 135 133 134 135 136 137 137 136 123 143 180
181 182 182 180 181 178 174 174 169 165 205 219 105 136 188 151  26 176 213 212
148 107  58  72   9  51  51  64  80  78  44  41  54  57  39  87  75  41  53  99 102 101  96 107
108 115 125 131 140 148 149 153 156 160 164 166 165 167 170 173 173 174 177 180 181 183 187 185
186 181 178 178 179 180 167 140 130 132 135 129 124 126 132 133 133 134 134 133 127 115 137 175
177 178 177 176 178 175 171 170 173 159 213 169 145 136 204 212 133  49 140 173
205 171  92  70  90  56  23  55  81  77  47  52  65  50  44  71 135  43  12  49  88 100  93  90
105 111 118 126 137 146 149 151 153 156 159 162 163 166 170 174 172 173 177 181 183 184 187 186
186 179 176 177 180 183 174 146 131 129 123 117 118 128 137 140 138 133 132 134 125 119 147 175
174 176 177 175 176 173 169 168 164 173 196 142 180 149 158 211 195 150 109 108
204 189 103   3 108  97  44  78  62  51  56  65  60  47  43  41 116  48  29   0   0  31  38   0
 93 115 119 124 132 142 147 150 153 155 157 159 161 165 170 174 173 174 178 182 184 184 186 186
184 182 180 179 181 184 180 153 138 136 131 130 131 136 141 146 143 134 135 141 131 123 153 175
173 174 173 166 168 168 166 164 162 170 153 118 211 180 167 174 188 193 182 165
174 148  68  36 122  77  33  89  77  75  49  40  49  58  18  87  98  49  25  12  12  38  22   0
 60 111 114 122 129 138 143 148 151 154 157 159 162 165 170 174 176 177 181 184 185 184 186 186
184 182 181 181 183 185 182 160 142 138 137 136 136 141 144 145 139 130 131 143 139 135 161 178
175 174 167 154 153 155 158 161 163 162 170 126 181 170 213 188 186 186 183 215
177 141   0  77  84  78  58  85 107  33  38  34  43  52  16  92  68  53  21   2  16  25  11  15
  0  96 117 120 125 132 138 145 149 153 157 160 162 165 170 174 177 179 181 184 184 184 186 186
184 184 183 183 185 185 182 167 144 137 138 136 135 138 142 143 136 128 133 137 139 143 166 180
175 173 162 145 138 141 149 155 162 135 139 128  71 124 147 155 170 181 209 216
158  84  48  77  23 111  76  78  78  67  41  33  42   0  81 105  36  57  18  19  18  17  11  14
  0  55 117 120 121 128 135 143 148 152 157 160 162 165 170 174 177 179 180 182 183 184 186 186
184 185 184 184 187 186 185 175 148 141 139 135 134 137 142 143 130 116 118 125 132 144 169 181
174 166 144 116 124 130 137 145 147 110  75 100 129 123 134 183 198 214 216 214
128  34  91  42  72 118  68  77  66  76  59  45  72 119 135 103  25  57  32  17  19  15   3   4
 21   0 101 123 124 127 133 139 145 149 154 159 160 164 168 170 173 176 179 181 181 182 183 184
184 186 186 186 186 185 181 174 160 142 134 135 139 142 142 141 128 107 101 114 131 141 150 145
130 108  83  98 116 128 132 139 138 100  76  85  97 106 123 162 203 215 209 209
 76 104  89  63  75  68  48  50  80  59  69  64  72 124 139  36  30  63  54  14  20  16  14   5
 16   0  48 117 120 127 129 137 141 146 149 155 158 158 162 168 171 174 178 179 179 180 181 182
183 182 182 182 182 181 177 173 165 150 143 138 137 139 139 143 142 131 123 125 128 125 116  90
 69  68 100 131 128 127 127 138 125 117 130  95  83 109 124 136 162 191 211 215
122 145  81  63  85  27 110 129  95  55  62  75  82  88 132  62   0  35  59  44  24  25  13   6
  5  15   0  79 125 125 130 135 139 142 145 151 156 153 156 165 168 171 175 177 177 177 178 179
180 180 180 180 180 179 177 175 171 163 152 142 139 141 144 145 137 130 126 123 117 110  85  51
 89 116 138 150 150 137 128 129 104 108 127 134 114 104 107 113 117 131 163 193
158 135  67  49  53  76  78 142 144  80  49  70  81  55 129 114   0  32  54  58  36  23   6   6
 15  15   4  19 103 126 134 135 138 141 142 148 153 154 158 162 165 169 173 174 174 174 175 176
177 177 177 177 177 177 175 172 171 166 160 151 144 140 134 123 116 117 114 108  88  58  62 102
131 136 140 149 147 132 129 116  83  92 106 119 120 122 124 133 131 118 113 122
188 182  78  29  91 124  86  57 126  93  35  43  63  28 154 160   0  24  24  59  57  30   6  15
  9  13  16   0  52 117 128 133 138 140 143 147 151 155 159 160 162 166 170 172 173 174 175 175
175 173 172 173 173 171 166 166 168 164 156 146 132 113 104 107  98  89  77  68  65 100 131 141
138 136 137 142 141 124 123  89  59  87  94  97  81  93 115 131 137 137 143 139
218 189  62  43  40  64  79  98  43  64  50  74  46  14 134 137  35  26  25  17  47  55  18  10
  6   4   3  13   0  74 124 128 133 132 140 144 149 152 156 159 161 163 167 171 173 173 175 174
171 169 169 170 164 157 155 155 158 152 131 109  85  60  48  54  58  64  75  79 108 137 143 137
133 132 133 133 127 124 110  54  48  60  78  94 102  91  96  98  88 105 128 139
212 152   0  68  54  31   4  26  59  55  71 105  47  22  45  71  61  38  22  17   9  43  36   6
 12   7  17  22  28   0  90 127 130 129 138 145 148 150 155 157 160 162 165 169 171 173 173 172
169 170 163 157 157 153 141 136 121  94  80  74  75  79  78  79  83  87  94 102 121 138 136 127
122 124 129 122 119 122  78  40  57  54  60  78 103 100  71  77  86  87 111 121
186 193 109  21  50  68  59  51  21  42  68 101  47  17  51  51  50  34  16  12  22  30  34  15
 13  10  21  36  34  24  41 105 127 131 139 147 146 148 153 155 158 160 164 167 170 172 172 169
166 163 161 155 140 121  94  82  88  97 102 106 111 111 106 108 107 104 108 114 121 124 119 113
121 125 117 119 122  98  48  56  55  57  63  68  75 105  77  11  48  49  93 112
 63 160 173 162 131  88  59  43  55  64  43  70  69  37  59  70  45  38  33  19  31  38  43   7
 17  23  34  38  40  27  43  77 113 127 132 140 145 147 151 154 156 159 162 166 169 172 171 168
164 158 151 144 134 127 120 106 110 116 123 121 121 123 122 122 119 113 114 116 113 112 114 120
124 119 122 124 117  65  50  54  60  61  68  71  77  93 103  63  46  27  61  96
138 117 143 135 117 101  64  60  77  62  47  58  67  62  50  74  52  40  39  41  33  55  42   8
 30  30  40  41  35  28  50  72  93 115 130 135 141 148 150 154 153 154 159 163 165 168 169 166
159 153 149 145 145 146 144 138 134 133 130 123 117 117 122 123 115 111 110 109 116 124 127 127
122 123 122 131  99  22  52  52  60  67  76  84  86  89 104 110  95  89  64  80
157 144 122 106  78  65  66  83  76  64  70  56  64  75  56  75  59  50  53  38  53  65   5  20
 38  35  38  44  35  29  50  74  89  98 113 131 136 144 148 151 152 154 158 161 163 164 165 162
157 152 151 151 151 150 149 146 142 139 135 131 127 124 120 115 116 119 122 127 130 130 126 124
121 126 125 134  68   0  41  53  58  66  81  93 101 106 104 112 104  97 106  81
127 131 109  79  90 101  78  80  83  66  77  80  73  66  57  78  64  54  61  51  87  59  34  25
 36  38  44  48  36  27  51  71  92 100 103 119 130 138 144 150 151 152 154 157 158 158 159 157
154 151 151 153 154 154 153 151 148 146 144 143 140 134 131 131 132 132 132 128 127 127 124 123
131 126 139 113  26  32  16  44  54  68  85  94 106 118 113 119 115 106 105 111
146 133 101  87 106  98  96  81  96  98  78  68  66  74  57  83  75  60  60  96  82  54  58  30
 40  38  43  48  34  24  49  69  89 104 107 109 117 129 136 143 147 148 150 151 153 154 153 152
153 149 149 150 151 151 150 149 147 146 143 139 136 137 139 141 139 134 128 127 128 128 130 130
132 132 131  81  30  43  26  14  41  64  83  92 107 118 125 125 123 103  92 106
139 129  79  86  73  76  98  96 106  77  62  64  70  73  51  74  76  65  87  86  68  64  64  41
 44  47  40  48  32  22  47  70  85  99 106 108 111 116 125 136 141 143 146 147 148 151 149 148
149 147 145 145 145 145 145 144 144 144 143 141 139 143 145 143 141 137 132 129 121 128 129 129
125 129 105  69  47  51  40  27  24  40  67  83 102 115 127 128 128 114  96 107
134 126  96  93  79  77 106  98  94  60  74  61  78  70  46  64  83  79  93  80  71  68  62  49
 34  50  40  48  33  23  45  68  85  98 104 110 114 110 116 125 133 137 141 140 140 143 142 142
142 142 142 142 141 141 141 142 143 144 143 143 145 146 146 143 139 137 134 121 108 128 127 124
128 114  82  83  62  54  58  31  25  25  52  71  98 113 121 127 130 128 110 114
133 117  93  91  84  89 102  98 101  75  62  76  92  64  47  53  93  94 100  86  72  70  62  58
 33  48  42  47  36  20  43  64  80  96 105 110 114 114 114 111 121 127 129 132 133 135 135 136
136 138 139 140 140 141 142 142 144 144 146 147 147 147 146 139 136 135 132 134 124 129 126 125
110  89  93  93  73  53  75  46  21  23  33  48  91 107 115 123 126 132 120 110
128 125  98  82  75  88 125 134 109  73  76  85  76  53  46  62  99  92 103  91  80  75  63  62
 39  40  43  46  39  18  40  60  76  94 105 112 118 119 117 114 114 116 121 128 131 130 132 134
135 135 135 137 138 140 142 142 144 144 145 146 145 144 142 135 133 133 130 128 129 127 115  97
 79  86  97 104  88  51  78  65  24  21  24  30  77  99 109 119 124 131 130 120
 98  81  69  69  69  76 121 143 111  78  68  75  63  54  44  87 107  85 100  96  88  79  67  65
 51  34  47  45  41  16  39  57  74  93 105 112 117 117 118 121 122 119 118 121 124 126 127 130
132 131 133 135 137 140 142 142 143 144 143 142 141 140 138 131 131 132 129 121 110  91  79  71
 75  88 101 110  99  57  73  84  37  20  29  25  64  92 104 115 123 125 136 135
 24  59  82  87  86  86  93 114  91  77  66  65  79  73  54  96  86  93  96 101  91  86  78  66
 59  32  47  46  40  18  39  51  71  90 103 110 115 122 123 123 123 123 123 120 119 123 124 126
127 124 125 128 131 134 137 137 138 139 138 136 136 137 136 128 129 123 110  81  69  74  73  72
 73  90 108 115 113  61  73  94  63  17  27  28  49  82  91 106 121 122 130 140
 82 104 112  96  82  78  82 106  97  81  77  67  69  87  88  94  48  98  98 105 103  96  96  80
 64  34  40  50  42  17  40  50  63  80  99 112 115 122 122 121 123 125 126 124 122 122 123 124
124 127 128 127 126 127 129 130 133 135 134 132 129 126 127 122 114 107  99  77  71  78  74  70
 71  91 110 122 123  70  75  98  78  26  42  41  31  77  87 100 121 126 124 133
118 104  97  96  85  83  94  80  97 101  80  71  64  65 102  88  16  87 108  97 111 114 107  95
 80  48  28  50  46  21  39  49  56  70  89 105 113 121 122 123 125 127 128 128 125 122 123 123
122 125 127 128 130 130 127 127 126 125 124 126 127 127 118 100 110 110 102  77  70  76  73  69
 71  92 116 131 136  82  71  97  87  53  88  84  29  67  83  93 120 126 120 126
 99 101 106  95  84 113  82  82  90  95  94  78  68  59  97  86  23  53 110 111 103 119 116 105
 87  71  39  41  49  29  37  50  57  66  77  89 103 113 119 121 124 126 129 129 127 125 125 123
123 121 121 122 123 123 123 124 127 130 128 131 134 132 124 105 111 108  97  75  69  75  72  68
 71  92 120 140 152  96  68  95  90  89 114 109  49  50  80  91 116 122 123 123
 78  90 110  92 115 117 103  75  85  88  85  82  88  82  89  91  43  27  90 128 111 111 123 122
102  85  59  29  51  38  31  50  56  63  70  78  89 100 108 117 121 124 125 126 127 127 126 125
124 125 125 122 120 119 122 127 132 134 137 138 140 134 120 108 109 107 100  78  68  73  71  70
 71  94 124 146 164 109  68  98  91 105 116 116  75  35  74  83 113 118 125 125
108  98 108 111 122  93 135  84  73  79  83  77  90 108  85 105  53  25  49 114 130 133 123 128
118 100  77  40  47  47  22  45  56  60  68  72  77  85  94 106 113 120 123 125 128 129 128 128
128 127 126 125 124 124 128 135 137 136 136 137 139 128 110 109 111 110  99  80  67  71  72  71
 71  95 125 148 171 114  70 102  97 116 117 114  86  34  59  69 102 117 124 126
120 105  96 113 117  68 113 118  67  70  83  83  88 148  96  99  78  47  25  75 121 125 130 129
121 112  89  67  35  57  35  38  57  60  66  68  71  77  83  92 101 112 121 124 128 131 131 132
132 131 131 131 130 131 135 135 131 124 135 141 135 118 104 108 109 107  98  80  68  72  73  71
 71  95 125 147 173 122  68  99 109 122 111 107  96  50  46  68  97 119 121 125
118 109 100 109 109  85  71 115 105  97  99  90  86 128  86  86 106  68  31  33  91 127 128 127
126 124 110  90  39  54  50  37  52  60  66  67  72  76  79  85  91  99 107 113 121 126 127 129
130 129 129 130 130 131 133 137 137 132 138 139 126 109 102 106 107 106  96  80  70  73  74  73
 74  98 127 150 172 129  66 100 120 121 106 102 107  72  40  67  92 113 119 125
115 103 100 108 109  82  82  99 117 111  99  90  89  90  74  85  99 111  67  37  45 104 126 136
133 130 124 112  57  35  53  40  47  60  68  69  74  76  77  82  87  89  92 102 114 118 120 122
124 124 124 125 127 127 128 135 138 137 136 131 112 100 101 105 106 104  94  80  70  74  74  74
 77 101 130 154 180 125  78 116 121 116 103 100 114 104  62  76  91 104 118 125
