P2
# 8-bit pgm gray
92 112
255
167 167 167 167 167 167 167 169 169 169 169 170 169 168 170 173 172 194 201 198 195 187 192 193
187 183 168 200 189 133 183 194 184 189 205 199 196 205 186 112  58  56  54  59  76  82  71  69
 65  80  72  83 156 178 167 105 156 175  76  99  71  63  68  73 146 196 202 174 131 201 191 192
197 198 201 197 193 193 192 187 189 191 195 195 195 195 195 194 194 194 194 194
167 167 167 167 167 167 167 169 169 169 169 170 169 168 170 172 169 192 198 191 182 189 187 170
185 193 165 197 188 123 182 182 167 169 180 179 183 155  80  39  55  48  64  46  33  67  52  48
 62  71  84  75  96 139 118 114 153 128 101  77  36  49  51  97 100 124 174 196 149 134 182 172
186 188 197 196 196 197 195 189 188 190 195 195 195 195 195 194 194 194 194 194
167 167 167 167 167 167 167 169 169 169 169 170 169 168 170 173 171 185 189 191 196 192 189 179
183 188 160 188 177 126 166 161 157 165 147 141 126  79  70  73  54  54  52  39  20  39  69  57
 55  50  70  73  92  98  52  58  62  53  46   0  40  36  31  55  90  80 119 171 164  79 168 194
182 183 192 191 193 195 194 193 185 189 195 194 195 195 195 194 194 194 194 194
167 167 167 167 167 167 167 169 169 169 169 169 169 169 170 172 166 188 197 197 200 180 187 198
178 157 147 169 149 113 107  98  96 129 107  86  83  81  81  70  53  61  51  47  43  17  41  69
 71  69  60  69  79  68  43  25  27  45  54  52  43  48  27  37  85  87  63  75  63  74 140 176
188 187 194 197 200 199 196 196 184 188 195 194 195 195 195 194 194 194 194 194
168 167 166 166 167 167 167 169 170 169 170 170 169 166 171 169 158 188 196 186 188 183 185 157
123 100  95  95  68  46  63  84  79  56  60  56  67  69  63  61  49  33  57  57  53  23  21  31
 45  62  59  51  53  73  72  51  42  20  66  95  64  45  54  44  57  67  46  56  62  66  93  95
138 179 200 207 200 199 192 199 180 185 198 194 194 195 195 195 194 194 194 194
169 168 166 166 167 168 168 170 171 168 168 169 172 169 170 164 165 174 190 190 189 170 124 104
 70  61  63  44  47  56  75  39  22  58  78  70  60  51  27  36  40  47  48  49  51  22   5  18
 26  37  54  48  43  51  77  78  82  72  69  95  69  37  39  67  64  57  45  42  40  45  68  62
 51  90 166 180 200 202 200 194 178 196 197 192 195 196 196 195 195 195 195 195
169 168 166 167 167 169 169 173 173 168 166 171 176 171 168 161 165 179 190 188 185  97  46  50
 63  82  68  46  38  36  28  35  36  75 107 102  62  24  48  57  48  52  81  75 114  79  42  36
 35  36  45  73 100  72   8  44  43  81  94  65  53  46  38  56  66  39  22  19  35  41  89  85
 46  63 143 159 176 177 182 182 189 194 197 195 195 197 197 196 196 196 196 196
169 168 167 168 169 169 170 172 173 169 167 173 175 166 170 169 164 182 174 129 104  43  68  83
 57  67  78  48  38  52  60  43  26  45  85  92  44  51  94  81  53  53 108 112  99  95  61  36
 45  53  71  93 106 114  65  31  17  78  70  34 107  89   7  37  54  28  21  27  34  35  72  79
 63  75 181 197 179 183 174 159 183 195 200 195 196 198 198 197 197 197 197 197
169 167 167 168 168 170 171 165 166 165 166 166 169 171 177 169 175 184 121  46  77  69  82  50
 55  65  78  60  54  94 104  47  30  42  10  21  25  30  85  64  60  66  44  90  53 102  81  32
 43  53  55  77  81  78  65  64  42  63  16  43  73  34   5  48  52  51  32  27  35  34  57  44
 58  79 108 130 146 127 108 108 159 188 205 195 196 198 198 197 197 197 197 197
170 167 165 170 167 170 171 158 158 166 167 165 169 165 179 170 150 119  80  68  45  61  67  45
 57  51  63  73  76  64  51  28  27  26  31  55  30  17  45  74  32  58  21  37  48  64  78  65
 56  44  58  66  51  37  36  50  48  46  29  40   6  11  27  49  74  71  40  32  38  41  50  46
 24  53  79  98 143 160 161 115 109 148 166 189 188 193 202 198 197 197 197 197
170 167 167 174 173 168 158 157 162 162 169 173 169 164 158 132 137 129  85  36  51  50  49  61
 47  50  52  74  73  86  76   9  33  54  84  84  35  29  36  65  47  21  33  34  46  41  87  71
 26  27  57  68  39  25  25  29  33  43  29  36  36  36  46  31  72  92  59  42   3  34  37  69
 68  12  95 134 107 133 147 164 124  69  76 107 178 196 197 199 196 197 197 197
170 167 169 171 167 169 162 160 165 162 168 163 163 169 137 129 139  93  55  46  53  52  34  38
 58  60  44  70  69  94  71  16  40  59  83  60  29  24  16  66  54  32  33  39  63  23  70  48
 26  23  19  23  15  12  21  16   7  46  60  49  33  50  34  11   5  26  44  50  92  93  67  74
 89  35  61 146 117  99 124 101  98  60  97  91 126 195 190 197 197 197 197 197
171 168 168 168 168 171 159 163 168 169 163 158 169 168 135 153 120  70  61  59  36  45  58  29
 51  64  60  83  54 113  49  41  71  64  32   0   0  11   0  73  74  47  48  53  51  79  74  39
 19  23  20  22  17  16  15  11   5  47  81  67  37  44  15  29   9  55  96  93  71  55  37  33
 59  81  49  34  55  50  37  33  51  44  39  74  59 170 190 194 197 197 197 197
166 164 165 166 170 173 159 167 164 172 158 163 163 172 150 121  86  64  67  57  81 103  96  31
 45  55  92  94  72 109  71  95  85  98 115 107  99  39  44  58  66  67  64  82  84  93  59  58
 27   6  16  21  17  20  10  10  21  45  59  64  56  38  49  55  51  79 102  95  72  45  25  42
 34  33  29  49  39  36  64 105  84  45  51  22  28 111 180 194 197 198 198 197
165 166 160 166 174 171 165 155 169 165 164 165 158 168 154  76  66  68 102  97  97  87  67  57
 40  47  93  67  94  91  85  84  50  65  91 126 118  70  58  50  70  79  73  62  66  45  68  79
 71  13  17  11  10  15  14  16  46  54   8  10  30  34  45  41  42  43  25  78  88  41   0  22
 23   3  20  13  30  47  61  66  42  27  30  23  36 122 153 193 198 199 199 197
169 172 170 157 163 171 167 154 159 166 164 147 130  97  79  73  59  70 127  96  55  38  28  52
 54  33  42  62  80  47  48  62  62  89  92  34  21  46  23  34  46  51  34  38  49  49  67  83
 89  29  26  32  47  54  32  54  50   3  15  20  40  23   6   3   7  34  50  57  44  18  17   3
  7  10  62  60  43  53  72  87  48  26  29  37   7  94 174 183 200 199 199 197
169 172 170 157 156 154 168 177 155 160 164  60   0   0  51  65  61  54  68  66  63  37  23  36
 55  52  51  70  63  51  34  13  71 129 138 115  65  29  25  15   2   0   7  51  37  29  38  48
 42  22  12  27  41  42  19  73  74   8   8   9  39  39  16  13  15  29  29  37  41  35  40  38
 15  14  34  74  69  44  41  25  10  13  44  42  56  87 131 178 199 198 199 197
168 169 169 157 164 161 157 164 162 142 103  40  60  58  76  58  64  43  39  39  38  38  14  49
 75  81  84  50  54  56  35  33  31  74 105  80  68  48  18  13  38  74  66  53  48  76  61  35
 42  24  15  12   0  35  45  53  50  30  52  16  28  19  10  13  15  17  19  11  24  39  50  64
 18  36  53  99  94  58  54  45  30  16  29  21  30 134  82 150 205 198 198 197
170 170 169 163 151 156 174 175 155 132  89  56  51  54  56  30  76  58  29  35  38  26  23  44
 74  81  84  33  39   7  14  13   7   0  24  58  54  53  45   0  65 105  54  32  76 113  66  50
 69  57  45  24  68 109 112  76  58  29  67  73   0  12  19  15  19  31  52  63  54  46  45  32
 40  46  76  96  80  56  38  40  43  25  33  36  81 169 126  94 195 200 199 200
170 170 166 172 167 148 152 177 170 128 101  80  58  53  27  45  77  68  15  28  36  28  24  25
 42  72  66  28  30  22   0  49  68  33  71  61  50  41  37  23  68  57  18  32  37  96  92  32
 20  29  38  61  81  93  95  72  56  43  59  77  50   9  13  15  13  21  49  52  62  47  50  36
 29  59  71  30  47  62  48  33  45  32  24  44  95 182 145  34 176 202 202 199
170 169 174 173 177 178 159 150 152 122 101  80  50  54  49  50  47  37  31  20  23  21  25  34
 55  87  68  28  24  18   0  89 108  26  46  98  83  43  34  33  34  17  33  31  43  95  82  41
  9  29  54  50  43  45  58  52  12  30  48  44  50  27   7  31  77  74  68  36   0  15  15  33
 24  29  23  31  62  78  67  59  26  39  36   0  78 169 120  93 182 200 200 198
170 170 170 171 170 167 167 171 139 104  78  62  56  49  88  68  13  29  33  25  27  23  26  35
 77 117  79  25  33  19   4  85  84  36  19 110 117  59  29  28  22  24  35  31  51  84  39  29
 20  46  42  34  50  64  69  62  20  18  35  42  31  26  13   4  64  81  42  30  21  12  29  14
 30  38  50  40  98  95  33  28  59  61  71  25  96 124  89 152 185 197 197 201
170 172 175 168 172 172 173 124  43  35  66  54  65  45  76  60  16  30  36  33  13  22  13  61
117 143  94  35  30  17  26 101  68  17  30  95 133  92  18  23  24  21  25  33  38  80  91  55
 31  52  29  36  60 105 105  63  35  60  66  31  33  18  21  25  33  22  24  11   3  22  59  42
 14  52  50  50  74  32  21  78  80  58  68  47  73  40 135 163 198 204 200 197
171 175 168 170 171 173 121  31  32  60  68  39  57  63  36  40  38  34  26  25  17  14  55 109
134 144 113  51  35   5  39 117  68  42  51  85 106  66  39  27  25  21  15  38  17  94 139 102
 19  44  37  35  66 108 112  83  54  83  95  47  29  52  33  43  52   0   0   0  33  24  27  41
 14  28  40  47  25  17  57  60  53  47  46  41  30 141 174 165 176 196 204 199
171 171 166 172 174 113  41  48  45  58  62  42  36  52  40  58  46  31  35  24  15  30 106 138
138 150 135  97  59   0  44  95  49  60 135 162  96  53  38  27  26  24  16  44  39  60 109  81
 35  56  39  41  77  89  91  92  72  84 111  86  48  69  60  47  27  28  76  83  62  52  29  13
 33  37  42  45  41  60  51  42  50  40  31  27  42 126 128  57   0 123 206 202
171 168 165 164 150  91  55  33  81  68  32  46   7  57  54  64  76  55  30  26  29  73 128 144
145 150 151 115  77  44  23  58  41  79 151 153  85  54  35  33  30  16  12  34  35   0  37  49
 43  45  60  43  78 112 107  83  73  94 134 122  63   1  15  35  50  90  91  89  75  41   6  16
 24  34  45  43  38  56  61  39  41  51  20  22  38  34  86  83  67  82 162 195
171 167 163 162 157  99  76  55  73  67  33  47  14  43  59  62  55  25  35  35  59 110 136 145
145 147 161 136  59  54  32  49  56  86 136 100   9  22  23  30  37  19   8  41  59  80  90  64
 79  41  61  57  67 103 101  84  77  94 136 150 115  75  77  37  53  35  28  42  33   0  16  22
 18  31  44  42  38  31  48  48  59  35  27  28  10  48  48  55  64  61  57  97
168 165 168 162 168 141  90  93  67  40  37  71  53  17  42  42   0  33  49  48  87 125 143 149
149 149 157 148  52  24  40  49  34  30  62  52  37  25  28  20  28  36  26  41  60  94 101  69
 75  57  47  60  64  76  85  86  83  96 128 147 136  98  86  54  24  33  43  25   7  14  71  49
 16  27  39  34  40  29  39  88  79   0  28  22  28  55  94  83   0  36  43  97
168 165 168 169 171 136  66  97  78  37  28  75  93  49  47  37  33  59  64  72 115 138 141 144
145 153 151 150  77   0  36  22  29  47  40  38  53  62   0   0  21   0  18  31  21  67  65  56
 36  56  57  61  83  90  90  83  84  99 132 136 128 107  47  29  19  32  46  40  25  49  89  53
 17  10  24  21  23  16  35  65  42  49  37   5  16  34  71 143 148  39  74  38
168 164 171 173 136   0  51  50  16  79  67  61  72  68  27  42  72  74  71 108 135 139 138 146
151 153 151 132  67  16  28  21  47  64  45  38  66  65  94  57  69 108  57   0  50  80  78  73
 48  50  56  62  73 107 114  93  95 111 131 133 131  93   0  21   5  51  66  53  41  39  43  33
 28   8  10  20  19  34  45  28  49  76  42  25  16  24  28 116 135  28  99  78
169 164 170 150  34  27  48  53  78  67  91  86  46  65  63  75  84  78 102 136 144 141 142 152
154 153 143 108  83  36   3  41  59  56  42  57  55  84 149 138  81 112 124  93  52  80  79  63
 49  32  23  21  19  46  62  66  82 119 135 135 135  55   7  13  24  86  80  61  49  31  35  35
 34  16   7  14  18  42  70  82  68  41  31  35  25  11  51  39 122  64  75  65
163 168 165  98  38  36  27  60  91 101  52  71  49  46  78  93  86  94 132 143 145 150 149 152
154 154 136 108 105  75  28  60  65  54  57  45  49  52  86 124 111  42  60  76  47  52  46  31
 22  10  10  11  25  34  44  40  43  77 125 149 137  42  40   0  35 105  93  63  56  32  44  41
 43  35   4  24  19  30  45  47  43  19  21  48  41 106  80   0 110 100  24  59
173 169 155  90  67  17  46  41  52  80  66  50  48   8  57  92  92 112 141 148 148 150 151 151
155 156 142 126 112 105  84  66  62  72  50  28  44  55  65 103 139 103  56  48  29   0   5  13
  9  11  27  54  69  72  77  69  60  27  58 139 132  30  48  13   9  79  81  72  44  28  40  54
 52  32   6  30  14   0   2  22  29  43  33  48  62 127 117   0  85  84  47  95
171 171 153  58  57  45  35   3  39  40  51  57  46  24  37  76  98 128 141 147 149 151 152 152
156 153 145 140 117  99 104  98  99  88  48  28  54  57  87 127 121  71  66  67  47  33  13  11
  5  21  65  98 110  90  75  66  91  68   0  91 141  44  48  38   0  50  71  75  34   9  39  62
 67  31  18  26  32  71  76  49  33  24  11  38  47 117 135   0  78  59  97  62
169 176 127  27  38  46  12  24  19  27  35  54  48  37  17  65 106 134 140 147 149 152 153 153
156 150 148 139 113 105 104 112 119  95  59  38  49  56  52  45  41  72  45  42  44  52  35  26
 34  73 114 112 121  98  83  92  94  68  44  68  95  70  40  44  11  19  51  53  13  10  40  55
 66  36  44  48  60  57  35  12  15   8  34  56  29 103 109  33  98  29  86  56
173 144  32  40  49  32  26  18  23   4  24  51  52  40  19  54 114 135 141 149 148 153 154 154
157 153 152 135 112 110 107 121 118  99  81  27  26  27  53  63  49  80  52  46  38  57  83  98
 71  89 129 113 108  71  54  74  66  58  49  41 120  94  38  18  28  23  48  49   0  43  45  42
 48  41  51  35  37   7  20  30  35  46  51  60  38  91  78  34  45  31  66  81
167  86  15  39  44  45  32  18  23   8  11  45  55  48   7  60 121 133 139 142 144 153 155 156
157 155 151 133 117 108 106 124 126 105  77  43  17  37  48   8  91 109  50  40  44  66  92 100
 73  83 132 112  45  65 105 100  96  73  39  48  71  56  39  14   8  14  67 104  64  34  41  50
 43  53  47  44  25  25  30  45  45  37  42  54  43  19  47   4 114  80   0 126
141  37  40  31  35  59  54  14  22  19   6  41  59  44   5  78 125 130 134 141 145 151 154 154
156 156 151 134 117 112 112 128 133 119  78  43   0  57  81  61  97 101  51  30  53  79  93  96
 77  71 121  77  47 128 129 125 134  96   0  59  86  60  45  28  33  60 106  95  44  24  19  38
 17  23  20  20  45  31  23  60  47  15  29  37  34  16  39  51 109  65  76  96
132  50  30  45  51  59  72  45   0   0  12  51  59  39  21  94 124 126 132 141 149 155 158 158
160 157 153 135 119 113 113 124 130 122  99  65  48  30  53  71  73  48  35  33  70 101 106 112
 85  56  80  45  96 118 123 133 130  61  22  59 111  79  52  38  41  54  82  89  62  39  32  22
  6   4   8  40  47  61  62  38  30  19  20  21  31  33  62  86  38  68 151 117
110  46  39  73  73  49  52  44  53  68  47  51  42  23  42 107 115 125 136 141 150 154 158 158
160 158 154 135 118 115 116 121 125 123 107  92  80  52  24  27  34  41  52  67 106 130 123 114
101  57  42  46  94 100 117 122  83  22  33  85 117  46   0  30  35  76 112  64  28  16  37  45
 21  27  14  32  79 107  70  56  39   7   0  13   5  31  29  81  64  17 116 147
 62  49  55  72  99  73  48  41  84 119  67  37  19  10  76 114 116 127 136 144 151 153 157 159
159 156 153 142 125 116 117 120 123 123 116 108  95  87  78  69  75  92 104 122 137 145 139 116
105  89  40  36  75  79  94  79  41  47  51 110 136 107  34  39  67  71  53  47  49  56  38  37
 39  52  55  40  68  91  56  53  62  54  51  52  45  34  26  38  55  53 104 145
 85  53  63  76 107 117  75  57  55  66  34  38  41  57 101 114 119 129 136 145 152 155 159 161
160 159 156 150 132 117 117 120 123 121 121 117 110 105 103  96 106 126 133 145 152 157 158 140
111 105  80  40  37  51  57  57  52  51  94 128 127  74  25  66  92  80  82  60  70  68  50  21
 47  65  46  27  22   9  23  11  32  49  41  55  63  53  45  19  44  40  91 147
 93  70  71  67  86  99 106  49  40  34  33  31  39  74 106 110 122 132 138 145 153 157 161 163
162 162 159 154 137 120 118 121 124 123 123 122 119 118 115 111 117 131 137 144 149 155 159 151
128 110 111  74  26  26  31  36  62  90 101 103  34  23  86 113 120 106  78  61  80  71  52  29
 58  65  53  65  51  43  11   9   1  24  29  13  58  85  44  38  38  46  42  18
 98  57  97  59  47  79  76  75  38  23  17  20  29  79 105 105 125 135 140 145 155 159 163 165
164 164 161 156 142 121 118 122 125 124 125 124 123 123 123 124 126 131 140 150 148 151 158 150
137 122 123 111  82  52  51  71  96 103 114 102  83 108 113 109 114 121  70  75  81  92  74  24
 43  60  72  71  75  79  34   3  10  28  43  39  67  68  75  65  34  38  42  98
112   6  72  84  18  89  72  64  54  11  14   8  32  91 103  96 130 136 140 147 155 161 164 166
167 167 168 165 148 126 119 120 124 125 127 128 127 124 125 128 132 138 148 156 153 154 159 156
140 137 139 130 118 108 111 115 126 138 134 115 104 110 114 120 111  94  78  83  89 101  95  35
 40  51  57  61  85  92  44   5  13  48  65  64  72  91  73  48  35  36  40  80
134   0  25  57  50  86  73  17  42  38   9   0  53  94  92  97 130 128 136 146 156 162 161 161
165 166 164 166 154 129 117 116 119 120 127 130 132 130 130 129 135 145 148 151 158 157 156 155
145 145 151 148 137 127 127 128 143 155 141 126 106 118 136 146 124  84  82  87  92  97  91  38
 47  21  43  60  57  60  39  38  30  64  75  85  89  72  33  44  39  49  46  41
153  55   7  34  53  74  79  40  28  37   9   9   5  82  84 116 141 142 149 157 164 166 162 157
158 159 153 147 132 106  86  90 108 117 123 122 125 131 127 131 135 141 146 154 158 155 153 153
147 150 157 155 146 133 132 135 145 157 138 114 100 110 134 143 121  95  89  88  92 101  90  40
 49  34  44  50  60  65  53  41  37  38  70  67  31  27  33  36  23  51  43  72
162  65   0  26  48  71  95  61  28  27  25   0 111 152 157 167 171 171 171 173 172 174 174 172
175 177 178 177 174 166 144 120  94  86  99 104 113 124 127 135 138 139 145 153 157 154 152 151
147 153 160 156 147 140 140 142 138 155 147 120 100  91 104 111 105  96  90  87  98 105  94  48
 41  46  64  61  60  55  54  39  30  18  58  70  46  41  42  37  42  52  61  63
137  23  27  17  31  69  85  44  22  32   0  79 166 161 165 162 160 162 162 159 160 164 165 164
167 169 167 167 174 179 182 184 174 156 107  70  64  87 109 124 132 137 147 150 156 154 154 150
145 152 157 150 146 150 154 150 147 147 143 124 108 100 106 109 109 105  93  86  95 102  89  19
 43  61  63  60  55  51  59  41  25  33  32  22  30  27  32  38  55  62  43   0
 89  94   0  29  36  56  71  42  28  35   0 102 161 160 163 162 161 161 160 165 168 164 160 160
160 156 163 166 170 173 172 176 179 175 156 130 105  66  53  81 112 123 136 145 149 157 156 148
148 149 150 148 144 153 155 151 148 138 122 109 105 107 113 110 113 107  86  71  83 110 108  80
104 119  91  70  61  43  35   0   0   0  15  24  38  26  16  22  53  71  56  56
143 127   0  40  49  65  70  49  35  14  35 117 148 151 153 160 161 158 161 145 120 105  90  79
 76  74  76  83  97 108 120 140 155 165 161 149 149 141 118  80  59  92 125 133 146 147 148 151
149 151 150 147 148 155 151 141 128 118 105  91  83  88  96 102 114 117 108 109 128 157 165 158
167 163 122  84 128 151 144 130 110  82  49   4   0  23  32  14  77  76  60 105
162  93  41  50  55  71  55  51  32   0  76 131 104  98 124 159 167 145  98  39  25  21  11  15
 23  26  24  18  21  32  24   0  39  75 102 127 144 151 149 139 116  82  68 114 136 138 145 145
148 151 149 144 148 140 130 122 106  87  63  77  96 101 111 123 130 133 139 152 156 162 163 162
163 154  95  98 147 164 162 163 164 163 156 128  96  18  55  64  95  31  95 105
121  32  62  53  61  54  41  47  28  26   0 112 146 138 145 162 163  80   0  46  43  43  40  42
 44  39  46  52  59  61  68  61  47  40  19  24  69 109 137 150 150 136 105  64 100 128 135 140
145 149 145 139 133 119 106  93  70  86 135 167 161 149 144 145 144 145 141 147 141 139 139 138
142 150 108  58 147 162 154 151 154 144 140 156 169 117   0  61  61   0 110 141
 44  41  67  50  70  47  53  45  30  25   0 107 166 162 165 170 133   0  50  40  35  30  27  25
 25  22  18  15  30   6   0   0   0   0  35  47   0   0  34  95 138 151 148 138  89  68 109 125
128 130 126 119 103  94  61  78 141 165 178 170 167 154 137 112  85  69  48  26   5   0   0  10
 29  43  40  16  78 121 130 139 134 136 153 160 158 133  35  65  40  22  57 165
 46  23  32  57  70  58  57  35  33  22  20  87 148 152 157 165 110   0  48  31  34  30  29  26
 19  21  22  25   0  88 168 143 138 152  73   3  27  20  12   0  41 115 147 155 160 132  82  88
109 116 100  84  64  65 125 166 175 172 163 138  99  62  37   0   0   0   5   7  13  17  21  12
  3   0   0  26   0   0  29 110 145 145 150 147 155 121  24  47  40  46  26  81
 29  40  70  63  58  65  44  44  33  16  29  77 122 150 151 162  94  16  46  24  22  18  12  12
 10  10  11  23   0  93 191 137 122 179 138   0  36  16  16  21   0   0  99 153 158 178 169 135
113  98  95 104 137 165 177 170 170 140  81   0  20  32  39  32  26  19  18  11  10   8  10   8
  9  11  23  33  50  45  30  20 119 148 122 135 142 118  41  32  17  56  60  40
 46  82  90  49  60  63  50  69  38   1  34  95 105 134 158 162  77  35  43  22  18  16  10  10
  8   4   0  18   0  68 158 102 122 136 142   0  30  25  24  18  20  23   0 117 165 166 171 182
179 177 176 180 182 170 164 158  89   0  31  43  34  36  30   6  10   9  10   7  11   8   8   7
  9  11  17  39  52  48  45   0  81 147 146 144 143  82  34  39  34  27  80  84
 60  54  54  62  56  52  58  70  40   2  34 100 112 125 155 159  72  40  44  29  25  26  24  21
 13   9  12  25  25   7 112 141 118 142 138   0  27  25  28  27  26  22  15  34 157 172 162 168
170 170 170 171 165 169 158 169 156 132  39  24  21  23  24  16  11  16  17  13  16  11   8   9
 12  15  25  44  53  46  36   0  66 153 152 158 156  57  14  36  33  16  57 128
 58 135 108  75  56  54  49  57  42  34  38 102 119 131 148 157  65  35  37  33  29  29  29  27
 24  23  27  25  21   0  67  93 115 101  78   0  26  27  31  25  26  29  29   0 140 170 163 164
168 165 167 168 163 173 117 121 171 174 100   0  22  15  19  24  23  23  26  26  26  26  25  27
 31  35  38  38  52  50  35   0  67 152 150 159 134   0  29  44  34  17  39  94
 63 145  78  51  51  51  41  59  44  29  40 107 121 134 147 157  67  32  36  31  31  31  30  30
 28  26  27  20  17  16  27  18  56  36  26   2  23  29  31  31  32  30  27  10 138 177 158 164
166 164 176 172 170 171  91  36 135 149  97   0  16  12  22  27  28  25  29  30  29  30  33  36
 40  42  41  38  41  40  32   0  75 155 154 138  48  34  41  50  12  58 120  83
 73  63  48  66  55  46  53  48  43  24  39 108 124 136 146 156  76  31  40  31  33  34  33  32
 31  30  27  18  13  18  15  11   8  15  18  13  24  30  28  33  33  30  24  22 150 171 160 136
118 124 140 171 166 166  76   0 119 129  45  14  26  28  28  27  24  29  34  33  31  32  34  39
 42  43  42  41  36  30  28   0  86 160 146  66   3  49  36  31  52 116 116  97
 52  45  63  41  53  56  46  43  41  31  43 109 127 139 145 155  87  36  48  37  38  37  36  35
 34  32  27  18  16  22  28  27  27  26  28  31  29  30  29  30  28  37  37  50 154 172 139  82
107 105  64 130 170 163  71   0  53  55   0  29  28  26  28  30  32  35  38  37  34  33  33  42
 45  43  41  39  39  28  27   0 103 163 109   0  46  28  18  36  52  82  97  87
131  45  58  71  57  45  54  60  40  31  48 108 126 141 146 156  99  36  56  42  39  38  37  36
 36  33  29  22  21  23  34  35  34  32  30  35  36  34  29  33  37  33   0  95 170 158 105 128
140 136 113  87 162 166  66   4  29  14  22  30  28  29  28  29  31  35  43  37  37  37  39  41
 45  45  41  39  43  30  26   0 117 158  70   3  44  31   6  69 117  62  59  89
149 108  30  88  57  30  56  65  60  26  48 106 121 141 149 157 113  31  61  50  46  44  42  41
 39  35  31  27  23  23  35  44  37  30  32  36  37  34  33  42   0  77 121 116 172 142 151 187
191 182 170 122 151 170  77   4  38  29  31  32  29  29  29  30  31  41  35  44  37  41  44  41
 46  43  48  44  39  26  13  22 139 141   0  25  31  32  15  42 143 131  48  63
116 125  69  69  62  58  58  61  62  38  44 103 126 140 149 155 133  44  59  59  58  54  51  47
 44  38  33  27  24  30  41  44  39  35  36  36  35  32  38  30  46 205 197 141 157 127 174 191
199 186 190 158 135 171  93   0  39  32  33  34  30  28  32  33  32  32  41  14  31  26  44  47
 45  42  44  44  39  29   0  57 145 151  62  16  34  35  48  48  92 104  55 104
 93  97  46  51  73  75  47  46  51  37  41  96 124 136 149 153 151  56  57  60  58  59  54  51
 49  46  37  30  29  35  42  44  42  41  37  41  40  36  40   9 110 215 152 152 114 133 174 182
193 185 181 153 112 173 112   0  42  36  38  35  33  31  35  40  43  47   0  87 182 134   0  36
 51  40  40  41  39  34   0 100 154 187 141   0  40  18  41  59  45  51  96  97
 22  56  70  63  79  56  69  63  44  34  43  89 119 131 151 148 156  90  46  56  61  61  59  58
 56  53  41  33  34  35  39  41  44  49  43  37  35  39  47  54  29  78 143 140  91 146 168 183
183 182 174 146  81 161 145   0  39  41  42  35  38  39  37  45  61   0 118 222 214 207 155  57
  0  46  48  44  40  30   0 129 143 127  92   0  35  80  35  28  47  48  53  67
 70  61  78  84  71  90 128  72  37  40  47  83 114 128 147 152 159 135   5  65  56  60  60  59
 59  56  46  38  37  38  38  44  49  49  48  38  49  97  74  42   0 117 155  85 124 154 165 181
184 179 170 148  72 136 162  50  27  42  42  39  38  31  36  57  70 131 222 241 231 221 218 197
133  40  50  47  37   0  64 156  89   0  29  19  40  85  57  48  58  54  36  41
123  89  87  94  77 107 113  45  54  47  29  73 108 123 140 152 146 169  99   0  68  55  53  57
 55  50  46  41  38  38  43  44  44  50  47  35  48  97  90   0  85 154 108  94 148 155 163 178
185 179 168 151 107  95 171 115   0  51  45  36  56  68  61  73  79 161 224 232 241 234 234 244
172  25  52  45  47   0 124 159  45  36  38  34  53  85  77  44  69  43  78  91
 85  88  65  54  62  87  88  55  45  48  54  73  98 117 133 141 143 144 169  93   0  57  60  43
 40  37  39  38  35  33  41  37  33  46  43  38  27  54  20  80 157 121  75 134 152 154 164 182
183 178 168 148 124  88 142 163  40  38  56  39  62 117  92  57  70  70 164 236 239 246 237 151
  0  51  51  50  32  66 156 106 101  61  27  55  38  80  77  53  71  63  58  77
 70  47  34  64  71  79  86  47  56  55  61  70  92 113 128 132 145 139 147 176 128  23   0  41
 46  43  40  37  35  39  41  39  45  52  49  45   0   0  98 153 120  68 118 154 149 155 165 181
182 177 166 150 131 102 111 166 143   0  55  52  27  87 106  62  57  57  30 138 219 197  92   0
 63  50  51  47  12 148 165  63  24  21  42  62  90  99  32  66  67  65  69  51
 59  76  51 104  71  53  54  46  62  55  53  74  84 110 126 129 140 146 135 141 168 165 126  70
  0   0   0   0  27  28  26  26  24   0   0   0  83 142 151 114  74  93 140 153 156 159 166 175
182 177 166 151 145 115 104 126 169 128   0  49  52  43  84  96  66  54  60  38  49   0  37  66
 56  55  25  26 151 169 126  81   0  32  32  54  94  66  46  61  80  57  31  80
 85  70  71  70  28  26  38  65  62  49  29  71  89 101 119 130 134 138 141 136 127 147 169 172
156 128 101  80  63  56  56  55  67  93 125 147 162 134  96  82  89 120 152 155 157 160 168 174
182 178 166 153 147 124 110 115 130 171 139  39   0  41  59  80  73  53  54  58  56  68  64  53
 42   0  98 170 170 101  59  39  78  19  47  63  33  60  71  56  52  57 119  87
 62  72 104  62  51  50  74  79  65  64  53  16  63  96 114 125 130 134 136 134 133 130 124 139
152 162 169 172 170 165 163 161 164 169 159 138 109  87  94  93 101 140 149 153 158 162 169 177
183 178 168 154 147 131 117 121 115 128 167 159 112  59   5   0   6  20  28  30  24  19  29  67
102 156 181 164 147 105  53  50  78  41  48  63  57  75  61  80  54  71 125  57
 71  77  86  57  51  61  61  18  42  58  39  23   0  93 110 119 126 130 134 132 130 134 136 129
130 126 128 131 135 136 134 132 126 116 106  99 102 105 103 101 118 146 145 154 162 167 172 180
185 178 170 157 150 136 124 126 125 120 123 145 168 166 143 133 109  93  96  99 109 124 152 170
180 163 138 116  76  84  59   0  20  40  40  49  69  51 103 115  62  67   0 109
 38 104  77  67  79  58  51  70  66  57  26  30   3  80 107 119 124 130 134 132 136 133 139 137
138 137 134 134 136 137 129 126 126 119 119 119 108 106 107 105 129 143 148 156 166 172 176 183
186 178 171 160 154 137 126 131 132 130 126 126 122 139 153 157 163 168 169 168 170 171 168 155
145 142 125 103 164 150  35   2  48  36  66  55  58  54 127 154  74  67  65 103
113  81  60  66  82  65  52  58  66  81  65  36   0  66 107 115 123 127 129 134 135 134 137 139
140 140 140 140 138 140 140 137 134 130 122 116 116 114 108 110 138 145 149 160 167 172 178 184
184 178 172 164 154 140 131 138 141 135 135 134 135 126 127 133 133 136 139 143 145 148 152 147
145 141  99  71 139  54  24  57  25  59  73  62  41  93 133 105  58  65  70  80
 86  98  71  43  64  60  55  77  68  55  70  45   0  47  98 107 121 126 128 134 134 135 140 141
141 143 143 143 143 144 144 141 139 136 128 124 121 117 108 124 148 149 153 164 169 174 180 188
187 181 173 166 156 145 136 140 140 138 136 137 137 137 138 140 141 143 144 148 152 156 151 156
148 134 170 130   0  48  69  40  25  35  59  76  61  54  52  24  31  77  79  77
 29  55  72  72  35  49  51  61  83  50  49  50  17  27  95 109 118 124 128 132 134 136 140 142
142 144 145 146 147 148 148 146 144 142 134 129 124 114 113 143 158 153 158 167 172 175 180 189
189 183 174 168 159 153 142 140 143 141 140 141 143 144 145 147 149 150 151 153 154 156 151 149
150 112 124  91 130 114 138  98  23  13  64  74  50 110 178 122  61  64  61  66
 74  50  52  65  93  52  44  47  45  38  22  42  48  22  84 102 113 124 129 131 133 135 139 141
141 143 145 147 148 149 149 148 148 146 141 136 128 112 122 153 159 160 161 167 172 174 179 185
186 182 177 172 162 161 148 140 145 143 143 146 148 148 150 152 153 155 155 155 155 154 156 150
140  59   0  96 120 116 106 111  54  18  31  73  65 113 189 131 142 101  31  68
 70  65  73  98 127 115   0  49  39  16  13  22  47  32  85 104 110 121 127 129 131 134 138 139
140 142 144 146 149 149 149 148 146 147 147 142 134 115 132 155 158 161 162 166 171 173 177 183
183 181 177 173 165 165 154 143 147 146 147 149 151 151 153 154 155 156 156 155 155 151 146 152
111   0 149 153  34  87  48  29  26  35   0  88 154  90 105  88 153 176  95  87
 68  69  82  84  92  53  69  69  37  38  17  16  27  33  63 104 110 118 123 127 130 135 138 137
140 142 144 147 150 149 150 147 142 144 146 143 138 123 139 153 152 152 157 161 169 173 177 183
181 179 177 171 164 161 155 147 148 149 150 151 153 155 155 156 157 156 155 155 154 154 149 136
 53  98 142  87  22  89  58  40  37  42  50  32 127  89  33  84 155 148 146  56
134 117  71  51  62  42  84  75   2  45  34  30  31  35  32  98 110 117 122 127 129 133 136 137
140 142 144 147 150 150 151 146 141 143 146 143 142 138 137 143 145 141 140 148 159 167 174 176
174 176 173 169 164 154 150 144 150 151 151 150 152 156 157 158 159 157 156 155 154 150 153 121
  0  57  43   0  52  42  41   2  54 118  46  88   2   0  76 117  78 139 175 103
161 148  87  50  58  53   0   0  36  33  45  60  69  54   0  77 110 116 121 126 126 130 136 137
141 142 144 147 150 150 151 148 144 147 150 150 153 153 136 138 150 141 126 129 141 151 159 168
171 175 173 168 157 149 151 144 148 150 151 153 155 158 159 159 161 159 157 155 152 153 141  72
  0  89  99 148 140   0  73  87  64 140  86  76  38  39  80 123 152 161 143 113
173 142 100  76  89  99 109  95  65  42  30  63  82  55   0  51 109 116 120 125 125 129 135 137
141 142 144 147 150 150 152 152 150 153 155 160 165 161 135 125 134 134 122 119 132 141 149 154
158 166 166 153 131 138 155 152 146 148 152 156 159 159 160 161 162 160 158 155 151 151 129   0
  0  71 120 140  97  67 176 176  75  69 158 148  51  55  78  92 161 113  16 114
152 128 104 117 133 158 145  97  64  55  52  86  49   4   5   0  94 117 116 122 126 132 134 136
140 143 145 148 150 152 154 156 158 160 164 167 169 165 139 118 115 114 116 121 129 137 147 146
147 150 141 126 120 140 161 161 153 149 155 160 157 159 162 162 161 159 159 150 149 148  85   0
 34  67  44 145  77 132 171 147 111  37 165 144 157 107  35  70  50 151 172 143
114  98  70 124 102 114  97  71  58  52  99  72   0   5  11   0  69 108 113 121 127 131 134 135
141 143 145 148 150 153 155 157 160 161 165 167 168 164 140 124 124 118 119 128 134 138 145 147
146 142 131 125 132 143 162 168 162 154 154 160 160 159 162 162 161 158 154 151 154 135  30  50
 68  66 120 154 144 134 107 121 146 171  67  18 118 105  64  46  64 179 205 166
 61  46 100 109 102  65  73  72  25  67  87  22  10  13  11   7  26 105 116 120 127 128 133 135
141 143 145 148 150 153 156 159 164 165 165 166 167 162 140 128 131 126 126 136 141 142 144 148
149 144 141 142 138 141 159 170 169 162 154 158 161 159 162 162 161 159 154 156 153 104  14  81
 93 166 162 150 200 198 159  95 152 150 165 160  93  11 131  89   0 134 198 200
 60 101 102  83  80  63  67  69  73  97  50  10  22  15   8  27   0  85 120 122 123 127 132 136
142 143 145 148 151 150 152 157 162 164 166 167 166 159 140 129 131 131 133 139 147 148 149 145
150 148 143 148 141 143 159 168 169 168 158 153 158 159 162 163 161 160 155 155 141  59  37  79
138 192 186 142 193 205 197 141 182 195 171 167 117  52 167 170  15 124 192 196
125  99  78  80  62  67  72  84 117 113  38  40  34  26  16  21   0  46 115 121 123 127 131 135
141 143 145 147 148 145 145 150 154 158 162 162 162 158 144 130 128 131 137 141 148 153 149 147
155 152 144 145 144 147 160 167 167 167 160 153 154 158 161 162 161 160 155 151 123  27  69  71
 75  95 164 177 148 171 194 177 123 162 144  90  10 154 168 176  78  78 199 191
125  83  88  70  70  65  60  79 105  88  41  44  28  23  23  13  14   0  97 118 125 125 128 132
139 145 146 145 141 140 141 144 149 153 154 154 155 157 149 133 130 130 137 145 149 157 150 145
153 153 147 145 145 149 160 165 166 163 158 154 151 153 159 160 158 160 151 150  85   6  61  82
 84  88  93 138 181 161 147 175 173 124 117 103 142 125 145  74  56  84 189 189
130  95  92  88  61  45  47  92  89  72  42  44  28  18  22  18  12   0  71 121 120 124 127 130
139 147 148 145 139 134 135 139 145 150 153 154 155 158 151 137 134 133 137 148 154 157 152 146
154 157 152 148 145 151 161 165 163 160 155 150 148 152 156 158 155 154 153 137  20  30  31  69
100 102 109 102 124 182 188 132 156 122  30 119 166  86  59  85  57  99 198 187
118 107  94  96  92  62  79  89  46  80  47  39  33  27  18   5  12  29  39 111 122 126 128 132
139 145 149 147 138 132 132 134 139 144 150 151 153 156 154 143 140 136 138 151 156 152 146 141
153 159 155 150 148 153 159 158 155 154 151 149 148 151 156 158 156 152 154 100   0  37  33  42
 78  85  78 112 122 124 168 198 131  73  36 102 136  75  49  60  37 166 197 190
 97 105  96  78  95  97  97  67  35  71  48  41  39  29  20   6  24  35  21  83 123 122 125 129
136 141 149 149 140 134 133 133 136 138 140 143 146 148 154 147 144 139 139 152 156 144 134 136
151 159 155 151 150 154 156 150 147 148 149 150 150 151 158 158 157 154 137  33  19  33  30  36
 59  93  90  87 111 126 129 153 179  56  77  72  14  56  71  66 122 200 192 194
103  87  92  93  80 105 101  55  54  56  52  37  37  31  25  11  28  27  26  55 112 118 126 131
136 142 148 149 142 136 133 134 133 129 131 138 139 144 146 146 146 143 145 153 152 144 139 141
148 155 155 153 153 154 150 142 140 142 146 147 149 154 158 156 156 155 101   0  28  28  30  33
 46  75  95  66  79  94 108 104 134 113  71  77  46  49  60 157 188 186 176 196
101  97  95  93  87 104 106  58  64  47  52  62  58  39  26  16  21  29  33  34  85 120 125 131
135 140 146 149 146 137 130 125 118 109 103 103 112 120 126 130 131 129 130 130 138 142 147 142
136 134 136 138 133 127 124 127 130 134 141 149 152 158 151 157 152 137  19  20  24  23  26  35
 48  61  81  73  69  86  90 107 119 114 130 102   8 120 159 133 126 148 141 137
 92  91 100  90  71  92 116  65  63  58  50  58  57  71  50   6  28  29  35  43  65 110 120 129
131 136 142 145 145 137 129 126 121 113  96  82  86  90  93  99 105 108 109 109 116 118 121 127
126 120 113 110 112 111 122 140 140 138 142 147 152 153 152 147 150  77   0  35  21  23  26  37
 45  46  69  70  56  71  72  94  99  99  88  99  66  87 174 192 126  46 112 170
115 100  86  94  81  89 109  79  65  69  59  41  42  38  66  42  25  30  32  40  59  89 114 124
127 133 135 136 136 133 130 131 131 126 116 103  93  94  97  97  93  86  85  92 102 108 115 112
 99  91 105 120 123 128 138 146 147 144 143 147 150 153 144 148 104   0  44  33  26  27  31  39
 43  45  60  70  59  78  85 103 108  97  75  96 108 126  61 130 116 129 186 160
117 114 101  99  96  77  95  97  70  73  69  60  44  43  48  63   9  24  31  39  60  75 101 119
124 128 130 129 127 128 128 130 130 128 126 121 108 102 104 105 105 104 102  97 100 101 102 104
108 114 121 126 130 143 147 146 145 144 142 148 149 148 151 124   0  45  43  29  27  29  38  42
 43  45  51  71  78  81  86 104 118  85 128  82  89 114  91  60 109 178 200 186
 95 110 108 105 101  74  91 111  95  74  80  75  62  51  45  66  14  23  28  34  55  74  82 106
117 120 124 123 124 125 126 129 132 132 130 130 125 116 110 111 112 112 115 120 118 116 115 118
123 126 128 133 141 149 149 146 150 142 138 142 137 145 133  42  24  47  43  32  24  32  40  44
 42  41  46  58  71  66  71  86 102  69 133 132  94 127 132 141 131 137 166 183
 76 106 104 109  89  82  87  95 118 113  88  94  95  84  76  61   0  18  28  29  48  73  83  91
108 114 114 114 122 125 125 129 132 134 134 135 134 131 126 123 121 119 118 120 120 120 120 122
128 132 136 142 147 147 144 147 142 140 143 134 141 137  57   0  38  45  42  31  27  34  41  42
 39  41  41  65  83  80  73  77  94  97  86 120 106 131 140 145 143 134 137 162
 80  93  95  92  93 102  91  84 100 116 117 106 107 113 107  56   8  12  22  32  47  66  80  84
 99 106 107 107 112 119 122 126 131 133 132 134 135 136 135 133 131 128 127 126 127 128 128 131
136 138 141 145 144 143 140 142 142 144 138 137 126  54  10  34  44  47  42  30  29  38  41  40
 37  39  43  68  83  80  74  82  90 110 127 107  92 126 128 136 144 151 146 144
 81  81  78  96  97 105  91  87  86  95 111 112 105 102  97  80  41   2  15  28  44  54  75  81
 89 102 106 105 102 112 119 123 128 131 133 133 134 136 137 136 135 134 133 132 133 134 136 138
141 141 141 142 141 144 142 143 141 128 131 121  49  16  32  40  51  45  42  29  30  41  41  38
 36  36  54  71  74  79  72  83  96 116 127 111 108 135 140 141 139 144 149 150
 86  76  70  86 103 108  98  90  93  92 102 108 102  84  92  90  72  33   3  21  38  54  65  80
 85  99 105 105 103 106 113 122 128 130 131 133 136 138 138 138 137 136 135 131 134 139 137 136
139 142 143 143 143 144 143 140 137 131 111  45  28  33  31  46  47  45  39  33  32  41  43  35
 32  54  67  68  71  77  77  85  97 121 132 127 133 130 131 135 137 138 140 141
 94  77  71  61  98 111 103 100  97  96  97  98 100  96 105  95  85  69  27  12  29  48  59  73
 83  90 103 107 107 102 108 121 127 128 129 132 135 137 138 138 137 136 135 130 131 133 134 137
140 143 143 144 143 138 138 136 127  99  40  34  32  31  42  44  44  43  38  34  34  36  40  21
 41  72  77  74  74  79  80  93 107 116 125 130 132 131 132 134 134 137 137 135
100  80  74  66  71 102 105  96  95  97  94 108 109 101 107 102  87  77  64  28   9  35  52  60
 69  80  96 106 110 103 104 116 123 125 128 130 133 135 137 138 137 136 136 136 134 131 139 141
141 143 143 142 140 137 136 125  90  33  47  35  30  37  48  43  41  41  38  36  36  37  28  51
 71  69  77  74  73  78  90 105 102 107 122 122 127 128 128 130 132 134 135 134
 99  82  68  65  58  76  99  99  99  94  98 122 111 108 107 102  94  81  66  57  44  15  36  51
 62  70  81  92 103 107 104 105 115 125 126 128 131 133 137 138 137 136 136 138 132 124 137 143
143 145 143 139 133 140 127  75  35  51  38  29  34  43  44  45  41  37  38  38  35  32  56  82
 76  69  74  70  74  85 103 108  94 108 116 116 124 128 126 128 132 134 134 134
 98  83  69  65  64  55  69  85 100  89 128 121 107 116 112 105  99  84  78  73  62  55  19  29
 49  60  68  76  89 104 106 105 109 117 125 128 130 132 136 137 137 137 137 137 134 130 139 143
142 142 143 140 145 121  66  50  47  43  29  34  48  47  42  43  40  39  36  33  43  59  76  81
 82  81  75  74  81  98 108 101  99 109 110 114 124 128 128 131 131 131 135 134
 98  87  76  67  56  58  58  60  56 114 127  92 106 108 110 110  97 100  89  79  76  63  61  47
 33  37  54  65  73  79  92 107 110 112 116 118 121 129 133 133 135 137 136 134 138 142 141 141
138 138 138 133 108  59  56  50  30  30  34  44  46  44  47  43  37  31  37  49  69  80  82  88
 86  86  84  83  94 107 107  96 102 104 109 110 118 123 125 131 130 128 135 136
 99  84  67  59  58  59  59  50  63 133  79  80  88  97 102 105 105 103  92 104 117 148  87  72
 70  48  42  44  57  69  74  80  96 110 112 117 116 118 123 126 128 130 132 133 129 130 136 133
133 128 107  83  55  51  54  39  31  38  48  49  45  39  40  35  26  36  56  71  76  80  90  96
 96  96  95  97 103 104  99  94  98 102 106 108 117 122 123 128 131 131 135 137
128 121 104  78  57  52  57  48  87  97  36  57  66  81  87  86  95  92  93 100  76  86 133 114
 75  76  64  57  53  50  56  62  67  77  96 110 118 121 117 116 120 124 125 128 132 125 111 100
 92  81  66  57  51  48  41  33  41  45  48  43  40  43  39  44  54  57  67  76  82  88  97 104
105 106 102 100 101  95  91  91  94  97 102 108 117 122 124 126 129 130 132 138
134 135 139 130 106  74  49  51  85  62  58  51  52  56  68  81  86  89  89  72  74  10 129 160
 65  90  72  71  69  66  65  57  49  53  61  70  84 102 110 111 115 119 121 119 111  96  81  77
 79  78  69  54  39  34  32  40  45  46  50  57  64  67  66  67  69  68  76  84  88  97 108 110
105 102  91  88  91  93  92  88  92  95  99 105 114 119 121 122 126 129 129 138
