P2
# 8-bit pgm gray
92 112
255
218 218 218 218 218 218 219 219 219 219 221 221 220 219 219 215 198 191 197 203 200 202 211 217
215 218 218 193 183 196 187 186 181 184 164 143 137 122 106  90 112 115 108  99  94  77  60  34
 58  63  65  69  70  89  91  63  44 107 120 129 119 139 150 163 175 212 211 213 214 216 209 205
225 206 123 214 226 222 222 221 220 220 220 220 219 218 218 219 219 219 219 218
218 218 218 218 218 218 219 219 219 219 219 219 220 220 222 218 200 191 195 203 201 200 208 215
216 219 212 197 184 195 182 183 150 127 110 105  82  54  62  59  54  40  34  46  58  53  51  48
 42  70  67  57  82  88  59  62  40  50  62  58  41  10  84 122  78 124 160 198 212 212 203 196
223 202 124 217 222 223 222 221 220 220 220 220 219 218 218 219 219 219 219 218
218 218 218 218 218 218 219 219 219 219 218 218 220 221 222 215 195 187 190 196 198 203 204 202
213 224 214 193 179 176 163 161  90  60  58  57  56  58  44  56  64  61  58  44  41  52  62  46
 30  34  42  63  66  85  68  48  61  72  70  55  51  69  88 103  95  60  42 119 209 208 207 205
219 199 124 216 219 224 222 221 220 220 220 220 219 218 218 219 219 219 219 218
218 218 218 218 218 218 219 219 219 219 220 221 220 219 220 211 193 186 193 198 195 193 195 197
199 206 200 176 142 110  75  83  65  49  49  44  57  56  54  71  37  32  34   0   0  52  56  45
 54  46  41  60  64  61  61  62  69  74  73  47  69  65  70  75  63  55  60  17 113 204 205 197
216 202 131 220 230 220 221 222 220 220 220 220 219 218 218 219 219 219 219 218
218 218 218 218 218 218 219 219 219 219 220 218 220 220 214 211 193 185 187 192 191 184 186 200
189 147 117  89  50  50  50  81  75  87  72  58  73  54  40  85  66  18  80 124 109  60  47  61
 97  86  48  43  45  52  78  60  58  60  71  58  48  45  35  20  37  47  51  61  67 151 205 204
191 166 115 164 192 226 227 218 221 220 219 220 218 217 218 219 219 219 219 218
218 218 219 219 219 219 220 220 220 220 221 219 219 215 207 205 188 180 170 181 189 189 173 154
111  64  71  69  55  48  42  82  74  69  77  77  72  47  38  42  56  59  75 142 131  39  40  35
 52  64  51  47  32  27  88  78  54  65  49  31  29  21  36  41  49  49  44  38  60  99 180 128
 96  94  99 118  69 120 213 223 220 222 220 220 218 217 218 219 219 219 219 219
218 218 219 219 219 219 220 220 220 220 222 223 219 211 207 204 178 170 183 182 158 138 110  50
 82  73  89  62  32  34  38  28  43  37  40  50  59  60  25  41  53  49  61  71  37  43  57  53
 44  50  51  55  50  55  69  76  46  49  46  35  23  23  43  45  46  62  44  31  35  74  82  70
101  97 125 211 214 108 108 221 220 219 221 221 220 220 220 219 219 219 219 219
218 218 219 219 219 219 220 220 220 220 218 219 217 207 205 205 192 192 134  60  45   9  27  59
 74  78  78  34  31  36  35  38  34  34  31  19  42  52  38  37  47  47  69  35  27  59  58  49
 59  58  78  83  73  72  88  75  53  39  44  32  21  31  35  66  66  51  47  45  46  40  81  83
 72 122 111 139 197 221 101 155 230 216 217 219 219 221 220 219 219 219 219 219
218 219 219 219 219 219 220 220 220 220 216 216 209 194 188 203 200 153   0  56  59  60  57  40
 38  65  53  32  47  28  32  39  32  30  15  19  27  28  29  36  34  46  55  87  83  55  88  95
 69  56  63  64  45  54  76  49  56  49  25  19  30  38  35  43  60  52  47  55  52  44  70  53
 58 147 133 197 132 180 182 106 213 222 215 217 218 220 219 219 219 219 219 219
220 220 220 220 220 219 223 220 220 213 218 213 204 204 184 214 187  52  85  83  43  77  81  62
 41  42  56  49  43  34  32  39  44  38  43  26  12  16  27  34  43  36  27  70 110  91 101  82
 34  26  18  48  34  14  47  54  52  33  35  34  36  39  35  30  46  73  57  30  10  76  73  59
 74 148 141 212 204 113 154 118 187 218 219 218 220 217 219 219 219 219 219 219
220 220 220 220 220 220 222 215 214 214 214 188 183 192 184 191 128  58 114  42  74  81  49  60
 55  54 128 117  47  38  51  63  55  45  60  40  10  22  15  43  64  27  50  35  32  70  35  40
 62  43  43  58  75  66  44  55  49  54  47  27  20  17  36  56   7  69  96  60  98 108  80  48
 69 101 132 200 209 186 106 150 163 214 216 221 220 218 219 219 219 219 219 219
220 220 220 220 220 221 220 218 220 218 186 182 176 113  90  65  46 115 113  52  71  40  42  36
 39  27  84 101  81  53  73  68  51  40  60  63  24  19  16  46  42  42  47  39  50  39  47  60
 76  61  59  34  64  79  71  67  69  62  35  19   9  12  33  43   3  57  69  75 114  52  63  46
 66  68 112 195 205 189 110 152 161 197 209 225 219 220 219 219 219 219 219 219
220 220 220 220 220 220 220 222 222 199 133 141 109  41  71  71  63  72  51  43  36  19  30  31
 43  57  56  64  99 142 130  76  32  31  44  44  33  25  19  21  53  63  37  37  52  35  36  42
 69  76  52  20  43  54  51  65  79  54  47  31   4  18  26  17  22  30  52  60  28  18  36  43
 61  87  83 172 144 117 133 128 146 204 209 227 218 222 219 219 219 219 219 219
220 220 220 220 221 220 221 225 219 153  83  80  72  85  85  80  74  66  43  29  29  48  41  43
 58  61  51  45  55  98  83  63  45  26  15  34  67  64   5  18  44  52  47  40  36  42  40  41
 94  91  30  29  29  51  30  49  71  39  71  64   8  13  18  13  14  30  64  71  54  28  32  69
 56  74  91 109 135 119 179 134 136 200 202 229 220 220 221 219 219 219 219 219
220 220 221 221 221 220 218 224 199  98  79  67  97  79  70  60  57  52  32  34  28  44  85  84
 72  65  55  39  44  36  28  30  33  28  29  46  75  66  38  29  26  57  63  45  40  39  38  41
 66  53  24  12  44  44  21  30  49  51  73  64  28  13  13  26  37  30  60 108  53   0  41  48
 58  39  49  89 103  36 105 109 142 163 201 225 220 220 222 220 220 220 220 219
220 220 221 221 221 222 219 225 188  75  76  29  59  82  54  60  54  56  41  33  57  71  73  85
 76  52  21  27  75  83  58  39  35  37  38  40  46  39  39  34  94 126 107  61  28  37  36  36
 24  28  28  35  50  19  13  26  32  42  49  81  66  30  23  30  41  32  61  93  62  65  46  32
 43  31  48  55  63  63  67 120 191 157 211 217 218 223 221 220 220 220 220 219
220 220 221 221 221 222 217 224 182  74  77  26  13  47  49  70  57  43  50  45  47  99 109  73
 48  20  47  50  56  64  42  36  54  53  46  64  68  36  28  55  72  63  44  36  46  25  32  24
 37  35  30  64  72  35  46  37  18  31  34  61  63  48  37  23  19  25  35  49  65  98 112  91
 79  47  55  54  48  85 118 156 191 163 219 214 220 221 221 221 220 220 220 219
220 220 222 221 221 221 219 228 166  94  88  11  33  27  40  58  56  47  48  50  29  42  81  82
 42  47  61  41  39  31  47  81  74  65  67 101 100  59  45  46  16   0   1  32  52  41  33  25
 31  15  41  80  44  52  56  15  30  35  30  28  59  81  56  35  23  17  20  27  37  12  41  94
105  78  60  31  52  65 114 169 181 163 224 219 222 216 218 217 219 220 219 219
222 220 224 218 213 218 218 223 162 125 128   0  44  40  42  58  60  56  30  35  39  48  89  88
 43  52  46  35  42  66  99 110  76  65  92 130 123  62  32  38  30  34  34  32  37  29  33  25
 17  26  46  78  44  26  32  44  43  37  39  41  44  54  39  31  24  15  30  26  15  32  25   0
 78 103  67  36  63  57  72 137 146 185 215 212 218 217 223 219 223 220 221 220
221 220 218 215 216 219 211 209 167 132 140  31  87 107 106  80  70  52  66  44  21  75  93  83
 61  55  50  47  57  75  90  74  81  83 115 148 122   0  34  44   7   0  22  27  35  63  34  44
 78  86  71  51  49  42  69  62  26  34  35  28  42  40  26  19  11  14  22  32  60  42  53  42
 31  82  50  46  58  86  88  77 118 141 133 136 189 201 197 202 197 219 221 222
219 221 215 210 208 208 201 210 175  74  64  63  87 107 100  57  46  57  75 101  52  53  51  67
 57  59  63  64  75  86 104 122 104 127 150 153  81   0  64  53  60 101  70  32  60  61  34  41
 50  46  44  28  47  74 109  84  11  31  59 118  84  31  23  15   8  16  18  25  59 103  81  75
107  76  43  68  54  70  97  77  92 145 185 149 182 219 209 196 166 201 226 220
218 218 215 208 195 194 190 199  91  28  36  36  57  75  63  32  38  71  35  71  74  56  60  49
 29  38  47  60  85 116 139 119 102 149 164 154  49   0  63  27 100 167 113  34  43  21  38  30
 36  35  22  20  24  38  71  84   5  33  82  86  55  35  23  11  13  20   9  16   0  54  57  53
 81  70  58  81  81  47  69  65  70  82  81  80 108 153 172 215 200 209 223 220
219 215 215 205 201 205 208 123   0  55  47  51  48  68  65  23  29  44  56  34  47  54  35  44
 46  34  47  54  84 113 109 101 140 155 171 153  15  14  37   0  94 155  83  25  35  38  48  48
 51  50  18  22  20  40  45  31  21  35  46  19  24  26  21  12   6  27  44  21  24  27  53  39
 28  59  57  72  75  53  83  81  78  57  71 117  67 147 179 219 189 215 224 222
219 217 217 197 202 208 214 112  27  65  67  82  94  70  72  46  31  39  55  62  61  50  40  19
 42  40  29  39  59 109 118 124 155 166 164 143   0  24  27  22  51 108  85  60  38  48  49  51
 42  49  42  27  28  41  47  24  19  23  39  33  35  22  27  19  13  14  37  38  25  20  23  52
 65  41  74  85  69  41  89  79 109  87  59 104 125 208 190 216 196 207 213 216
219 220 220 196 194 216 215 126  47  67  55  60 133 126 100  95  67  16  27  30  56  58  28  23
 19  67  64  28  45  52  62  53 135 171 164 154  14   8  25   9  18  73  70  48  41  59  66  60
 55  50  75  66  54  34  42  36  20  20  55  49  65  47  22  14  14   4   1  17  19  12  15  39
 42  62  69  61  47  43  67  80  85  89  89  41 168 200 195 209 210 209 211 215
218 222 218 200 192 210 214 162  58  56  67  81  78 103  83  76  66  33  28  17  38  42  21  40
 90 109  86  75  69  49  96  61  10 143 148 151 104   7  36  73  58  43  57  36  43  61  62  63
 57  51  72 103 107  65  32  40  32  29  39  53  54  38  47  35   0  17   5   0  14  20  31  37
 42  69  50  34  36  47  69  51  61  50  94  91 121 165 216 201 215 217 218 213
219 220 215 209 206 204 173 114  57  37  16  66  86  36  55  48  44  72  71  53  36  48  12  60
 79  47  32  69 102  70  91  80  42  32 107 140 124  78  93 119  83  57  46  36  29  51  65  64
 60  57  50  98 115  92  36  40  43  15  42  60  38  50  42  42  19   0  30  64  33  20  41  42
 40  46  31  35  41  37  75  78  53  62  86  64  36 138 210 207 217 219 220 219
222 218 215 212 209 113  36  70  51  35  65  36  52  74  53  43  41  77  71  55  54  49  20  59
 25  70  85  81  75  78 104 127 105   0 144 140  52  52  71  95 100  55  30  28  18  57  83  83
 76  54  59  70 105 102  37  36  37  27  49  83  48  49  47  34  19  50 102  91  23  39  41  31
 40  37   5  52  56  44  61  97  80  91  80  51  43  72 169 212 215 221 223 220
217 220 211 212 161   0  53  74  67  18  40  47  60  55  65  49  44  70  70  66  73  62  72  41
 64 114 119  94  42  35 101 140 113  36  66  47  46  55  44  50  29  20  10  15   9  41  85  94
 96  61  47  36  64  85  50  46  26  36  72  76  48  38  42  51  74 101  96  41  42  45  35  59
 42  31  46  85  45  43  41  72  83 110  93  66  69 102 100 207 218 217 219 219
218 207 171 120 101  67  67  70  54  38  27  44  60  47  56  42  40  73 109 105  89  74  81  43
 72 114 107  58  50 105  98 127 123  42  11  52  40  10  38  37  34  31  18  13  46  18  61  98
104  50  30  58  54  50  53  44  37  47  70  43   7  30  21  24  65  66  44  34  22  31  32  56
 38  39  57  48  21  66  61  44  61  67  42  60  71  79 115 207 213 218 221 220
178 120 126 104  90 123 163 130  63  57  37  40  50  46  50  47  63  88 117 121 119  92  45  38
 59  78  50  33  86 146 136 132 139  17  37  42  74 111 114  72  46  43  29  59  65  29   0  66
 78  25  41  66  91  72  45  38  45  43  34  24  43  43  36  53  68  53  35  36  32  28  29  46
 31  53  61  34  25  55  81  71  64  50  30  70 100  60  44 181 221 212 218 221
195 141 184 143 112  72 102 102  96  72  62  31  28  29  47  63  78  89 114 134 140 116  82  38
 36  24  43  73 100 126 120 110  95  18  35   0 103 141 138 100  52  38  28  72  75  72  60  27
 29   9  19  36  49  57  58  58  49  41  54  51  63  86 110  99  81  63  53  42  37  34  69  56
 23  32  64  68  54  34  31  50  64  43  63  93  91  68   0 164 214 218 219 217
216 162 162 163 160  43 124 199 124  83  97  74  63  53  59  84  96 117 149 158 143 125 115  74
 29  65  77  86  92  86  90  82  42  26  70  96  56  54 108 132  80  36  41  61  71  82  93  61
 15  11  22  52  55  45  51  46  53  39  54  56  82  94  72  60  65  55  37  20  28  25  92  52
 23  27  74  62  62  60  57  59  57  71  81  63  63  47  79 180 206 208 215 219
216 216 171 145 152  90  47 193 167  73 127 111  98  89  90  96 102 126 139 143 147 148 115  98
 67  42  81  96  97  93  83  45  44  28  86 135 134 127 123 115  94  73  57  61  71  80  84  79
 44  29  40  35  10  45  70  73  53  31  72  65  99 106  44  36  44  37  34  22   6  30  93  73
  0  35  51  75  65  49  60  62  57  78  49  50  69  68 106 168 196 213 220 212
217 219 211 166 138 120   0 122 178 117 130 121 111 110 110 103 110 122 115 117 134 138 121 142
132  56  21  62  65  51  50  47  52  18  34  84  99  98  72  69 125 113  57  65  77  75  80  83
 46  51  42  27  35  62  90 112 108  43  73  70  68  73  44  36  44  62  42  11  39  81  65  88
 41  20  57  90  84  43  54  55  56  65  42  46  53  95 134 127 143 149 185 228
220 211 214 208 144 131  85  46 181 155 118 127 124 121 111 108 125 135 132 128 127 136 153 165
167 141  95  69  40  48  65  76  78  81  65  40  33  53  77  87  96  97  63  75 102 101  80  77
 69  75  37  35  60  76  97 114 106  31  78  83  85  74  40  15  32  35  34  50  59  37   0  30
 59  34  53 100  70  51  49  50  43  48  50  49  66  62  80 140 160 193 170 179
222 214 218 216 200  90 126  41 102 136 125 125 128 125 115 120 141 153 159 159 159 161 163 168
169 166 159 137 108 101  98 114 144 135 147 122  96 108 122 130 114  79  67  87 109 117  73  79
 75  57  41  31  66  82  83  85  67  38  89  78  89  88  47  21  34  49  56  46  34  21  22   3
 34  49  45  56  62  42  40  52  51  32  68  58  59  68  66  32  40 160 164 178
215 222 219 225 211 147 141  77  70 132 126 130 132 125 118 127 146 163 174 177 169 155 150 158
168 170 165 146 122 110 131 155 172 146 102 104 123 155 176 183 154  70  84 106 101  95  72  88
 47  36  46  30  67  90  75  46  14  83 106  76  71  94  70  33  36  50  73  53  39  27  16  10
 20  41  52  49  63  36  42  32  71  65  79 102  57  61  85 101  30  19 133 216
172 182 193 204 186 183  92  24 113 149 126 136 133 124 123 127 140 163 179 182 171 153 149 157
160 158 146 123 117 129 167 172 157 146  99  95 140 162 163 159 128 110 120 117 124 121  82  70
 55  61  38  33  64  80  65  51  66 103 110  80  62  52  76  53  30  66  86  52  34  21  17  18
 26  32  37  44  41  39  40  32  62  80  61 101  80  64  54  76  92  64 114 206
200 187 186 151 121  86  38  53 149 138 133 141 130 121 130 128 135 160 178 182 173 155 149 152
138 131 125 127 127 138 157 154 154 131 114 109 127 132 131 122 124 129 126 121 143 149  79  54
 68  71  56  37  50  52  93 105  98  89  75  57  51  77  78  76  57  50  74  62  25  28  28  30
 24  24  25  37  40  36  23  41  50  43  65  71  86  92  68  48 104  77  64 197
209 204 213 188  94  72  67 101 160 133 148 140 125 121 129 127 131 156 174 178 174 161 147 141
130 133 132 130 131 142 150 156 157 132 116 120 135 138 138 136 133 123 122 130 154 164  93  36
 74  88  70  35  80  87  65  80  84  72  51  73  85  91  75  56  77  81  80  64  44  29  24  32
 40  48  44  44  47  35  39  39  41  58  88  87  74  99 105  46  39  85  73 201
219 217 202 147  94  90  75 131 138 131 142 127 119 123 130 125 130 150 167 172 171 161 146 139
136 135 136 138 144 150 154 162 152 131 125 133 148 150 147 144 131 124 122 132 160 174 135  30
 85  91  53  40  66  77  82  80  89  69  72 103  93  89  87  91  87  78  74  60  53  46  40  28
 32  35  40  31  36  47  42  35  29  78  94  59  57  49  46  85  65  70  62 188
214 176 159 117  75  85 105 125 120 112 113 104  99 102 110 117 125 141 155 165 168 161 151 147
144 140 142 150 152 153 152 152 142 127 129 140 151 151 144 135 125 120 123 145 171 179 160  59
 43  31  46  75  88  89  91 104 111  81 113 120  96  84  93 104  98  87  74  65  63  53  68  75
 72  60  46  54  53  33  28  40  39  60  41  45  59  42  48  85  47  64  90 120
186 185 201 121  35  79 101  99  93  81  77  59  64  71  82 101 116 129 143 153 157 157 154 154
151 149 150 154 154 153 148 145 134 125 125 134 143 145 137 128 124 123 131 156 174 176 164  80
 50  79  84  87  93 108 114 118 112  88 115 131 103  83 107 112  93  91  78  54  53  45  41  46
 49  53  43  41  43  41  37  40  51  66  45  36  48  44  48  47  46  47  95 151
185 178 137 120 147  88  84  73  69  67  59  52  56  63  71  85 101 115 132 140 145 150 151 152
153 155 154 152 147 144 138 133 124 116 108 111 118 122 116 111 113 119 128 139 153 162 152 102
 51  75  83  95  98 104 106 100 119 119  83 122 117  86  96 110  93  87  66  41  36  46  49  25
 35  33  44  42  51  57  53  54  60  61  37  33  48  45  46  47  38  50  69 153
155 140 214 148 184 123  93  97  94  94  87  79  70  65  61  69  83  99 113 127 140 142 145 145
149 151 149 143 137 130 125 119 113 105  91  87  81  79  79  81  88  96 102 110 127 133 124 115
 73  38  67  79  88  90  77 118 147 125  97  89 104  84  81  81  73  60  40  42  41  38  29  36
 48  37  43  52  47  67  51  66  82  65  68  52  80  48  54  51  35  63  62 137
132 174 228 155 163 118 110 119 122 116 121 116 112 105  95  85  80  84 104 118 127 131 141 147
146 146 141 134 126 119 115 110 104  96  84  80  74  69  68  71  77  81  86  95  97 104 100  95
 92  81  71  71  79  97 113 127 141 133 120 102 101  76  65  71  51  41  57  43  39  35  21  34
 37  42  45  64  47  64  52  64  95  84  79  50  80  59  58  37  19 100  63 101
143 179 222 188 144 126 111 126 125 123 122 115 115 111 104 103  96  89  90 107 122 127 140 148
148 145 137 127 121 116 113 111 106  99  91  88  82  73  70  68  66  67  77  83  80  83  88  87
 85  93  99  95 103 111 115 117 129 132 129 117 123  99  89  80  33  56  53  46  40  49  38  35
 32  51  60  54  56  72  40  77  88  64  74  62  71  74  52  55  33  68  86  90
151 163 216 215 135 111 121 131 126 117 100  90  83  78  72  73  79  80  83  91 110 126 144 153
155 150 140 128 122 118 117 116 113 107 103 105  99  93  93  90  86  83  80  82  87  84  83  82
 84  88  89  89  95 102 105 107 126 127 131 117 103  98  93  57  32  64  46  28  28  73  67  36
 35  53  75  50  26  58  58  61  75  63  51  51  67  71  51  59  54  33  77  56
154 162 215 218 187  45 102 137 116  97  79  71  75  76  80  81  74  69  66  78  89 121 150 161
158 157 145 132 128 123 120 117 114 114 111 112 111 111 107 109 112 110 111 109 112 111 110 107
105 101  96  92  90  91  95  94 108 123 130 125 110  94  95  65  14  50  46  47  56  65  62  53
 62  51  75  60  32  48  79  37  34  72  54  59  71  43  51  40  53  59  57  16
155 176 213 207 209  99  66 136 108  62  59  77  79  77  80  75  84  80  67  65  69 123 160 175
173 170 157 140 131 123 119 117 112 112 114 111 104  91  81  78  82  88  93 102 110 114 119 121
124 124 120 115 107 100  96  94 103 111 113 121 113  92  97 109  78  43  58  74  74  58  50  60
 55  48  60  68  65  73  90  89  43  42  74  88  61  46  54  35  36  79  81   0
153 202 203 218 211 121  39 118  97  53  72  96 124 119  67  34  45  64  76  75  55 128 176 186
189 182 167 144 129 120 114 113 111 110 112 102  84  70  82  85  79  78  74  74  78  83  90 110
125 127 126 126 119 111 105 106 114 108 107 120 116 106  90 108  89  16  44  49  48  40  38  41
 30  23  49  76  85  97  92  72  72  39  70  98  46  54  43  33  46  51  82  52
158 205 212 215 211 114  45 108  95  65  86 120 129  91  59  48  37  34  52  76  72 148 185 191
195 188 176 148 125 114 106 107 107 106 100  89  80  92  89  77  72  76  79  75  75  77  79  75
 93 119 126 124 126 126 124 118 117 113 109 115 119 109  99 107  77  23  43  26  32  46  45  30
 32  23  29  75 102 112 111  93  77  62  66  82  45  50  26  28  47  27  48  50
166 212 211 215 200 104  50 120 121  90  97 133 120  55  46  41  68  39  45  49  99 177 187 199
199 191 182 153 124 109 102 100 104 102  88  92  98  89  89 101 121 119  89  56  42  53  69  85
 77  74 103 120 123 128 127 123 122 121 117 113 118 115 117 107  95  61  53  60  69  61  53  38
 35  32  24  34  59  82  92  95  95  81  79  76  57  38  16  46  34  95  90  63
164 219 215 210 204 107  58 122 119 100  91 130 116  60  41  57  72  24  37  40 142 188 193 202
199 188 180 155 123 101  99  92  98  95  91 100  94  86 112 121 138 113  46  54  49  40  40  66
 75  82  70  93 121 126 123 125 126 125 120 119 124 124 124 110 100  95  87  87  86  77  69  54
 33  32  36  34  29  28  41  54  48  42  60  59  55  28  31  32  42 141  90  79
182 206 213 219 166  82 104 126 112 104  96 106 106  74  37  46  29  57  39 103 183 190 194 200
192 181 172 152 125  98  92  95  92  96 107  95  86 111 121 130 121  66  62  37  38  51  46  76
 69  67  85  75 100 121 121 125 125 125 123 123 126 125 125 112 100  99  95  89  84  79  77  66
 48  34  38  30  32  44  45  47  35  24  42  52  52  34  38  23  89  86  50 106
189 217 201 148  46 101 116 128 118 116 105  94  93  89  74  73  84  86  89 168 181 188 197 198
180 173 165 154 143 116  89  96 104 118  95  82  93  95 116 130 112  66  47  46  47  38  50  76
104  67  74  90  84 107 123 120 121 121 122 125 129 128 128 115 100 101  99  91  88  85  70  58
 48  47  38  29  29  38  52  62  50  33  49  51  51  43  35  24  91  52  49  94
131 131  50   0  89  66 121 130 120 129 119 111 103  97  96  95  99  80 121 183 184 189 201 183
172 168 162 160 159 146 107  99 110 116 105  94  95  86  99 119 102  69  63  73  72  58  51  86
104  75  62  84  96 102 116 122 120 121 125 128 130 130 131 118 106 105 100  95  92  85  74  62
 50  44  41  27  30  59  72  69  50  34  44  47  66  58  19  42  34  32  31  50
106  54 141 181 132  98 143 146 129 130 131 124 116 110 101  99 100  89 154 180 188 196 191 170
167 165 164 165 169 163 137 113 105 111 116 109 107 115 122 127 118  69  36  49  52  47  65 100
 82  62  78  90 101 109 112 123 123 125 130 136 138 134 132 118 108 106 103 101  96  84  76  66
 49  43  56  41  50  47  50  60  45  30  28  45  69  47  22  58  64  29  81  69
113 163 224 181 169 116 159 162 147 142 136 127 122 116 109 109 104 114 172 185 192 195 179 170
167 167 170 173 175 170 163 139 111 111 109 111 112 118 131 136 141 121 108 103  90  75  87  93
 88  88  84  89  98 104 113 118 120 126 134 141 148 141 129 118 111 109 109 107  99  86  76  59
 36  38  54  44  41  50  63  57  51  28  32  47  47  34  31  28  58  39  96  67
150 140 193 156 160 123 178 174 162 154 144 135 130 125 118 116 112 145 185 189 199 188 171 170
169 170 174 180 182 172 171 161 135 122 113 118 119 118 119 119 126 129 141 141 130 111 109 110
103 103 100 102  99 100 109 118 124 134 144 148 153 143 123 118 116 116 116 111 105  94  70  46
 36  44  41  35  45  76  64  53  43  39  47  49  39  62  56  47  29  50  67  55
192  99 145 140 161 147 178 176 170 160 145 137 133 129 124 122 125 170 187 198 197 181 170 170
169 170 174 179 180 173 170 170 160 146 132 126 131 134 132 129 127 130 131 129 128 128 121 125
120 123 127 124 120 118 123 136 144 152 157 158 157 141 128 124 123 123 121 111 101  93  62  42
 49  46  31  38  49  56  59  47  52  52  45  30  21  72  81 109  52  37  33 132
217 154  91 133 142 156 179 175 172 163 152 147 142 138 134 126 143 182 189 205 192 176 172 170
168 169 171 175 175 175 175 174 172 165 152 136 140 149 150 148 140 138 136 135 134 135 137 137
134 140 141 141 143 145 149 155 159 163 165 166 160 141 139 133 127 126 123 109  96  96  73  52
 59  65  55  45  45  62  69  69  69  46  35  35  31  66  75 101 104  65  51 122
221 207 145  98 100 161 173 173 170 163 157 154 149 144 140 140 166 184 196 203 186 175 171 170
171 171 170 174 176 174 174 176 176 174 171 156 146 150 154 158 163 162 155 157 151 147 144 143
148 155 161 162 163 164 165 165 165 166 167 167 157 143 145 135 125 125 125 110  99 108  89  56
 44  43  61  59  46  58  92 111  96  70  35  56  45  76  84  58  80  62  79  78
208 201 157  96 102 161 166 168 168 164 162 160 157 153 150 163 181 195 206 196 183 175 174 172
172 172 170 173 175 173 173 176 177 179 185 175 158 151 155 162 168 169 174 178 170 162 160 162
167 174 179 180 179 177 176 174 173 172 171 167 156 147 149 135 124 126 128 118 105 104  95  76
 51  36  28  43  55  69  83 101  93  87  76  27  84  61  69  76  34  52  58 141
197 177 132 106  95 154 159 161 165 167 168 169 167 165 163 172 188 202 210 191 180 176 174 171
171 171 167 170 172 171 172 175 178 180 187 186 173 160 158 161 166 171 173 174 174 180 180 182
187 190 191 191 188 185 183 183 181 176 173 168 156 149 152 139 125 125 128 122 111 101  85  71
 47  43  45  36  49  79  83  72  68  77  96  82  65  73  38  46  53  61  41 126
225 194 109  83 107 151 155 156 163 169 173 175 175 175 174 182 193 206 201 189 182 176 172 167
169 168 164 165 169 169 171 175 180 181 181 190 189 179 167 157 164 172 176 183 186 188 191 193
195 193 192 193 192 191 190 189 185 178 172 168 159 146 151 143 127 124 126 121 111 106  90  66
 41  50  50  25  27  43  66  67  57  55  48  72  77  79  66  46  51  47  45  86
216 117  48 145 103 138 153 158 165 170 175 179 177 174 184 191 201 209 198 186 181 175 171 168
165 165 164 164 167 169 172 176 180 182 180 185 190 187 178 170 170 173 175 183 189 189 192 195
196 194 194 197 195 192 190 189 185 179 173 167 158 148 152 148 133 124 123 120 111 103  85  70
 39  68  58  27  39  59  58  71  73  54  41  40  44  66  69  41  46  52  46  63
165 118 130 106  92 133 151 159 166 172 177 181 179 178 188 194 205 209 196 185 180 173 168 166
164 163 162 161 164 167 171 176 180 184 184 186 191 189 183 178 176 177 178 183 189 191 193 195
196 195 195 196 194 191 189 186 183 180 175 168 158 150 152 150 135 123 121 118 111 101  80  66
 30  78  76  21  54  56  63  69  58  60  52  36  46  58  59  33  28  31  58  20
152 136 110  83  77 118 152 159 167 174 179 180 180 182 190 198 208 211 197 184 179 172 166 164
164 162 159 156 158 162 168 175 179 182 184 187 189 190 187 183 182 182 181 182 184 184 190 193
194 193 191 191 190 188 187 183 180 178 175 167 157 151 149 149 137 123 118 116 109  96  79  63
 31  73 103  43  61  63  64 102 104  62  56  67  63  44  42  39  41  25  35  75
123  74  80 101  64 111 148 156 165 173 179 178 178 185 190 193 205 210 197 183 178 173 170 169
167 164 159 155 153 157 165 174 179 181 186 189 188 189 189 187 185 184 184 180 179 180 184 186
187 186 184 185 184 183 182 181 177 174 169 161 154 149 144 146 139 122 115 115 108  90  79  63
 46  54  96  63  53  54  61  69  96 103  78  58  61  77  52  43  25  40  35  65
 84 112 154 113  69  83 143 153 165 172 177 176 177 184 186 187 196 199 192 181 176 174 174 174
168 166 160 155 151 154 166 174 179 183 187 191 191 190 190 189 187 186 186 182 180 179 179 180
181 180 179 179 179 179 178 180 175 171 165 158 154 146 140 143 138 121 114 114 105  87  78  61
 59  54  68  58  45  49  62  63  57  77  72  57  53  80  70  57  47  64  58  46
148 174 148  88  84  72 138 153 165 169 175 173 168 179 179 181 185 186 185 180 175 171 171 170
165 166 163 157 150 150 167 175 179 184 186 189 192 192 191 190 189 187 184 184 181 177 176 176
177 177 176 175 175 176 176 175 169 165 163 160 155 143 137 139 133 119 113 111 103  84  77  64
 64  77  75  40  40  53  56  51  69  77  71  60  56  52  65  65  64  54  59  58
137 178 124  85  86  71 120 155 161 171 178 176 154 164 169 174 183 184 176 167 164 165 164 162
165 166 165 161 153 148 162 174 183 186 187 189 191 191 190 190 190 189 186 186 183 179 175 175
174 174 173 173 173 172 172 167 163 163 161 157 152 142 135 134 130 117 112 109 101  80  76  66
 80 108  93  45  43  35  47  63  64  69  67  54  67  62  75  57  43  40  38  65
153  93  80 113  92  45 103 155 161 171 176 185 160 140 152 163 168 164 153 143 141 143 148 153
158 161 162 160 151 146 161 174 183 186 187 188 189 189 189 190 191 190 188 188 185 181 176 175
173 172 171 170 169 168 167 164 163 163 160 153 149 140 131 128 125 115 111 106  96  84  74  61
110 121  99  73  49  33  44  56  59  51  44  56  73  79  67  60  37  35  35  50
162 104  98  93  73  82  86 142 162 174 175 172 172 146 138 143 144 144 141 139 133 126 130 141
152 156 158 157 146 145 164 174 180 184 184 185 185 187 189 190 191 191 189 189 186 182 178 177
175 173 170 168 167 165 163 162 160 160 153 146 147 138 129 124 122 113 110 104  93  84  72  90
123 109  86  91  65  55  64  66  43  50  63  64  72  72  47  60  54  73  68  45
146 166  90  55 102  70 105 152 167 171 177 169 176 168 145 135 137 140 134 111 107 115  99  89
136 150 149 151 142 139 166 177 180 184 184 185 186 187 188 189 189 188 188 187 184 180 179 177
175 172 170 168 164 161 161 158 158 157 143 136 146 135 126 121 113 109 108 102  93  85  66  73
 91  76  74  92  76  69  75  90  75  62  68  53  71  45  68  94  82  68  81  69
166 200 124   0 103 113  64 144 162 173 176 173 170 176 154 124 130 137 129 119 123 131 124 109
117 129 138 143 133 138 172 185 182 184 184 185 186 186 188 189 188 187 187 186 183 179 177 175
172 170 168 166 162 159 158 156 156 157 152 145 142 133 124 119 112 110 109 103  94  83  59  50
 63  56  66  72  52  79  67  66  83  85  71  72  75  73 102 108  92 107 100  75
173 190 148 109  99  78  78 121 167 167 171 176 170 170 136 108 109 122 134 132 128 127 126 123
122 119 124 123 116 160 191 185 184 184 184 185 186 186 188 189 188 187 186 185 182 179 175 173
170 168 166 163 160 157 156 159 155 152 151 146 138 129 120 115 113 111 109 102  90  80  79  79
 75  69  63  45  43  52  50  58  71  83  89  90  86  91  92 103 117 106  82  62
176 170 149 142 174 120  45 122 162 168 169 175 176 160 121 115 109 118 128 130 128 129 124 115
109 102  98  93 132 185 195 187 187 184 184 185 186 186 188 189 188 186 185 185 181 177 175 174
171 168 167 164 160 157 157 158 154 152 147 140 135 126 116 111 112 109 106  98  88  77  86  89
 78  73  42  25  57  46  36  37  58  68  76  78  76  93 108 121 109 109  95  70
167 126 111 169 192 152  90 113 154 160 173 167 167 145 117 115 118 128 132 126 131 136 129 120
118 115 111 120 170 191 188 193 192 186 185 185 185 186 188 189 189 187 185 184 181 178 176 175
172 169 167 163 161 159 159 156 154 154 150 141 133 123 115 111 109 111 105  98  85  74  71  79
 72  63  45  57  60  43  56  61  31  46  63  78  92 110 116 107 130 147 113  95
131  93 156 191 127 133 191 155 149 159 169 170 164 135 114 117 120 129 136 131 137 137 130 126
127 131 139 164 185 188 190 193 195 192 188 186 186 187 188 189 190 190 185 184 182 180 178 175
173 170 167 161 161 160 160 159 155 151 146 138 130 120 117 115 116 114 103 100  83  77  70  62
 56  60  47  31  44  44  53  45  38  48  53  64  72  89  95 115 117 112  97  81
133 207 200 157 134 175 206 138 141 159 160 164 159 131 114 117 123 134 141 135 135 143 142 145
154 164 172 186 189 188 191 194 195 195 191 189 190 189 188 189 189 188 186 185 183 181 178 176
173 171 168 164 163 161 160 160 156 150 141 133 129 122 120 118 116 109 106  90  86  89  77  51
 56  55  56  46  34  41  52  29  37  37  37  41  69  63  73  82  63  92  85  66
201 209 178 156 179 162 155  58 142 150 155 159 154 126 116 119 126 138 142 134 135 161 170 174
179 182 185 184 187 190 192 195 197 196 193 191 191 190 189 189 188 188 187 185 183 182 179 177
174 172 170 167 165 163 161 160 154 148 139 130 126 123 123 120 116 111 101  92  99 114  65  56
 54  50  68  53  41  37  58  44  28  26  46  52  49  37  57  60  91  92 118 108
197 206 182 180 190 170  77  49 133 145 150 159 152 124 119 120 127 138 139 134 138 175 183 182
179 179 184 185 188 191 193 196 198 196 193 191 191 191 190 189 188 187 188 186 184 183 180 178
175 173 171 170 167 164 161 158 151 146 139 130 125 124 126 122 116 108 101  88  78 115  50  80
 91  77  42  20  45  22  43  58  24  14  42  55  64  60  59  55  82  94 131  78
164 199 174 176 191 140  28 116 161 140 142 151 147 126 120 125 129 130 126 118 138 184 190 186
184 183 183 183 183 185 188 192 194 195 193 192 191 191 190 188 187 187 187 185 183 182 180 179
176 174 171 168 168 164 160 156 152 145 136 131 127 127 128 123 118 105 100  64   0  56  49  37
 66  51  42  47  48  42  32  52  44  28  42  26  55  61  49  26  52  85  41  41
 66 101 137 134  93  78  73 163 179 141 136 143 143 130 125 130 136 135 124 124 169 195 191 186
188 186 183 181 182 184 185 186 187 189 190 190 191 189 188 187 187 187 186 185 183 181 181 180
177 175 171 168 167 162 158 154 149 142 134 132 131 130 129 123 113 105  94  37   1   0   0  35
  8  23  39  41  29  41  53  36  52  41  31  28  47  58  57  61  59  66  58  48
126 146 144 122 118 114 154 185 184 135 138 138 140 134 130 131 137 152 167 178 189 182 191 193
191 189 185 182 184 185 184 183 183 183 184 186 188 186 185 186 186 186 186 185 183 182 181 180
177 175 172 168 166 161 156 150 145 138 135 135 135 132 128 122 112 105  79   0  15  14  18  11
 12   8   0   2  22  23  52  56  44  42  29  35  43  49  45  79  71  61  63  58
194 215 206 180 145 175 173 184 187 137 136 134 133 128 120 119 119 134 160 163 154 157 171 185
188 185 183 182 180 180 180 180 180 182 181 181 181 182 183 184 185 186 187 185 183 182 179 177
175 172 170 169 166 160 154 149 144 137 137 139 136 131 126 118 110  94  42   0  11   8   9  11
 20  14  13  26  30  27  20  62  66  51  34  41  48  47  38 100  93  40  61  66
206 204 207 156 165 219 197 189 193 152 137 131 123 117 113 112 109 111 117 126 126 125 131 159
172 176 178 178 174 173 173 175 177 177 179 178 177 180 182 183 185 185 186 185 183 182 178 176
173 171 169 168 165 158 152 149 144 140 139 139 135 129 123 113 107  81   0  12  15   9  31  42
 17   9  19  32  33  26  31  36  57  76  46  33  50  62  59  86  86  65  35 127
178 203 183 166 187 202 214 215 215 169 128 132 114 104 102  98 103 109 112 113 117 118 121 122
131 142 155 171 174 173 169 167 167 170 172 171 173 177 178 180 182 183 184 183 182 181 179 176
173 171 168 166 163 157 150 149 145 143 140 137 134 127 120 111  99  49   0  18  13   0  53  53
 10   1  34  48  30  24  37  44  33  51  94  73   8  57  78  63  67  50  71  97
152 180 152 195 204 195 194 203 213 197 135 131 115  95  85  77  66  67  85  93  98 101  96  98
102 114 125 129 147 159 165 165 167 170 169 166 169 174 175 177 179 180 181 181 180 179 176 173
171 168 166 164 162 157 151 150 146 142 140 135 132 125 116 106  84   9  15  17   5   7  26  19
 13   8  12  23  28  32  32  35  38  59  43  81  76  69  65  60  62  69  85  92
183 169 128 195 214 212 208 200 191 212 146 131 127 106  97  92  74  54  42  42  38  30  33  43
 37  61  82  97 104 115 127 140 156 158 164 165 168 173 175 177 178 179 178 177 176 176 173 171
168 165 163 162 160 156 151 149 144 140 136 131 126 120 109  95  65   5  22  11  15  18  32  35
 19   4   4  18  23  24  41  23  42  59  76  43  79  76  44  43  58  66  74  87
197 173 172 187 205 205 213 208 203 167 106 129 130 118 112 109 101  88  73  67  62  58  62  72
 89  99  96  92  82  81  70  80 112 132 148 157 158 167 171 172 174 176 176 175 175 174 171 169
166 163 161 160 159 155 152 148 142 137 133 126 121 116 102  85  56  15  21   8   8  15  27  27
 14   9   6  21  34  20  39  59  70  50  79  86  56  69  47  29  35  45  91  68
191 165 164 209 209 212 210 211 210 128  84 117 124 126 117 113 125 128 116 104 107 118 130 138
141 141 137 130 127 120 113 120 129 129 136 145 152 157 165 171 173 177 177 173 174 173 172 169
166 164 160 158 156 155 149 145 139 133 129 123 119 109  95  83  44  20   8   6   6  15  25  19
  8   6  18  27  21  44  76  62  56  77  47  33  29  62  92  61  24  60  73  48
202 200 172 181 205 211 211 215 188 103 102  85 113 127 119 116 120 130 135 135 137 139 141 142
140 141 140 138 143 151 161 169 169 158 148 144 147 150 159 165 170 175 175 171 173 173 169 164
163 161 158 158 155 154 148 139 132 129 125 122 115  98  93  79  27  11   3   7  15  18  24  26
  7   3  25  46  48  60  35  22  28  35  42  33  21  59  98 104  53  53  54  47
206 211 204 193 180 182 206 212 156  99 105  71  84 123 124 118 110 112 117 127 131 130 131 131
132 136 140 140 147 152 156 159 162 164 161 153 145 146 153 158 164 170 166 163 165 166 165 162
162 161 158 156 153 150 144 135 130 128 123 115 104  98  97  65   4   5   2  10  18  21  29  20
  2  25  35  56  56  17  31  32  27  34  41  51  37  54  51  61  59  45  58  94
199 207 211 210 205 166 148 184 141  99  99  69  49  99 125 122 119 118 113 110 112 117 121 125
129 133 138 139 141 143 145 152 157 157 161 159 153 150 152 154 159 164 158 157 161 162 162 159
160 160 157 152 149 145 137 132 130 126 117 105  98 102  96  56   1   8   5  11  18  16  24  16
 19  37  38  54  37  61  62  58  49  50  54  39  42  62  79  77  54 143 108  85
196 207 209 205 210 205 183 145 117  96  90  60  49  63 118 121 125 125 124 119 117 120 122 125
130 134 139 141 142 146 151 151 151 156 156 158 162 156 154 153 154 160 158 157 160 161 158 156
155 155 153 148 144 140 134 130 126 119 107  99 103 102  90  57  13   6   7  11  24  21  23  31
 23  35  29  45  45  35  52  59  46  42  51  44  66  69  73  69 128 193 127 116
206 201 210 207 209 207 209 163  96  96  92  61  58  37  92 122 124 123 128 130 127 125 125 126
129 132 138 142 141 143 148 148 145 148 151 156 160 158 156 153 151 155 157 157 156 156 156 155
153 151 149 144 140 134 131 126 120 111 103 101 106 103  87  57  18   1   9  13  23  24  21  24
 28  32  30  27  52  25  11  33  33  32  44  47  64  61  58  66 110  96  93 159
205 202 203 209 211 204 191 140 102  96  90  72  64  51  57 115 121 126 129 131 130 127 126 127
128 131 135 139 139 141 145 145 144 145 147 151 153 152 151 146 141 146 154 153 153 153 153 152
150 149 146 143 138 131 127 121 113 106 106 107 105  99  85  58  19   4  12  13  17  21  27  28
 28  29  37  24  54  54  42  49  41  41  52  59  53  56  76  64  49  49  82 142
210 203 187 184 166 126 110 106 105  94  91  77  69  64  48  95 119 124 127 131 132 129 130 131
130 132 136 138 139 141 143 144 145 145 147 149 151 152 151 146 143 147 150 149 149 149 149 148
146 144 143 141 135 128 122 116 110 106 108 109 106  96  81  59  23   4  11  11  25  24  19  31
 25  28  36  34  44  71  61  34  49  53  62  50  70  83  62  57  54  74 105 151
170 155 133 116  83  99 112 109 114  90  95  81  67  63  51  78 119 121 122 131 130 131 135 137
132 134 137 138 141 142 142 145 147 148 149 151 152 151 151 148 148 150 146 146 146 146 146 146
144 142 140 135 129 121 114 112 112 111 109 108 106  93  79  60  28   4   5  12  27  31  29  27
 27  26  32  42  42  53  73  57  41  50  61  79  88  45  23  56  88  82  98 135
103 105 106  92 123 129  89 100 118  91  99  87  67  61  58  50 113 120 122 128 129 133 135 136
131 136 136 133 141 140 142 147 152 155 156 157 155 152 148 144 144 146 147 146 145 144 144 143
140 138 136 129 121 116 116 116 114 112 110 108 102  91  78  63  39   6  11  10  17  28  36  25
 16  22  35  45  49  47  60  78  80  75  62  95 129 105  74  46  77  95  85  72
101 102  86 105 136  96  79  97 116  90  94  86  70  60  57  31  79 123 129 126 129 133 135 135
136 133 140 142 137 146 153 157 157 157 159 159 157 155 150 145 141 141 142 141 141 140 140 141
139 132 127 121 117 115 117 119 117 114 112 109 100  90  78  66  47  21  18  13  19  26  24  19
 19  38  46  48  49  53  48  58  80  81  56  28  41  74  77  70  59  79  65  42
105  98  99 107  97  89  93  99 121  98  93  88  76  66  57  54  21 102 127 126 129 133 135 135
122 122 141 143 153 161 167 163 156 158 159 160 158 157 155 148 142 137 135 135 135 136 136 136
133 126 120 120 119 120 123 119 116 112 109 105  97  87  79  71  54  32  20  11  14  16  14  19
 25  42  50  51  51  51  52  55  59  66  82  68  62  71  57  54  66  96 102 101
107 103 104  95  97 100  97 103 127 107  91  84  75  69  64  57  24  52 114 128 128 133 136 135
123 127 139 147 160 164 166 161 156 156 158 158 157 151 149 145 138 133 131 133 134 135 134 129
123 122 122 121 123 124 125 120 117 112 107 104  94  85  79  75  60  43  20   9   8   8  15  22
 14  23  41  51  50  53  53  50  57  75  83  63  53  64  83  67  60  83  80  90
 99  99  99  96  94  96  97 100 122 104  91  82  74  69  64  66  43  36  62 113 133 132 132 130
132 136 139 151 155 157 159 159 156 153 155 154 153 147 143 139 133 129 130 130 129 129 127 123
121 122 123 122 123 123 123 123 118 115 111 102  91  84  82  77  64  50  29  10   5  15  24  31
 27  13  26  46  54  51  53  50  66  90  66  77  45  73  89  64  61  66  88  99
 96  99 101  99  96  94  95  92 112 107  94  85  78  69  64  63  49  40  46  34  97 124 133 135
133 136 136 139 147 151 152 152 150 147 148 146 143 140 137 131 126 124 126 125 124 123 124 127
129 128 125 123 124 124 124 121 117 112 105  97  89  84  84  77  67  59  49  35  27  31  29  31
 35  26  17  30  50  57  56  63  76  74  42  81 109  71 132 134  80 109 130 136
102  97 100 105 103  98  94  87 105 120  95  87  79  69  65  60  54  36  54  40  37  56  88 112
120 126 130 134 138 140 142 143 142 142 142 138 133 132 131 128 126 124 122 124 127 128 131 132
132 131 128 125 125 124 124 119 120 109  96  96  88  83  84  79  68  61  56  50  43  43  34  34
 38  31  25  20  33  54  61  72  58  63  68  75 118 144  91 118 124  98 136 144
117 105 103 108 106 103 102  96  97 124 104  90  83  72  67  64  61  39  47  41  51  46   0  35
 74  92 110 124 128 129 133 135 134 135 135 132 128 125 124 125 125 126 127 129 132 134 133 133
133 130 128 128 126 125 123 120 119 111 100  96  87  83  85  80  74  66  58  52  46  47  39  37
 38  32  28  25  25  41  57  62  46  59  87  84  93 125 160  80  86  98 102  95
125 119 117 116 116 116 112 108  93 122 113  94  86  75  68  71  65  43  37  49  42  48  25  45
 60  80  98 110 116 119 123 126 126 124 126 125 123 123 125 127 129 132 135 135 137 138 136 136
135 131 129 129 127 125 123 120 113 110 105  94  86  83  85  81  76  68  60  56  50  48  46  44
 42  38  25  24  28  28  49  60  54  56  68  89 101  89 111 141  77  62  69  99
