P2
# 8-bit pgm gray
92 112
255
164 164 164 164 163 163 164 165 165 185 195 196 196 197 196 197 198 198 183 155 193 209 128 151
203 196 196 197 197 195 195 193 193 194 190 187 185 181 193 196 192 191 194 190 199 192 190 195
194 198 192 192 195 197 202 200 197 203 199 196 197 199 194 198 197 191 186 194 192 193 194 192
193 193 193 193 192 192 192 192 191 191 191 191 191 190 190 190 190 189 189 189
164 164 164 164 163 163 164 165 165 185 195 196 196 197 196 197 198 198 183 155 193 209 128 151
203 196 195 194 194 193 192 193 193 191 192 192 188 181 181 193 194 197 193 195 192 182 184 186
191 195 188 180 198 190 200 198 189 175 195 201 193 198 196 200 198 196 180 193 193 193 193 191
193 193 193 193 192 192 192 192 191 191 191 191 191 190 190 190 190 189 189 189
164 164 164 164 163 163 164 165 165 185 195 196 196 197 196 197 198 198 183 155 193 208 128 151
203 196 195 196 195 194 193 194 191 188 190 192 194 185 177 184 196 202 193 192 176 183 189 187
180 162 179 194 181 193 162 135 141  88 124 194 199 203 193 194 196 196 182 190 191 193 195 194
193 193 193 193 192 192 192 192 191 191 191 191 191 190 190 190 190 189 189 189
164 164 164 164 163 163 164 165 165 185 195 196 196 196 196 197 198 198 183 155 193 209 127 152
202 196 195 195 194 193 193 190 191 193 196 202 203 200 194 181 181 184 190 184 177 192 187 177
142 109 116 167 163 116 126 198 149  82  71 140 177 170 185 205 197 188 185 194 194 193 192 190
193 193 193 193 192 192 192 192 191 191 191 191 191 190 190 190 190 189 189 189
164 164 164 165 164 164 165 165 165 187 197 196 197 197 197 197 198 198 183 156 193 207 131 148
205 194 196 191 189 191 188 187 187 195 186 143 130 148 183 186 161 154 173 154 149 150 111 111
 81  53  23  63  84 117 189 180 122 145 139   7 152 186 152 160 193 179 190 196 189 193 197 194
194 194 194 194 193 192 192 193 192 191 191 191 191 190 190 190 190 190 189 189
165 165 165 165 165 165 165 165 166 189 198 195 198 198 198 198 198 198 183 157 192 206 130 156
203 191 192 189 189 185 182 180 191 181  83  68  81  32  62 144 119  76  67  83  74  56  38  34
 40  73  99  43   0 137 132  50  95 156 109  68  77 187 176 124 166 188 191 187 186 186 197 191
189 193 193 190 191 193 193 193 192 191 191 191 191 191 191 191 191 190 190 190
165 165 165 165 165 165 165 165 166 189 198 196 198 198 198 198 198 198 183 157 192 207 130 152
200 191 190 188 176 177 184 192 186  97  76 135 143  80  36   1  36  34  43  43  45  46  68  59
 49  30  63  59  54 101 126  68  44  48  63  74  53 105 155 166 138 167 176 161 131 118 120 167
196 193 191 194 195 192 193 193 192 191 191 191 191 191 191 191 191 190 190 190
165 165 165 165 165 165 165 165 166 189 198 196 198 198 198 198 198 198 184 157 192 207 133 147
207 181 172 184 200 188 187 171 101  68  83  57  36  70  68  44  47  39  33  29  34  39  46  35
 42  38  33  29  33  48  67  62  65  39  55  70  69  20  78 120  96 164 138  81 104 113 103  62
156 195 194 190 193 193 193 193 192 191 191 191 191 191 191 191 191 190 190 190
165 165 165 165 165 165 165 165 166 189 198 195 198 198 198 198 198 198 182 157 192 206 134 147
162 146 174 165 156 153 142 105  31  75  76  78  58  54  44  40  58  70  75  71  46  28  21  27
 26  22  25  27  36  34  44  56  57  34  69  95  65  48  22  42  76  74   5  17  19  15  16 106
 93 157 192 191 192 193 193 193 192 191 191 191 191 191 191 191 191 190 190 190
166 166 166 166 166 166 167 167 169 190 198 195 197 195 195 196 197 196 182 158 183 198 141 107
122 126 114  91  52  50  35  34  68  64  52  38  37  33  37  38  50  57  83  89  69  46  34  26
 25  42  41  26  27  22  33  46  46  35  49  54  63  53  49  61  78  69  58  67  92  65  86  56
  0 114 175 179 187 193 193 192 192 192 192 192 192 191 191 191 191 191 191 191
166 166 166 166 166 166 167 167 169 190 198 195 197 194 193 194 196 196 179 149 180 196 141  55
 79  41  39 114 107  72  47  32  40  54  43  20  60  50  45  54  51  52  49  49  49  57  35  19
 16  20  22  25  32  29  29  30  38  50  37  54  73  42  41  35  41  33  17 112 178 148 161 124
  0  93 123 176 191 193 193 192 193 192 192 192 192 191 191 191 191 191 191 191
166 166 166 166 166 166 167 167 169 190 198 195 196 196 197 198 199 200 176 149 197 197 113  34
 27  28  18  38  62  44  31  27  28  39  39  40  72  75  77  60  38  35  25  39  32  35  26  23
 40  48  27  48  59  55  41  17  25  49  39  44  51  41  26  48  50  34  38  66 162 188 149 145
 82  71  14 161 193 192 193 192 192 192 192 192 192 191 191 191 191 191 191 191
166 166 166 166 166 166 167 167 169 189 199 195 196 196 197 198 200 199 172 158 178 174  88  22
 45  11  22  23   4  46  46  32  21  32  48  74  69  54  73  43  33  70  64  58  35  31  34  35
 63  67  28  43  74  86  73  55  19  45  54  33  45  37  18  43  53  34  27  17 134 145  79   7
 61 104  87 176 189 193 193 192 193 192 192 192 192 191 191 191 191 191 191 191
166 166 166 166 167 167 167 167 171 193 197 196 196 198 197 196 199 196 158 135 131 120  62  29
 21   3  45  67  52  30  37  43  40  42  44  87  74  55  66  53  55  48  56  27   8  18  15  32
 67  56  10  60  77  78  68  34  27  29  37  31  41  25  27  25  29  42  48  49  44  30  50  47
 55  77  68 182 194 191 195 191 191 193 193 194 194 192 191 191 191 191 191 191
167 167 167 167 168 168 167 167 172 192 194 196 197 198 200 197 187 154 140 123  94  93  53  22
 37  74 103  99  63  46  31  41  41  27  27  71  78  64  62  71  46  59  53  56  58  61  54  62
 52  34  30  35  20  10   0  12  35  25  12  21  28   5   2  25  17  49  59  56  44  38  38  32
 55  77  80 109 186 193 188 192 191 192 193 194 195 192 192 192 192 191 191 191
167 167 167 167 168 168 167 167 171 190 195 199 199 196 188 200 139 136 134  96  53  86  73  42
 56  52  67  57  82  88  73  44  15  19   7  57  77  35  41  43  50  51  77  91  89  73  60  91
 87  34  30  17  20  21  23   5  58  41   0  21  27  53  72  50  37  22  30  83  53  38  24  34
 49  42  84 101 107 166 190 195 192 190 191 192 193 192 192 192 192 191 191 191
167 167 167 167 168 168 167 167 171 192 198 200 196 195 190 180 176 176 143 107 117  83  69  45
 26  31  67  65  71 103 114  82  68  25  22  32  39  29  27  49  35  39  30  55  84  81  72 116
146  83   0  23  24  28  16  41  88  32   2  29  41  58  62  56  56  42  57  83  65  30  37  25
 18  37  79  85  80  76 137 180 190 191 191 193 194 192 192 192 192 191 191 191
167 167 167 167 168 168 167 167 171 191 195 195 188 182 189 174 195 183  68  69 114  78  51  28
 20  55  64  57  51  61  56  52  72  73   4  20  49  39  53  22   0  15  51  59  71  79 116 145
150  95   0  28   0  15  38  42  55  27  29  34  22   9  16  39  36  36  48  53  40  36  24  26
 39  41  23 131 139  62  25 147 184 197 195 192 194 193 192 192 192 191 191 191
168 168 168 168 169 170 171 168 170 190 192 191 183 183 175 189 187 144  63  53  43  50  39  26
 32  61  41  55  54  24  16  37  29  44  41  77  67  43  39  56  86  46  65  78  71  70  63 141
153  66  74  16  75  89  49  39  36  13  32  31  27  30  30  36  29  12  46  56  22  23  15  16
 42  46   0 109 113  38  95  89  90 165 199 196 194 194 194 193 192 192 192 192
168 168 168 168 169 170 171 168 167 193 198 187 157 177 173 177 114  58  49  72  63  34  35  28
 39  51  37  32  31  65  33  25  41  29  34  66  35  40  12 106  76  37  54  83  85  50  28 101
133  85  77  52 106 113  69  38  38  20  26  17  14  45  35  28  28  21  39  35  33  27  10  26
 26  29  49  31  22  30  60  59  62 108 189 195 197 194 194 193 192 192 192 192
168 168 168 168 169 170 171 169 166 186 186 197 155 175 182 176  86 128  49  93  52  36  31  28
 38  38  35  58  63  81  67  32  37  37  39   3  20  37  54  69  47 112  95  76  65  37  64  41
134  92  26  92  94  61  46  29  28  27  35  25  20  13  16  22  16  23  24  33  33  40  24   0
 42  43  28  60  56  58  37  86  46  63 192 196 194 194 194 193 192 192 192 192
168 168 168 168 169 170 171 169 167 188 189 200 156 161 187 179  73 165 106  55  34  15  83 101
 28  43  31  24  71 104  65  31  44  36  32  32  28  54  68  15  97 108 136 125  56  45  80  42
118  58  65  80  47  59  58  25  17  15  34  37  37  45  34   4  24   7  24  43  22  37  41  53
 45  40  27  34  39  64  71  43  94 105 183 196 193 194 194 193 192 192 192 192
168 168 168 168 168 169 170 168 168 183 196 193 173 158 179 172 104  78 102  40  33  53 127 120
 63  46  35  28  12  12  34  37  39  81  79  37  59  64  57  54  79 104 111  89  16  83  73  33
 34  44  50  40  96  57  28  21  20  23  61  46  45  56  42  46  79  69  37  37  32  31  36  47
 63  45  40  41  39  53  45  46 147 126 181 200 195 193 193 193 193 193 193 192
168 168 168 168 168 168 169 167 167 178 183 190 176 106 126 153 149  76  45  39   2 107 139 113
 93  78  64  48  37  38  33  39  63 122 142 126  80  72  62  42  55  62  55  46  67 108  82  29
 33   0  63  82  71  37  19  31  25  36  74  63  51  12  30  54  72  85  52  36  34  32  40  78
 82  50  39  48  59  47  47  77 100 111 199 195 193 194 193 193 193 193 193 192
168 168 168 168 169 170 170 167 165 187 184 187 148   0   0   0  53  79  36  10  55 134 145 114
 89  94  91  81  82  63  61  57  82 123 138 137 120 102  80  62  32  50  66  71  84  73  50   0
 82 125  50  58  59  71  26  50  65  22  48  79  49  12  20  36  42  31  24  40  52  38  54  79
 65  52  28  28  54  42  43  59  81 126 183 169 196 192 193 193 193 193 193 192
168 168 168 168 170 171 170 168 157 120 143 129  69  81 100  68  76  63  22  26 112 146 138 107
 92  92  81  76  85  92  69  59  79  99  94  91 106 123 113 121  76  45  88  83  69  53  31  35
 16  94 103  73  92  85  41  66  73  61  45  68  39  27  42  46  30  32  27  24  47  49  61  49
 31   9  28  29  39  48  31  41  47 155 161 163 192 193 193 193 193 193 193 192
168 168 168 168 170 172 170 166 163  94  62 100  71  73  79  69  65  27  17  77 132 148 138 108
 94  93  82  85 114 102  65  74  93 128 144 144 140 146 131 128 118  62  29  29  17  28  49  86
116  63  51  65  83 104  74  24  57  75  78  72  55  34  64  55  32  48  38  37  38  41  35  33
 24  21  34  11  32  76  25  53  46 115 171 164 189 195 193 192 193 193 193 192
167 167 168 169 168 170 169 164 169 177 132 104  71  67  38  65  38  38  57 113 140 148 143 110
 93  94 112 119 100  77  80  99  88  95 134 162 161 139 129 147 137 109  73  55  48  51  92 130
141 101  83 109 104  94  94 101 119 108  83  55  44  51  56  34  65  60  48  39  27  41  55  58
 41  26  12  50  51  65  76  46  67  72 120 136 179 190 196 190 195 194 194 193
167 167 168 169 169 168 164 163 170 191 195 168  78  48  42  54  56  66 105 134 144 147 149 117
101 126 144 128  87  79  96 109 115  92 125 165 166 149 134 147 107  89  91  96  93  89 101 108
 87  77 132 159 156 134 105 100  79  88  90  42  29  40  48  68  64  60  61  49  28  52  42  52
 34   0  41  81  57  32  55  67  78  72  57  88 150 196 191 194 194 195 194 193
167 167 168 169 169 167 163 161 171 190 156  97  58  52  41  44  67  95 126 137 143 147 149 131
130 152 149 110  93  96  94  96 103  97 144 176 176 168 139 110  96  99 109 117 118 145 154 100
 77  90 126 147 145 124 103  87  74  94  96  59  43  32  55  73  69  73  73  38  41  52  31  44
 39  36  60  68  68  47  43  39  59  68  11 114 144 192 199 198 192 194 194 193
167 167 168 169 170 171 165 158 165 189 121  18  85  74  42  36  69 114 131 136 145 150 148 148
148 154 137 101  94  95  96  99  94 121 163 177 175 170 157 147 139 141 141 152 167 176 158 130
 96  92  78  94 109 110 112 112  96  99 100  72  63  29  45  70  64  59  40  43  48  32  38  47
 49  55  47  35  69  57  57  70  60 107  72  91 171 170 201 194 197 194 194 194
166 167 168 170 164 163 175 160 165 192 183  95  85  89  49  33  78 122 131 142 147 153 153 154
151 148 133 103  96  98  96  99 111 143 163 168 172 165 157 169 169 169 169 170 172 171 157 153
131 109 105 105 109 125 122 119 109  96 102  74  77  47  38  41  49  47  53  60  45  36  21  44
 51  39  28  22  41  61  54  54  44  67 135  63 149 165 193 183 187 196 196 191
166 167 168 172 154 105 133 167 172 189 179 146  67  66  47  18  94 122 131 148 152 156 158 157
157 154 139 111  96  99 103 115 130 145 156 163 164 160 152 163 169 166 164 164 165 166 159 161
151 127 116 111 111 117 117 109 103 101 108  75  53  46  50  40  59  64  57  62  60  40  21  36
 46  42  37  26   5  36  58  60  64  62  91  58 112 161 186 186 185 186 195 193
168 168 168 168 169 150 125 141 165 181 172 162  85  37  46  42 109 127 139 153 159 158 160 161
163 162 138 106 109 117 126 137 145 149 151 154 157 152 150 161 166 165 161 160 159 154 149 156
157 151 145 135 116 108 108 107 111 117 128 118  64  44  79  73  64  60  65  72  63  47  45  41
 39  35  39  32  27  24  25  55  70  72  64  51  86 164 198 189 195 190 187 197
169 169 168 167 166 171 151 113  98 132 171 114  40  36  43  60 108 132 153 155 159 157 159 158
159 156 126 109 121 123 124 129 135 137 139 145 150 143 148 159 162 159 153 150 149 145 144 146
146 147 151 157 147 137 129 137 144 148 147 133 102  59  50  80  85  81  87  84  72  56  68  37
 19  29  26  33  30  27  19  20  19  46  54  32  47 103 189 192 191 195 183 192
170 169 168 167 162 165 161 136 125 136 107  49  60  59  41  71 118 143 147 140 140 140 133 125
124 117  87  88  94  92  99 104 111 118 126 135 142 136 143 154 154 150 142 138 135 131 130 127
122 123 125 136 142 145 143 155 162 162 155 126  96  99  71  51  60  81  91  78  86  65  84  66
 18  28  24  36  30  33  41  52  50  58  55  52  67  67 175 199 193 199 185 188
168 170 169 167 165 160 154 115  95  93  70  68  58  52  36  86 126 132 121 111 105 103  90  82
 78  69  66  68  67  69  72  78  88  98 109 120 132 131 139 151 148 145 134 124 120 115 109 107
106  97  93  95  99 106 118 128 138 144 137 102 123 129 127 112  82  85  79  71  79  68  74  78
 36  32  31  37  32  21  33  28  36  56  67  76  56  69 125 196 194 194 192 192
168 169 168 167 161 167 146  90  81  68  64  54  38  48  44  96 126  98  91  78  74  77  74  68
 65  65  65  60  59  59  61  66  75  83  95 109 116 122 141 144 144 139 129 119 112 105 102  99
 90  85  82  79  77  79  84  93 103 109 113 106 119 120 119 117 112 105  95  86  81  73  54  62
 53  49  47  21  22  24  34  39  59  57  83  73  64  81  31 145 189 187 192 192
167 168 167 165 164 152 100  73  43  48  64  42  37  52  37 102 103  79  77  80  87  85  88  86
 78  75  74  68  65  63  63  65  69  74  84  97 105 124 145 148 145 138 127 115 109 105 103  99
 90  84  81  75  73  71  69  75  82  88  95 102 108 106 100 100 115 111  98  89 100  90  68  37
 42  67  52  32  42  56  49  11  56  56  71  67  71  63  65  86 191 193 191 192
166 167 167 163 168 118  58  78  60  79  77  59  66  37  55 115  93  90  92  92  96  93  90  90
 88  84  81  78  73  70  69  68  68  67  74  83 106 136 151 160 151 143 132 120 113 110 103 102
 99  98  96  92  90  89  86  85  86  91  90  92  92  93  86  90 106 113 105  93  99  94  56  16
 40  39  27  53  47  58  60  26  42  70  66  83  85  45  75  59 176 201 191 192
167 166 166 167 159  97  73  79  78  88  83  70  66  10  80 114 103  99  95  98  92  94  94  92
 92  90  85  82  78  70  68  70  69  66  73  78 118 147 158 170 164 148 133 120 116 110 107 105
104 100  94  96  96  98 105 105 106 111 112 111 111 105  95  86  89 103  96  91  92  93  58  30
 39  52  38  38  53  41  45  45  29  61  90  99  81  60  63  52 121 195 184 189
167 164 164 166 159 102  94  94  87  61  58  36  52  20  97 113 105 102  97  94  96 112 122 118
109  96  81  77  73  68  69  71  66  61  67  79 130 158 168 175 171 156 141 119 112 109 107 102
 97  93  86  91  93  96 100 107 111 115 117 116 118 121 121 111  98  98  96  89  93  87  78  33
 12  40  49  53  52  44  33  31  20  54  77  69  60  59  64  49  74 175 195 182
166 163 163 166 144 107  79  57  72  70  31  32  42  27 116 118 103 100  94  98 114 124 118 112
111 109 100  79  69  64  63  62  63  64  59  79 141 166 176 175 171 163 149 119 103 106 103  96
 87  80  77  82  87  98 113 133 143 142 136 126 119 121 121 120 114 103 100  96  87  90  81  37
 14  27  39  53  42  33  25  24  16  44  69  81  69  55  64  63  80 152 192 192
167 164 163 170 126  88  83 100 103  74  46  30  30  49 120 112  99  96  94 103 104  98 109 123
136 137 123  93  73  63  56  52  58  67  55  86 152 167 177 177 169 160 145 112  94  93  93  86
 75  71  74  79  87 116 143 142 138 136 138 135 131 122 113 118 124 120 115 108  95  98  80  54
 54  54  44  40  39  26  17  24  16  40  39  50  69  78  85  79  68 146 175 198
168 165 166 169 140  84  82  97  72  51  82  36  32  73 119 106  98  95  90  87  90 113 123 121
118 120 118  96  73  67  63  59  56  57  54 104 162 168 177 179 167 152 136 107  86  82  86  76
 66  63  72  84 100 126 148 155 151 130 117 120 124 119 115 117 116 120 120 114 110  97  87  64
 65  68  68  49  33  39  28  21  17  35  26  37  49  41  56  68  64 103 131 192
168 164 167 166 130  83  90  77  38  58  58  44  30  87 122 103  97  91  84  92 105  98  90  83
 68  57  55  51  48  55  64  57  66  63  55 129 164 168 175 172 161 144 129 110  85  76  76  66
 71  80  79  83  94 103 122 136 141 138 132 120  99  98 112 115 115 117 119 119 109 105  92  75
 70  77  71  53  31  35  39  38  41  30  34  42  52  50  43  41  93 144 142 160
167 165 165 164 134  75  75  84  56  57  42  39  24 107 125 102  97  87  86  95  81  49  50  50
 14   0  65  47  25  52  63  46  44  70  83 142 163 168 173 167 151 136 131 123 104  80  83  92
 78  73  73  74  71  66  77  86  96 108 115 118 108  91  90 103 112 118 118 119 115 110  98  83
 74  77  67  50  27  31  33  47  50  30  35  60  58  51  38  67  66 149 182 154
165 166 163 162 137  79  60  50  57  74  33  35  34 122 130 108  98  88  82  69  45  39  68  69
 36  37  18  21  18  53  67  75  57  84 113 149 162 168 170 159 144 133 135 136 124 108 103  86
 60  52  58  74  61  39  20  28  68  57  62  87  98  94  91  90 104 113 115 116 116 111  99  89
 81  81  72  55  26  29  36  48  31  29  70  57  38  41  36  35 108 174 164 170
163 167 161 161 134  63  57  30  53  66  34   1  57 135 140 125 101  95  87  71  53  48  53  63
 45  39  50  81  92  92  84  88 100 114 130 153 162 169 168 152 145 138 140 144 136 125 120 116
104 101  93  84  58  26  49  38 114  57  70  68  52  69  87  88  95 106 113 115 117 112 101  92
 77  81  76  64  51  39  53  75  48  32  42  33  47  42  34  30 125 174 162 187
168 165 157 163 125  57  58  41  45  43  42   0  90 149 149 142 126 123 123 104  82  68  67  71
 74  79  92  99  91  91  93 103 119 130 143 156 165 168 163 150 144 141 141 144 142 134 133 132
122 106 101 113 107  81  49  46   6  52  85  69  46  37  54  80  93 100 110 114 121 117 107 100
 88  82  68  52  53  29  33  61  49  32  40  54  50  37  60  63 163 139 168 198
164 166 164 161  87  61  66  46  40  44  38   0 112 156 156 158 153 150 145 134 114  94  92  97
 92  88  87  84  90 107 128 136 137 136 143 158 167 166 160 150 143 142 142 144 144 138 139 141
139 132 106  88 101 108  96  87  80  70  73  72  70  70  68  74  85  91 106 112 123 123 111 102
 94  89  75  53  32  45  47  45  42  59  80  50  23  40  68  57 134 122 179 201
164 161 162 139  55  70  80  69  37  47  27  41 131 156 159 162 158 156 154 150 137 121 109 107
106 102 107 124 138 146 140 144 144 140 151 163 169 166 159 149 144 142 142 144 146 145 146 150
146 152 148 125  99  93  95 103 105 102 100  98  97  97  99 107 111 110 110 117 129 133 118 105
100  96  87  63  45  40  41  51  49  53  78  95  84  64  63  29 114 162 180 194
163 166 163  87  58 115  97  59  51  55   9  66 145 157 165 165 160 159 159 158 155 149 147 150
151 150 154 154 150 147 148 146 140 147 163 170 171 166 157 148 142 140 140 142 144 146 148 153
151 155 163 158 142 127 113 106  99  98 100 108 119 126 131 139 146 149 144 138 140 142 127 115
109  98  95  74  48  46  40  48  56  40  42  86  91  71  55  78  75  75 127 175
155 153  93  61 120 124  91  53  56  54   0  88 151 158 163 166 165 163 160 160 162 164 166 167
164 160 159 155 153 152 154 149 145 156 169 173 172 163 157 150 141 137 138 140 142 143 148 157
161 159 162 167 162 154 154 146 138 133 128 134 144 151 156 160 157 159 158 154 150 148 134 122
117  99  97  84  46  28  41  45  31  31  38  26  50  53  49  61  80  91 112 102
 98  85  24  81  91  77  70  62  64  56   0 102 150 160 163 165 166 164 162 163 165 166 166 165
162 160 159 158 159 160 154 145 151 164 180 194 180 164 164 155 142 136 137 140 141 146 149 154
164 166 166 167 163 160 159 160 161 162 159 158 160 162 163 162 162 162 162 161 156 152 144 126
126 108  95  89  57  39  49  48  12  21  50  70  72  63  45  52  79 107 127 161
108  50  72  79  98  91  86  93  56  54  14 113 155 160 162 164 164 163 163 165 167 169 169 168
167 165 165 164 162 161 153 151 159 168 180 191 188 173 166 154 148 141 135 137 139 145 151 157
165 165 167 172 171 168 166 167 168 169 170 169 166 164 163 165 165 165 165 161 159 156 153 134
127 120 100  91  60  41  47  39  10  23  51  75  94  67  37  47  98  87  68 103
108 103 103 126 128  95 135 111  46  52  34 125 154 154 158 160 161 159 161 164 167 170 170 170
170 169 169 169 165 161 150 151 161 165 167 173 173 167 163 155 151 144 137 136 135 141 151 158
165 167 171 176 176 175 175 172 168 165 166 167 167 167 167 165 166 166 165 162 162 157 157 143
128 124 107  92  66  43  46  37  23  27  26  39  65  74  60  65 122 146 131  64
 98 130 117 132 115 106 127  54  51  47  45 130 145 146 154 155 155 155 158 161 166 169 170 169
170 170 171 171 166 158 147 138 146 154 160 164 164 162 158 152 148 145 144 139 130 137 149 156
162 169 174 177 176 174 175 173 170 169 167 166 166 166 165 165 165 165 165 161 162 155 153 148
127 120 113  93  64  35  39  39  30  25  36  51  57  46  60  62  80 168 165 143
 67 124 128 126 103  91  62  56  58  50  50 128 141 146 151 152 154 155 160 163 167 171 172 172
171 171 171 172 163 158 134 125 126 144 144 149 158 155 153 139 138 137 144 140 136 136 146 158
161 170 174 177 177 175 173 173 172 172 168 165 164 162 162 163 163 162 161 162 161 155 149 147
133 115 114  97  59  38  36  39  54  37  42  44  54  61  60  58   0 146 167 150
 83 112 120  99  74  61 100  73  55  56  41 123 139 144 149 151 154 157 163 166 170 173 173 173
172 171 170 168 163 154 125 112 113 128 126 132 139 143 133 129 125 128 136 144 144 135 146 159
163 171 175 177 178 177 175 175 173 173 169 167 165 164 162 160 160 159 158 158 155 151 144 142
134 114 110  96  60  37  28  32  55  73  53  23  35  27  39  42  36  79 150 115
106  61 105  81  52  75  78  55  64  53  27 118 137 140 146 150 155 159 166 167 170 173 173 173
172 171 169 164 164 145 121 113 114 119 125 122 124 133 128 120 115 127 132 142 139 135 146 160
165 172 175 178 178 178 177 177 176 175 171 168 166 164 161 157 157 156 155 153 152 148 142 141
135 116 109  97  58  31  32  20  19  53  51  39   8  44  33  45  75 107 137 109
104  67  63  52  52  87  76  74  68  45  36 115 136 138 143 149 156 161 166 167 169 170 172 173
172 171 170 166 163 134 124 103  53 109 124 122 123 130 107  67  35  85 129 133 142 136 147 161
167 170 172 176 176 176 177 176 176 175 173 170 167 163 160 156 156 155 155 152 151 148 143 140
133 116 105  95  56  43  37  29  21  47  72  73  63  48  63  71  25 127  85 123
 99 100  74  75  97  84  65  73  73  40  34 113 131 136 142 149 156 160 165 166 168 169 172 174
173 171 171 168 165 126 124 101  31  40 118 123 124 119  90  83  28   7 101 130 135 132 147 165
168 169 171 173 174 175 176 175 174 173 173 171 167 164 161 159 157 156 155 149 148 147 142 137
127 113  99  88  60  65  22  54  37  17  62  79  94  85  88  64  30  93  90 105
109 100  81  70  69  44  68  87  67  46   0  90 128 135 141 149 155 158 164 166 169 172 173 173
171 169 170 170 164 131 121 106  73  57 108 118 120 121 117 110  78  79  96 124 131 126 148 166
167 171 172 173 174 175 174 176 175 171 172 171 168 166 164 161 158 154 152 149 147 146 135 132
126 112 100  83  47  80  45  37  35   9  37  54  67 100 101  83  80  64  53  65
129 106  62  37  64  87  95  85  50  31  41  99 127 134 140 149 156 160 164 166 169 171 173 170
164 165 168 169 162 146 112 105  86  89 102 113 120 122 119 114 107 109 110 120 118 123 158 163
169 174 172 173 173 173 175 176 175 172 171 170 167 164 162 159 157 153 150 148 146 143 130 129
127 102 101  77  23  81  55  14  30  17  42  37  42  65  81  89  83  90 107  87
101  83  58  54  74  95  90  75  43  41  66  97 122 132 140 149 157 161 164 166 169 171 172 168
162 163 165 165 167 148  88  81  78  94  94 106 117 115 111 108 101 101 103  98  88 113 166 172
171 174 173 173 172 173 175 176 175 172 170 169 166 164 162 159 157 153 150 146 145 146 137 133
120  97  97  69  23  73  33  32  29  21  30  40  34  44  66  94 119 120 104  73
102  92  69  44  20  41  36  70  95  49   0  62 123 133 138 148 158 162 164 166 169 172 170 168
167 165 164 163 165 133  87  86  84  96 106 110 114 113 111 113 100  88  88  82  83 119 163 168
170 174 175 173 171 172 175 176 175 172 170 168 165 162 162 162 158 154 152 149 148 146 136 129
111  98  92  63  29  63  40  67  28  29  35  52  48  48  38  51  93 109  98  97
122 111  86  62  56  36  48  76  74 122 115  46 119 134 140 149 158 162 164 167 169 170 169 168
167 165 162 163 164 135 103  98  98 104 114 116 114 114 118 112 106 102 100 100 105 134 162 163
169 173 172 173 173 173 173 174 173 173 172 170 167 165 163 160 158 155 153 152 147 144 136 126
107  98  88  66  53  64  46  74  57  30  44  61  54  23  43  63  74  97 114 108
109 114 114  87  68  41  48  98 133 137 133   8 111 137 143 150 156 159 162 165 167 167 166 166
164 162 161 162 161 153 136 119 108 106 115 120 116 113 118 115 110 113 121 131 141 158 161 161
169 171 170 172 173 173 173 173 173 173 172 171 168 165 163 160 158 155 153 152 148 144 136 124
107  97  88  74  62  75  48  55  58  20  50  40  28  23  48  49  70  93  87  85
102  99 110  75  73  43  81 113 118  71  21  67 109 133 142 149 154 156 159 162 165 164 165 166
164 162 161 158 153 156 151 137 122 114 117 121 119 112 120 126 129 134 143 155 163 163 160 166
166 167 169 170 171 171 172 172 172 172 172 170 168 165 163 161 159 156 154 152 149 144 133 117
100  95  88  80  70  82  76  54  40  18  47  27  42  33  32  48  77  78  85 131
137  91  69  41  67  50  63  35 106 149  92  80 102 133 136 144 151 154 157 160 162 162 163 163
160 158 158 158 156 152 149 145 140 135 128 122 118 111 127 145 152 153 154 158 160 156 160 165
164 166 167 168 169 170 171 171 171 171 172 171 168 165 163 163 160 157 155 153 151 145 130 113
104  96  74  53  62  77  89  64   1  29  51  35  44  41  37  30  66  75 100 112
154  89  33  59  50  67 109 105 109 140 139  59 106 125 133 142 149 153 155 158 161 160 157 156
156 154 151 151 155 150 146 149 152 157 146 122 110 109 135 161 164 161 159 157 157 158 161 161
162 165 165 166 168 169 169 170 171 171 171 170 168 165 164 163 161 158 155 152 150 144 127 109
 99  94  68  45  51  63  75  53  22  46  43  41  25  61  95  45  48  67 104 133
122  51  63  75  64  37 112 160 160  97  94  76  94 126 133 143 146 149 150 154 156 153 147 148
152 152 151 151 150 152 154 155 156 167 166 145 121 133 159 171 166 162 159 160 159 156 160 161
160 160 162 163 164 165 165 166 169 170 169 168 167 166 165 162 162 159 155 150 146 139 124 108
102  95  63  60  54  44  51  43  50  14  41  38  57  58  56  55  44  47  76 149
101  28  60  86  71  62  36 120 168 119  32  41 105 124 131 140 144 147 147 150 149 145 142 143
146 149 149 148 148 152 158 158 157 156 164 177 171 167 167 159 159 165 166 162 158 158 155 156
159 160 160 160 160 161 163 164 166 168 168 167 166 165 164 163 163 160 156 150 144 136 122 109
108  92  53  57  51  52  47  36  20  14  24  32  53  35  58  45  42  43  48 102
 87  31  51 107  73  70 111  78 104  37  73  87  88 121 128 137 141 145 148 150 147 141 139 140
140 143 143 142 150 150 143 132 129 121 125 148 159 144 134 132 132 145 160 159 154 154 150 150
152 155 156 157 159 159 160 161 163 165 166 166 165 164 163 162 162 159 155 150 142 132 120 109
106  85  51  55  51  42  40  32  12  19   3  34  24  36  75  64  22  58  53  33
 78  50  93  84  55  55 124  90   0  56  99  94  53 114 127 135 139 143 148 148 144 136 136 135
131 131 134 137 133 122 109 106 109 111 111 112 114 116 115 118 118 118 125 136 144 149 150 148
144 144 147 151 155 157 158 159 161 162 165 166 165 164 162 159 159 156 152 149 140 130 118 110
107  83  62  53  45  44  43  29  48  21   2  25  32  57 105  41  36  49  39  24
 62  95  80  80  66  71  53  93 117  80  95  58  42 117 124 136 143 145 148 147 144 138 134 128
122 122 123 114 102 101  97 104 107 109 107 106 108 112 111 112 118 114 110 116 117 123 132 140
138 134 139 147 151 152 155 158 160 166 165 163 163 162 161 160 158 154 151 145 138 128 117 112
106  84  82  71  73  47  33  41  42  19  21  31  33  35  62  38  28  57 117  71
 86  98  81  67  83  78  86 154 158 134  54  79 131 117 123 135 137 145 148 148 145 139 131 120
118 111  90  82  78  81  76  77  81  89  95  98  99 102  94  94  94  90  92 100  97  94  96 109
120 126 128 133 142 149 153 157 158 162 164 162 162 161 160 159 156 152 150 144 137 127 117 114
102  91  93  83  76  67  34  24  58  27  68 110  30  27  33  43  33  59 104 102
111 106  99  68  39  12 104  95  71 104  64  81 119 112 124 131 130 143 146 148 145 137 126 120
105  72  45  48  63  76  84  80  76  76  75  73  53  56  79  79  88  91  85  89  87  86  75  68
 64  72  94 120 134 142 154 159 160 162 163 162 161 160 159 156 153 149 147 141 135 126 117 114
 90  34  45  42  11  40  51  41  33  24  37  71  51  16  26  48  53  64  92 129
 98 103  61  58  67  35  35 123 137 177 121 138 103 113 124 128 131 141 144 148 146 135 122 114
 90  68  74  95 107 117 130 131 135 142 148 149 134 128 147 155 154 147 137 136 129 125 113  98
 81  70  66  84 116 137 148 157 161 162 161 161 160 159 158 153 151 147 144 139 133 125 117 113
 70   0  35  66  18  56  39  60  19  28  26  15  38  50  92  49  47  49  96 113
119  88 100  86  42  39  82 155 177 135 114 145 141 121 118 126 134 140 142 148 145 136 129 118
109 115 122 126 123 115 116 119 125 131 136 138 137 143 142 138 135 132 130 133 130 126 128 132
133 133 120  98 101 123 140 152 157 160 162 160 159 158 155 152 150 146 143 137 132 123 121 109
 50   8  28  48  64 118  87   0  45  27  48  74  58  78  29   4  39  51   0 119
 95 100 150 154 119   0  88  92 139 138  82 106  64  52 111 123 128 136 139 143 142 138 133 137
140 136 129 123 123 122 120 117 118 120 122 124 125 126 127 128 127 126 126 125 126 130 135 139
140 141 152 144 127 129 140 150 155 161 165 161 160 159 154 151 150 146 142 136 131 121 121  98
  0  10   8   4  50  86  52  27  30  13  56  53  40  94 121  60  22  47 116 114
 85 129 161 163 114  31 127 117  69  80  51  51  82 165 138 110 125 127 133 137 140 139 139 143
145 138 129 122 121 120 122 120 118 119 118 119 122 122 123 124 124 126 129 133 134 135 141 145
147 151 156 160 157 147 143 150 154 159 161 157 158 158 153 150 149 145 139 137 128 124 117  72
  0  13   7   0  13  22   0  20  22  33  34 114 106  64 131  88   0   0 109 131
 93 111 153 147   1  90 147 141  84 111 130  60 148 180 103 115 119 125 128 132 136 139 145 146
142 140 139 132 119 111 115 118 118 117 116 116 117 118 119 119 121 125 129 134 136 136 144 153
157 159 156 158 159 154 149 149 154 157 153 150 151 152 149 148 147 143 138 130 125 122 106  26
  5   4  14   6   4  13  12  14  21  30  56  80  93  52   0  23  25  43  12  78
135 104 114 109  12 136 157 130 104 154 142  62 168 104  43 114 114 120 124 125 128 132 136 141
143 140 135 133 130 123 115 115 117 117 118 118 115 116 117 117 122 126 130 134 138 145 149 153
153 153 157 160 161 161 153 149 154 155 151 148 150 152 149 146 145 141 136 129 123 118  74   0
 14  11  15  15   7  12  19  21  17  19  53  42   0  34  47  35  34 103  68  67
134 144 109  81  58  85 115 100 150 179  66  94 142  22  38  89 116 117 119 122 123 129 134 137
139 137 133 129 127 125 120 114 113 116 117 113 114 116 116 118 121 126 131 137 143 148 148 148
148 152 155 158 160 161 155 151 150 152 152 151 150 148 149 148 142 139 135 130 121 105  19  19
 17  18  19  16   4   2  26  18  13  19  77  88  67  49  31  44  50  87  25 115
109 117  57  97 105  73  88  85  50  84  71 152 141  40   4  60 118 113 118 120 122 127 131 132
133 132 130 125 122 121 119 116 116 118 118 114 116 119 118 121 121 125 131 136 142 144 145 148
150 152 156 159 159 157 155 151 150 154 151 149 147 145 144 142 137 136 131 125 117  42   0  32
 20  20  19  29  17   7  24  39   8  37  63 110  99   3 117 133  29  41  81 154
 95  71  77 119 125 102 120 152 140  24  66 109 146  82   0  28  98 119 116 118 118 123 127 130
132 132 131 129 126 127 124 120 118 119 118 114 116 119 118 121 124 129 133 137 142 142 145 148
151 153 155 157 157 154 150 146 146 150 147 145 143 141 141 139 137 135 127 122  79   0  25  13
  7  25  11  34  37  17  27  49  31  14  57 128 101  25 143 101  73  81 124  92
 97 112 131 154 117 109 143 151  93  75 103 103  66  12  31  24  61 114 115 116 116 119 126 129
132 133 133 131 128 130 129 125 122 124 122 116 119 122 122 124 128 134 136 139 145 147 148 150
151 154 156 156 155 153 150 144 140 143 143 142 140 138 138 139 137 129 125  94   0  18  19  33
 28  18  15   2   9  25  16  18  46  34  52 115 123  81  70  66 109 117  93  64
141 146 125 151 125 145 156 131  54 117 154 124  99  53  33   5   0  89 118 113 113 115 120 127
130 130 132 138 138 139 138 136 132 128 128 126 127 130 125 128 134 138 142 145 148 150 151 152
152 154 156 156 154 153 153 148 144 141 139 139 137 136 136 135 132 133 103  24   6   8  21  26
 21   6   3   6  15  20  18  17  20  43  35  61  72  87  28  42  72  80  24  72
156 162 141 140 138 152 161 146  73 100 120  60  50  57  18  23  22  35 104 114 109 111 117 126
128 128 132 139 142 144 143 146 147 144 142 141 141 142 136 139 145 147 151 155 152 152 154 154
154 154 155 154 152 149 146 146 146 140 136 137 136 134 137 132 128 112  35  19  19  12  18  15
 12   6   1  15  23   7  11  35  24  22  24  51  61  67  40  25  77  80 116  61
154 157 143 144 147 122 158 147 146  53  87  31  63  38  30  23  31   7  55 110 107 107 112 121
127 130 133 136 141 147 150 153 155 155 153 152 150 146 151 153 158 159 161 161 158 158 156 155
155 153 153 152 149 145 139 138 140 138 137 136 135 134 133 129 121  75   0  26  10  14  15  12
  9   3   9  25  31  19  18  31  27  10  27  30  50  54  70  47  16  79 134 114
144 148 137 157 165 120 126 161 158 135  38  54  71  10  26  35  20  20   0  65 116 102 104 114
122 128 133 134 141 149 153 155 150 145 148 155 157 151 154 158 164 164 165 165 162 162 156 153
153 153 151 149 145 141 137 134 136 135 133 133 132 131 128 123 103  59   0   9   5  12  12  10
  8   8  18  25  22  17  25  44  52  32  26 106  54 121 129 107  52 114 129  71
156 150 153 165 121  88  84 117 117 109  92  76  27   9  20  25  26  26  22   0  68 111 102 105
118 126 132 134 141 147 151 149 148 149 149 151 155 151 142 150 161 161 165 165 163 163 155 150
151 152 150 147 142 139 134 128 128 127 128 129 128 128 124 105  97  46   0  11  14  12  12  15
 11  16  24  19  25  20  16  38  46  30  20  70  52 119 117 104  42  74 126 118
148 153 163 138  95  84  68  52  64  85  85  52  39  39  15  14  21  25  19  16   0  70 106 102
106 122 124 129 133 138 142 144 145 145 145 144 150 144 117 139 157 156 160 161 160 156 152 149
150 151 148 142 136 133 128 122 121 124 124 127 126 117 106  98  94  33   0   8  13  20  20  18
 18  12  34  24  12  24  21   4  15  30  41  39  43  67  80  64  64 102  73 142
159 154 146 124  99  77  64  59  26  54  80  67  47  43  31  23  13  11   9  14  14   0  50  92
103 106 118 123 125 130 134 136 136 136 136 137 138 137 141 147 150 153 156 157 155 152 149 147
148 145 141 136 130 127 124 121 122 126 127 124 116 106  98 100  84  11   5   9  13  26  23  10
 18  12  22  34  18  11  18  19  25  51  51  34  66 100  87  77  71  67 136  96
150 129 112 109  95  84  82  65  36  63  77  72  72  79  67  43  20  14  14  11   4  17   0  54
 98 105 109 116 118 122 125 128 130 131 132 133 133 131 138 142 145 148 151 152 151 150 147 145
146 139 135 131 127 123 119 119 121 123 120 114 107 104 103 102  75   0  11  16  24  22  15  10
 16  15   5  36  27   7  21  23  31  38  48  80 102  89 100  75  57  34 128 116
139 108 108 128 128 111  96  78  46  63  84  86  67  86  77  40  28  18  12  13   7  11   4  51
 83  96 108 112 113 116 118 122 125 127 128 130 130 125 127 131 135 138 141 141 141 143 139 137
138 133 129 125 122 119 116 117 116 115 111 110 108 108 107 100  66   0  10  11  18  34  27   3
 12  14   6  20  19  11  25  27  26  34  45 104  96  52  83  60  62  99  62  43
112  91 112 131 119 102  88  80  71  55  92  99  77  98  86  44  29  19  13   8  10  12   0  54
 82  85 100 108 112 115 115 118 119 122 124 127 125 123 129 126 124 127 129 131 132 134 132 130
131 126 123 120 117 115 112 113 113 112 112 113 113 109 105  96  54   0   7   1  20  26  25  26
  8  13  11   6   7  12  23  28  35  46  62  78  89  79  37  55  74  98  95  88
102 122 119 119 115 103 106 109 100  84 102  84  91  90  94  71  44  19  10   9   8  13   2  55
 83  87  94  98 103 110 114 114 116 118 122 123 122 122 121 121 122 123 125 127 128 127 126 125
124 121 119 117 114 113 111 112 114 115 114 114 115 111 104  92  40   0   5   2  14  13   4  18
 13  11  12   8  12  15  20  28  31  49  60  53  76  88  49  48  72  85  94 105
120 122 116 108 110 122 126 120 118 133  95  77  91  76  88  84  58  21   3   8  13  19  11  55
 82  87  92  93  93  97 104 109 110 113 116 117 116 117 117 118 119 120 121 122 123 120 118 115
113 113 114 113 112 113 118 118 117 117 116 114 115 110 103  84  33   0   4   4   3   4   6   8
  9   9   8  10  17  19  22  27  27  37  46  45  59  79  62  30  55  79  84 100
124 108 100  99 108 121 120 123 138 127  80  79  87  80  81  78  56  22   2  13  20  26  21  55
 81  88  91  96  94  93  93 100 104 106 109 111 111 113 114 116 115 115 115 115 116 115 114 113
112 113 114 116 116 119 123 121 119 117 117 115 114 109 100  76  27   0   3   7   8   4   5   3
  7   7   5  14  24  24  23  25  28  40  45  44  52  71  58  40  61  75  93 106
117 113 101 100 112 111 106 128 147 105 102  78  85  96  84  84  57  22   5  18  25  30  25  56
 81  88  90  94  97  99  96  97  99 102 104 106 110 111 114 116 117 117 116 116 115 113 114 116
118 117 119 121 124 125 125 122 118 115 117 116 114 109  98  69  27   3   3   6  15   9   8   5
 13  14  10  24  29  26  24  23  30  43  46  45  50  62  59  50  71  82  96 116
123 112 110 102 106 102 101 116 119 122 127 116  96 104  97  90  64  23  11  23  30  33  28  58
 76  83  89  94  97  96  96  98  99 102 105 107 110 112 115 117 117 117 118 118 118 117 119 122
124 124 124 125 126 127 126 122 119 118 120 117 112 107  88  60  33  13   8   6   9  11  12   7
 18  19  16  35  35  26  28  26  34  44  45  47  51  56  49  52  74  71  72  93
121 111 113 110 111 108  95 108 118 131 130 129 118  99 111  94  82  20  12  26  30  33  29  57
 74  83  89  94  98  96  96  99 100 103 106 108 111 113 116 118 120 121 122 123 124 125 126 128
130 129 128 128 128 128 126 123 119 119 119 117 110  97  73  57  38  21  12  16  19  21  20  18
 18  17  28  43  40  26  26  29  39  44  43  43  46  50  71  84  85  75  70  71
 89 111 118 111 112 115 108 115 124 126 126 123 123 118 102 106  80  32   8  29  30  31  31  53
 70  83  87  92  99 100  98 100 101 104 107 109 113 115 118 120 123 124 126 128 129 129 129 130
130 132 132 131 130 129 126 123 119 119 116 115 109  95  69  53  42  31  21  22  25  26  24  23
 15  19  42  48  43  27  25  34  44  44  40  40  44  58  82  76  75  80  83  86
 73  91 113  97  96 104 110 118 127 131 132 128 120 124 110 103  89  49   2  32  30  30  31  47
 64  80  83  91 101 102  99 100 102 105 108 110 114 117 120 122 123 125 128 131 133 131 131 131
130 133 133 131 129 128 126 123 119 119 118 113 101  88  65  52  42  35  31  27  28  28  25  24
 15  32  53  56  45  29  30  37  45  42  39  40  49  67  67  69  66  69  84  97
 59  63 107  97 103 116 112 116 121 133 131 131 138 137 130 108  96  65  14  32  30  31  29  45
 63  77  81  89  99 103 102 102 103 106 108 111 115 117 120 122 124 125 128 130 132 134 133 133
133 133 133 131 129 129 126 122 120 118 121 110  94  74  59  52  41  38  38  31  27  28  26  24
 19  51  70  62  42  30  32  40  42  42  38  44  57  61  69  69  64  70  76  86
 71  62  85  98 109 122 131 121 118 113 123 130 132 135 134 132 110  77  30  38  29  31  31  45
 63  73  80  86  93 100 103 102 103 106 109 111 115 116 120 122 124 126 128 129 131 132 132 132
132 133 132 131 131 130 125 121 121 119 115 100  85  65  58  52  43  41  40  35  29  29  28  12
 46  76  78  67  51  34  33  42  42  34  40  56  64  67  66  66  69  72  78  88
 95  70  57  95 113 114 134 122 114 111 103  95  99 114 132 134 132  96  45  33  28  29  33  42
 57  67  74  81  87  94 100 101 102 105 108 110 114 115 119 121 124 126 128 129 131 131 131 131
131 131 130 129 128 127 124 123 122 119 106  87  73  61  57  51  45  43  42  38  33  31  15  40
 78  92  83  70  51  38  42  46  36  25  59  76  70  67  66  68  73  77  82  97
100  86  62  78 105 118 126 131 127 116 101  88 113 130 135 134 139 128  83  30  25  28  29  40
 51  60  68  74  79  87  95 100 101 104 107 109 113 114 118 120 122 123 125 127 128 128 128 128
128 129 129 128 127 126 125 123 119 112  95  78  70  61  56  50  47  46  43  40  29  25  24  78
 94  93  88  68  52  52  48  46  50  81  92  88  74  66  66  69  77  86  93 102
 99  95  69  67  79 128 127 127 139 128 104 116 130 132 137 139 132 143 127  67   8  27  30  37
 47  55  64  71  74  83  93  99 101 103 106 108 112 114 117 119 120 120 122 124 126 127 127 127
127 128 127 126 125 126 126 122 115 103  84  71  69  58  53  50  48  48  43  39  28  24  69  90
100  98  81  71  65  67  55  82 109  94  92  88  78  73  71  74  86  92  97  96
