P2
# 8-bit pgm gray
92 112
255
216 217 217 217 217 217 217 217 217 216 215 216 217 217 218 218 218 218 217 217 217 217 217 215
213 220 221 208 189 197 199 204 193 161 153 147 132  73 132 186 177 159 109  29  39  38  37  46
 80  88  60  74  82  63  52  47  60  63  86  78  69 131 180 176 175 166 171 173 176 166 191 205
213 211 214 220 217 216 217 218 212 203 230 203 127 216 219 217 216 216 216 216
216 217 217 217 217 217 217 217 217 217 217 217 217 217 217 216 217 216 217 217 217 217 217 213
212 219 220 209 185 194 192 140 100  75  76  83  70  88 140 150 142  88  47  50  67  61  44  27
 69  43  22  69  90  61  55  51  66  70  69  74  80 104 172 179 179 122  76  82 104 117 176 210
208 210 214 215 221 215 217 218 212 204 229 201 128 216 219 217 216 216 216 216
216 217 217 217 217 217 217 217 217 218 218 217 216 215 213 213 213 213 216 217 217 217 217 215
213 219 219 202 186 166  95  83  87  73  73 107  86  51  54  71  69  65  69  65  55  49  51  44
 40  16  58  55  66  67  68  64  78  75  75  62  82  70 154 161 131 110  71  76  62  47  68 165
211 203 213 217 214 216 217 218 212 205 229 199 128 217 219 217 216 216 216 216
216 217 217 217 217 217 217 217 217 217 217 214 212 212 216 217 217 216 216 218 217 217 218 218
211 214 212 196 153  79  65  76  63  62  91 101  52  23  40  45  72  52  33  42  40  37  46  53
 34  12  50  63  42  34  44  70  74  71  68  78  65  77 143 103  67  89  34  37  39  64  63  66
144 205 206 212 216 216 217 219 212 206 228 198 129 218 218 217 216 216 216 216
217 217 217 217 217 215 216 217 219 217 217 216 212 214 215 213 213 215 218 212 215 215 218 214
213 210 205 156  58  47  46  54  56  70  61  35  47  44  51  68  58  71  83  43  19  22  52  44
 33  41  13  18  28  38  49  47  72  72  50  61  68  76  70   6   0  16 104 105  89  37  32  88
 91 173 204 220 215 217 217 213 213 207 228 198 129 218 218 217 216 216 215 215
217 217 217 217 217 219 219 217 217 214 216 214 211 217 214 217 218 215 213 213 216 214 213 212
212 211 181  85  39  61  52  55  48  47  32  47  61  68  71  58  51  79  66  15  25  39  46  42
 54  42  33  63  89  82  72  60  43  66  54  51  49  35  18  14  69 113 102 133 120  40  28  68
 97 113 197 214 223 220 216 216 210 206 228 198 130 217 218 217 216 216 215 215
217 217 217 217 217 217 215 213 211 215 215 211 213 217 216 217 217 217 210 219 216 218 211 204
188 138  78  48  36  44  48  44  30  39  42  24   0  44  79  46  39  52  29  33  49  80  71  25
 36  54  61  87  96  70  43  44  36  51  52  48  39  36  36  31 104 130 110  57  50  37  30  39
 60  82 181 208 204 219 220 217 211 205 230 197 129 219 218 217 216 216 215 215
217 217 217 217 217 217 217 218 218 218 215 216 218 217 219 211 209 217 222 212 208 204 171 136
 80  34  57  37  26  31  45  49  55  90  94  84  64  18  70  66  45  41  30  32  46  43  61  85
127 110  69  30   0  26  55  45  22  38  50  33  43  39  28  36  44  53  88  47  31  36  23  46
 57  58 109 205 213 196 211 221 210 205 232 197 128 220 218 217 216 216 215 215
217 217 217 217 217 217 215 212 209 210 214 217 218 209 213 211 210 215 216 199 184 133  70  54
 69  71  53  43  38  32  47  47  72 124  90  64  72  53  60  78  51  28  23  82  64   2  39  85
100 139  94   4  24   7  77  95  31  27  52  68  56  44  32  30  22  60  81  36  48  72  33   2
103  93  50 153 198 208 195 214 217 201 233 196 128 220 218 217 216 216 215 215
217 217 217 217 216 214 216 210 213 215 208 214 214 207 201 200 187 165 144 139 113  66  77  72
 54  58  73  42  31  48  46  38  44  57  51  32  31  22  45  65  58  27  30  46  31  44  51  30
 56  82  45  43  17   0  68  70  27  50  98  79  49  49  47  41  30  14   0  22  62  88  52  27
 88  91 116 115 189 194 187 196 213 204 234 195 135 219 218 217 216 216 215 215
217 217 217 217 217 214 214 212 214 218 216 207 196 204 197 172 114  81  73  70  41  51  71  53
 64  74  82  78  53  51  44  42  48  35  18  31  19  14  24  46  53  42  26  29  35  30  24  41
 48  28  19  57  51  31  65  55  40  77  78  65  63  67  52  31  37  35  23  15  33  29  33  45
 67 124 170 138 186 190 144 189 213 207 234 194 136 219 218 217 216 216 215 215
218 218 218 218 218 210 207 207 210 205 199 189 195 177 168  89  67  87 114  75  47  73  72  64
 70  87  82  84  60  40  22  22  39  38  23   8  16  16  25  19  22  28  28  19  13  11  30  35
 42  63  72  91  77  49  57  55  43  66  72  49  45  59  58  32  33  27  11  12  24  29  56  54
 68  86 191 137 168 202 174 165 210 205 233 192 136 220 218 217 216 216 215 215
218 219 219 219 219 214 208 212 214 208 205 183 140 140  88  28  64  60  64  57  61  60  45  57
 52  73  64  49  46  33  28  30  22  27  41  21  14  32  27   5   9   8  11  38  47  23  26  28
 31  28  35  50  45  39  48  57  41 108  81  21  27  61  77  70  64  56  33  26  25   7  89  67
 54  35 163 148 157 225 202 168 215 209 233 191 137 221 218 217 216 216 215 215
219 220 218 219 218 210 209 211 212 211 198 141 142 113  38  51  47  50  44  43  49  62  48  70
 77  23  28  26  26  29  45  38  22  36  36  40  35  50  42   8  11  11   2  44  43  11  16  27
 24  38  32  35  38  23  29  29  62  75  42  52  55  66  77  67  73  53  42  30  27  35  73  48
 36  42 118 109 120 157 110 162 207 201 230 188 140 221 218 218 216 215 215 215
217 216 213 210 208 208 213 213 204 201 153 125  72  50  42  44  37  34  45  46  18  57  75  61
 36  64  63  61  46  23  30  44  43  46  48  49  37  44  68  44   2   4   9  14  17  14  28  17
 26  57  41  41  52  23  75  71  41  45  52  71  52  39  56  64  69  52  44  29  20  32  54  40
 38  63 125 139 120  56  32  97 157 154 213 186 140 227 219 216 216 219 215 215
216 214 215 207 203 214 207 211 213 182 145  78  94  63  53  48  37  37  77  54   4  61  74  27
 81  83  60  61  58   8  75  97  80  84  51   0   0  22  44  33  26  36  45  20  15  19  66  55
 14  46  52  66  36  39  87  85  50  40  43  39  21  23  15  28  55  54  40  35  25  15  23  30
 40  44  62  90  80  58  83  65  52  63 158 175 141 225 220 220 216 213 215 215
216 215 222 212 207 200 212 200 182 154  88  85  88  85  70  36  40  60  78  29  39  55  51  62
 73  55  46  38  38  41  44  50  40  46  35  91  84  35  28  27  29  65  85  44   3   0  58  82
 37  23  37  51  20  27  53  62  49  40  31  28  14  17  15  29  57  48  44  38  37  30  22  20
 23  22   0   0   0  30  56  56  73  80 113 132 150 209 208 218 220 217 215 215
211 209 221 206 206 212 194 113 109  94  77  79  69  75  74  94  91 103 133  93  64  49  50  60
 43  33  26  31  24  42  32   6  15  52  89 141 111  66  49  24  26  58  68  49  28  49  15  27
 36   7  10  18  33  31  23  36  33  38  27  16  22  16  28  62  41  48  50  42  32  36  31  15
 27  31  44  45  93  86  19  66  58  79  84  93 157 219 213 209 209 216 215 215
216 216 217 204 212 176 116 163 180 120  57  62  78 112  93  73  76  76  79  55  32  33  51  31
 24  32  22  41  50  38  52  61  63  69  57  70  49  50  47  25  37  56  43  31  28  37  33  26
  0  34  71  78  58  14  16  21  30  32  29  14  11  23  32  30  49  70  46  38  26  33  13  23
 25  31  49  64  98  85  41  66 100  92  89  43 157 220 214 220 205 209 214 215
214 212 219 206 163 184 170 205 158  86  61  78  77  74  59  61  72  81  76  51  31  20  48  54
 28  40  63  76  44  50  54  45  58  38  30  52  36  61  40  22  46  77  55  29  31  25  18  12
 48  85  92  73  36   6   8  15  30  36  36  25  25   0  10  20  68  57   4   6  48  41  12  22
 21  24  30  35  47  46  66  35  80  71  72  60 137 217 215 220 213 201 211 214
214 213 214 174 180 191 141 159  62  21  72  69  49  55  78 114 106 104  91  50  25  19  53  48
 41  49  34  52  67  81  41  40  40  29  52  43  93  81  49  37  70 115  90  49  37  32  25  43
 78  55  37   8  10  45  40   9  30  29  24  31  37  73  75  47  59  36  27  25  57  48  31  26
 15  20  29  39  56  35  32  46  58  46 107  97 133 206 221 213 217 208 208 212
214 216 203 179 200 162 116  74  50  75  71  47  44  43  71 109  95  68  55  34  35  41  42  37
 41  37  57 101  80  62  24  41  32  47  37  80  99 100  77  45  87 122 121  96  54  37  38  55
 37  23  22  26  14  39  38  58  65  17  18  25  30  68  73  95  87  53  47  43  70 100  21  25
 11  19  28  29  31  31  38  40  61  54  93  66 142 195 214 210 217 214 206 211
214 216 176 201 205 137 157 101  88  95  77  54  48  45  43  56  86  70  47  42  29  24  28  37
 34  26  63 103  81  46  43  42  40  43  46  63 103 123  81  58  88 144 159 128  81  86  72  27
 34  26  23  28  24   0  56  96  70  18  14  15  21  13  52  81  55  36  42  38  46  90  52   0
 14   5   3  23  41  29  31  52  63  59  80  64 153 215 203 216 218 211 208 210
215 219 197 171 173 129 131  98  84  67  61  31  29  16  12  63  51  55  45  56  75  61  26  41
 47  29  41  94 102  93  50  43  36  42  38  90 123  85  62  71 103 161 169 178 115 112 101   0
 31  20  47  44  42  28  50  62  38  48  36  19  22  53  63  47   9   0  21  31  49  49  38  19
 18  26  22  36  45  56  38  45  47  47  46  96 143 206 205 215 220 211 209 210
208 211 217 187 187 123  65  90  68  56  59  40  33  14  11  79  47  58  59  46  63  64  44  31
 44  37  39  81  88  72  42  46  38  50  61  81  83  79  99  80 124 170 160 173 138  97  37  22
 17  29  68  57  52  45  33  27  32  46  50  38  48  43  36  25  20  20  15  26  41  51  35  17
 70  54  33  18  22  50  43  40  37  55  85 112 133 168 193 217 210 210 210 210
204 208 209 205 203 159  70  76  68  50  57  47  32  15  13  59  44  57  59  92  77  14  46  43
 22  31  32  56  53  47  60  59  45  59  53  66  96 141 148  98 128 165 152 146 171 129   0  27
 17  18  66  70  58  54  42  31  30  41  64  91  83  53  17  36  25  23  22  34  39  52  44  47
 72  59  37  32  20  41  56  39  39  44  64 111 163 183 175 218 205 209 210 209
206 202 202 181  76  86  76  63  44  46  64  41  36  21   1  61  55  68  83  94  78  42  50  35
  1  24  39  61  62  55  56  82  68  54  50  61  76 105 119 111 140 161 153 155 182 129   0  22
 13  12  46  68  59  61  45  31  43  43  61 104 115  86  34  49  41  31  24  32  53  33  33  59
 87  67  47  18  24  35  52  30  33  47  57  45 123 158 190 213 209 211 210 210
215 197 201 171   0  59  41  48  51  54  66  61  40  18   1  67  96 130 132  77  43  43  66  64
 54  63  72 120 100  65  53  50  68  50  41  33  42  36  56  74 121 161 168 160 171 144   0  30
 12  18  11  56  56  60  37  22  54  58  52  67 107 101  48  37  33  42  25  28  40  25  32  32
 45  56  47  47  48  35  31  34  34  61  53  51  62  77 152 214 212 217 211 210
216 209 195 191  69  58  63  40  54  50  62  90  59   4  42  70  97 126  79  48  46  35  35  45
 46  39  31  58  72  52  39  25  23  47  42  43  52  63  66  50  49 101 145 164 166 157  32  17
 27   6  25  29  53  54  40   1  56  67  53  56  73  97  58  29  26  26  27  47  38  45  26  39
 39  52  49  50  51  53  58  39  20  58  61  48  66  95  92 175 219 215 215 207
183 183 192 196 115  50  61  42  45  40  50  86  94  76  64  62  61  61  56  60  40  33  24  22
 26  36  32  37  59  83  73  23  14  29  38  30  44  57  52  49  33  33  19 103 166 167 107  50
 46  28  19  66  91  78  45  13  47  86  76  52  51  61  42  17  46  67  50  42  54  35  32  25
 28   6   4   7   0  27  56  63  40  33  67  75  54  68  84  49 202 220 214 211
201 174 179 192 124  70  67  29  49  46  34  62  73  71  47  39  42  43  53  52  12  34  41   3
 19  37  36  79  91 115  83   0  28  67  68  54  58  73  91  85 104  60  40   0 101 139 124  91
 44  35  24  59 115  81  33  40  36  44  79  67  54  32   3  47  43  58  69  30  40  35  40  33
 32  35  27  37  46  41  39  63  65  41  67  82  60  51  70  81 148 218 215 214
188 206 177 139  99  67  71  29  50  36  24  98  84  25  37  33  31  45  60  71  85  61  69  95
 80  40  15  44  52  49   0  21  42 111 123 115 119  89  95 109 107  60  36  58  20  88 103  52
 16  16  51  69  71  72  80  33  13  10  92  83  27  21  32  61  66 106 108  63  37  37  45  66
 86  65  53  79  90  59  42  52  61  59  75  84  62  49  65 132  92 194 223 215
189 194 203 150  72  80  77  43  45  29  48 115  87   0  33  32  43  51  63  67 103 125  91  94
 84  65  23  10  22  31  41  29  47 122 139 116 115 116  64  75  89  84  48  97  59  28  63  45
 47  37  58  49  52  50  19  24  25  31  38  55  25  11  25  30  52  60  63  58  40  29  39  47
 41  29  55  67  46  24  60  37  33  46  54  66  57  35  47 114  83 141 217 213
198 193 174  72  72  93  69  58  43  38  68 127  86   0  42  23  42  51  42  55  58 115 128  70
 65  62  55  47  32  30  24  17  46 124 137 132 106  54  52  88 107  74  37  79  77  11 110 130
 74  52  47  55  51  24  44  42  52  74  62  35  32  15   9  45  40  61  68  77  71  41  24  31
 29  55  74  64   3  51  50  27  34  36  55  60  56  41  28  66  71  97 216 216
212 184  58  39  87  92  64  43  36  52  82 137 135  85  42  27  46  46  50  57 110 122  68  48
 52  33  62  89  54  49  53  81  68  94 138 143  67  42 132 160 156  65  41  84  76  14 138 131
 43  60  47  47  57  78  51  29  71  76  75  64  43  43  36  30  33  63  93  79  69  62  22  17
 26  41  69  74  57  50  30  34  32  39  44  34  48  35  44  41  58  88 202 220
202 112   0  44  40  53  47  35  53  66 108 132 153 133  86  50  49  48  56  86 122 121  59  55
 51  30  33  71  76  84 101 106  89  63 116 117  18 108 123 154 118  10  77 132  78   9 130  71
 37  39  28  82 110  77  52  47  67  75  71  62  57  64  51  38  28  71  98  83  76  63   0  48
 60  38  52  62  56  37  36  29  47  43  30  27  30  41  48  39  62  63 168 220
175  75  48  35  47  47  35  47  59  82 124 142 150 126 111  94  68  31  42  72  88  60   8  38
 55  53  50  86 108 113 108 102 102  69  73  77  45 108 102  88  51  42 104 111  66  12 143 152
 52  48  91 101  96  85  73  58  73  84  94  84  65  75  48  40  57  67  80  91  68  25  56  73
 43  32  55  55  40  24  31  22  39  48  24  28  25  36  33  42  76  57 111 211
107  70  71  91  76  45  31  56  67  99 134 142 150 135 123 109  69  37  13   0  29  33  31  41
 53  47  50  86 135 142 132 114 109 106  65  47  65  68  63  34  47  74  93  79  41  46 142 110
  0  85  94  69 103 115  90  58  94 104 110 100  70  67  46  42  80  89  82  77  46  62  73  56
 43  42  51  78  86  76  47  20  36  64  27  28  16  41  44  49  73  76  83 186
125  78  75  90  67  23  42  55  68 117 141 144 149 140 131 117  67  73  45  18  35  54  42  49
 53  42  54 114 161 156 154 142 120 119 107  83  39  45  60  85 101 107  92  52  32  82 100  22
 48  44  38  89 105  97  86  58 101 110 116 110  79  63  51  38  52  64  56  54  74  78  59  59
 64  58  54  54  44  54  45  33  32  73  65  26  35  46  57  64  73  52 119 147
114 114 100  47  70  48  52  51  73 124 140 146 148 140 128 123  98  65  65  27  29  55  44  39
 35  41  88 153 171 165 164 164 135 116 126 130  94  11  63  95 101  80  36  45  61 121 137  65
 30  64 103 128 136 127  77  78 108 119 117 103  88  67  61  41  49  31  38  77 100  85  66  73
 59  66  56  57  51  40  33  26  28  44  72  67  48  48  76  96 106  89 107 123
169 139 109  51  50  65  48  49  79 125 140 149 150 141 131 122 117 104  79  62  62  40  36  47
 52  70 124 155 159 165 164 164 144 134 157 161 153 106  33   0   0   0  42  89 128 168 163 106
 93 109 144 173 178 152  83 101 118 128 137 110  84  73  70  48  62  75  84  96 107  84  72  72
 60  69  68  68  51  31  31  43  45  32  60  79  83  87  91  93  90  90  82 119
154 137  72  58  42  46  53  50  73 123 143 150 151 142 128 125 122 128 116  96  82  73  80  80
 83 104 130 138 136 137 143 146 138 156 175 173 175 169 146 123 104  94  99 135 170 181 161 115
 81 122 165 175 164 129 104 117 120 135 154 135 101  69  64  49  65  78  87 103 117  88  65  69
 81  76  59  39  36  33  23  27  30  37  51  47  71  74  73  86  77  74  88 144
180 110  76  58  53  41  45  56  71 123 143 151 152 143 130 125 123 129 126 121 116 111 106 107
112 133 141 141 139 137 141 145 151 168 174 176 176 176 177 169 143 122 125 160 182 175 164 128
 98 114 139 138 138 129 125 123 127 146 155 152 132  59  37  50  77  89  97 124 128  99  65  60
 76  69  55  50  47   1  31  42  26  14  38  56  49  51  49  83  70  83  90 140
190  95  61  68  55  46  30  48  74 121 140 151 156 149 134 125 120 126 128 129 127 132 124 126
129 138 145 152 158 162 162 163 170 162 160 169 174 177 170 153 133 136 139 161 175 169 160 127
121 122 131 130 139 144 130 125 132 148 162 162 139 101  54  40  76  91  96 113 124  84  76  74
 53  55  30  42  35  36  38  56  60  37  52  43  51  39  57  75  64  99 110 150
175  26  54  57  51  46  34  34  74 114 138 152 159 152 133 124 122 130 131 133 135 144 130 127
133 140 158 170 173 178 181 183 176 160 158 167 166 164 148 139 139 147 143 151 167 163 162 149
129 141 146 152 153 143 134 131 129 145 162 174 155 127 103  42  70 101 103  95  84  99 101  75
 80  69  18  40  49  37  52  62  54  64  60  25  55  58  89  88  72  83 120 170
 67  40  35  27  46  43  25  36  67 109 138 154 157 153 138 127 126 128 134 137 142 143 135 131
137 145 160 168 176 183 184 186 179 165 158 164 159 149 142 143 145 142 145 150 157 163 163 147
137 147 157 160 154 143 132 127 132 146 159 173 158 137 114  65  48  92  89  59  95 131 113  82
 73  61   0  40  54  26  34  48  54  52  48  30  51  73  84  84  68  74 124 181
 21  43  31  40  47  37  25  37  59 104 135 151 157 158 150 134 128 131 134 147 149 139 138 137
140 143 150 164 175 182 184 186 183 174 163 157 152 146 141 143 146 146 149 155 161 161 158 146
138 144 154 161 156 142 133 129 130 138 146 156 146 128 108 103  77  63  74 104 114 117 111  91
 72  48  12  33  50  59  61  54  57  55  29  33  43  62  69  73  50  47  83 174
 69  89 101  82  54  42  30  37  53 100 132 150 160 165 159 136 127 132 140 156 152 137 140 143
144 143 145 157 170 177 180 184 184 180 169 158 152 149 148 149 152 157 160 162 164 158 152 143
135 133 140 144 137 123 110 106 106 111 116 123 120 104  92  96  97 106 103 103 102 106 115  99
 84  50   8  35  37  48  56  43  34  38  36  36  24  57  73  82  70  60  26 106
 75 113 101  84  79  66  42  38  42  97 133 150 164 172 165 139 130 138 152 160 150 139 142 146
148 147 147 152 161 171 175 179 182 179 173 166 162 159 158 157 158 163 164 163 159 151 142 132
122 112 107 102  91  81  77  78  83  91  96 103 105  90  84  86  89  84  89  93  87  97 112 104
 99  86  58  53  45  45  39  33  30  21  27  20  18  39  63  76  97  93  67  58
 61  90 114 104  72  55  39  25  30  97 132 150 168 176 169 146 139 148 156 155 147 141 140 142
148 146 143 145 152 163 166 172 175 173 171 169 169 168 166 164 164 164 160 156 149 139 129 119
109  97  84  80  72  65  64  67  72  79  83  86  87  81  80  88  79  76  85  86  88  96 104 107
110 105  94  89  80  60  39  33  33  32  32  21  20  31  62  55  81 105  90  76
 64  65  86  73  59  50  31  27  15  98 134 152 170 168 159 147 144 148 149 144 135 127 124 124
121 119 126 132 137 148 151 160 164 164 164 164 166 167 166 163 161 159 151 144 137 128 122 114
 98  85  85  79  75  74  75  71  70  80  93 102 105 110 114 111 111 109 103 100 104 108 110 110
114 110  97  94  87  59  38  31  32  32  42  44  35  55  82  58  67  56  49  53
 66  84  76  64  52  35  32  24   0 100 136 150 159 147 141 137 132 124 118 110  94  82  78  81
 83  89 104 113 119 131 135 144 153 154 157 159 161 164 165 161 156 151 140 132 124 121 115 109
103  99 102 101 107 116 122 124 126 131 135 137 136 133 132 132 132 129 124 122 122 121 118 113
116 111  98  98  91  67  42  32  37  32  38  46  48  54  54  67  80  75  53   0
 77  74  82  59  52  31  41  23   0  99 137 136 128 122 125 120 111  94  83  73  59  53  56  69
 74  76  76  91 103 116 121 132 142 145 151 155 159 164 165 160 153 145 134 127 123 121 114 114
120 125 129 128 130 134 135 140 145 145 142 140 139 138 137 134 129 126 130 132 129 128 124 120
119 111  99 101  97  79  49  37  46  50  43  44  52  58  51  68  60  62  44  27
 97  62  99  54  38  38  37  32   0  93 134 118 100  99  90  86  83  79  76  75  75  81  84  81
 84  86  91  94  97 106 110 119 130 138 144 149 156 165 167 162 154 146 133 129 127 121 119 123
127 128 129 132 134 134 136 138 140 143 142 137 136 136 136 134 131 128 126 127 129 129 127 123
123 115 103 105 103  88  58  43  53  44  37  42  52  67  71  64  55  46  12 130
128  71  49  37  36  35  20  33   0  84 127 105  90  95  94  92  99 112 120 124 130 132 131 130
132 133 131 126 123 121 119 117 121 133 139 145 154 166 170 168 159 149 133 130 123 115 117 123
128 129 127 132 134 134 131 135 140 139 137 134 132 131 133 132 131 128 123 123 127 125 126 126
125 121 108 106 105  95  71  44  47  39  30  30  43  55  63  62  40  30  86  83
160  75  76  42  34  38  27  27   0  77 123 110 109 120 123 128 135 140 140 141 144 145 145 144
142 138 132 129 132 134 130 124 119 122 134 144 156 170 175 175 166 154 136 124 112 105 111 121
124 122 120 124 128 129 129 133 137 136 132 126 124 122 123 123 121 121 122 124 125 124 128 136
132 127 119 110 110  99  75  43  39  42  34  33  48  45  68  64  47  46  69  68
179  91  88  42  40  39  40  28   0  65 118 113 123 133 132 137 141 141 142 143 141 142 142 140
140 138 136 130 130 132 127 122 120 116 125 147 164 177 185 187 179 166 146 121 101  96 103 111
113 112 114 119 124 125 124 126 129 127 123 119 115 113 113 114 113 114 118 123 126 128 134 139
135 133 128 110 114 103  73  47  52  44  45  32  59  61  48  53  73  74  69  94
165  91  87  60  44  43  43  30   3  59 120 122 132 136 140 139 139 139 143 143 138 138 140 142
142 139 136 128 124 123 121 119 118 115 111 146 172 185 194 198 189 178 157 122  98  94  95  97
100 104 109 115 120 122 123 126 127 125 120 114 111 108 109 108 104 103 107 111 116 131 144 149
141 139 138 113 119 110  85  56  55  49  55  53  64  82  71  67  86  92  79  79
149 117  68  63  60  44  47  42   7  50 123 128 135 137 133 134 134 135 137 137 137 136 136 141
141 134 127 123 119 116 111 105 108 109 105 141 173 187 196 202 196 185 169 128  90  93  97 104
 96  79  81  90  99 106 119 125 127 127 123 118 109 108  93  81  85  91 100 108 116 136 152 158
146 145 147 124 117 112  92  63  52  46  45  45  38  43  42  71  92  90  62  63
153 139  85  70  55  61  54  41  11  51 127 128 132 135 129 130 130 130 131 130 128 130 131 133
132 128 125 119 115 109 104 104 100  99 104 141 175 189 198 204 198 186 173 140  93  85 102 112
102  95  78  38  35  35  58  72  83  84  80  81  69  49  52  84  96 108 121 126 128 145 157 162
153 145 150 135 117 112 102  72  50  51  62  57  56  37  36  60  70  62  54  70
139 170 104  59  59  53  53  39  19  52 132 130 129 133 128 128 128 128 127 122 118 121 127 129
124 123 120 117 118 109  90  81 101 116 105 144 179 191 200 206 201 185 172 152 111  88  94 113
120 115 107  97  80  70  61  62  59  37  28  40  62  74  98 126 132 135 136 138 142 153 161 164
162 147 150 146 123 113 106  68  34  35  46  52  41  35  33  40  63  66  61  44
141 145  71  90  70  41  46  41  18  46 133 138 130 132 130 128 125 122 120 118 116 116 120 121
118 120 109  99  76  53  76  98 110 124 103 141 179 191 200 206 201 186 169 151 136 118  97 104
117 113 112 119 116 130 124 135 146 122 113 130 124 130 130 137 144 149 149 152 157 161 165 166
165 151 146 150 133 114 100  60  29  33  23  36  25  44  51  49  64  72  66  50
145  76  79 162  93  39  45  41  25  40 135 144 132 131 130 124 116 110 109 112 117 117 115 111
100  87  62  28  17  65 108 125 127 118 114 147 176 190 197 203 201 189 166 149 153 153 134 114
109 118 119 127 136 146 154 161 169 167 163 167 160 153 146 148 156 162 163 166 170 170 171 170
165 157 143 148 140 115  98  61  47  50  36  24  47  49  55  59  61  82  83  56
 95  83 131 120  47  51  40  29  40  40 135 150 137 132 127 119 108 103  94  86  79  71  66  50
 45  40  31  63  84 101 110 118 124 118 130 145 171 189 192 200 203 188 164 156 160 163 157 144
131 128 130 138 143 150 160 170 175 177 176 172 172 166 161 162 166 172 174 177 179 177 175 173
169 166 148 146 140 110  95  61  52  72  39  19  58  60  51  49  54  75  86  74
 72 118 112  52  54  77  57  27  32  37 130 157 145 135 127 123 117 115 113 100  63  32  46  35
 64  90 101 120 121 120 118 122 119 127 137 140 170 188 192 199 199 182 164 158 164 168 160 159
155 144 142 143 144 154 160 171 173 173 176 171 175 176 176 174 177 181 182 183 184 182 180 179
176 168 150 144 136 112  94  63  39  74  60  39  56  42  53  54  49  66  64  52
 63  83  60  51  67  35  25  42  35  23 129 161 151 139 131 129 126 126 126 131 120 107 113 106
118 130 134 134 127 126 125 130 128 140 147 141 166 186 192 197 195 179 164 161 166 172 162 160
166 165 162 156 150 153 158 164 167 170 174 176 179 179 178 180 183 185 184 185 187 185 183 182
176 166 150 141 128 110  91  72  67  52  70  42  63  60  58  43  46  64  62  64
114  86  67  60  45 131 124   0  49  22 121 160 160 156 149 146 144 144 151 158 156 148 141 138
140 141 141 136 140 140 137 138 144 150 152 147 163 185 192 196 193 179 165 162 164 166 168 166
166 171 173 172 167 166 164 156 167 175 172 177 182 185 185 186 187 187 186 185 186 184 182 181
177 165 153 144 127 112  86  71  96  73  34  50  55  87  92  26  42  58  45  76
162  82  54  57 119 153 121  28  52  13 107 158 169 168 169 168 166 162 164 168 166 158 149 148
146 143 144 143 145 145 146 150 157 156 155 149 163 183 192 197 190 177 166 163 163 163 165 166
167 170 174 179 179 181 175 171 174 177 175 178 182 186 186 186 188 188 185 184 184 181 182 180
174 165 156 143 124 112  83  46  59  62  18  54  40  74  81  68  54  51  41  73
163  35  79  29 119 144  41  59  45   5  94 150 164 176 179 181 179 176 171 171 169 161 154 153
150 148 148 150 147 147 153 160 158 157 154 149 164 182 192 198 190 177 167 163 162 164 163 164
168 170 174 179 181 184 183 182 180 178 178 179 182 184 183 184 186 186 183 183 183 180 181 178
170 163 155 143 120 104  78  37  52  43  20  41  57  45  57  70  65  82  82  79
145  37 104 125  77 111  60  47  47  16 110 146 163 176 181 182 183 182 178 176 172 166 161 157
154 152 152 153 151 153 162 168 159 156 153 150 163 180 192 199 192 178 168 164 164 163 162 163
165 168 174 180 182 185 190 189 187 184 183 184 185 185 183 184 184 183 182 182 180 179 178 173
165 161 149 142 123  96  60  50  58  25  15  48  55  33  48  54  58  80  97  90
100  90  98 147 117  54  56  52  53  24  64 139 161 172 181 184 187 186 185 182 176 171 167 162
159 156 157 156 158 163 168 170 159 155 152 151 162 179 192 200 193 178 168 165 165 161 160 161
164 167 173 180 184 188 192 192 191 189 189 190 190 188 184 183 181 179 180 181 178 178 176 168
162 159 141 134 117  89  57  51  27   0  43  40  42  41  43  45  51  54  72 104
103  70  92 107 109  61  71  48  57  48  55 126 159 173 178 181 184 186 187 184 179 174 172 168
165 163 163 163 167 174 175 171 159 153 151 152 163 178 192 201 193 180 170 166 164 160 158 159
162 165 173 181 184 189 191 192 193 193 193 194 193 190 187 185 182 179 179 179 177 177 173 166
160 157 141 130 113  91  49  48  48  32  41  54  38  39  42  45  87  50  40  61
150 105 112  58  68  60  49  82  63  45  33 103 150 163 167 179 183 182 184 185 182 179 177 175
172 170 172 176 177 181 181 175 159 149 151 154 166 180 195 205 195 181 174 168 162 160 157 154
156 159 171 180 183 190 193 195 196 194 193 195 193 191 190 188 185 182 178 176 177 175 169 164
158 154 148 134 108  90  56  58  67  51  34  28  31  44  25  33  43  32  40  81
197 154  85  59  65  61  39  89  66  40  46  73 139 152 158 174 180 178 180 182 181 181 181 181
180 180 179 185 186 186 182 174 159 149 151 158 170 185 198 207 197 183 175 169 164 163 157 149
148 150 167 179 184 190 194 197 198 196 195 197 195 193 192 188 186 182 179 176 174 172 167 162
158 155 146 132 104  87  52  35  31  28  30  43  31  47  31  60  45  38  40  97
203 150  89  81  70  45  44  49  44  28  48  58 128 149 159 166 171 177 176 175 178 180 182 183
184 186 184 188 188 186 181 172 158 147 152 162 173 186 198 206 196 185 177 171 166 163 160 152
144 143 162 177 185 190 194 196 197 196 195 196 195 193 192 189 187 183 180 176 173 171 166 161
158 155 145 129 105  85  32  29  36  48  47  43  47  41  45  36  42  44  50  70
164 138  92  99  73  46  45  67  39 119 140  59  97 142 154 165 169 166 170 174 178 183 186 186
190 192 190 190 189 188 183 174 157 146 152 165 178 190 202 209 199 186 178 173 167 162 164 162
148 139 158 176 184 190 192 195 196 194 193 195 193 191 189 190 188 184 180 178 175 173 167 162
159 154 145 127 107  86   5  29  39  30  14  27  48  52  45  35  25  50  32 112
134 122  83 123  68  66  62  50  21 129 177 160 124 128 148 158 164 166 170 174 178 183 187 191
192 192 191 191 190 187 183 178 161 146 157 170 179 192 206 209 201 188 183 175 170 165 166 163
155 141 152 179 188 188 188 189 192 194 193 193 193 192 189 187 185 182 180 178 177 173 168 164
160 156 142 121 108  85  35  43   0  26  30  27  10  48  54  61  42  40  52  86
176 122  74  80  78  70  49  71 105  76  94 180 138 111 144 153 155 163 172 174 178 183 187 191
191 191 191 190 188 186 182 178 163 151 163 172 180 192 206 208 201 191 186 177 171 169 169 164
161 147 151 178 186 187 188 189 191 193 193 192 194 193 190 187 186 183 180 179 177 173 168 165
160 155 141 121 107  81  53  53   7  26  26  20  28  61  44  72  56  39  38  98
183 121  71  71  44  46  50 123 119 153 153  43  73  92 135 140 156 161 167 174 177 182 186 188
189 190 191 189 187 186 182 180 166 156 167 172 181 193 202 204 199 192 187 178 172 170 167 162
164 153 153 177 184 186 189 190 191 192 192 193 194 192 190 188 187 184 181 180 178 174 169 166
160 153 140 121 116  82   4  19  20  25  14  32  44  67  68 122  82  59  58  81
131 112  84  37  49  35  62 148 138 184 131  90  67 130 138 136 147 158 166 170 175 179 183 187
188 190 192 189 188 188 186 183 170 155 164 173 183 191 196 197 194 191 185 177 172 166 160 153
160 154 156 177 185 188 191 191 191 190 191 193 194 192 189 189 188 185 182 181 179 175 170 166
160 152 138 123 114  64   0  10  16  46  37  12  36  33  56  59  42  60  80  64
108 129 106  68 109  27  53  82 143 138  60  74 138 148 111 136 142 151 164 167 171 176 181 185
187 190 192 190 191 190 186 186 171 151 161 172 180 187 193 193 191 186 183 176 167 157 149 146
152 150 163 182 187 191 192 191 192 192 192 192 193 193 191 190 188 185 183 181 178 175 171 167
160 150 137 124 116  52   0  13   0  27  37  27   7  52  89  84  44  73  37  45
184 131  82  68  66  64 110 102  64  39   0 134 159 155 134 123 140 146 158 165 169 174 181 183
187 191 191 190 188 187 185 185 167 146 155 161 172 182 187 188 188 183 177 167 151 136 138 144
145 142 170 188 188 192 191 190 192 193 193 192 192 192 193 191 188 186 183 181 176 175 173 168
157 145 132 124 116  62   0   0  41  60  33  40  37  36  54  73  55  70  44 134
197  96  93  83  55  67 122 151  91 151 126  94 125 139  92  97 142 144 152 163 169 174 180 183
186 189 191 188 179 184 189 182 170 147 145 147 155 163 169 173 179 176 162 149 135 127 127 126
122 125 171 187 188 192 191 190 191 191 192 192 191 191 190 190 188 186 183 181 177 174 172 166
155 145 128 126 106  37  24  53  86  63  64  35  62  80  78  81  66  47   0 171
162 149  76  53  67  74  86  84 133 153 172 132  86 135 130  49 128 145 147 160 169 173 178 182
185 189 190 187 180 183 187 183 181 155 140 137 139 149 155 155 157 155 147 140 132 116 104  99
105 122 171 187 188 192 195 194 193 193 192 192 191 189 188 190 188 186 183 181 177 174 170 163
157 144 130 128  85  22  74  65  50  36  39  71  78  88 107 141 120   0  52 169
176 194  48  89  87  38  79  97  80 128 140 159 124  26  92  59 125 136 147 157 169 173 177 181
185 188 189 187 187 185 182 183 182 154 129 124 113 127 143 145 143 143 143 140 128 114 107 109
120 131 170 187 188 192 194 193 191 190 191 193 191 188 187 189 189 186 183 181 177 173 169 162
155 138 131 126  65  41  49   6  21  41  53  75  45 130 162 146  78  66  75 134
196 208 103  55  91  50  39  41  24  87  97 107 105  60  30 104 124 125 145 156 164 170 176 180
183 186 186 187 187 184 182 181 178 153 129 125 113 117 130 141 143 142 140 141 134 123 122 123
123 143 175 185 185 192 193 191 191 191 191 191 190 188 187 188 187 184 183 180 174 173 166 159
153 136 130 114  36  31  26  19  27  44  48  75 147 165 135  84  69 166 112  32
205 195 194 127  67  71  48  54  46  99 146 137  86  73  40  85  69 112 138 147 158 166 173 177
180 183 184 185 184 183 181 180 178 150 127 127 123 126 135 146 147 146 142 146 142 126 128 126
133 165 178 184 183 187 190 189 189 189 189 188 188 187 186 186 185 183 182 179 175 172 164 158
150 136 132  82   0  40  37  33  40  55  68  71 117 163 118   7 130 127  51  54
199 197 204 162 143 132  30  32  55  37  47  87  70  61  63  80  99 111 129 140 153 163 171 171
176 180 182 184 185 183 183 182 178 148 126 129 126 128 137 147 149 149 145 150 150 136 128 137
157 176 181 182 181 183 185 185 185 185 185 184 184 184 185 184 183 181 180 178 175 169 161 155
148 142 119  48  19  29  33  45  46  53  63  71  59  73  69  47  82   8  56  49
184 196 158 156 123  86  90 115   0  92  96 120 185 164 176 198 179  75 121 137 147 157 164 167
172 177 179 180 181 181 181 181 178 152 132 131 127 130 138 146 147 147 142 150 154 143 141 162
174 179 181 178 181 183 182 182 182 182 182 180 181 183 184 182 181 180 178 177 173 164 155 151
144 134 108  42  36  46  24  18  29  43  60  61  65  71  31  48  27  60  68  68
130 168 158 147  81 103 139 174  68 108 159 112 185 180 185 200 159   0 105 131 141 149 160 164
169 174 177 177 175 176 178 176 173 155 136 130 129 131 139 149 149 144 142 145 151 150 162 177
178 181 181 177 179 181 181 178 179 180 177 179 179 179 181 183 182 179 177 176 170 161 154 149
144 129  70  25  45  57  62  53  41  33  57  67  74  68  52  38  29  57  59 109
135 148 155  96  65 155 207 160 101 162 140 141 126 184 197 197  96   0  71 128 132 143 155 160
163 167 169 171 170 173 176 174 166 159 142 128 131 133 138 144 140 132 133 128 140 164 176 184
185 182 181 177 175 176 169 172 169 170 173 173 176 174 176 181 179 176 174 173 166 158 156 146
141 117  22  30  47  37  38  65  78  70  43  59  82 101  80  57  57  37  87 109
142 153 124 125 144 140 181 107 124 195 200 119 127 195 199 181  39  26   9 116 132 138 147 154
159 164 164 164 164 167 172 170 168 167 151 134 129 131 135 133 124 114 103 112 144 176 185 190
190 187 181 176 170 167 163 155 158 161 161 164 173 174 173 174 175 175 174 172 164 157 153 144
139  91   0  36  42  55  45  27  56  85  77  44  67  87  65  69  86  38  75 138
138  87 132 185 162 183 118  85 191 205 205 164 148 198 206 158   0  30   0  70 129 132 146 151
160 164 162 161 160 162 165 162 162 166 155 141 132 132 137 138 133 126 115 129 163 175 176 177
176 173 169 169 167 165 156 142 141 139 150 157 167 171 173 173 175 176 173 170 162 155 152 143
124  51  34  40  40  44  58  54  46  62  87  78  47  48  65  79  96  84  24  60
111 130 165 149 148 148  24 135 206 197 188 136 170 205 199 123  45  24  18   0 107 131 135 149
157 162 160 157 153 153 153 150 155 160 154 146 139 134 135 136 135 139 143 150 150 138 135 136
133 132 131 129 123 118 110  83  77  97 135 148 154 161 170 172 173 173 166 162 156 148 145 139
 98  17  47  45  47  43  45  61  61  51  71  92  49  64  65  51  88 113  91  95
114 137 115  77  76   0 155 170 188 195 169  99 160 148 120  84  78  50  25   0  64 122 131 146
153 158 155 153 151 147 144 140 143 152 143 132 130 124 123 123 123 124 131 135 127 125 123 113
 95  82  77  71  76  88  84  98 119 129 135 142 147 157 165 167 170 163 155 155 151 143 137 130
 63  26  45  48  47  48  47  51  63  65  55  66  71  49  27  53  86  97 105 122
 68  82  99  68 107 167 183 148 153 152 108  84  68  34  61  83  83  61  47  36   0  91 130 134
152 156 150 152 149 144 137 125 106 102 100  94  92  88  92 102 109 109 112 109 102  93  80  74
 83  97 108 117 126 127 134 145 151 151 153 154 153 155 158 160 162 157 150 148 142 140 136 109
  0  35  44  46  48  53  52  48  48  67  73  56  85  56  32  48  66  87  91  90
105 167 193 179 150 137 133 117 106 115  79  64  64  66  79  78  82  70  51  47  27  32 115 133
139 155 155 147 141 139 128 116  96  75  83  82  85  79  73  79  84  82  77  77  86 111 131 149
151 149 151 142 139 141 144 148 154 167 175 169 163 158 156 156 156 154 149 143 141 133 135  56
  0  19  43  46  51  50  55  51  49  53  70  79  65  64  62  82  71  81  87 100
126 156 147 144 138 115 110 101 110 102  61  59  52  48  71  73  94  82  57  53  44   0  59 123
134 142 146 142 143 139 136 133 124 111 115 111 117 114 111 112 112 113 117 120 140 156 159 160
150 145 149 141 135 133 139 155 167 167 169 171 163 157 155 153 148 149 147 139 135 133 102   0
 17   8  23  48  51  51  55  54  54  54  52  72  80  92  82  46  60  64  75  72
122 125 135 126 122 119 106 107 102  91  70  56  59  48  77  80  94  87  65  52  45  29   7  81
128 129 141 141 136 139 140 137 136 130 128 121 122 123 126 128 130 137 143 142 144 148 148 147
142 137 134 132 135 141 152 158 161 164 166 162 158 152 149 143 141 143 141 135 134 127  56  21
 23  14  23  27  50  57  56  52  52  56  61  65  72  84  89  31  17  38  29   4
112 114 128 127 122 104 101 101  85  82  71  55  55  53  90  92 100  95  66  49  39  22  36  31
 79 133 131 136 134 136 138 142 141 137 131 127 123 124 127 129 131 135 139 142 140 139 139 135
130 127 131 135 140 143 153 153 151 154 156 154 153 149 144 140 142 139 133 133 132  84  50  50
 29  28  25  28  31  52  58  52  55  58  62  65  71  78  95  79  55  70  72  54
114 108 110 113 106 102  98  97  75  71  68  63  57  48  91 102 109  98  74  58  47  28  30  42
  5  86 128 129 133 134 134 136 142 140 137 135 130 129 128 128 127 127 129 130 131 130 128 127
131 137 140 141 142 143 145 145 145 145 147 150 149 146 142 144 141 136 132 130  93  58  62  58
 49  40  35  33  27  32  57  60  57  59  60  60  61  70  88  94  69  74  87  97
123 113 102 116 107  89  91  95  72  66  61  63  77  89 115 110 104 103  87  65  52  32  28  42
 34  29  68 117 129 125 133 133 135 136 136 136 137 137 136 135 134 132 131 131 132 136 136 135
138 142 144 144 144 143 142 144 147 147 148 150 147 142 137 137 132 130 126 104  67  72  70  62
 59  53  45  36  36  18  42  60  55  58  58  56  57  62  74  95  81  73  81  86
123 119 106 125 109  79  87  93  70  63  60  56  49  56 109 114 112 110  96  73  59  38  28  46
 32  46  36  49 104 119 121 129 132 133 135 138 138 138 139 140 140 140 136 136 138 136 138 142
141 140 144 144 144 144 143 148 154 156 155 152 148 141 134 131 124 120 103  79  73  72  72  69
 67  63  54  45  41  37  19  47  59  55  57  55  57  62  70  87  89  70  71  72
118 114 116 120 110 107 104  88  65  59  55  56  54  44 100 123 122 117 101  79  66  44  27  47
 32  44  46  18  25  89 117 122 127 129 130 135 137 138 139 141 141 139 139 138 137 136 133 142
142 140 144 143 145 147 156 160 161 158 155 152 147 140 130 122 117 109  93  79  74  74  72  69
 71  68  60  51  40  41  25  23  57  60  55  56  53  57  66  76  85  74  71  83
105 108 109 114 107  97  85  84  77  54  48  57  56  47  98 125 123 119 105  86  72  50  25  46
 35  44  46  31   9  55  91 110 118 126 129 131 135 137 139 140 142 142 141 140 140 140 136 137
142 144 144 144 151 161 163 163 162 158 156 152 143 133 122 113 109 103  91  78  75  75  73  69
 71  72  65  57  43  42  31  18  38  57  59  57  58  60  65  73  83  77  78  85
119 115 111 110  98  89  79  79 101 122  91  56  65  53  87 121 123 126 112  95  80  57  23  46
 39  43  46  26  19  58  81  95 106 119 126 127 132 135 138 140 142 144 143 142 141 139 142 140
145 146 149 151 160 173 167 161 158 156 154 147 135 125 115 110 107 102  90  78  76  76  74  71
 70  72  69  61  46  45  37  19  17  53  66  60  61  62  66  71  83  81  81  93
123 122 115 112  98  91  78  71  80 120 139 119  82  71  93 121 116 124 118 108  90  66  22  43
 39  40  44  25  16  47  70  92  99 109 119 127 131 133 137 141 144 143 142 141 140 140 140 124
140 148 148 155 162 166 162 157 151 150 147 135 126 120 116 112 108 101  87  76  77  77  75  71
 69  74  74  66  49  46  40  26  15  37  66  66  70  66  68  70  87  88  78  88
122 121 116 112 100  89  81  80  78  74  86  95  89  77  97 118 110 120 122 119 101  75  35  37
 41  34  43  25  20  47  65  86  98 104 112 122 129 131 135 138 140 140 140 140 140 140 137 125
139 148 148 153 156 156 156 151 146 144 138 127 124 122 119 112 106  97  82  73  76  77  74  72
 72  77  78  72  55  47  41  27  21  21  58  77  77  75  76  76  84  89  77  83
125 122 116 108  98  89  84  80  82  86  84  75  74  78  84 112 115 129 129 127 113  87  52  27
 47  35  45  30  21  44  60  79  94 101 107 112 120 126 131 134 135 136 136 138 138 138 139 143
144 144 147 147 148 150 147 142 140 137 131 128 127 123 118 112 107  96  81  73  75  75  71  71
 75  80  81  79  62  52  47  28  23  17  36  82  87  89  90  89  89  97  80  81
124 119 112 105  96  84  79  79  85  84  83  83  84  91  82 118 128 134 133 133 123 102  68  17
 47  41  41  31  19  42  58  71  84  98 105 109 112 116 124 129 132 134 135 136 137 137 138 139
140 140 139 139 138 138 139 135 134 133 131 133 128 121 114 113 109  97  81  73  74  73  70  72
 78  85  88  88  68  55  55  34  21  22  30  83  93  99  99  99 102 111  94  74
123 117 108 102  95  90  95 101 105 104  98  90  92 101  92 114 136 136 135 137 131 116  85  31
 40  44  38  34  20  42  56  64  75  89  99 106 108 111 118 121 125 130 130 131 132 132 132 132
133 132 131 132 132 132 136 134 135 136 133 132 128 120 114 112 108  95  78  69  71  71  73  80
 88  94  96  95  74  58  59  39  23  24  34  73  90 100 103 101 101 110 111  92
123 114 105  99  96 106 116 119 112 110 102  86  92 102  91  99 135 138 138 141 139 126 101  58
 34  49  41  38  23  43  57  61  67  77  88 101 107 110 115 117 118 120 121 122 122 125 126 125
124 125 128 129 132 134 134 132 135 137 133 130 128 121 115 112 106  92  75  66  69  71  77  89
100 106 106 103  81  64  64  46  34  60  43  63  95  97 106 101  98 105 121 109
