P2
# 8-bit pgm gray
92 112
255
155 153 153 154 159 181 186 185 184 184 184 184 185 171 144 188 182  98 172 188 187 168 113  86
 84  85  82  78  63  50  43  28  28  50  46  29  22  31  42  59  53  54  62  79  93  95  90  91
 77  32  29  32  33  64  58  48 108  95 119 154 117  65  49  71 171 175 179 183 178 178 174 176
178 179 180 179 178 177 175 173 171 174 177 180 178 177 178 177 176 176 177 177
155 154 154 155 160 181 186 185 184 184 184 184 185 172 147 191 185 101 176 156 120  69  54  52
 51  58  62  38  38  35  25  31  42  37  19  16  28  44  44  44  51  56  63  69  73  54  44  63
 64  54  40  42  40  50  87 104  52  92 123 104  67  40  20  79 173 171 173 176 176 179 177 173
177 180 180 179 177 177 177 177 177 175 177 178 178 177 178 177 176 176 177 177
156 155 155 156 161 181 186 185 184 184 184 184 185 170 152 191 181  95  97  34   0  61  62  73
 69  72  74  58  45  36  37  32  29  24  31  30  32  33  38  37  33  26  29  27  18  35  39   4
 27  38  42  29  57  43  51  68  55  34  47  63  46  39  26  65 159 178 178 175 175 180 182 175
177 180 180 179 178 178 178 179 179 176 176 177 178 178 178 177 176 176 177 177
156 156 156 157 161 181 186 185 184 184 184 184 185 169 150 188 159  49  22  60  80  78  90  93
 75  68  64  50  39  39  37  33  35  31  29  36  33  24  29  16   5   5   0   0  20  21  27  31
 26  33  26  29  77  85  63  63  64  27  41  59  26  32  48  27 111 154 175 182 172 173 182 175
177 179 180 178 179 180 178 176 175 177 175 175 179 179 178 177 176 176 177 177
157 157 156 155 163 184 186 185 184 186 183 184 187 169 157 183  85  22  61  90  90  90  74  59
 39  23   9  22  39  51  52  37  33  26  31  28  21  29  33  40  50  54  58  47  28  20  56  71
 68  49  49  35  57  59  60  38  25  50  44  58  63   0  35  34  62 136 150 156 169 164 166 176
176 181 182 182 178 182 181 176 177 178 175 171 177 179 178 177 178 177 177 177
158 158 156 154 164 187 185 184 184 182 183 184 184 170 165 143  20  65  79  86  86  61  35  15
 19  28  29  36  44  52  64  50  47  45  40  34  38  47  45  48  54  69  80  69  46  39  48  59
 54   4  64  55  46  58  43  29  32  50  35  36  57  15  24  27  44 107 127 141 157 160 136 149
156 160 169 171 176 183 183 183 176 180 177 170 178 180 177 177 180 178 177 177
157 158 157 156 166 187 185 184 184 179 181 183 184 168 162  85  56  59  66  70  65  38  21  15
 29  33  40  48  50  53  57  50  44  46  43  38  40  39  31  19   9   8   0   1  20  35  36  41
 73  71  16  51  45  60  59  52  38  29  17  14  55  52  28  41  77  74  78 115 119 146 140 130
122 114 164 172 165 169 179 179 183 181 178 171 179 181 177 177 180 177 177 177
157 157 158 158 168 187 186 184 185 178 186 179 183 167 105  58  80  51  66  78  49  35  15  16
 34  28  57  74  60  53  48  43  39  44  39  45  33  25  18  18  16  23  24  22  23  20  30  30
 74 103  63  56  47  47  48  36  31   6  28  70  81  74  28  38  32  55  67  79  65  75  76  55
 36  42 142 180 178 166 173 188 180 176 177 170 177 180 177 177 180 178 177 177
157 157 158 159 169 188 185 185 183 184 179 185 164  84  36  51  64  47  72  58  35  42  55  47
 41  56  92  92  53  37  40  51  50  47  38  43  26  34  39  41  26  30  40  40  36  36  39  43
 40  54  63  62  51  48  46  41  42  53  50  54  64  53  27  16  22  23  35  58  71  47  36  56
 68  63  84 116 133 122 117 118 174 185 179 174 180 183 177 177 179 177 177 177
158 158 160 158 167 185 185 179 182 177 171 146  72  61  75  53  42  41  46  40  40  19  39  43
 41  72  91  69  42  50  55  55  46  38  41  33  41  45  47  39  34  24  31  36  22  32  45  51
 60  25   6  34  50  70  74  65  56  59  35  43  28  12  15  13  11   1   9  47  59  17  29  42
 52  68  90 131 163 164 168 137  84 169 182 173 180 184 178 179 179 176 179 179
159 156 162 155 174 187 184 179 174 142 116  42  59  63  28  42  46  44  26  47  41  38  30  44
 52  58  57  51  52  46  39  45  51  51  35  37  52  43  36  46  51  39  25  30  29   8  55  75
 67  54  35  18  21  34  63  59  49  26  61  67  17  22  24  27  33  25  22   6   2  53  33  23
 44  46  92 130 129 143 152 174 100  91 179 175 178 172 175 181 182 177 179 179
160 157 159 148 166 157 135 130  97  52  11  29  47  53  42  41  36  36  37  26  31  34  47  49
 44  42  63  69  63  71  77  79  96  67  54  53  41  38  62  52  64  54  41  27  38  36  62  91
 62  53  49  45  34  28  56  71  62  44  56  28  33  39  27  26  15  29  28  21  38  62  37  51
 40  21  59  88 104 107  93 120 136   0 152 182 179 175 168 176 179 176 179 179
158 156 142 138 117 117 120  53  47  46  63  51  62  64  44  58  55  59  46  46  18  51  55  46
 50  64  76  74  78  73  76  98  98  61  52  25  24  59  45  53  49  49  52  49  32  19  68  68
 61  61  62  56  53  53  42  54  62  72  53  39  21  28  21  16  17   9  14  21  46  29  18  63
 42   5  69 141 141 137 124  90  73  99 103 176 178 180 172 173 176 180 180 179
154 148 129 118 128 168 123  47  62  67  72  73  47  40  64  50  53  54  58  63  61  64  60  73
 83  61  45  35  19  53  80  68  56  38  14  22  35  42  43  44  47  45  46  58  46   0  55  93
 45  59  58  62  64  56  55  63  89  85  44  48  63  68  80  60  26  38  32  31  30  21  26  51
 74  23  62 164 162 175 163 157  93  93  99 161 180 181 177 174 181 178 178 179
145 138 142 118 163 114  29  49  55  49  40  36  50  62  42  49  57  48  63  68  64  53  56  65
 70  27  19  29  54 100 102  67  93  94  58  42  39  37  29  44  48  43  38  47  44  27  16  60
 45  58  63  49  53  45  49  63  83  46   8  48  47  61  55  65  77  47  32  18  27  24  34  61
 69  47   0 101 121 131 153 181 130  78  72 119 175 177 170 174 178 177 178 178
143 155 125 139 144  60  30  52  32  29  24  41  54  47  32  46  54  64  69  66  58  40  53  46
 34  20  29  44  61  70  73  52  66  68  46  39  32  20  34  57  59  54  43  52  25  42  45   0
 38  52  61  52  43  46  46  64  61  40  46  20   4  31  39  16  43  53  45  36   7  30  33  31
 39  43  73  37   0   0  53 137 134 125  72 105 171 172 182 172 181 180 177 178
158 152 130 149 128  29  51  42  32  30  19  41  47  41  40  38  54  43  38  49  40  55  54  19
 10  18  18  61  61  47  42  26   8   0   0  32  35  49  64  60  59  52  49  43  24  52  54  30
 18  44  58  49  38  35  37  49  59  45  25   2   0  22  49  68  42  42  49  64  17  16  31  28
 43  34  62  57  45  48  74  82 115 146  88  78 140 152 170 179 178 187 178 178
152 130 142 138 114  43  39  17  30  27  34  58  42  51  42  51  44  41  63  40  42  23  17  22
 21  12  32  29  45  58  35  35  33  35  36  39  47  59  69  67  65  73  96  45  44  73  56  50
 31  16  41  51  61  60  54  50  47  38  15  25  52  30  38  96  78  42  30  25  21  21  21  20
 32  43  14  13  40  47  71  86  77  79  55  58  91 129 123 139 163 173 177 178
146 128 153 129 100  50  34  34  35  45  49  67  58  19  38  47  30  58  52  31  45  12  37  40
 32  23  28  35  41  46  31  34  52  38  61  58  57  60  63  58  65  99  87  58  45  80  56  66
 44   6  23  24  25  37  26  41  78  85  60  43  67  67  29  51  56  63  37  33  35  24  16  26
 28  51  46  13  10  36  70  79  58  48  45  46  61 101 120 104 146 173 172 176
128 137 150 104  66  21  56  54  33  20  20  50  45  12  38  34  19  54  56  41  30  53  56  42
 34  15  38  50  28  29  47  73  76  64  76  73  68  60  67  24  57  82  55  66  27  79  52  74
 75   7  26  42  42  37  61  46  44  40  43  26  13  46  47   0  48  55  48  59  32   0  12  15
  8  48  44  31  35  52  65  60  80 115  99  61  68  21  58  73 119 178 173 179
132 154 116  75  24  20  49  53  32  18  34  41  24  15  36  35  33  50  61  43  31  59  64  43
 17  17  31  40  40  51  49  43  63  87  73  53  68  77  47  33  64  57  30  52  45  78  88  64
 94  38   7  33  57  65  77  87  56  38  20  29  20   2  23  62  78  46  26  46  40  17  12  29
 29  53  56  27   5   4  25  49  46  78  64  57  84  70  60  11  97 182 173 181
139 162 101  49  41  35  36  59  49  18   1  40  17  23  33  36  39  53  48  61  59  52  48  35
 22  25  25  41  37  44  47  53  79  62  55  78  88  75  40  49  64  45  13  80  52  60  98  74
 97  81   0  22  53  72  89  67  69  58  37  24  18   7  60  81  59  30  20  49  49  25  19  29
 59  63  71  58  40  36  58  66  40  32  54  75  68  70  35   0  88 175 174 180
138 162 111  42  74  39  32  52  55  36  70  33   9  28  29  30  52  59  65  61  34  36  38  43
 37  27  41  72  78  70  67  47  69  69  80  66  43  67  78  76  69  56  76  75  59  67  71  51
 50  56  44  28  30  43  71  79  36  52  41  34   0  20  54  19  34  84  63  40  47  36  26  19
 40  35  33  48  64  74  64  43  39  52  51  56  33  29  33  69   0 148 181 179
129 156 114  65  82  67  57  43  52  79  83  28  11  37  40  21  60  63  36  39  36  13  42  44
 25  44  52  85 109  77  97  67  79 100  66  18  45  71  66  58  64  60  81  60  54  40  74  39
 35  32  77  49   0  44  31  52  50  33  35  27  15  29  28   5  45  73  31  36  33  30  23   2
 51  77  78  51  24  16  27  34  30  45  19  59  46  10  44  67  60  76 178 174
134 152 132  92  97  58  44  68  76  53  43  29  33  60  63  38  61  53  41  68  44  23  51  54
 28  41  51  55  80  98  78  73  71  85  18  31  40  29  17   0  48  71  41  27  33   8  34  52
 20  33  56  71  34  48  50  28  31  20  26  16  16  33  19  17  38   0   0  33  46  29   3  13
 29  34  60  51  30  23   0  15  31  30  23  35  36   0  47  58 116  96 103 186
119 140 151  89  75  43  30  72  74  44  15  21  25  53  60  46  54  36  34  52  46  47  57  66
 49  21  50  60  90 123  99  47  65  49  17  36  30  16  21  20  21  56  80  31   9  29   2  31
 29  20  27  68  70  38  33  38  60  59  35  18  14  26  22  31  22  12   4  43  51  36   4   2
 10   0   0   0  19  43  59  43  30  23   9  44  50   8   0 104 142 130  66 161
146 114 105  52  46  35  29  75  61  39   8  14  21  50  56  42  54  34  42  33  50  59  83  65
 42  25  57  95  95 121 106  49  36  25  17  27  33  22  30  33  30  16  47  55  13  17  17   4
 25  18  22  42  55  44  30  70 100  79  52  34  19  20  20  25  11  11   1  18  37  43  47  56
 58  45  30  25  25  20  29  28  41  35   0  73  62   0  52 139 162 140  66 130
121  82  58  60  41  35  23  73  56  19  13  15  35  44  39  35  63  44  50  51  41  62  85  72
 31  24  55 112 124  99 111  56  32  22  15  34  40  29  40  27  25  19   0  33  32   7  14  11
 12  23  23  39  39  41  43  55  63  35  36  39   7  22  18  15   5   7   5  38  39  22  41  64
 69  56  34  27  36  25  22  12  16  17   0  94  76   0  96 152 160 137   6 126
 53  57  49  34  16  45  50  51  32  23  15  29  43  40  30  31  58  48  60  74  38  51  55  43
 36  27  40  77 113  99  86  40  58  23  10  31  33  32  35  14  14  13  21   9  22  27  20  17
 18  25  25  25  34  39  32   0  10  31  39  34   3  15  19  21   3   1   0  35  40  28   9  15
  0  32  38  31   2  10  20  34  27  13   0  72  55   0 104 147 159 104  54 165
 57  45  39  42  40  64  67  28  17  23  18  39  45  35  40  51  64  63  52  78  63  50  61  64
 47  40  42  40  49  49  28  77  73  29  20  21  20  36  37  19  12  10  33  36  20  26  26  19
 15  26  28  23  29  13   9  21  17  26  50  46   4   8  17  25  32  11  25  10  19  35  44  57
 77  81  59  41  28  32  23  43  12  14   2  34  35   4  44  98 102  57  84 129
 29  54  56  29  56  62  43  29  20  27  19  40  39  25  23  29  22  78  79  51  69  71  81  79
 45  19  21  65  64  44  52  99  80  20  23  22  24  25  22  12   5  10  37  53  30  19  34  19
 13  29  28  29  16   2  13  10  11  27  40  41  20  12  10  22  40  51  52  41  28  52  68  74
 71  66  57  41  21  16   9  25  16  21  18  21  25  22  22   0  42  66  29   0
 38  61  46  33  26  79  66  23  28  25  14  41  37  28  19  37  44  64  73  43  17  37  47  55
 45  27  23  55  60  43  62  80  85  20  21   5  74  46   0  22  10  11  34  60  44  19  35  31
 23  30  25  29   6  10  11  13   9  13  18  28  21  18  10  21  48  50  43  47  51  50  58  58
 51  56  47  33  21  25  16  22  35  29  18  23  25  15  22  44  40   0  13  75
 80  70  43  40  26  59  60  24  35  43  46  44  61  42  18  42  50  60  60  42  16  16  17  40
 50  22  29  67  57  42  65  81  79  43   9   8  65  58   0  42  37  28  32  64  67  18  37  61
 51  38  34  50  18  36  35   6  14  15  27  26  17   8  19  37  33  44  28  20  28  23  31  55
 53  37  41  34  24  17  28  33  47  27  11  14  11  15   0  65 111  81  95  43
 74  42  47  53  56  34  38  26   9  19  36  50  73  44  28  51  53  57  60  34  33  18  23  29
 38   9  29  41  47  70  81  98  92  54  25  20  31  37   5  29  42  16   5  44  63  42  66  62
 79  62  46  55  38  45  38  22  10  17  32  26   7  15  43  24   7  44  35   3   5  16  32  48
 26  22  42  22  11  10   7  38  36   9   9  23  35  33  27  57 103  99 101  22
 59  59  50  70  78  55  15  18  18  26  25  29  54  67  44  55  62  62  75  52  37  21  17  23
 25  13  31  32  68  86  85  98 109  87  67   9  41  33  40  19  29  21   0   9  47  58  71  65
 46  55  58  50  42  50  68  58  32  30  27  20  30  32  16  20  38  48   6  18   5  21  28   0
  9  29  23  16  11  13   7  14  37  41  62  58  53  33  27  26  67  85  87  64
 55  35  54  65  87  63  32  12  20  13  34  36  47  65  56  42  65  70  79  58  30  30  23  22
 12  12  28  62  81  81 107 113 111 106  80  63  61  89  48   3  12  57  52  50  41  41  42  28
 16  49  49  42  23  58  61  56  61  30   3  29  25   6   1  21  31  36  20  20  25  22  27  24
 16  18  21  17  12   8  16  55  53  57  66  41   4  30  32  21  60  96 134  49
 38  21  41  71  79  57  34  20  19  20  14  23  54  60  74  48  44  61  60  50  44  32  24  32
 20  30  57  78  86  98 121 120 102 109  94  82  74  56  32  67 105 114 104  60  32  31  14   0
 43  56  57  74  83  63  77  87  48  15  29  21   0  13   8   4  19   6   8   4  31  46  63  57
  0  11  20  19  20  16  37  61  59  43  31  22   7  29  34  46  52  49 118  54
 42  28  18  30  53  52  49  40  20   6   7  14  37  46  67  70  57  51  52  45  38  22  18  25
 34  55  63  78 100 113 122 120 110  89  58  48  28  25  58  72  80  81  61  35  20   7  30  44
 49  43  60  86  95  84  69  77  62  20  18  39  47  25  13  10  23  10   1  12  16  22  47  71
 73  41  20  31  27  27  41  53  42  24  30  54  47  34  45  40   0  91  68  65
 46  52  34   4  21  30  42  60  48  20  13  22  34  52  62  70  72  50  49  26  17  30  51  52
 74  74  77 107 107 111 120 116  99  39  30  29  30  25  51  74  59  33  16  18  16   0  57  67
  9  22  27  23  19  33  48  33  17   0  11  55  73  69  40  20  27  30   0  14  32  20  21  36
 51  38  28  28  35  37  43  46  43  49  77  60  45  10  58  49   0  90 108  49
 46  63  42   4  14  34  35  30  28  31  20  29  37  49  70  69  36  16  40  32  54  52  61  74
 81  78  95 116 117 113 119 114  61   6  17  24  34  48  75 108  86  56  46  33   2  37  62   9
 12  11  10  33  48  40  41   8   3   8  23  63 119 101  46  43  25  22  34  22  21  13   4   9
  0  10  12  19  32  30  34  27  51  85  79  56  29  51  68  42  31  92 128  49
 59  63  44  19   8  23  36  27  25  34  23  25  36  45  66  56  26  46  51  59  46  62  78  82
 80  89 106 112 117 123 125 105  13  22  21  38  35  18  37  66  72  66  56  47  29  49  46   7
  5  25  31  53  62  43  32   0   4  23  45  83  92  84  46  18  25  10  30  32  27  26   0   6
  6  17  20  17  10   9  15  22  47  56  41  66  69 103  79  45  41  96 123   1
 54  70  56  15  18  19  27  24  25  29  22  26  41  50  59  54  30  53  58  36  52  77  86  85
 85  94 108 115 116 118 121  81   0  31  47  38   8  53  74  37  56  62  57  56  44  29   6  17
 16  14  37  58  44  50  43  10   8  39  73  85  95  74  46  42  54  49  28  33  30  41  40  17
  1   8  14  19  30  19  18  35  47  41  32  66  62  55  33  15  18  76  57  18
 31  68  55  10  18  49  47  26  10  21  24  32  41  46  49  60  63  38  41  66  92  82  81  89
 88  97 112 119 120 116 122  81   2  39  44  25  39  85  74  47  25  66  91  56  30  26  15  13
 22  30  64  69  36  41  44  24  22  44  76  93  89  90  80  55  60  73  70  58  58  57  57  38
 29  22  17  11  10  11  27  49  57  45  61  58  27  12  32  42  57  68  22  44
 27  51  50  27  30  42  39  35  15  12  17  28  33  27  35  58  84  57  66  86  87  98  93  92
 92 101 115 124 123 124 124 109  44  39  44   0  61  89  55  43  29  97 115  76  17  15  20  18
 34  33  38  58  43  43  40  13  33  51  65  64  83 104  78  57  67  77  88  79  67  53  51  56
 50  54  25  26  33  14  45  48  46  41  52  34   6  22  42  54  41  24  71  65
 36  52  54  43  43  21  31  39  32  14  13  26  29  29  29  50  52  57  82  88  85  91  91  95
 96 104 117 130 127 128 120 128  88  32  46   6  64  80  28  36  36  92 107  70  48  20  20  24
 31   0  67  98  49  46  52  18  30  48  41  70  94  93  79  61  64  86 101  80  63  43  53  50
 45  49  30  17  29  32  36  28  33  44  13  33  37  31  21  24  25   0  78  74
 33  52  63  57  63  25  20  16  23  10  19  43  38  54  72  70  69  36  76  86  90  88  92  97
102 110 121 132 130 125 127 133 116  64  38  19  47  50  38  64  40  79  87  72  56  11  17  24
 17  44  77  98  69  41  46   3  32  29  48  71  81  81  72  61  61  78  82  51  38  43  53  64
 57  49  34  13  49  41  18  21  30  32  25  31  36  32   0  14  24  66  89   0
 28  34  67  58  79  81  16  16  17   0  10  45  61  72  88  98  74  43  47  72  86  89  96  98
106 115 127 132 128 125 126 128 134  90  36  25  25  56  72  62  41  71  76  73  45  11  16  20
 15  65  91 105  87  23  45  18  29  29  48  70  66  72  70  59  61  70  49  28  21  12  56  64
 52  44  26  37  50  29   5  19  19  15   7   9  19  30  45  20  12  76 129  80
 52  50  35  32  66  89  43  12  14   4  21  32  47  86 105  80  63  51  37  55  77  88  96 102
111 120 128 131 129 128 127 127 129 123  53  31  20  65  74  49  49  92 114  89  50  39  21  21
  0  50  96 107  91  27  42  29  11  30  46  73  71  56  65  65  62  51  11  12  10  59  71  60
 48  37  36  41  39  31   6  17  26  35  48  59  60  49  52  25  25  54  67  67
 46  74  65  21  33  59  55  28  20   8  24  31  45  61  92  82  71  51  38  45  70  89  92 104
114 120 124 130 132 132 130 128 134 139  84  56  45  51  58  48  58  80 101 120  97  58  30  15
 12  25  82 108 101  15  64  48   8  29  35  57  67  61  65  61  60  31  19  24  28  64  64  46
 43  26  53  53  36  22  20  11  17  23  34  42  38  30   7   8  52  89  47  14
 49  59  81  57  27  35  50  44  14   7  22  31  32  53  68  71  72  60  45  42  52  85  99 114
120 125 126 130 133 133 133 130 131 136  95  71  91  57  50  37  42  47  87 131 109  50  36  24
 18   1  48  82  46  35  74  70  31  17  28  25  56  66  61  66  68  31  19  42  24  51  55  53
 35  10  53  36  25  36  19  10   9  31  27  13  19  39  39   4  44  86 143  70
 69  79  58  58  49  38  39  53  45  16  30  36  35  51  69  83  82  68  50  37  32  83 110 123
125 126 125 127 129 131 133 133 134 131 115   0  60  54  36  30  41  55  91 112  86  38  23  15
 12  21   6   3  54  95 104  88  62  34  23  82 106  75  57  77  83  57  30  27  14  30  36  41
  9  14  13  17  66  47   0  28  34  41  44  32  35  41  29  31  71  81 133 118
 55  74  88  64  43  27  29  40  49  36  33  29  37  53  66  82  87  79  63  34  20  82 111 122
125 128 129 125 125 128 132 132 134 136 117  39   0  22  21  35  31  56  75  88  73  18  12   5
  0   0  21  49  68  77  74  56  46  44  39  66  68  56  81  68  39  54  54  17  11  12  17  18
  7   6  16  37  52  33  40  42  39  40  31  20  25  17  41  35  70  76 140 136
 80  43  37  67  63  35  15  29  39  41  36  19  36  54  66  75  81  85  71  37  37  98 114 121
126 131 133 128 126 129 131 132 129 132 125  93   0  23  30  21  49  83 100  99  49  28   3  10
 39  33  13  26  15  10   3  23  38  32  19  16  42  51  54  52  35  34  61  71  42   5  10  14
  8  10  29  30  29  38  40  35  36  27  15  25  35  49  28  43  66  44 109 120
 53  69   3  17  32  42  40  26  26  39  39  14  37  54  62  73  82  81  59  25  43 107 116 126
130 131 131 131 130 129 130 131 131 125 122 121  97  49  28  75 114 114 118  61  48 108  92  18
 46  97 106  75  41  25  14  22  35  23   0  53  65  68  87  72  64  46  63  85  71  40  23   5
  6   5   8  11  35  40  26  27  38  47  65  68  63  19  72 132  65  86 113  58
  0  42  49  26  33  15  34  41  16  27  37  25  36  48  59  74  78  60  30  12  86 110 119 128
131 134 134 137 135 130 131 135 131 121 120 124 123 114  93 113 124 118 126  94  18  64  86  50
  0  41  73  78  57  51  45  32  31  41  43  62  74  86  85  76  67  52  56  89  91  74  62  22
  5   4   0  13  17  10  25  44  54  63  56  43  33  25  80 112  64 120 156  91
  9   1  49  53  37  30  22  32  35  11  32  30  33  54  84  86  51  23  34  74 105 107 117 126
129 133 134 136 135 132 133 135 129 120 120 121 122 124 119 108 113 120 119 115 104  67  50 123
118  59  38  41  39  46  69  68  72  71  72  77  73  72  78  83  48  44  48  66  59  61  58  23
 32  22  34  33  34  53  31  27  35  23  34  45  54  63  49  52  82  98  95 118
  7   2  29  57  36  25  30  26  41  29  32  35  40  72  98  83  44  60  90  99 101 103 112 125
130 134 136 136 135 133 132 133 129 120 119 121 123 125 125 104 116 122 120 115  83  61  60 106
129 111  82  66  58  21  65  90  89  61  77  95  90  77  99  97  62  51  35  48  52  53  42  55
 73  57  36  18  21  66  49   0  11  14  29  41  48  80  67  98  63 125 117 137
 12  15  12  43  49  29  36  33  32  49  47  49  51  65  78  79  79  98 101  93 102 110 116 127
132 137 140 139 139 139 137 136 131 122 121 124 120 124 129 120 111 124 126  66   0  34  47  46
 88 117  83  48  62  40  53 107  99  53  95 105  82  70  71  48  71  50  17  42  39  36  61  87
 76  41  24  31  43  66  47  47  19  26  30  25  48  49  76 124  82  95 145 133
  8  21  25  25  46  47  32  40  30  48  64  70  52  51  68  76  91  97  96  94  95 114 120 126
134 141 144 144 141 140 139 136 129 120 120 123 126 127 130 132 126 121 126  60   5  42  31  40
 60 103 126  96  64  41  44 104 104  51 101  82  37  61  13  68  87  42  40  54  60  62  64  45
 37  41  41  24  38  61  47  41  19  20   7  21  44  33  61 112  68  89 120 111
 26  17  30  22  42  48  41  38  36  55  49  79 106  92  72  76  88  99  99  93 100 114 121 126
133 140 144 145 142 141 141 137 127 120 120 121 126 128 131 132 133 125 127 109  36   4  28  41
 75 122 131  99  58  37  43  85 105  55  74  50  63  32  61 104  40  37  64  71  81  71  65  79
 72  44  79  76  61  51  37  24  29  25  30  44  60  45  32  33  29  58 107  55
 43  30  26  28  60  39  44  47  36  54  50  61 101 108  87  82  85  93  95  96 103 115 125 131
135 141 146 146 142 143 144 140 128 123 123 122 127 131 133 135 131 134 129 120  99  45  43  73
100 126 114  82  62  41  40  95 125  86  33  54  34  45 105  78  42  40  17  16  43  79 100  99
 98  60  87  89  84  32  13  39  45  13  40  45  55  59  65  38  41   0  66  81
 42  43  37  30  53  29  37  50  44  49  49  85  62  78  89  80  83  88  91  99 107 117 129 134
134 139 145 149 147 148 150 146 130 128 129 126 129 132 135 135 134 133 135 111  63  26  23  65
 81  74  54  32  26  15  69 121 126 118  70  28  37  42  44  50  61  73  84 102 116 111 114 122
109  57  87  71  51  25   4  71  63   0  36  37  41  72  61  60  53  37  44  28
 34  44  44  20   9  28  34  37  51  57  58  77  83  70  78  78  82  89  90  98 107 116 128 130
131 135 139 141 138 139 141 138 133 131 131 129 131 133 135 139 136 132 138 131  88  97  56  19
 35  47  31  44  67  81  95 132 131 128 115  96  93 100  91  91 118 132 133 134 125 111 105  89
 78  40  44  42  54  48  63  29 100  74  38  43  38  71  64  50  43  21  49  79
 35  39  91  55  11  29  28  38  43  55  53  72  87  82  84  87  82  82  84  92  98 104 110 107
106 107 110 116 115 116 119 118 115 114 113 119 126 131 132 139 135 135 140 143 127 107  93  84
 78  67  80 106 110 106 115 138 136 136 138 136 137 137 132 130 132 125 125 116  94  66  49  59
 75  74  39  50  53  70  73   0 127  89  36  52  52  45  55  64  30   6  71  80
 36  32  80  54  30  23  25  44  39  47  43  66  84  83  88  87  86  83  81  91  96  95  94  92
 82  75  75  81  81  84  94  98  90  81  77  78  85  91  98  98 115 120 121 120 126 123 109  99
 99 102 115 121 119 136 138 137 138 139 136 137 137 131 133 126 114  98  89  65  51  61  49  39
 86  90  44   0  84 110 107  91  59  61  33  43  53  39  71  76  24  56  57 140
 58  39   4  44  68  44  37  44  45  53  45  63  77  78  89  88  84  93  87  92 100 103 101  92
 99 100  96  93  87  80  75  72  73  67  68  62  59  52  57  55  58  66  77  79  90 102 110 117
125 129 129 137 140 138 141 137 139 138 135 130 133 134 114  97  69  59  58  80 114  96  65  81
 96  73  74  62  66 105 153  83   0   7  31  36  55  40  54  56  48  49 101 143
 74  33  61 120 102  20  50  44  52  54  45  61  78  74  77  97  91  98  99  99 104 108 114 120
123 126 125 126 123 116 104  87  66  66  67  52  50  66  58  62  70  63  55  59  64  83  95  99
111 125 129 130 129 134 135 134 140 132 133 127 117  98  75  38  69  78  28  98 114  87  89 127
135 129 121  53  50 120 134  61   0  61 101  42  24  40  52  40  33  47  93 134
 55  48  77 123  74   6  48  52  57  53  47  58  78  79  67  97 103 102 101 107 110 110 110 112
116 117 109  96  79  53  36  22  27  37  35  44  43 110 114  94  91 103  97  88  98  89  84  87
 93 108 119 121 128 135 135 130 131 127 115  93  66  44  38  41  76  66  76 132 104  75  92 108
107 107  94 103  25  52  64  33   0  91  90  48  43  39  30  18  34  64  58 125
 45  59  41  77  35  48  58  47  57  48  53  66  80  86  64  95 110 108 112 115 115 106  97  96
 87  80  72  61  26  49  66  38  40  42  68   0  34  97 135 123 110  89 104  97 101  99  82  79
 85 102 115 121 124 131 134 133 129 112  79  39  58  58  36  39  52  95 132 109  76  70  92 102
105 107  91  55  90  39  31  35  24  87  57  89  50  33  40  44  33  91 113  47
 48 117  82  30  43  46  64  55  51  45  52  71  80  89  72 101 113 108 115 117 117 107  97  89
 83  78  72  65  59  69  91  41  53  42   0 109  69  95 136 125 122  99 103 102 114  98  81  77
 86 102 112 119 124 129 131 131 126 106 104 100  90  85  84  79  78  91  73  66  69  87 103 105
110 107 101  88 102  47  22  31  47  96  52  46  34  71  45  54  56  75 105  83
 65 106  96  56  47  38  53  55  44  48  53  70  82  87  82 107 117 117 117 116 116 114 111 108
105  97  81  72  79  68  93  86  40  50  51  76  80 144 149 130  63  66  79  92 131 110  86  75
 78  94 107 120 128 133 135 131 119 103 113 106  98  93  95  99  98  94  89  93  94 104 105 109
108 116  83  62   0  22  31  23 118 103  49  59  46  55  41  31  66  61  53  96
 78  28  28  50  23  52  40  42  41  53  55  71  86  86  78 103 113 119 118 118 116 117 117 112
111 108 101  86  78  81  75  94  88  66  73  85 140 147 121  78  78  86  95 121 122  99  82  72
 78  92 103 119 130 136 139 134 118  85  98 103 104 103 103 106 107 105 113 116 110 109 107 114
117 113  77   0  77  37   0  79 158  87  78  60 122   0 101  80   0  53  58  62
 63  39  61  40  39  54  44  54  47  49  51  71  82  79  86 106 114 118 117 115 116 117 117 113
114 112 110 105  92  83  79  75  86  90  96 103  96  82  81  96 105 106 117 119 101  92  81  75
 85  92 101 115 127 132 135 131 120  82  93 104 107 111 112 117 121 122 122 119 112 108 112 116
114 123 149  79   0  20  29  94  72  77  43 127 114  53 102 121  54  29  47  39
 49  39  49  33  44  55  56  52  51  41  59  71  86  83  91 104 111 120 123 116 112 113 118 122
116 114 116 115 109 103  93  83  84  91  95  96  95 103 109 109 106 107 110 105  90  89  84  82
 90  97 105 114 124 129 133 130 119  89  97 105 104 109 115 118 123 123 115 110 111 108 112 116
121 116 113 115  92  43  19  96  76  39  53 121 108  74  32 107 161  88  30  60
 53  52  35  32  78  78  53  44  53  50  56  57  84  90  93 103 108 118 123 117 113 115 119 121
117 115 116 115 114 117 114 109 114 107 105 110 109 111 113 113 112 114 112 100  89  91  89  91
 96  98 105 113 122 127 130 127 119  97 100 111 106 106 108 113 120 125 121 115 111 112 117 117
118 114 127 163 166 102   0  76  83   2 109  88  18 100 110 108 131 155  70  57
 78  44  53  69  78  73  37  43  52  50  40  51  77  83  90 103 107 114 118 118 119 120 120 120
121 120 116 116 116 120 125 123 125 125 124 125 122 123 121 118 114 113 111  98  93  97  95  97
 97  96 104 110 121 129 130 126 118 102 101 112 114 114 112 113 115 116 116 114 112 116 122 122
114 126 172 174 149 150  64  30  79  73  58   8  85 113  85 143 114 140  96  29
 87  68  53  66  70  50  27  51  55  53  38  34  70  85  91  94 104 113 116 118 123 121 122 122
123 121 118 117 116 117 121 124 127 129 131 130 130 127 122 119 117 112 105  99  99 100  99  99
 99  99 103 108 119 130 130 128 120 109 104 111 117 118 114 118 119 118 118 115 118 123 123 119
145 139 176 176 151 154 180  90   0  98  51  73 124  85 157 109  77 112  83  56
 63  79  55  88  64  29  45  61  43  58  38  29  68  82  88  92 103 106 111 109 122 131 127 124
125 125 122 121 120 119 120 123 126 127 128 129 128 126 122 118 116 113 105 100 101 102 102 101
102 101 103 106 118 129 131 128 129 116 104 114 121 122 118 118 119 120 123 120 127 122 120 132
195 183 130 138 160 152 182 137  99  90   0  86  94 107 125 103  65  60  66  57
 75  61  75  85  46  49  60  59  57  41  46  38  57  84  85  91 101 100 103 112 120 120 126 127
128 129 127 126 125 123 123 125 127 127 127 126 125 123 121 118 117 115 107 103 103 103 105 106
105 102 102 104 115 129 131 127 136 122 103 119 125 128 125 118 118 121 123 126 123 127 117 159
187 180 171  83 134 184 174 105 159 170  49   0  45 121 117  58  90  73  46  47
 59  72  65  49  45  76  72  60  54  19  39  32  38  80  83  87  97 103 102 112 117 107 121 127
129 131 130 128 127 126 129 130 129 128 127 127 125 124 122 120 119 117 109 104 104 104 107 111
108 103 102 101 114 130 130 131 134 121 108 119 127 130 128 123 123 124 124 127 123 126 128 180
194 163 190 175 114 159 102 134 177 147  84  19  48  45 104 112 111  81  19 120
 47  70  57  42  47  84 100  63  47  27  26  27  40  72  85  84  95 104 111 114 120 122 127 126
129 131 131 127 127 130 132 133 133 132 130 127 125 125 125 124 122 117 110 106 106 106 108 110
108 104 102 100 110 128 129 131 132 118 111 120 127 130 129 130 130 130 131 127 132 128 105  99
141 173 167 161 113 113 135 140 137  92  38  48  41  20  65 109 148 111  73 132
 73  56  56  54  53  81  85  47  40  23  16  16  32  63  90  84  91 100 112 115 116 121 128 127
128 130 132 129 129 133 133 134 138 137 134 129 126 126 128 127 125 116 108 106 105 107 107 105
104 103 101  99 107 125 128 126 132 116 110 123 127 128 131 131 132 133 134 136 129 128  87  89
 99 101 100  87 135 197 188 185 157  13 112 145  62  91  41  71 168 111  63  59
 75  67  56  48  49  49  43  39  36  20  20  16  16  48  86  85  85  99 112 115 118 122 127 126
127 129 131 133 132 131 135 138 135 136 133 130 128 129 130 129 126 118 109 106 104 106 106 103
100  99  99 100 109 126 128 126 130 115 111 123 128 129 132 133 133 133 134 133 125 120  89  88
 95  72 112  91 139 177 181 182  85 105 174 146  76 132  99  30  89  86  80  47
 61  65  72  44  31  29  50  47  19  27  27  23  19  23  70  88  86  94 106 113 118 120 124 125
126 128 130 132 132 132 136 138 133 134 133 130 132 134 133 130 128 120 110 106 104 102 102 100
 99  98 100 102 110 123 130 128 130 118 114 124 129 130 133 135 135 134 134 131 133  94  73  75
 57  76  91 112 121 148 189 173  80 168 150  93  56  54 102  84  77 130 119  62
 39  58  85  71  28  39  54  45  25  24  21  14  27  25  53  92  92  90  99 110 116 117 120 124
125 127 129 129 131 135 136 134 136 138 137 135 135 136 135 132 128 117 107 102  99  96  97  98
100 101 103 105 109 118 128 126 127 116 114 125 130 131 133 137 137 135 134 133 122  56  58  90
 72  54  85  94 113 110 149 186  97 120 167 131 122  92  94  94  81 119 155 104
 57  55  80  71  48  43  57  34  21  28  15   0  37  34  33  80  95  94  96 107 115 117 118 124
126 129 131 133 134 135 136 137 139 138 138 138 135 136 137 135 129 115 104  94  90  91  95  96
 97 100 105 105 108 117 126 127 127 119 113 122 130 134 133 136 139 135 134 131 108  27  48  72
 78  62  60  67  73  96 100 168 175  85 104  53  84  91  66  53  97 136 156 141
 62  50  55  59  58  72  58  28  24  29  23  31  51  39  22  52  93  94  98 103 112 117 119 123
125 128 130 133 134 135 136 137 138 138 138 138 137 137 138 136 133 117  90  83  87  89  92  92
 98 105 108 108 111 120 129 130 130 123 113 116 125 133 134 134 138 138 130 135  78  12  45  60
 75  43  56  60  54  68  92 123 192 157  45 117 134 102  53  63  84 160 148 162
 53  52  57  62  50  84  65  21  29  33   9  57  51  36  28  28  81 101  97  98 108 115 119 121
123 126 128 131 133 134 135 135 136 137 138 140 139 138 137 136 137 124  88  81  89  90  90  91
101 110 112 116 118 125 132 133 132 126 114 111 120 129 135 140 137 135 131 117  28  33  39  47
 66  50  59  70  86  88  69  97 163 131  75 155 141  78  68  90  54 128 165 151
 59  66  55  57  55  53  64  43  30  17  34  57  52  32  29  36  57  94  96  98 104 111 115 119
121 124 126 130 132 133 134 134 135 136 139 141 140 137 134 135 136 127 101  79  87  92  94  98
103 110 117 122 125 129 132 132 133 126 114 111 119 128 136 133 132 131 134  83   1  39  38  41
 55  48  65  80  88  87  74  64 124  97  83 123  18  59  91 132  74 156 202 173
 60  72  56  51  50  47  52  50  42  27  41  63  51  23  28  38  35  75  98  96 103 107 113 118
119 123 127 130 131 132 134 134 136 138 140 140 138 134 132 133 134 132 117  94  92  95 100 104
106 111 120 125 126 132 136 135 132 125 119 116 120 127 131 131 132 134 115  36  29  32  39  42
 50  55  66  69  65  64  89  84 109 113  39  34  26  72 134 122 121 178 179 179
 65  67  47  52  55  49  40  50  43  21  45  54  31  10  26  29  32  50  92  92  98 107 110 111
112 117 123 128 131 132 133 135 140 141 141 139 137 134 132 131 131 127 119 108  97  98 104 106
109 115 123 125 124 132 141 142 134 127 126 121 121 126 128 131 126 130  79   3  34  31  31  35
 58  79  74  61  66  67  79  93  91 122  89  28  36 103 135 133 145 137 142 116
 66  60  47  62  79  41  35  40  50  37  40  42  23  17  23  25  36  35  69  95  98 108 107 112
114 118 123 127 129 131 133 135 139 140 141 139 140 137 131 127 125 122 122 114 103 103 108 110
111 116 123 126 124 131 142 146 141 133 129 123 121 124 126 126 132 112  19  36  35  31  27  38
 65  75  70  64  69  73  75  88  85 108  90  38  57 118 133 133 134 126 102  66
 78  74  71  71  85  53  16  40  53  41  44  50  13  22  26  20  32  44  50  91 108 104 109 112
114 118 124 125 127 130 134 136 137 138 139 137 137 134 127 123 121 119 120 116 108 106 110 111
112 115 119 125 126 134 145 151 148 140 135 127 120 122 125 126 130  69  11  41  33  23  31  52
 60  64  62  60  62  71  79  80  96  83  48  83  43  71 106 114 105  88  66 111
 75  77  92  86  91  87  16  43  50  44  42  57   8  20  28  27  29  39  51  67  98 106 109 109
111 116 121 124 125 129 134 135 134 135 135 134 133 129 124 121 121 121 116 112 109 108 110 110
111 112 115 122 128 139 148 155 154 144 140 129 121 120 122 131  94   0  36  35  24  27  53  62
 56  61  68  66  66  72 109 103  82  64 104  91  76  37  72 104  75  84 113 130
 81  94  80  61  51  63  57  49  49  51  43  58  31   9  18  20  31  32  52  56  81 104 107 109
112 119 120 119 124 129 130 133 132 130 131 129 127 125 122 122 121 117 115 112 110 108 106 105
111 116 117 119 127 136 147 166 160 141 139 120 107 122 124  93  23  23  33  31  23  48  66  65
 65  57  75  78  65  77 112  94  50  86 114 107  85  96  78  55 102 120 124 124
 96  91  72  58  43  51  62  58  51  46  52  62  57   3   5  21  32  37  43  53  66  91 111 112
111 114 116 118 124 128 129 132 128 125 125 123 119 121 123 120 116 114 112 109 107 107 106 108
117 125 125 119 122 129 139 152 139 141 126 111 116 115  73   3  28  29  23  30  48  58  57  63
 57  61  64  67  76  94  96  79  53 101 109 108  90 109 119  98  96 122 126 118
 88  80  83  78  62  61  61  62  59  47  39  55  64  53  14  27  22  36  42  50  52  67  96 110
112 112 117 119 123 127 129 130 124 121 121 117 115 120 124 121 117 116 114 111 108 108 108 112
123 132 127 112 111 123 130 126 127 125 118 117  96  44  16  31  30  24  34  56  60  54  57  57
 57  66  76  85  90 102  84  75  64  75 108 117  96 104 116 121  85  81 120 128
 83  87  83  68  71  75  70  72  60  55  44  50  48  69  53   0  26  29  34  45  49  53  69  95
109 112 117 119 122 126 127 130 126 122 121 117 116 119 123 122 119 118 116 113 111 111 109 112
123 130 118  98  99 118 122 123 125 120 115  73   7  30  34  31  26  28  59  64  60  56  60  59
 60  70  85  88  83  93  76  83  88  70  77 106 115 100 107 108 114  86  70 113
 72  85  90 105 107  78  65  70  66  65  53  50  48  55  71  32   0  23  33  39  46  51  54  67
 89 100 109 114 122 128 129 131 127 120 118 113 109 105  99 106 119 120 119 116 111 112 112 113
122 124 106  90  95 123 133 124 107 103  58  22  40  36  28  21  39  58  58  61  59  63  61  66
 71  83  84  79  87  92  77  83  87  87  89  91 101 107 104  99 119 121  79 107
 73  75  85  95  82  69  72  71  68  64  51  55  58  50  62  57  25  14  18  29  38  45  48  54
 65  84  93 102 111 117 120 123 119 114 117 115 110 100  77  66  82  92 101 108 110 113 116 120
127 133 126 118 123 120 100  92 103  53  22  40  29  24  25  44  57  55  55  63  63  63  69  76
 85  78  78  87  91  82  76  82  79  79  88  95 100 106 116 113 108 101  90 110
 69  57  56  49  68  81  77  77  71  63  55  71  69  78  82  72  57  48  25  11  16  31  43  46
 47  58  85  94  94  97 102 109 111 114 119 120 120 114 107  92  74  73  73  75  77  77  81  88
 97 103 112 119 109  91  87 108  69  10  38  26  27  33  53  58  57  55  63  70  68  75  81  83
 79  81  91  92  84  79  79  79  72  69  77  84  94 103 110 114 113 106  97 112
 56  47  43  62  79  66  72  83  71  69  63  72  80  99  82 120  91  62  60  46  31  19  14  29
 43  41  55  79  92  96  90  89 103 109 110 109 116 113 111 108  96  87  82  80  84  79  77  79
 76  79  88  92 103  99 105  88   4  30  28  33  36  55  59  58  61  65  67  69  78  89  89  79
 84  89  79  74  79  79  80  75  69  65  69  76  86  96 100 110 112 112 115 118
 56  38  63  65  38  40  85  66  66  76  64  62  81  74  65  52 145 104  67  68  52  45  42  30
 22  28  29  40  70  97  98  83  88 100 102 103 105 107 111 111 108  99  89  84  87  87  92 103
110 109  99  98 103 106  95  35  42  51  52  55  57  57  63  62  63  74  86  89  89  85  80  76
 73  68  71  80  80  76  74  67  66  65  68  71  80  92  97 112 113 112 115 113
 55  51  43  27  43 102  78  42  83  74  66  74  80  87  70  37 129 104  71  75  66  61  59  55
 52  43  29  19  17  55  91 105  92  86 100 108 106 108 108 107 110 111 112 107  98  94  92  92
 96 101  95 103 115  95  53  49  57  59  62  54  58  45  63  75  79  86  96  92  83  72  63  63
 68  73  79  82  78  74  70  64  60  65  66  67  75  89 101 108 111 114 111 113
 56  72  47  53 107  91  54  81  79  46  43  87 106  77  68  66  47  68  74  77  79  77  72  66
 65  62  58  51  44  17  25  75  98 105  95  97 101 106 111 112 114 117 119 120 118 116 124 109
 98 115 124 119  88  51  57  61  57  62  69  74  77 108 110  88  96  83  76  72  66  65  68  73
 76  78  78  77  75  71  68  64  60  62  63  65  73  86  98 106 109 111 109 112
 85  71  70  93  92  47  59  82  56  19  57 107  69  64  71  65  66  73  71  78  83  80  76  77
 71  65  63  65  64  61  52  33  51  83  98 102 103 103 102 105 112 117 116 116 116 119 122 115
112 115 101  70  58  69  69  69  75  82  85  75  73  97  80  57  72  64  63  68  70  71  74  78
 79  79  77  73  69  67  65  63  61  61  62  63  71  84  97 106 109 113 111 114
106  76  82  77  56  72  85  75  13  35  82  60  27  59  75  74  61  64  76  78  79  79  78  77
 76  75  74  72  72  69  64  64  55  39  51  67  83  93  96  97 102 108 111 110 106  96  85  85
 85  73  68  78  81  79  86  89  90  79  59  23  47  71  63  54  64  69  78  77  77  78  77  76
 76  76  74  70  66  63  63  62  62  62  62  63  73  83  91 101 106 110 111 114
 88  90  74  66  66  71  92  65  48  64  55   8  28  67  86  73  28  40  49  54  58  65  69  73
 76  74  71  69  66  66  64  57  57  56  47  36  25  24  40  48  55  63  66  66  62  64  66  76
 77  74  77  77  76  75  64  51  43  36  30  36  59  78  68  72  78  80  83  79  79  78  77  75
 72  71  69  66  64  62  62  62  63  64  64  66  73  79  86  96 102 107 110 112
 77  85  81  80  68  73  90  59  66  75  52  48  28  65  89  73  26  35  29  18  10  22  34  39
 46  48  50  52  53  53  49  45  40  41  43  45  46  44  43  42  43  41  41  44  47  51  49  53
 48  42  38  26  22  26  34  38  42  54  49  36  58  78  77  78  81  83  83  82  78  77  75  74
 71  68  65  63  62  62  61  62  64  66  67  71  77  80  88  96 100 105 110 112
 72  82  84  87  81  86  83  58  60  92  73  64  61  75  92  79  20  28  34  33  32  26  20  25
 29  29  31  34  34  34  34  35  42  44  46  49  45  45  47  44  41  40  35  27  19  10  15   7
 30  37  28  48  56  54  58  61  60  61  50  40  60  82  83  82  83  84  83  79  76  74  73  71
 69  67  64  61  60  60  59  61  62  64  68  75  84  89  94  98 100 104 108 111
 76  69  84  87  85 104  91  61  62 103  85  61  69  92 101  80  69  61  41  43  39  32  25  23
 26  26  32  33  32  34  40  43  41  41  42  42  45  47  44  39  33  32  35  38  40  47  50  41
 58  62  57  61  64  65  64  68  71  71  57  45  62  82  84  83  83  82  79  75  73  72  70  68
 67  65  62  59  58  58  57  58  61  63  66  74  82  89  94  97  99 105 108 111
 77  71  68  89  82  98  90  61  68  87  79  71  72  86  95  83  75  81  76  69  62  58  57  54
 52  47  50  58  56  48  45  45  47  48  50  53  49  47  49  51  52  52  54  57  60  58  55  49
 70  66  64  66  69  72  72  77  79  74  59  50  62  80  81  82  83  80  75  72  71  70  68  66
 65  64  61  58  57  57  56  57  59  61  63  70  77  83  87  89  93 102 109 113
